<svg xmlns="http://www.w3.org/2000/svg" width="283" height="215" fill="none" viewBox="0 0 283 215"><path stroke="#d7dee4" stroke-width=".872" d="M112.276 55.524a8.78 8.78 0 0 1 8.779-8.779h17.389a5.15 5.15 0 0 0 5.149-5.149m31.363 13.928a8.78 8.78 0 0 0-8.779-8.779h-17.414a5.15 5.15 0 0 1-5.149-5.149"/><g filter="url(#a)"><rect width="259" height="80.499" x="11.628" y="121.522" fill="#fff" rx="3.721"/><mask id="b" fill="#fff"><path d="M15.349 133.243c0-2.8 0-4.2.545-5.27a5 5 0 0 1 2.185-2.185c1.07-.545 2.47-.545 5.27-.545h232.837c2.8 0 4.2 0 5.27.545a5 5 0 0 1 2.185 2.185c.545 1.07.545 2.47.545 5.27v14.093H15.349z"/></mask><path fill="#fbfbfb" d="M15.349 133.243c0-2.8 0-4.2.545-5.27a5 5 0 0 1 2.185-2.185c1.07-.545 2.47-.545 5.27-.545h232.837c2.8 0 4.2 0 5.27.545a5 5 0 0 1 2.185 2.185c.545 1.07.545 2.47.545 5.27v14.093H15.349z"/><path fill="#f2f4f7" d="M15.349 125.243h248.837zm248.837 22.675H15.349v-1.163h248.837zm-248.837-.582v-22.093zm248.837-22.093v22.093z" mask="url(#b)"/><circle cx="27.209" cy="136.095" r="2.326" fill="#eaecf0"/><circle cx="35.349" cy="136.095" r="2.326" fill="#eaecf0"/><circle cx="43.489" cy="136.095" r="2.326" fill="#eaecf0"/><path stroke="#d0d5dd" stroke-linecap="round" stroke-linejoin="round" stroke-width=".872" d="m256.323 140.1-1.998-1.998m0 0a3.512 3.512 0 1 0-4.967-4.97 3.512 3.512 0 0 0 4.967 4.97"/><rect width="251.558" height="19.668" x="15.349" y="154.313" fill="#fbfbfb" rx="2.474"/><path fill="#757bff" d="M19.273 161.647a2.5 2.5 0 0 1 2.5-2.5h5a2.5 2.5 0 0 1 2.5 2.5v5a2.5 2.5 0 0 1-2.5 2.5h-5a2.5 2.5 0 0 1-2.5-2.5z"/><path stroke="#fff" stroke-linecap="round" stroke-linejoin="round" stroke-width="1.042" d="m26.773 162.272-3.438 3.437-1.562-1.562"/><rect width="28.12" height="11.535" x="234.721" y="158.379" fill="#f4fdf8" rx="2.131"/><rect width="28.12" height="11.535" x="234.721" y="158.379" stroke="#2eb79f" stroke-width=".284" rx="2.131"/><path fill="#2eb79f" d="M243.31 165.911v.736h-3.328v-4.855h.859v4.119zm1.427-4.14v.764h-.778v-.764zm0 1.358v3.518h-.778v-3.518zm.628 0h.846l.9 2.707.866-2.707h.805l-1.262 3.525h-.873zm7.178 2.421a1.5 1.5 0 0 1-.566.893c-.286.218-.634.32-1.029.32q-.798 0-1.269-.511c-.314-.341-.464-.784-.464-1.323q-.002-.82.478-1.364c.32-.355.729-.539 1.227-.539q.77 0 1.221.532.45.53.45 1.439v.082h-2.598c.007.355.095.634.266.825.163.191.402.287.702.287q.316.001.518-.15c.137-.103.239-.266.321-.491zm-.729-.989c-.028-.294-.116-.525-.28-.696a.83.83 0 0 0-.621-.259.82.82 0 0 0-.62.245q-.235.248-.287.71z"/><g filter="url(#c)"><circle cx="256.633" cy="164.147" r="1.803" fill="#12b76a"/></g><rect width="251.558" height="19.668" x="15.349" y="178.632" fill="#fbfbfb" rx="2.474"/><path fill="#757bff" d="M19.273 185.966a2.5 2.5 0 0 1 2.5-2.5h5a2.5 2.5 0 0 1 2.5 2.5v5a2.5 2.5 0 0 1-2.5 2.5h-5a2.5 2.5 0 0 1-2.5-2.5z"/><path stroke="#fff" stroke-linecap="round" stroke-linejoin="round" stroke-width="1.042" d="m26.773 186.591-3.438 3.438-1.562-1.563"/><rect width="28.12" height="11.535" x="234.721" y="182.699" fill="#f4fdf8" rx="2.131"/><rect width="28.12" height="11.535" x="234.721" y="182.699" stroke="#2eb79f" stroke-width=".284" rx="2.131"/><path fill="#2eb79f" d="M243.31 190.23v.736h-3.328v-4.855h.859v4.119zm1.427-4.14v.764h-.778v-.764zm0 1.357v3.519h-.778v-3.519zm.628 0h.846l.9 2.708.866-2.708h.805l-1.262 3.526h-.873zm7.178 2.421a1.5 1.5 0 0 1-.566.894c-.286.218-.634.32-1.029.32q-.798 0-1.269-.511c-.314-.341-.464-.784-.464-1.323q-.002-.82.478-1.364c.32-.355.729-.539 1.227-.539q.77 0 1.221.532c.3.355.45.832.45 1.439v.082h-2.598c.007.354.095.634.266.825.163.191.402.286.702.286.212 0 .382-.047.518-.15.137-.102.239-.266.321-.491zm-.729-.988c-.028-.294-.116-.526-.28-.696a.82.82 0 0 0-.621-.259.82.82 0 0 0-.62.245q-.235.248-.287.71z"/><g filter="url(#d)"><circle cx="256.633" cy="188.466" r="1.803" fill="#12b76a"/></g></g><path stroke="#d7dee4" stroke-width=".872" d="M22.073 121.11v-7.993c0-7.706 6.247-13.953 13.954-13.953h94.46c7.109 0 12.872-5.763 12.872-12.873"/><path fill="url(#e)" fill-rule="evenodd" d="M24.614 106.532a12.4 12.4 0 0 1 10.958-6.602h8.157v-1.451H35.9a14.33 14.33 0 0 0-12.696 7.68l-.579 1.105a.709.709 0 0 0 1.254.66z" clip-rule="evenodd"/><path stroke="#d7dee4" stroke-width=".872" d="M264.065 121.11v-7.993c0-7.706-6.247-13.953-13.953-13.953h-93.88c-7.109 0-12.872-5.763-12.872-12.873M85.91 121.11v-7.993c0-7.706 6.246-13.953 13.953-13.953h30.625c7.109 0 12.872-5.763 12.872-12.873"/><path stroke="#d7dee4" stroke-width=".872" d="M200.812 121.11v-7.993c0-7.706-6.248-13.953-13.954-13.953h-30.625c-7.109 0-12.873-5.763-12.873-12.873"/><path fill="url(#f)" fill-rule="evenodd" d="M103.364 99.157c0-.321.26-.58.58-.58h14.207v1.16h-14.207a.58.58 0 0 1-.58-.58" clip-rule="evenodd"/><path fill="url(#g)" fill-rule="evenodd" d="M183.146 99.157a.58.58 0 0 0-.581-.58h-14.207v1.16h14.207a.58.58 0 0 0 .581-.58" clip-rule="evenodd"/><path fill="url(#h)" fill-rule="evenodd" d="M261.61 106.532a12.4 12.4 0 0 0-10.958-6.602h-8.157v-1.451h7.83a14.33 14.33 0 0 1 12.696 7.68l.58 1.105a.709.709 0 0 1-1.254.66z" clip-rule="evenodd"/><path stroke="#d7dee4" stroke-linecap="square" stroke-width=".872" d="M143.362 85.713V69.465"/><path fill="url(#i)" fill-rule="evenodd" d="M143.361 85.13c.32 0 .58-.26.58-.58V70.041h-1.161v14.507c0 .32.26.58.581.58" clip-rule="evenodd"/><path stroke="#d9d9d9" stroke-linecap="round" stroke-width=".872" d="M125.952 69.627h34.819"/><foreignObject width="31.809" height="31.809" x="96.12" y="54.024"><div xmlns="http://www.w3.org/1999/xhtml" style="backdrop-filter:blur(.24px);clip-path:url(#j);height:100%;width:100%"/></foreignObject><g data-figma-bg-blur-radius=".475" filter="url(#k)"><rect width="27.855" height="27.855" x="98.097" y="55.526" fill="#fff" fill-opacity=".3" rx="2.451" shape-rendering="crispEdges"/><rect width="27.855" height="27.855" x="98.097" y="55.526" stroke="url(#l)" stroke-opacity=".7" stroke-width=".154" rx="2.451" shape-rendering="crispEdges"/><g clip-path="url(#m)"><rect width="23.238" height="23.238" x="100.405" y="57.834" fill="#f2f4f7" rx="4.294"/><path fill="url(#n)" fill-opacity=".1" d="M100.405 68.568h22.986v12.63h-22.986z"/><path fill="#757bff" d="M115.244 61.412h-6.197c-2.711 0-3.873 1.55-3.873 3.873v3.463c0 .27.264.457.512.364a5 5 0 0 1 2.819-.24c2.014.403 3.618 2.06 3.951 4.082a5.03 5.03 0 0 1-.612 3.37.384.384 0 0 0 .333.58h3.067c2.711 0 3.873-1.549 3.873-3.873v-7.746c0-2.324-1.162-3.873-3.873-3.873m1.937 5.616h-1.549a2.13 2.13 0 0 1-2.131-2.13v-1.55c0-.317.264-.58.581-.58.318 0 .581.263.581.58v1.55c0 .534.434.968.969.968h1.549c.317 0 .581.263.581.581a.586.586 0 0 1-.581.581"/><path fill="#344054" d="M107.497 69.936a3.874 3.874 0 0 0-3.873 3.873 3.874 3.874 0 0 0 3.873 3.873 3.874 3.874 0 0 0 3.873-3.873 3.874 3.874 0 0 0-3.873-3.873m-.651 4.856a.51.51 0 0 1 0 .713.5.5 0 0 1-.356.147.5.5 0 0 1-.357-.147l-1.34-1.34a.51.51 0 0 1 0-.713l1.34-1.34a.51.51 0 0 1 .713 0 .51.51 0 0 1 0 .713l-.984.984zm3.346-.627-1.34 1.34a.5.5 0 0 1-.356.147.5.5 0 0 1-.356-.147.51.51 0 0 1 0-.713l.991-.983-.984-.984a.51.51 0 0 1 0-.713.51.51 0 0 1 .713 0l1.34 1.34a.517.517 0 0 1-.008.713"/></g><rect width="22.986" height="22.986" x="100.531" y="57.96" stroke="#f2f4f7" stroke-width=".253" rx="4.168"/></g><foreignObject width="31.809" height="31.809" x="158.792" y="54.024"><div xmlns="http://www.w3.org/1999/xhtml" style="backdrop-filter:blur(.24px);clip-path:url(#o);height:100%;width:100%"/></foreignObject><g data-figma-bg-blur-radius=".475" filter="url(#p)"><rect width="27.855" height="27.855" x="160.769" y="55.526" fill="#fff" fill-opacity=".3" rx="2.451" shape-rendering="crispEdges"/><rect width="27.855" height="27.855" x="160.769" y="55.526" stroke="url(#q)" stroke-opacity=".7" stroke-width=".154" rx="2.451" shape-rendering="crispEdges"/><g clip-path="url(#r)"><rect width="23.238" height="23.238" x="163.077" y="57.834" fill="#f2f4f7" rx="4.294"/><path fill="url(#s)" fill-opacity=".1" d="M163.077 68.568h22.986v12.63h-22.986z"/><path fill="#757bff" d="M177.471 75.402c-1.636.117-1.636 2.489 0 2.605h3.884c.472 0 .922-.17 1.271-.489 1.147-1 .535-3.015-.977-3.201-.542-3.271-5.279-2.031-4.155 1.085"/><path fill="#757bff" d="M177.471 75.402c-1.636.117-1.636 2.489 0 2.605h3.884c.472 0 .922-.17 1.271-.489 1.147-1 .535-3.015-.977-3.201-.542-3.271-5.279-2.031-4.155 1.085"/><path fill="#757bff" d="M182.447 68.712v3.31c0 .248-.395.357-.566.178a3.14 3.14 0 0 0-1.349-.829c-1.217-.38-2.62-.008-3.503.907a3.2 3.2 0 0 0-.876 2.147c0 .14-.07.264-.179.35-.558.441-.899 1.13-.899 1.922v.007c0 .249-.178.473-.426.473h-3.566c-2.279.008-4.14-1.852-4.14-4.14v-7.93a3.43 3.43 0 0 1 3.427-3.426h1.798c1.264 0 1.659.411 2.163 1.085l1.085 1.442c.241.318.272.357.721.357h2.163a4.145 4.145 0 0 1 3.946 2.884c.116.348.178.705.193 1.085.008.054.008.124.008.178"/></g><rect width="22.986" height="22.986" x="163.203" y="57.96" stroke="#f2f4f7" stroke-width=".253" rx="4.168"/></g><g filter="url(#t)"><rect width="31.917" height="31.917" fill="url(#u)" rx="4.92" transform="matrix(1 0 0 -1 127.69 40.432)"/><rect width="33.393" height="33.393" x="-.738" y=".738" stroke="#fff" stroke-opacity=".85" stroke-width="1.476" rx="5.657" transform="matrix(1 0 0 -1 127.69 41.908)"/></g><defs><linearGradient id="e" x1="43.439" x2="20.807" y1="103.267" y2="103.267" gradientUnits="userSpaceOnUse"><stop stop-color="#53b1fd" stop-opacity=".03"/><stop offset="1" stop-color="#757bff"/></linearGradient><linearGradient id="f" x1="118.151" x2="103.364" y1="98.924" y2="98.924" gradientUnits="userSpaceOnUse"><stop stop-color="#53b1fd" stop-opacity=".03"/><stop offset="1" stop-color="#757bff"/></linearGradient><linearGradient id="g" x1="168.358" x2="183.146" y1="98.924" y2="98.924" gradientUnits="userSpaceOnUse"><stop stop-color="#53b1fd" stop-opacity=".03"/><stop offset="1" stop-color="#757bff"/></linearGradient><linearGradient id="h" x1="242.785" x2="265.418" y1="103.267" y2="103.267" gradientUnits="userSpaceOnUse"><stop stop-color="#53b1fd" stop-opacity=".03"/><stop offset="1" stop-color="#757bff"/></linearGradient><linearGradient id="i" x1="143.593" x2="143.593" y1="70.041" y2="85.13" gradientUnits="userSpaceOnUse"><stop stop-color="#53b1fd" stop-opacity=".03"/><stop offset="1" stop-color="#757bff"/></linearGradient><linearGradient id="l" x1="112.024" x2="112.024" y1="55.526" y2="83.381" gradientUnits="userSpaceOnUse"><stop stop-color="#fff"/><stop offset=".52" stop-color="#c5d0de"/><stop offset="1" stop-color="#fff"/></linearGradient><linearGradient id="n" x1="111.898" x2="111.898" y1="68.568" y2="81.198" gradientUnits="userSpaceOnUse"><stop stop-color="#fff"/><stop offset="1" stop-color="#fff" stop-opacity=".67"/></linearGradient><linearGradient id="q" x1="174.696" x2="174.696" y1="55.526" y2="83.381" gradientUnits="userSpaceOnUse"><stop stop-color="#fff"/><stop offset=".52" stop-color="#c5d0de"/><stop offset="1" stop-color="#fff"/></linearGradient><linearGradient id="s" x1="174.57" x2="174.57" y1="68.568" y2="81.198" gradientUnits="userSpaceOnUse"><stop stop-color="#fff"/><stop offset="1" stop-color="#fff" stop-opacity=".67"/></linearGradient><filter id="a" width="282.256" height="103.755" x="0" y="111.057" color-interpolation-filters="sRGB" filterUnits="userSpaceOnUse"><feFlood flood-opacity="0" result="BackgroundImageFix"/><feColorMatrix in="SourceAlpha" result="hardAlpha" values="0 0 0 0 0 0 0 0 0 0 0 0 0 0 0 0 0 0 127 0"/><feOffset dy="1.163"/><feGaussianBlur stdDeviation="5.814"/><feComposite in2="hardAlpha" operator="out"/><feColorMatrix values="0 0 0 0 0 0 0 0 0 0 0 0 0 0 0 0 0 0 0.08 0"/><feBlend in2="BackgroundImageFix" result="effect1_dropShadow_107_21047"/><feBlend in="SourceGraphic" in2="effect1_dropShadow_107_21047" result="shape"/></filter><filter id="c" width="9.016" height="9.016" x="252.125" y="159.639" color-interpolation-filters="sRGB" filterUnits="userSpaceOnUse"><feFlood flood-opacity="0" result="BackgroundImageFix"/><feColorMatrix in="SourceAlpha" result="hardAlpha" values="0 0 0 0 0 0 0 0 0 0 0 0 0 0 0 0 0 0 127 0"/><feMorphology in="SourceAlpha" operator="dilate" radius=".902" result="effect1_dropShadow_107_21047"/><feOffset/><feGaussianBlur stdDeviation=".902"/><feComposite in2="hardAlpha" operator="out"/><feColorMatrix values="0 0 0 0 0.196078 0 0 0 0 0.835294 0 0 0 0 0.513726 0 0 0 0.3 0"/><feBlend in2="BackgroundImageFix" result="effect1_dropShadow_107_21047"/><feBlend in="SourceGraphic" in2="effect1_dropShadow_107_21047" result="shape"/></filter><filter id="d" width="9.016" height="9.016" x="252.125" y="183.958" color-interpolation-filters="sRGB" filterUnits="userSpaceOnUse"><feFlood flood-opacity="0" result="BackgroundImageFix"/><feColorMatrix in="SourceAlpha" result="hardAlpha" values="0 0 0 0 0 0 0 0 0 0 0 0 0 0 0 0 0 0 127 0"/><feMorphology in="SourceAlpha" operator="dilate" radius=".902" result="effect1_dropShadow_107_21047"/><feOffset/><feGaussianBlur stdDeviation=".902"/><feComposite in2="hardAlpha" operator="out"/><feColorMatrix values="0 0 0 0 0.196078 0 0 0 0 0.835294 0 0 0 0 0.513726 0 0 0 0.3 0"/><feBlend in2="BackgroundImageFix" result="effect1_dropShadow_107_21047"/><feBlend in="SourceGraphic" in2="effect1_dropShadow_107_21047" result="shape"/></filter><filter id="k" width="31.809" height="31.809" x="96.12" y="54.024" color-interpolation-filters="sRGB" filterUnits="userSpaceOnUse"><feFlood flood-opacity="0" result="BackgroundImageFix"/><feColorMatrix in="SourceAlpha" result="hardAlpha" values="0 0 0 0 0 0 0 0 0 0 0 0 0 0 0 0 0 0 127 0"/><feOffset dy=".475"/><feGaussianBlur stdDeviation=".95"/><feComposite in2="hardAlpha" operator="out"/><feColorMatrix values="0 0 0 0 0.710156 0 0 0 0 0.710156 0 0 0 0 0.710156 0 0 0 0.25 0"/><feBlend in2="BackgroundImageFix" result="effect1_dropShadow_107_21047"/><feBlend in="SourceGraphic" in2="effect1_dropShadow_107_21047" result="shape"/></filter><filter id="p" width="31.809" height="31.809" x="158.792" y="54.024" color-interpolation-filters="sRGB" filterUnits="userSpaceOnUse"><feFlood flood-opacity="0" result="BackgroundImageFix"/><feColorMatrix in="SourceAlpha" result="hardAlpha" values="0 0 0 0 0 0 0 0 0 0 0 0 0 0 0 0 0 0 127 0"/><feOffset dy=".475"/><feGaussianBlur stdDeviation=".95"/><feComposite in2="hardAlpha" operator="out"/><feColorMatrix values="0 0 0 0 0.710156 0 0 0 0 0.710156 0 0 0 0 0.710156 0 0 0 0.25 0"/><feBlend in2="BackgroundImageFix" result="effect1_dropShadow_107_21047"/><feBlend in="SourceGraphic" in2="effect1_dropShadow_107_21047" result="shape"/></filter><filter id="t" width="44.294" height="44.294" x="121.502" y="0" color-interpolation-filters="sRGB" filterUnits="userSpaceOnUse"><feFlood flood-opacity="0" result="BackgroundImageFix"/><feColorMatrix in="SourceAlpha" result="hardAlpha" values="0 0 0 0 0 0 0 0 0 0 0 0 0 0 0 0 0 0 127 0"/><feMorphology in="SourceAlpha" radius="1.163" result="effect1_dropShadow_107_21047"/><feOffset dy="-2.327"/><feGaussianBlur stdDeviation="2.938"/><feColorMatrix values="0 0 0 0 0.480908 0 0 0 0 0.709689 0 0 0 0 0.971154 0 0 0 0.38 0"/><feBlend in2="BackgroundImageFix" result="effect1_dropShadow_107_21047"/><feBlend in="SourceGraphic" in2="effect1_dropShadow_107_21047" result="shape"/></filter><clipPath id="j" transform="translate(-96.12 -54.024)"><rect width="27.855" height="27.855" x="98.097" y="55.526" rx="2.451"/></clipPath><clipPath id="o" transform="translate(-158.792 -54.024)"><rect width="27.855" height="27.855" x="160.769" y="55.526" rx="2.451"/></clipPath><clipPath id="m"><rect width="23.238" height="23.238" x="100.405" y="57.834" fill="#fff" rx="4.294"/></clipPath><clipPath id="r"><rect width="23.238" height="23.238" x="163.077" y="57.834" fill="#fff" rx="4.294"/></clipPath><radialGradient id="u" cx="0" cy="0" r="1" gradientTransform="matrix(31.0278 -11.8239 11.8239 59.6356 16.796 15.959)" gradientUnits="userSpaceOnUse"><stop stop-color="#757bff"/><stop offset="1" stop-color="#fff"/></radialGradient></defs></svg>