<svg xmlns="http://www.w3.org/2000/svg" width="40" height="40" fill="none" viewBox="0 0 40 40"><circle cx="20" cy="20" r="20" fill="#fff"/><circle cx="20.001" cy="20" r="18.095" fill="#f2f0f2"/><mask id="a" width="38" height="38" x="1" y="1" maskUnits="userSpaceOnUse" style="mask-type:alpha"><circle cx="20.002" cy="20" r="18.095" fill="#fcfcfc"/></mask><g mask="url(#a)"><path fill="#d90026" d="M7.78 34.024h24.881v4.524H7.78z"/><path fill="#d90026" d="M7.78 34.024h24.881v4.524H7.78zm-5.426-9.047h35.738v4.524H2.354z"/><path fill="#d90026" d="M2.354 24.977h35.738v4.524H2.354zm0-9.5h35.738v4.524H2.354z"/><path fill="#d90026" d="M2.354 15.477h35.738v4.524H2.354zm0-9.048h35.738v4.524H2.354z"/><path fill="#d90026" d="M2.354 6.429h35.738v4.524H2.354z"/><path fill="#0052b5" d="M1.906 1.905h18.548V20H1.906z"/><path fill="#efefef" d="m16.838 17.06-1.357.68.453-1.358-.905-.905h1.357l.452-1.357.679 1.357h1.13l-.904.905.453 1.357zm-6.342 0-1.358.68.453-1.358-.905-.905h1.357l.453-1.357.678 1.357h1.131l-.905.905.453 1.357zm-6.332 0-1.358.68.453-1.358-.905-.905h1.357l.453-1.357.678 1.357h1.131l-.905.905.453 1.357zm12.674-4.975-1.357.678.453-1.357-.905-.905h1.357l.452-1.357.679 1.357h1.13l-.904.905.453 1.357zm0-4.979-1.357.68.453-1.358-.905-.905h1.357l.452-1.357.679 1.357h1.13l-.904.905.453 1.357zm0-4.976-1.357.679.453-1.357-.905-.905h1.357l.452-1.357.679 1.357h1.13l-.904.905.453 1.357zm-6.342 4.976-1.358.68.453-1.358-.905-.905h1.357l.453-1.357.678 1.357h1.131l-.905.905.453 1.357zm0 4.979-1.358.678.453-1.357-.905-.905h1.357l.453-1.357.678 1.357h1.131l-.905.905.453 1.357zm-6.332 0-1.358.678.453-1.357-.905-.905h1.357l.453-1.357.678 1.357h1.131l-.905.905.453 1.357z"/></g></svg>