<svg xmlns="http://www.w3.org/2000/svg" width="40" height="40" fill="none" viewBox="0 0 40 40"><circle cx="20" cy="20" r="20" fill="#fff"/><path fill="#f8f8f8" d="M23.498 2.63H16.47C9.616 4.048 4.17 9.483 2.763 16.454v7.089c1.405 6.97 6.853 12.406 13.706 13.824h7.03c6.91-1.418 12.3-6.912 13.706-13.824v-7.089C35.799 9.484 30.35 4.048 23.498 2.63"/><path fill="#ce1124" d="M37.077 24.135c.32-1.355.482-2.743.48-4.135 0-1.424-.166-2.809-.48-4.136H24.086V2.762a17.5 17.5 0 0 0-4.1-.485c-1.412 0-2.785.168-4.1.485v13.102H2.893A18 18 0 0 0 2.414 20c0 1.423.165 2.808.48 4.135h12.991v13.102c1.343.323 2.72.486 4.1.485 1.412 0 2.785-.168 4.1-.485V24.135z"/></svg>