<svg xmlns="http://www.w3.org/2000/svg" width="40" height="40" fill="none" viewBox="0 0 40 40"><circle cx="20" cy="20" r="20" fill="#fff"/><g clip-path="url(#a)"><path fill="#0052b4" d="M37.932 20c0 9.903-8.028 17.931-17.93 17.931-9.904 0-17.932-8.028-17.932-17.93 0 .004 17.931-17.93 17.931-17.932 9.903 0 17.931 8.028 17.931 17.931"/><path fill="#f0f0f0" d="M19.954 20h.048v-.048zm.047-8.575V2.069h-.003C10.097 2.071 2.07 10.1 2.07 20h9.356v-5.268L16.694 20h3.26l.047-.048v-3.26l-5.268-5.267z"/><path fill="#d80027" d="M11.142 4.408a18 18 0 0 0-6.733 6.732V20h4.678V9.085H20V4.408z"/><path fill="#d80027" d="m20.001 17.795-6.37-6.37h-2.205L20 20z"/><path fill="#f0f0f0" d="m12.885 23.119.984 2.057 2.222-.513-.995 2.052 1.787 1.417-2.225.502.006 2.28-1.78-1.426-1.779 1.427.006-2.281-2.225-.502 1.787-1.417-.995-2.052 2.222.513zm16.032 3.898.492 1.029 1.11-.257-.497 1.026.894.709-1.113.25.003 1.141-.89-.713-.89.713.004-1.14-1.113-.251.894-.709-.498-1.026 1.111.257zm-4.578-10.915.492 1.029 1.111-.257-.497 1.026.893.709-1.112.25.003 1.141-.89-.713-.89.713.003-1.14-1.112-.251.893-.709-.497-1.026 1.111.257zm4.578-6.236.492 1.029 1.11-.257-.497 1.026.894.709-1.113.25.003 1.14-.89-.713-.89.714.004-1.14-1.113-.251.894-.709-.498-1.026 1.111.257zm3.998 4.678.492 1.029 1.111-.257-.497 1.026.893.709-1.112.25.003 1.141-.89-.713-.89.713.004-1.14-1.113-.251.894-.709-.498-1.026 1.111.257zM30.056 20l.387 1.192h1.252l-1.013.736.387 1.19-1.013-.735-1.013.736.387-1.191-1.014-.736h1.253z"/></g><defs><clipPath id="a"><path fill="#fff" d="M2.07 2.07h35.862v35.86H2.07z"/></clipPath></defs></svg>