<svg width="40" height="40" viewBox="0 0 40 40" fill="none" xmlns="http://www.w3.org/2000/svg">
<circle cx="20" cy="20" r="20" fill="white"/>
<g clip-path="url(#clip0_101_14209)">
<path d="M37.9324 20.0004C37.9324 29.9033 29.9043 37.9314 20.0013 37.9314C10.0984 37.9314 2.07031 29.9033 2.07031 20.0004C2.07031 20.0046 20.0013 2.07137 20.0013 2.06934C29.9043 2.06934 37.9324 10.0974 37.9324 20.0004Z" fill="#0052B4"/>
<path d="M19.9536 19.9996H20.0016C20.0016 19.9834 20.0016 19.9678 20.0016 19.9517C19.9856 19.9677 19.9697 19.9837 19.9536 19.9996Z" fill="#F0F0F0"/>
<path d="M20.0013 11.4246C20.0013 8.26955 20.0013 6.20209 20.0013 2.06934H19.9983C10.0967 2.07095 2.07031 10.0982 2.07031 20.0003H11.4256V14.7322L16.6937 20.0003H19.9534C19.9695 19.9843 19.9854 19.9684 20.0014 19.9523C20.0014 18.7443 20.0014 17.6664 20.0014 16.6928L14.7333 11.4246H20.0013Z" fill="#F0F0F0"/>
<path d="M11.142 4.40771C8.33755 6.00463 6.00609 8.33608 4.40918 11.1405V19.9999H9.08687V9.08547V9.0854H20.0014C20.0014 7.61009 20.0014 6.2046 20.0014 4.40771H11.142Z" fill="#D80027"/>
<path d="M20.0014 17.7949L13.6308 11.4243H11.4258C11.4258 11.4243 11.4258 11.4243 11.4258 11.4243L20.0014 19.9999H20.0014C20.0014 19.9999 20.0014 18.4796 20.0014 17.7949Z" fill="#D80027"/>
<path d="M12.8845 23.1187L13.8686 25.1764L16.0909 24.6628L15.0957 26.7152L16.8828 28.1323L14.6577 28.6338L14.6639 30.9147L12.8845 29.4877L11.1051 30.9147L11.1114 28.6338L8.88623 28.1323L10.6734 26.7152L9.67807 24.6628L11.9005 25.1764L12.8845 23.1187Z" fill="#F0F0F0"/>
<path d="M28.9166 27.0171L29.4086 28.046L30.5198 27.7891L30.0221 28.8153L30.9157 29.5239L29.8032 29.7747L29.8063 30.9151L28.9166 30.2016L28.0269 30.9151L28.03 29.7747L26.9175 29.5239L27.811 28.8153L27.3134 27.7891L28.4245 28.046L28.9166 27.0171Z" fill="#F0F0F0"/>
<path d="M24.339 16.1021L24.831 17.131L25.9422 16.8741L25.4446 17.9003L26.3381 18.6089L25.2256 18.8596L25.2286 20.0001L24.339 19.2866L23.4493 20.0001L23.4523 18.8596L22.3398 18.6089L23.2334 17.9003L22.7358 16.8741L23.847 17.131L24.339 16.1021Z" fill="#F0F0F0"/>
<path d="M28.9166 9.86572L29.4086 10.8947L30.5198 10.6378L30.0222 11.664L30.9157 12.3726L29.8032 12.6234L29.8063 13.7638L28.9166 13.0503L28.0269 13.7638L28.03 12.6234L26.9175 12.3726L27.8109 11.664L27.3134 10.6378L28.4245 10.8947L28.9166 9.86572Z" fill="#F0F0F0"/>
<path d="M32.9152 14.5439L33.4072 15.5729L34.5183 15.316L34.0207 16.3422L34.9143 17.0508L33.8017 17.3016L33.8048 18.442L32.9152 17.7285L32.0255 18.442L32.0285 17.3016L30.916 17.0508L31.8096 16.3422L31.312 15.316L32.4231 15.5729L32.9152 14.5439Z" fill="#F0F0F0"/>
<path d="M30.056 20.0005L30.443 21.1916H31.6955L30.6822 21.9279L31.0693 23.1189L30.056 22.3828L29.0428 23.1189L29.4297 21.9279L28.4165 21.1916H29.6689L30.056 20.0005Z" fill="#F0F0F0"/>
</g>
<defs>
<clipPath id="clip0_101_14209">
<rect width="35.8621" height="35.8621" fill="white" transform="translate(2.07031 2.06934)"/>
</clipPath>
</defs>
</svg>
