<svg xmlns="http://www.w3.org/2000/svg" width="40" height="40" fill="none" viewBox="0 0 40 40"><ellipse cx="19.998" cy="20" fill="#fff" rx="19.998" ry="20"/><path fill="#f9f9f9" d="M29.61 4.557a17.8 17.8 0 0 0-9.44-2.69 17.8 17.8 0 0 0-9.439 2.69V34.21a17.8 17.8 0 0 0 9.44 2.69 17.8 17.8 0 0 0 9.44-2.69z"/><path fill="#d90026" d="M29.607 4.557V34.21c4.956-3.042 8.26-8.657 8.26-14.856 0-6.2-3.304-11.698-8.26-14.797m-18.883 0c-4.956 3.1-8.26 8.714-8.26 14.855 0 6.142 3.304 11.756 8.26 14.856zM26.6 19.179c-.236-.117-.295-.351-.236-.468l.59-2.105-2.065.409c-.06 0-.295 0-.354-.41l-.177-.701-1.416 1.637s-.944.995-.65-.526l.59-3.217-1.12.585c-.06 0-.295.059-.59-.526l-1.003-2.047-1.062 1.93c-.295.585-.531.526-.59.526l-1.121-.585.59 3.217c.295 1.52-.65.526-.65.526l-1.415-1.637-.177.701c-.118.41-.295.41-.354.41l-2.065-.41.59 2.106c0 .175 0 .351-.236.468l-.59.35s2.36 1.873 3.127 2.516c.177.117.53.468.413.877l-.295.819 3.245-.468c.177 0 .53 0 .472.526l-.177 3.334h.59l-.177-3.334c0-.526.354-.526.472-.526l3.245.468-.295-.819c-.118-.41.236-.76.413-.877.767-.643 3.127-2.515 3.127-2.515z"/></svg>