<svg xmlns="http://www.w3.org/2000/svg" width="40" height="40" fill="none" viewBox="0 0 40 40"><circle cx="20" cy="20" r="20" fill="#fff"/><g clip-path="url(#a)"><path fill="#f0f0f0" d="M20.083 38.095c9.946 0 18.009-8.062 18.009-18.008S30.029 2.078 20.082 2.078c-9.945 0-18.008 8.063-18.008 18.009s8.063 18.008 18.009 18.008"/><path fill="#070127" d="M7.349 32.821c-7.033-7.033-7.033-18.435 0-25.468l10.385 12.734z"/><path fill="#ffda44" d="M17.734 20.086 4.463 11.118a18 18 0 0 0-1.086 2.235l6.719 6.734-6.719 6.734q.468 1.16 1.085 2.233z"/><path fill="#6da544" d="M37.939 17.738H17.733L7.35 7.353a18 18 0 0 0-2.886 3.766l8.95 8.968-8.951 8.967a18 18 0 0 0 2.887 3.767l10.384-10.385H37.94a18.2 18.2 0 0 0 0-4.698"/><path fill="#0052b4" d="M9.119 34.373a17.93 17.93 0 0 0 10.964 3.723c8.32 0 15.322-5.643 17.388-13.31H18.707z"/><path fill="#d80027" d="M37.471 15.389c-2.066-7.668-9.067-13.31-17.388-13.31A17.93 17.93 0 0 0 9.119 5.8l9.587 9.588z"/></g><defs><clipPath id="a"><path fill="#fff" d="M2.074 2.078h36.017v36.017H2.074z"/></clipPath></defs></svg>