<svg xmlns="http://www.w3.org/2000/svg" width="40" height="40" fill="none" viewBox="0 0 40 40"><path fill="#fff" d="M20 0c11.046 0 20 8.954 20 20s-8.954 20-20 20S0 31.046 0 20 8.954 0 20 0"/><path fill="#6ea644" d="M38.109 19.98c0 10.014-8.12 18.133-18.134 18.133S1.842 29.994 1.842 19.98c0-10.015 8.118-18.134 18.133-18.134S38.108 9.965 38.108 19.98"/><path fill="#ffdb44" d="m20.429 9.1 14.96 10.88-14.96 10.88-14.96-10.88z"/><path fill="#0051b5" d="M26.775 19.98a6.347 6.347 0 1 1-12.693 0 6.347 6.347 0 0 1 12.693 0"/><path fill="#fff" d="M14.693 17.26a6.3 6.3 0 0 0-.611 2.72c6.528-1.088 10.313 2.115 11.39 3.853a6.3 6.3 0 0 0 1.239-2.947c-3.627-3.626-9.523-3.929-12.018-3.626"/></svg>