<svg width="40" height="40" viewBox="0 0 40 40" fill="none" xmlns="http://www.w3.org/2000/svg">
<path d="M20 0C31.0457 0 39.9999 8.95432 40 20C40 31.0458 31.0457 40 20 40C8.9543 40 0 31.0457 0 20C8.76179e-05 8.95433 8.95436 1.6494e-05 20 0Z" fill="white"/>
<path d="M38.1085 19.9796C38.1085 29.9944 29.9899 38.113 19.9752 38.113C9.96038 38.113 1.8418 29.9944 1.8418 19.9796C1.8418 9.9648 9.96038 1.84619 19.9752 1.84619C29.9899 1.84619 38.1085 9.9648 38.1085 19.9796Z" fill="#6EA644"/>
<path d="M20.4285 9.09956L35.3885 19.9796L20.4285 30.8597L5.46847 19.9796L20.4285 9.09956Z" fill="#FFDB44"/>
<path d="M26.7752 19.9796C26.7752 23.4848 23.9337 26.3263 20.4285 26.3263C16.9233 26.3263 14.0818 23.4848 14.0818 19.9796C14.0818 16.4744 16.9233 13.6329 20.4285 13.6329C23.9337 13.6329 26.7752 16.4744 26.7752 19.9796Z" fill="#0051B5"/>
<path d="M14.6926 17.2596C14.3009 18.084 14.0818 19.0062 14.0818 19.9796C20.6098 18.8916 24.3952 22.0952 25.4719 23.833C26.1158 22.9915 26.5538 21.9842 26.7109 20.8863C23.0842 17.2596 17.1876 16.9574 14.6926 17.2596Z" fill="white"/>
</svg>
