<svg xmlns="http://www.w3.org/2000/svg" width="40" height="40" fill="none" viewBox="0 0 40 40"><g clip-path="url(#a)"><path fill="#ffda44" d="M1.244 26.958C4.07 34.574 11.401 40.002 20 40.002s15.93-5.428 18.756-13.044L20 25.22z"/><path fill="#000" d="M20 .001C11.4.001 4.07 5.43 1.244 13.045L20 14.784l18.756-1.74C35.93 5.43 28.6.002 20 .002"/><path fill="#d80027" d="M1.244 13.043A20 20 0 0 0 0 20c0 2.446.44 4.79 1.244 6.956h37.512A20 20 0 0 0 40 20c0-2.447-.44-4.79-1.244-6.957z"/></g><rect width="38.3" height="38.3" x=".85" y=".85" stroke="#fff" stroke-width="1.7" rx="19.15"/><defs><clipPath id="a"><rect width="40" height="40" fill="#fff" rx="20"/></clipPath></defs></svg>