<svg width="40" height="40" viewBox="0 0 40 40" fill="none" xmlns="http://www.w3.org/2000/svg">
<g clip-path="url(#clip0_101_14228)">
<path d="M20 40C31.0457 40 40 31.0457 40 20C40 8.9543 31.0457 0 20 0C8.9543 0 0 8.9543 0 20C0 31.0457 8.9543 40 20 40Z" fill="#496E2D"/>
<path d="M20 26C23.3137 26 26 23.3137 26 20C26 16.6863 23.3137 14 20 14C16.6863 14 14 16.6863 14 20C14 23.3137 16.6863 26 20 26Z" fill="#D80027"/>
</g>
<rect x="0.85" y="0.85" width="38.3" height="38.3" rx="19.15" stroke="white" stroke-width="1.7"/>
<defs>
<clipPath id="clip0_101_14228">
<rect width="40" height="40" rx="20" fill="white"/>
</clipPath>
</defs>
</svg>
