<svg xmlns="http://www.w3.org/2000/svg" fill="none" viewBox="112 37 380 376"><g clip-path="url(#a)"><g filter="url(#b)"><rect width="183.3" height="36.7" x="210.4" y="114.3" fill="#f1f1f1" rx="9.2"/><rect width="182.1" height="35.5" x="210.9" y="114.8" stroke="url(#c)" stroke-width="1.1" rx="8.6"/></g><g filter="url(#d)"><rect width="183.3" height="36.7" x="210.4" y="259.4" fill="#f1f1f1" rx="9.2"/><rect width="182.1" height="35.5" x="210.9" y="259.9" stroke="url(#e)" stroke-width="1.1" rx="8.6"/></g><g filter="url(#f)"><path fill="#f1f1f1" d="M186.7 151c0-8.6 0-12.9 1.7-16.2a15 15 0 0 1 6.6-6.6c3.3-1.7 7.6-1.7 16.1-1.7h182.5c8.6 0 12.9 0 16.1 1.7a15 15 0 0 1 6.7 6.6c1.7 3.3 1.7 7.6 1.7 16.1v108.5c0 8.5 0 12.8-1.7 16a15 15 0 0 1-6.7 6.7c-3.2 1.7-7.5 1.7-16 1.7H211c-8.5 0-12.8 0-16-1.7a15 15 0 0 1-6.7-6.6c-1.7-3.3-1.7-7.6-1.7-16.1z"/><path stroke="url(#g)" stroke-width="1.1" d="M211.1 127h182.5q6.4 0 10 .3t5.9 1.4a15 15 0 0 1 6.4 6.4q1.1 2.2 1.4 5.8.3 3.7.2 10v108.5q0 6.2-.2 10-.2 3.6-1.4 5.8a15 15 0 0 1-6.4 6.4q-2.3 1.1-5.9 1.4t-10 .2H211.1q-6.3 0-10-.2t-5.8-1.4a15 15 0 0 1-6.4-6.4q-1.2-2.1-1.4-5.9-.2-3.6-.2-10V151q0-6.3.2-10t1.4-5.8a15 15 0 0 1 6.4-6.4q2.2-1.2 5.8-1.4 3.7-.2 10-.2Z"/></g><rect width="67.2" height="30.5" x="338.7" y="204.4" fill="#fdfdfd" rx="6.1"/><rect width="30.5" height="27.5" x="340.2" y="205.9" fill="#e2e2e2" fill-opacity=".5" rx="4.6"/><rect width="12.2" height="3.1" x="376.8" y="212" fill="#727272" opacity=".2" rx="1.5"/><rect width="22.9" height="3.1" x="376.8" y="218.1" fill="#727272" opacity=".1" rx="1.5"/><rect width="22.9" height="3.1" x="376.8" y="224.2" fill="#727272" opacity=".1" rx="1.5"/><g filter="url(#h)"><rect width="67.2" height="30.5" x="338.7" y="167.7" fill="#fdfdfd" rx="6.1"/><rect width="12.2" height="3.1" x="344.8" y="175.4" fill="#727272" opacity=".2" rx="1.5"/><rect width="22.9" height="3.1" x="344.8" y="181.5" fill="#727272" opacity=".1" rx="1.5"/><rect width="22.9" height="3.1" x="344.8" y="187.6" fill="#727272" opacity=".1" rx="1.5"/><rect width="30.5" height="27.5" x="373.8" y="169.3" fill="#e2e2e2" fill-opacity=".5" rx="4.6"/></g><mask id="i" fill="#fff"><path d="M186.7 151c0-8.6 0-12.9 1.7-16.2a15 15 0 0 1 6.6-6.6c3.3-1.7 7.6-1.7 16.1-1.7h182.5c8.6 0 12.9 0 16.1 1.7a15 15 0 0 1 6.7 6.6c1.7 3.3 1.7 7.6 1.7 16.1v4.6H186.7z"/></mask><path fill="#fdfdfd" fill-opacity=".5" d="M186.7 151c0-8.6 0-12.9 1.7-16.2a15 15 0 0 1 6.6-6.6c3.3-1.7 7.6-1.7 16.1-1.7h182.5c8.6 0 12.9 0 16.1 1.7a15 15 0 0 1 6.7 6.6c1.7 3.3 1.7 7.6 1.7 16.1v4.6H186.7z"/><path fill="#a8a8a8" fill-opacity=".1" d="M186.7 126.5H418zM418 156.3H186.7v-1.6H418zm-231.4-.8v-29zm231.4-29v29z" mask="url(#i)"/><circle cx="202" cy="141" r="3.1" fill="#e2e2e2"/><circle cx="212.7" cy="141" r="3.1" fill="#e2e2e2"/><circle cx="223.3" cy="141" r="3.1" fill="#e2e2e2"/><path stroke="#a8a8a8" stroke-linecap="round" stroke-linejoin="round" stroke-width="1.1" d="m406.5 146.3-2.6-2.7m0 0a4.6 4.6 0 1 0-6.5-6.5 4.6 4.6 0 0 0 6.5 6.5"/><g filter="url(#j)" opacity=".5" style="mix-blend-mode:multiply"><rect width="115.3" height="142.8" x="205" y="192.2" fill="#000" fill-opacity=".3" rx="12.2"/></g><foreignObject width="176.4" height="195.5" x="174.5" y="143.3"><div xmlns="http://www.w3.org/1999/xhtml" clip-path="url(#k)" style="backdrop-filter:blur(12.22px);height:100%;width:100%"/></foreignObject><path fill="url(#l)" fill-opacity=".8" stroke="url(#m)" stroke-width="1.1" d="M233.1 168.3h59.1q8.9 0 14 .3 5.2.4 8.3 2a21 21 0 0 1 9.1 9c1.1 2.3 1.7 4.8 2 8.3s.3 8 .3 14v78.2q0 8.9-.3 14-.4 5.2-2 8.3a21 21 0 0 1-9.1 9.1 22 22 0 0 1-8.3 2q-5.1.4-14 .3h-59q-8.9 0-14-.3-5.2-.4-8.4-2a21 21 0 0 1-9-9 22 22 0 0 1-2-8.4q-.4-5.1-.3-14V202q0-8.8.3-14 .3-5 2-8.2a21 21 0 0 1 9-9.1q3.2-1.6 8.3-2t14-.3Z"/><g filter="url(#n)"><path fill="#f1f1f1" d="M205 199.8c0-8.6 0-12.8 1.7-16.1a15 15 0 0 1 6.7-6.7c3.2-1.6 7.5-1.6 16-1.6H296c8.5 0 12.8 0 16 1.6a15 15 0 0 1 6.8 6.7c1.6 3.3 1.6 7.5 1.6 16.1v82.5c0 8.5 0 12.8-1.6 16a15 15 0 0 1-6.7 6.7c-3.3 1.7-7.6 1.7-16.1 1.7h-66.4c-8.6 0-12.9 0-16.1-1.7a15 15 0 0 1-6.7-6.6c-1.7-3.3-1.7-7.6-1.7-16.1z"/><path stroke="url(#o)" stroke-width="1.1" d="M229.5 176h66.4l10 .1q3.7.3 5.8 1.4a15 15 0 0 1 6.5 6.5q1 2.2 1.3 5.8t.3 10v82.5q0 6.3-.3 10-.3 3.6-1.3 5.8a15 15 0 0 1-6.5 6.4q-2.2 1.1-5.8 1.4t-10 .2h-66.4q-6.3 0-10-.2-3.6-.2-5.9-1.4a15 15 0 0 1-6.4-6.4q-1.2-2.1-1.4-5.8t-.2-10v-82.5q0-6.3.2-10t1.4-5.8a15 15 0 0 1 6.4-6.5q2.3-1 5.9-1.4 3.6-.2 10-.2Z"/></g><g clip-path="url(#p)"><rect width="21.4" height="21.4" x="292.8" y="181.5" fill="url(#q)" rx="10.7"/><rect width="20.2" height="20.2" x="293.4" y="182" stroke="#a8a8a8" stroke-opacity=".1" stroke-width="1.1" rx="10.1"/></g><circle cx="303.5" cy="192.2" r="4.3" fill="#fdfdfd"/><rect width="97" height="21.4" x="214.2" y="276.2" fill="url(#r)" rx="10.7"/><rect width="95.8" height="20.2" x="214.8" y="276.7" stroke="#a8a8a8" stroke-opacity=".1" stroke-width="1.1" rx="10.1"/><rect width="24.4" height="3.1" x="214.2" y="192.2" fill="#1b1b1b" opacity=".1" rx="1.5"/><rect width="42.8" height="3.1" x="214.2" y="198.3" fill="#727272" opacity=".1" rx="1.5"/><g clip-path="url(#s)"><path stroke="#00a656" stroke-linecap="round" stroke-linejoin="round" stroke-width="1.5" d="m218 217.4 1.6 1.2 3-4"/></g><rect width="24.4" height="3.1" x="229.5" y="212" fill="#1b1b1b" opacity=".1" rx="1.5"/><rect width="42.8" height="3.1" x="229.5" y="218.1" fill="#727272" opacity=".1" rx="1.5"/><g clip-path="url(#t)"><path stroke="#00a656" stroke-linecap="round" stroke-linejoin="round" stroke-width="1.5" d="m218 232.6 1.6 1.3 3-4"/></g><rect width="24.4" height="3.1" x="229.5" y="227.3" fill="#1b1b1b" opacity=".1" rx="1.5"/><rect width="42.8" height="3.1" x="229.5" y="233.4" fill="#727272" opacity=".1" rx="1.5"/><g clip-path="url(#u)"><path stroke="#00a656" stroke-linecap="round" stroke-linejoin="round" stroke-width="1.5" d="m218 248 1.6 1.2 3-4"/></g><rect width="24.4" height="3.1" x="229.5" y="242.6" fill="#1b1b1b" opacity=".1" rx="1.5"/><rect width="42.8" height="3.1" x="229.5" y="248.7" fill="#727272" opacity=".1" rx="1.5"/><foreignObject width="127.9" height="206.9" x="70.6" y="101.6"><div xmlns="http://www.w3.org/1999/xhtml" clip-path="url(#v)" style="backdrop-filter:blur(12.22px);height:100%;width:100%"/></foreignObject><rect width="156.9" height="77.9" x="95.6" y="283.4" fill="#fdfdfd" fill-opacity=".3" stroke="url(#w)" stroke-width="1.1" rx="17.8" transform="rotate(-90 95.6 283.4)"/><foreignObject width="114.9" height="206.9" x="405.6" y="101.6"><div xmlns="http://www.w3.org/1999/xhtml" clip-path="url(#x)" style="backdrop-filter:blur(12.22px);height:100%;width:100%"/></foreignObject><rect width="156.9" height="64.9" x="-.6" y="-.6" fill="#fdfdfd" fill-opacity=".3" stroke="url(#y)" stroke-width="1.1" rx="17.8" transform="matrix(0 -1 -1 0 494.9 282.9)"/><path stroke="#d9d9d9" stroke-linecap="round" stroke-width="1.1" d="M302 53.2v29m-6.1 0H308"/></g><path fill="#010101" d="M116.3 429.2V444h7.7v2h-10.1v-16.8zm16 16.8-.3-1.8a4 4 0 0 1-1.4 1.5q-.9.4-2.3.4t-2.2-.4-1.4-1.1q-.5-.8-.5-1.8 0-1.5 1.2-2.5 1-1 3.2-1.3l3.4-.3v-1q0-.7-.6-1.3-.6-.5-1.8-.5-1.1 0-1.9.5t-1 1.5l-2-.7q.4-1.6 1.8-2.5t3.2-.9q2.3 0 3.4 1.2t1.2 3v8zm-.3-5.5-3.3.4q-1 .2-1.5.6t-.6 1.2q0 .6.5 1t1.5.5q1.1 0 2-.4a3 3 0 0 0 1-1.2q.4-.8.4-1.8zm14.1 5.5h-2l-.2-1.4a4 4 0 0 1-1.5 1.2q-.8.4-1.9.4-1.4 0-2.4-.6t-1.6-1.7-.6-2.9v-7h2.3v6.7q0 1.7.7 2.5t2 .9 2.2-.9.8-2.6V434h2.2zm2-12h2l.2 1.4q.6-.8 1.5-1.2a5 5 0 0 1 2-.4q1.4 0 2.4.6t1.6 1.8.5 2.8v7h-2.2v-6.7q0-1.7-.7-2.5t-2-.9q-1.5 0-2.2 1-.8.8-.8 2.5v6.6H148zm17.2 12.2q-1.8 0-3-.8a6 6 0 0 1-2.1-2.2q-.8-1.3-.8-3.2 0-1.8.8-3.2a6 6 0 0 1 2-2.2q1.4-.8 3.1-.8 1.9 0 3.3.9t2 2.3l-2 .7q-.4-.8-1.3-1.3t-1.9-.5-1.9.5-1.2 1.5-.4 2.1q0 1.9 1 3t2.5 1.1q1.1 0 2-.5a3 3 0 0 0 1.2-1.3l2 .7q-.6 1.5-2 2.3-1.5.9-3.3.9m6.7-17.5h2.2v6.6q.6-.7 1.5-1a5 5 0 0 1 2-.5q1.4 0 2.4.6t1.6 1.8.6 2.9v6.9h-2.4v-6.6q0-1.7-.7-2.6t-2-.9-2.2 1-.8 2.6v6.5H172zm24.7 17.3-.2-1.8a4 4 0 0 1-1.4 1.5q-.9.4-2.3.4t-2.2-.4q-1-.4-1.4-1.1-.5-.8-.5-1.8 0-1.5 1.1-2.5t3.3-1.3l3.4-.3v-1q0-.7-.6-1.3-.6-.5-1.8-.5-1.1 0-1.9.5t-1 1.5l-2-.7q.4-1.6 1.7-2.5 1.4-.9 3.3-.9 2.2 0 3.4 1.2t1.2 3v8zm-.2-5.5-3.3.4q-1 .2-1.6.6-.5.4-.5 1.2 0 .6.5 1t1.5.5q1.1 0 1.9-.4a3 3 0 0 0 1.1-1.2q.4-.8.4-1.8zm4.1-6.5h2l.2 1.4q.6-.8 1.5-1.2a5 5 0 0 1 2-.4q1.3 0 2.3.6t1.6 1.8.6 2.8v7h-2.3v-6.7q0-1.7-.7-2.5t-2-.9-2.2 1q-.7.8-.7 2.5v6.6h-2.3zm21 2-.2.1v-7.4h2.3V446h-2l-.3-1.8q-.6.8-1.6 1.4t-2.5.6-2.8-.8-2-2.2-.6-3.2.7-3.2 1.9-2.2 2.8-.8 2.7.7 1.7 1.5m-7.4 4q0 1.8 1 3t2.6 1.1a3 3 0 0 0 1.7-.5q.8-.5 1.3-1.4t.5-2.2-.5-2.2-1.3-1.4a3 3 0 0 0-1.7-.5q-1.6 0-2.6 1.1t-1 3m28-8.8h-8.8v5.3h6.6v2h-6.6v5.5h8.8v2h-11.2v-16.8h11.2zm3 2.8 3.5 9.6 3.5-9.6h2.4l-4.7 12h-2.4l-4.7-12zm15.5 12.2q-1.7 0-3-.8a6 6 0 0 1-2.2-2.1q-.8-1.4-.8-3.3t.8-3.3a5 5 0 0 1 2.2-2.1q1.4-.8 3-.8t3.1.8a5 5 0 0 1 2.2 2.1q.8 1.4.8 3.3t-.8 3.3a6 6 0 0 1-2.2 2.1q-1.4.8-3.1.8m0-2.1q1 0 1.8-.4t1.3-1.4.6-2.3-.5-2.3q-.5-1-1.4-1.3a4 4 0 0 0-1.8-.5q-1 0-1.7.5-.8.4-1.3 1.3t-.5 2.3.4 2.3 1.3 1.4a4 4 0 0 0 1.8.4m7.4-15.4h2.3V446h-2.3zm5.6 5.3 3.4 9.6 3.5-9.6h2.4l-4.7 12H276l-4.7-12zm15.4 12.2q-1.8 0-3.1-.8a6 6 0 0 1-2.1-2.3q-.7-1.4-.7-3.2 0-1.7.7-3.1a6 6 0 0 1 2-2.2q1.4-.8 3-.8t3 .8a5 5 0 0 1 2 2q.7 1.3.7 3v1.3h-9q.1 1 .6 1.7t1.2 1.1a3 3 0 0 0 1.6.4q1.2 0 2.1-.5t1.3-1.2l2 .7a5 5 0 0 1-2.2 2.3q-1.3.8-3.1.8m3-7.3q0-.8-.4-1.5a3 3 0 0 0-1.2-1.1 3 3 0 0 0-1.6-.4q-.8 0-1.5.4a4 4 0 0 0-1.7 2.6z"/><path fill="#909090" d="M116.4 462.2q1.6 0 2.8.6a4 4 0 0 1 1.8 1.7q.6 1.1.6 2.6t-.6 2.6a4 4 0 0 1-1.8 1.7q-1.2.6-2.8.6h-3.2v-9.8zm0 8.8q2 0 3-1t1-2.9-1-2.9-3-1h-2v7.8zm9 1.1a3 3 0 0 1-1.8-.5 3 3 0 0 1-1.2-1.3q-.4-.8-.4-1.9t.4-1.8 1.2-1.2 1.7-.5 1.7.4 1.2 1.2.4 1.7v.7h-5.4q0 .6.3 1.1t.7.8 1.1.3q.9 0 1.4-.3l.8-.9 1 .4a3 3 0 0 1-1.3 1.3q-.8.5-1.8.5m2-4.1-.2-1.1-.8-.7-1-.3q-.7 0-1.1.3l-.8.7-.3 1zm3 2.6v4.2h-1V465h1v1.3q.4-.6 1-1t1.6-.4 1.6.5 1.2 1.2.4 1.9q0 1-.4 1.9a3 3 0 0 1-1.2 1.2q-.7.5-1.6.5t-1.7-.4zm4.7-2.1q0-1.2-.6-1.9t-1.7-.7q-.6 0-1.1.3l-.9.9q-.3.6-.3 1.4t.3 1.4a2 2 0 0 0 .9 1q.5.2 1.1.2 1.1 0 1.7-.7t.6-1.9m2-6.6h1.1V472h-1zm5.4 10.2q-1 0-1.8-.4a3 3 0 0 1-1.2-1.3q-.4-.8-.4-1.9t.4-2a3 3 0 0 1 1.3-1.2l1.7-.4q1 0 1.8.4t1.3 1.3.4 1.9-.4 2a3 3 0 0 1-1.3 1.2 4 4 0 0 1-1.8.4m0-1q.6 0 1.2-.3t.8-.8.4-1.5q0-1-.3-1.5a2 2 0 0 0-1-.8l-1-.3q-.7 0-1.2.3t-.9.8q-.3.6-.3 1.5t.3 1.5.9.8 1.1.3m9.2-6.1h1l-4 9.8h-1l1.2-2.9-2.8-6.9h1.1l2.3 5.7zm4.8 0h1v7h-1zm.6-1.4a1 1 0 0 1-.8-.7.7.7 0 0 1 .8-.8q.3 0 .5.2t.2.6l-.2.5zm2 1.4h1v1q.4-.5 1-.8t1.2-.3 1.4.4 1 1 .3 1.7v4h-1v-4q0-1-.6-1.6-.4-.5-1.3-.5t-1.4.6-.5 1.7v3.8H159zm7.6 4.9.3.7.6.4.8.1q.8 0 1.2-.3t.4-.7l-.3-.6-.6-.4-.8-.2-.8-.2-.8-.4-.6-.5q-.3-.3-.3-.9t.4-1 .9-.7 1.3-.3 1.6.4q.6.4 1 1.2l-1 .3-.4-.6-.6-.2-.6-.1q-.7 0-1 .2t-.4.8l.1.4q.1.2.4.3t.5.2l.7.2.8.2.8.4.6.6q.2.3.2.9t-.3 1-1 .7-1.4.3q-1 0-1.7-.5t-1-1.4zm5.7-4.9v-2h1v2h2v1h-2v3.7q0 .7.3 1t.7.3h1v1h-1.2l-.9-.3-.7-.7q-.2-.5-.2-1.3V466h-1v-1zm8 7v-1.3a2 2 0 0 1-1 1q-.5.4-1.4.4-.7 0-1.3-.2l-.8-.7-.3-1q0-1 .7-1.5t1.9-.7l2.1-.2v-.6q0-.6-.4-1-.4-.3-1.2-.3t-1.2.3-.6 1l-1-.3q.3-1 1-1.5.8-.5 1.9-.5 1.2 0 1.9.6t.7 1.8v4.7zm0-3.3-2.2.2q-.7 0-1.1.4a1 1 0 0 0-.4.8q0 .5.4.8t1 .3q.8 0 1.3-.3.5-.4.7-.9t.2-1.1zm2.2-3.7h1v1q.4-.5.9-.8t1.3-.3 1.4.4 1 1q.2.6.2 1.7v4h-1v-4q0-1-.5-1.6-.4-.5-1.3-.5t-1.5.6-.5 1.7v3.8h-1zm7.5 0v-2h1v2h1.9v1h-1.9v3.7q0 .7.3 1t.7.3h.9v1h-1l-1-.3-.7-.7q-.2-.5-.2-1.3V466h-1v-1zm3.6-3h1v10h-1zm7.1 3h1.1l-4 9.8h-1l1.2-2.9-2.8-6.9h1.1l2.2 5.7zm9 7v-1.3a2 2 0 0 1-.9 1q-.6.4-1.4.4t-1.3-.2l-.8-.7-.3-1q0-1 .6-1.5t2-.7l2-.2v-.6q0-.6-.3-1-.5-.3-1.2-.3t-1.2.3-.7 1l-1-.3q.3-1 1-1.5.8-.5 2-.5t1.8.6.7 1.8v4.7zm0-3.3-2.2.2q-.7 0-1 .4a1 1 0 0 0-.4.8q0 .5.3.8.4.3 1 .3.8 0 1.3-.3.5-.4.8-.9.2-.5.2-1.1zm2.3-3.7h1v1q.3-.5.9-.8.5-.3 1.2-.3.8 0 1.4.4.6.3 1 1 .3.6.3 1.7v4h-1v-4q0-1-.5-1.6-.5-.5-1.4-.5t-1.4.6-.5 1.7v3.8h-1zm12.4 1.4h-.1V462h1v10h-1v-1.3q-.3.6-1 1t-1.5.4-1.7-.4a3 3 0 0 1-1.1-1.3q-.4-.8-.4-1.9t.4-1.9a3 3 0 0 1 1-1.3q.8-.4 1.8-.4t1.6.4 1 1.1m-4.7 2.1q0 1.2.6 2 .6.6 1.7.6.7 0 1.2-.3t.8-.9.3-1.4-.3-1.4l-.8-.9-1.2-.3q-1 0-1.7.7t-.6 1.9M230 465h1v7h-1zm.6-1.4a1 1 0 0 1-.8-.7.7.7 0 0 1 .8-.8q.3 0 .5.2l.2.6-.2.5zm2.4 1.4v-2h1.1v2h1.9v1h-2v3.7q0 .7.3 1t.7.3h.9v1h-1.1l-1-.3-.6-.7q-.3-.5-.3-1.3V466h-1v-1zm6.6 7.1q-1 0-1.7-.5a3 3 0 0 1-1.2-1.3q-.4-.8-.4-1.9t.4-1.8a3 3 0 0 1 1.2-1.2q.7-.5 1.7-.5t1.7.4 1.2 1.2.4 1.7v.7h-5.5q0 .6.3 1.1t.8.8 1.1.3q.8 0 1.4-.3t.8-.9l.9.4a3 3 0 0 1-1.2 1.3q-.8.5-1.9.5m2.1-4.1-.3-1.1-.7-.7-1.1-.3q-.6 0-1 .3l-.8.7-.4 1zm2-3h1v1l.7-.6 1-.4h1v1h-1.1l-.8.5-.5.8-.2 1v3.7h-1zm8.6 7v-1.3a2 2 0 0 1-1 1q-.5.4-1.4.4-.7 0-1.3-.2l-.8-.7-.3-1q0-1 .7-1.5t1.9-.7l2.1-.2v-.6q0-.6-.4-1-.4-.3-1.2-.3t-1.2.3-.6 1l-1-.3q.3-1 1-1.5.8-.5 1.9-.5 1.2 0 1.9.6t.7 1.8v4.7zm0-3.3-2.2.2q-.7 0-1 .4a1 1 0 0 0-.4.8q0 .5.3.8.4.3 1 .3.8 0 1.3-.3t.7-.9.2-1.1zm2.7-3.7v-2h1v2h1.9v1H256v3.7q0 .7.3 1t.7.3h.9v1h-1.1l-1-.3-.6-.7q-.2-.5-.2-1.3V466h-1v-1zm6.5 7.1a3 3 0 0 1-1.7-.5 3 3 0 0 1-1.2-1.3q-.4-.8-.4-1.9t.4-1.8 1.2-1.2 1.7-.5 1.7.4 1.2 1.2.4 1.7v.7h-5.5q0 .6.3 1.1t.8.8 1.1.3q.8 0 1.4-.3l.8-.9 1 .4a3 3 0 0 1-1.3 1.3q-.8.5-1.9.5m2.1-4.1-.3-1.1-.7-.7-1.1-.3q-.6 0-1 .3l-.8.7-.4 1zm8.1 4.1q-1 0-1.8-.5a3 3 0 0 1-1.2-1.2q-.4-.8-.4-1.9t.4-1.9 1.2-1.2 1.8-.5 2 .5q.7.5 1 1.4l-.9.3-.8-.9q-.5-.3-1.2-.3t-1.3.3l-.8 1q-.3.5-.3 1.3 0 1.2.7 1.9t1.6.7q.8 0 1.3-.3t.8-.9l1 .4a3 3 0 0 1-1.2 1.3q-.8.5-1.9.5m7 0q-1 0-1.8-.4a3 3 0 0 1-1.2-1.3q-.5-.8-.5-1.9t.5-2a3 3 0 0 1 1.2-1.2 4 4 0 0 1 1.8-.4q1 0 1.8.4t1.3 1.3.4 1.9-.4 2a3 3 0 0 1-1.3 1.2 4 4 0 0 1-1.8.4m0-1q.6 0 1.1-.3t1-.8.3-1.5q0-1-.4-1.5l-.8-.8-1.2-.3q-.6 0-1.1.3t-.9.8-.3 1.5.3 1.5.8.8 1.2.3m4.4-6.1h1v1q.4-.5.9-.8t1.3-.3 1.4.4 1 1q.2.6.2 1.7v4h-1v-4q0-1-.5-1.6-.4-.5-1.3-.5t-1.5.6-.5 1.7v3.8h-1zm7.5 0v-2h1v2h1.9v1h-1.9v3.7q0 .7.3 1t.7.3h.9v1h-1l-1-.3-.7-.7q-.2-.5-.2-1.3V466h-1v-1zm3.8 0h1v7h-1zm.6-1.4-.6-.2-.2-.5.2-.6q.2-.2.6-.2t.5.2l.2.6-.2.5zm2 1.4h1v1q.4-.5.9-.8t1.3-.3 1.4.4 1 1q.2.6.2 1.7v4h-1v-4q0-1-.5-1.6-.4-.5-1.3-.5t-1.5.6-.5 1.7v3.8h-1zm12.8 7h-1v-1l-1 .8q-.5.3-1.2.3-.8 0-1.4-.3a2 2 0 0 1-1-1q-.3-.7-.3-1.7V465h1v4q0 1 .5 1.6.5.5 1.4.5t1.4-.5.5-1.8V465h1zm4.3.1q-1 0-1.8-.4a3 3 0 0 1-1.2-1.3q-.5-.8-.5-1.9t.5-2a3 3 0 0 1 1.2-1.2 4 4 0 0 1 1.8-.4q1 0 1.8.4t1.2 1.3.5 1.9-.5 2a3 3 0 0 1-1.2 1.2 4 4 0 0 1-1.8.4m0-1q.6 0 1.1-.3t1-.8.3-1.5q0-1-.4-1.5l-.9-.8-1.1-.3q-.6 0-1.1.3t-1 .8q-.2.6-.2 1.5t.3 1.5.8.8 1.2.3m10.1.9h-1v-1l-.9.8q-.5.3-1.3.3t-1.4-.3a2 2 0 0 1-1-1q-.2-.7-.2-1.7V465h1v4q0 1 .5 1.6.4.5 1.3.5t1.4-.5q.6-.6.6-1.8V465h1zm1.9-2.1q0 .4.3.7l.6.4.8.1q.7 0 1.1-.3t.4-.7l-.2-.6-.6-.4-.9-.2-.8-.2-.8-.4-.6-.5q-.2-.3-.2-.9t.3-1 1-.7 1.3-.3 1.5.4 1 1.2l-1 .3-.4-.6-.6-.2-.6-.1q-.6 0-1 .2t-.4.8l.2.4q0 .2.3.3l.5.2.7.2.8.2.8.4q.4.2.6.6t.2.9q0 .6-.3 1t-1 .7q-.5.3-1.3.3-1 0-1.8-.5-.7-.5-1-1.4zm5.2-8h1V472h-1zm7.1 3.1h1l-4 9.8h-1l1.3-2.9-2.9-6.9h1.2l2.2 5.7zm2.2 7-.6-.2-.2-.5q0-.3.2-.5l.6-.3.5.3.2.5-.2.5zm11.3-9.9h1.2l-3.6 6v3.8h-1v-3.8l-3.7-6h1.3l2.9 5zm4.9 9.9q-1 0-1.8-.4a3 3 0 0 1-1.2-1.3q-.5-.8-.5-1.9t.5-2a3 3 0 0 1 1.2-1.2 4 4 0 0 1 1.8-.4q1 0 1.8.4t1.3 1.3.4 1.9-.4 2a3 3 0 0 1-1.3 1.2 4 4 0 0 1-1.8.4m0-1q.6 0 1.2-.3t.8-.8.4-1.5q0-1-.4-1.5l-.8-.8-1.2-.3q-.6 0-1.1.3t-.9.8-.3 1.5.3 1.5.8.8 1.2.3m10.1.9h-1v-1q-.3.5-.9.8-.5.3-1.2.3-.9 0-1.5-.3a2 2 0 0 1-.9-1q-.3-.7-.3-1.7v-4h1v4q0 1 .5 1.6.5.5 1.3.5 1 0 1.5-.5t.5-1.8V465h1zm1.3-7h1v1l.7-.6.9-.4h1v1h-1l-.8.5-.5.8-.2 1v3.7h-1zm8.2 5.6h.2v4.2h-1V465h.9v1.3q.4-.6 1-1t1.6-.4q.9 0 1.6.5t1.2 1.2.4 1.9q0 1-.4 1.9a3 3 0 0 1-1.1 1.2q-.8.5-1.7.5-1 0-1.7-.4zm4.7-2.1q0-1.2-.6-1.9t-1.6-.7q-.7 0-1.2.3l-.8.9q-.3.6-.3 1.4t.3 1.4.8 1q.5.2 1.2.2 1 0 1.6-.7t.6-1.9m2-3.5h1v1l.8-.6.8-.4h1v1h-1l-.8.5-.5.8-.2 1v3.7h-1zm7.3 7.1q-1 0-1.8-.4a3 3 0 0 1-1.2-1.3q-.5-.8-.5-1.9t.5-2a3 3 0 0 1 1.2-1.2 4 4 0 0 1 1.8-.4q1 0 1.8.4t1.2 1.3.5 1.9-.5 2a3 3 0 0 1-1.2 1.2 4 4 0 0 1-1.8.4m0-1q.6 0 1.1-.3t1-.8.3-1.5q0-1-.4-1.5l-.9-.8-1.1-.3q-.6 0-1.1.3t-1 .8q-.2.6-.2 1.5t.3 1.5.8.8q.6.3 1.2.3m9.8-4.7V462h1v10h-1v-1.3q-.3.6-1 1t-1.5.4-1.7-.4a3 3 0 0 1-1.2-1.3q-.4-.8-.4-1.9t.4-1.9a3 3 0 0 1 1.2-1.3q.7-.4 1.7-.4t1.6.4 1 1.1m-4.7 2.1q0 1.2.6 2 .6.6 1.7.6.6 0 1.2-.3t.8-.9.3-1.4-.3-1.4l-.8-.9-1.2-.3q-1 0-1.7.7t-.6 1.9m12.7 3.5h-1v-1l-1 .8q-.5.3-1.2.3-.8 0-1.4-.3a2 2 0 0 1-1-1q-.3-.7-.3-1.7V465h1v4q0 1 .5 1.6.5.5 1.4.5t1.4-.5.5-1.8V465h1zm4.2.1q-1 0-1.8-.4a3 3 0 0 1-1.2-1.3q-.4-.8-.4-1.9t.4-1.9 1.2-1.2 1.8-.5 2 .5q.7.5 1.1 1.4l-1 .3-.7-.9q-.6-.3-1.3-.3t-1.3.3l-.8 1q-.2.5-.2 1.3 0 1.2.6 1.9t1.7.7q.7 0 1.2-.3t.9-.9l1 .4a3 3 0 0 1-1.3 1.3q-.8.5-1.9.5m4.4-7.1v-2h1v2h2v1h-2v3.7q0 .7.4 1 .2.3.7.3h.9v1h-1.1l-1-.3-.6-.7q-.3-.5-.3-1.3V466h-1v-1zm11.1 7v-1.3a2 2 0 0 1-1 1q-.5.4-1.4.4-.7 0-1.3-.2l-.8-.7-.3-1q0-1 .7-1.5t1.9-.7l2.2-.2v-.6q0-.6-.5-1-.4-.3-1.2-.3t-1.2.3-.6 1l-1-.3q.3-1 1-1.5.8-.5 1.9-.5 1.2 0 2 .6.6.7.6 1.8v4.7zm0-3.3-2.2.2q-.7 0-1 .4a1 1 0 0 0-.4.8q0 .5.3.8.4.3 1 .3.8 0 1.3-.3l.7-.9.3-1.1zm7.6-2.3V462h1v10h-1v-1.3q-.4.6-1 1t-1.6.4-1.7-.4a3 3 0 0 1-1.1-1.3q-.4-.8-.4-1.9t.4-1.9a3 3 0 0 1 1-1.3q.8-.4 1.8-.4t1.6.4 1 1.1m-4.7 2.1q0 1.2.6 2 .6.6 1.7.6.7 0 1.2-.3t.8-.9.3-1.4-.3-1.4l-.8-.9-1.2-.3q-1 0-1.7.7t-.6 1.9m11.3 3.5v-1.3a2 2 0 0 1-1 1q-.5.4-1.4.4-.7 0-1.3-.2l-.8-.7-.3-1q0-1 .7-1.5t2-.7l2-.2v-.6q0-.6-.4-1-.4-.3-1.1-.3t-1.3.3-.6 1l-1-.3q.3-1 1-1.5.8-.5 1.9-.5 1.2 0 2 .6.6.7.6 1.8v4.7zm0-3.3-2.2.2q-.7 0-1 .4a1 1 0 0 0-.4.8q0 .5.3.8.4.3 1 .3.8 0 1.3-.3.5-.4.7-.9.3-.5.3-1.1zm3.2 1.9v4.2h-1V465h1v1.3q.4-.6 1-1t1.6-.4q.9 0 1.6.5t1.2 1.2.4 1.9q0 1-.4 1.9a3 3 0 0 1-1.1 1.2q-.7.5-1.7.5t-1.7-.4zm4.8-2.1q0-1.2-.7-1.9t-1.6-.7q-.7 0-1.2.3l-.8.9q-.3.6-.3 1.4t.3 1.4l.8 1q.5.2 1.2.2 1 0 1.6-.7t.7-1.9m2.4-3.5v-2h1v2h2v1h-2v3.7q0 .7.3 1t.7.3h1v1h-1.1l-1-.3-.6-.7q-.3-.5-.3-1.3V466h-1v-1zm4.2 4.9.3.7.6.4.8.1q.8 0 1.2-.3t.4-.7l-.3-.6-.6-.4-.8-.2-.8-.2-.8-.4-.6-.5q-.3-.3-.3-.9t.4-1 .9-.7 1.3-.3 1.6.4q.6.4 1 1.2l-1 .3-.4-.6-.6-.2-.6-.1q-.7 0-1 .2t-.4.8l.1.4.4.3.5.2.7.2.8.2.8.4.6.6q.2.3.2.9t-.3 1-1 .7-1.4.3q-1 0-1.7-.5t-1-1.4zm5.7.4h1.3L462 474h-.8zm-349 11.7h1v7h-1zm.5-1.4a1 1 0 0 1-.7-.7 1 1 0 0 1 .7-.8q.3 0 .5.2t.2.6l-.2.5zm2 1.4h1v1q.4-.5 1-.8.4-.3 1.2-.3t1.3.4 1 1q.3-.7 1-1t1.4-.4 1.4.4 1 1 .3 1.7v4h-1v-4q0-1-.6-1.6-.4-.5-1.3-.5t-1.4.6-.5 1.8v3.7h-1v-4q0-1-.5-1.6-.5-.5-1.3-.5-1 0-1.4.6-.5.6-.5 1.8v3.7h-1zm12.7 5.6h.1v4.2h-1V482h1v1.3q.3-.6 1-1t1.5-.4 1.7.5 1.1 1.2.4 1.9q0 1-.4 1.9a3 3 0 0 1-1 1.2q-.8.5-1.8.5t-1.6-.4zm4.7-2.1q0-1.2-.6-1.9t-1.7-.7q-.7 0-1.2.3l-.8.9q-.3.6-.3 1.4t.3 1.4.8 1q.5.2 1.2.2 1 0 1.7-.7t.6-1.9m2-3.5h1v1l.7-.6.9-.4h1v1h-1l-.8.5-.6.8-.1 1v3.7h-1zm7.2 7.1q-1 0-1.7-.4a3 3 0 0 1-1.3-1.3q-.4-.8-.4-1.9t.4-2a3 3 0 0 1 1.3-1.2 4 4 0 0 1 1.8-.4q1 0 1.7.4.8.5 1.3 1.3t.5 1.9-.5 2a3 3 0 0 1-1.3 1.2 4 4 0 0 1-1.8.4m0-1q.6 0 1.2-.3t.9-.8.3-1.5-.3-1.5l-.9-.8-1.1-.3q-.7 0-1.2.3t-.9.8q-.3.6-.3 1.5t.3 1.5.9.8 1.1.3m4.8-6.1 2.2 5.8 2.3-5.8h1l-2.7 7h-1.1l-2.8-7zm9.1 7.1a3 3 0 0 1-1.7-.5 3 3 0 0 1-1.2-1.3q-.5-.8-.5-1.9t.5-1.8a3 3 0 0 1 1.2-1.2q.7-.5 1.7-.5t1.7.4 1.2 1.2.3 1.7v.7h-5.4q0 .6.3 1.1t.8.8 1 .3q.9 0 1.5-.3l.8-.9.9.4a3 3 0 0 1-1.2 1.3q-.8.5-1.9.5m2.1-4.1-.3-1.1-.7-.7-1.2-.3q-.5 0-1 .3l-.7.7-.4 1zm2.6 1.9q0 .4.3.7l.6.4.8.1q.8 0 1.2-.3t.3-.7l-.2-.6-.6-.4-.8-.2-.8-.2-.8-.4-.6-.5q-.3-.3-.3-.9t.4-1 .9-.7 1.3-.3 1.5.4 1 1.2l-1 .3-.3-.6-.6-.2-.6-.1q-.7 0-1 .2t-.4.8v.4l.4.3.6.2.6.2.9.2.8.4q.3.2.5.6t.3.9q0 .6-.4 1-.3.5-.9.7-.6.3-1.4.3-1 0-1.8-.5-.7-.5-.9-1.4zm5.7.4h1.3l-1.5 3.7h-.8zm9.9 1.7-.1-1.3a2 2 0 0 1-.9 1q-.6.4-1.4.4t-1.3-.2l-.9-.7-.2-1q0-1 .6-1.5t2-.7l2-.2v-.6q0-.6-.4-1-.4-.3-1.1-.3t-1.3.3-.6 1l-1-.3q.3-1 1-1.5.8-.5 1.9-.5 1.2 0 2 .6.6.7.6 1.8v4.7zm-.1-3.3-2.2.2q-.7 0-1 .4a1 1 0 0 0-.4.8q0 .5.3.8.4.3 1 .3.8 0 1.3-.3t.7-.9.3-1.1zm2.2-3.7h1v1q.4-.5 1-.8t1.2-.3 1.4.4 1 1 .3 1.7v4h-1v-4q0-1-.5-1.6-.5-.5-1.4-.5t-1.4.6-.5 1.7v3.8h-1zm12.5 1.4V479h1v10h-1v-1.3q-.3.6-1 1t-1.5.4-1.7-.4a3 3 0 0 1-1.2-1.3q-.4-.8-.4-1.9t.4-1.9a3 3 0 0 1 1.2-1.3q.7-.4 1.7-.4t1.6.4 1 1.1m-4.7 2.1q0 1.2.6 2 .6.6 1.7.6.6 0 1.2-.3t.8-.9.3-1.4-.3-1.4l-.8-.9-1.2-.3q-1 0-1.7.7t-.6 1.9m10.6 1.4q0 .4.3.7l.6.4.8.1q.8 0 1.1-.3t.4-.7l-.2-.6-.6-.4-.9-.2-.7-.2-.8-.4-.7-.5q-.2-.3-.2-.9t.3-1 1-.7 1.3-.3q.9 0 1.5.4t1 1.2l-1 .3-.4-.6-.5-.2-.7-.1q-.6 0-1 .2t-.4.8l.2.4.3.3.5.2q.4 0 .7.2l.8.2.8.4q.4.2.6.6.3.3.3.9t-.4 1-1 .7-1.3.3q-1 0-1.8-.5-.7-.5-1-1.4zm8.2 2.2q-1 0-1.8-.4a3 3 0 0 1-1.2-1.3q-.4-.8-.4-1.9t.4-1.9 1.2-1.2 1.8-.5 1.9.5 1.2 1.4l-1 .3-.8-.9q-.5-.3-1.2-.3-.8 0-1.3.3l-.8 1q-.3.5-.3 1.3 0 1.2.6 1.9t1.7.7q.7 0 1.3-.3t.8-.9l1 .4a3 3 0 0 1-1.2 1.3q-.8.5-1.9.5m8.3-.1v-1.3a2 2 0 0 1-1 1q-.5.4-1.4.4-.7 0-1.3-.2l-.8-.7-.3-1q0-1 .7-1.5t1.9-.7l2.2-.2v-.6q0-.6-.5-1-.4-.3-1.2-.3t-1.2.3-.6 1l-1-.3q.3-1 1-1.5.8-.5 1.9-.5 1.2 0 2 .6.6.7.6 1.8v4.7zm0-3.3-2.2.2q-.7 0-1 .4a1 1 0 0 0-.4.8q0 .5.3.8.4.3 1 .3.8 0 1.3-.3t.7-.9.3-1.1zm2.2-6.8h1V489h-1zm5.3 10.2a3 3 0 0 1-1.7-.5 3 3 0 0 1-1.2-1.3q-.5-.8-.5-1.9t.5-1.8a3 3 0 0 1 1.2-1.2q.7-.5 1.7-.5t1.7.4 1.1 1.2.4 1.7v.7h-5.4q0 .6.3 1.1t.8.8 1 .3q.9 0 1.4-.3a2 2 0 0 0 .9-.9l.9.4a3 3 0 0 1-1.2 1.3q-.8.5-1.9.5m2-4.1-.2-1.1-.7-.7-1.2-.3q-.5 0-1 .3l-.8.7-.3 1zm2.7 1.9q0 .4.3.7l.6.4.8.1q.8 0 1.1-.3t.4-.7l-.2-.6-.6-.4-.8-.2-.8-.2-.8-.4-.6-.5q-.3-.3-.3-.9t.3-1 1-.7q.5-.3 1.3-.3t1.5.4 1 1.2l-1 .3-.4-.6-.5-.2-.7-.1q-.6 0-1 .2t-.4.8l.2.4.3.3.6.2.6.2.9.2.7.4q.4.2.6.6.3.3.3.9t-.4 1-1 .7-1.3.3q-1 0-1.8-.5-.7-.5-1-1.4zm10.7 2.1h-.9l-2.2-7h1l1.7 5.7 1.8-5.7h1l1.7 5.7 1.6-5.7h1l-2.1 7h-1l-1.8-5.4zm7.5-7h1v7h-1zm.6-1.4a1 1 0 0 1-.8-.7.7.7 0 0 1 .8-.8q.3 0 .5.2t.2.6l-.2.5zm2.4 1.4v-2h1v2h2v1h-2v3.7q0 .7.4 1 .2.3.7.3h.9v1h-1.1l-1-.3-.6-.7q-.3-.5-.3-1.3V483h-1v-1zm3.7-3h1v4q.4-.6 1-.8t1.2-.3q.8 0 1.4.4t1 1 .3 1.7v4h-1.1v-3.9q0-1-.5-1.6t-1.3-.6q-1 0-1.5.6t-.5 1.8v3.7h-1zm14 1.2h-.4L261 489h-1l3.5-9.8h2l3.6 9.8h-1.2zm-3 5.2h5.7v1H262zm7.8-6.2h1.2v9.8h-1.2zm2.4 5.4h5.5v1H272zm12-1.2V479h1v10h-1v-1.3q-.4.6-1 1t-1.6.4-1.7-.4a3 3 0 0 1-1-1.3q-.5-.8-.5-1.9t.4-1.9a3 3 0 0 1 1.1-1.3q.8-.4 1.7-.4 1 0 1.7.4t1 1.1m-4.7 2.1q0 1.2.6 2 .6.6 1.6.6.7 0 1.2-.3t.8-.9.3-1.4-.3-1.4l-.8-.9-1.2-.3q-1 0-1.6.7t-.6 1.9m6.9-3.5h1v1l.7-.6.9-.4h1v1h-1l-.8.5-.6.8-.1 1v3.7h-1.1zm4.4 0h1v7h-1zm.5-1.4a1 1 0 0 1-.7-.7 1 1 0 0 1 .7-.8l.6.2.2.6-.2.5zm2.5 1.4 2.2 5.8 2.2-5.8h1.1l-2.8 7h-1l-2.8-7zm9 7.1a3 3 0 0 1-1.7-.5 3 3 0 0 1-1.2-1.3q-.4-.8-.4-1.9t.4-1.8 1.2-1.2 1.7-.5 1.7.4 1.2 1.2.4 1.7v.7h-5.5q0 .6.4 1.1t.7.8 1.1.3 1.4-.3l.8-.9 1 .4a3 3 0 0 1-1.3 1.3q-.8.5-1.8.5m2-4.1-.2-1.1-.8-.7-1.1-.3q-.6 0-1 .3l-.8.7-.4 1zm2-3h1l.1 1q.3-.5.9-.8.5-.3 1.3-.3t1.4.4.9 1 .3 1.7v4h-1v-4q0-1-.5-1.6-.5-.5-1.3-.5-1 0-1.5.6t-.5 1.7v3.8h-1zm16 7h-1v-1q-.4.5-1 .8t-1.2.3-1.4-.3a2 2 0 0 1-1-1q-.3-.7-.3-1.7V482h1v4q0 1 .5 1.6.5.5 1.4.5t1.4-.5.5-1.8V482h1zm2.2-1.4v4.2h-1V482h1v1.3q.4-.6 1-1t1.6-.4 1.6.5q.8.4 1.2 1.2t.4 1.9-.4 1.9a3 3 0 0 1-1.1 1.2q-.7.5-1.7.5t-1.7-.4zm4.8-2.1q0-1.2-.7-1.9t-1.6-.7q-.7 0-1.2.3l-.8.9q-.3.6-.3 1.4t.3 1.4.8 1q.5.2 1.2.2 1 0 1.6-.7t.7-1.9m7.4-2v-4.6h1V489h-1v-1.3q-.3.6-1 1t-1.5.4-1.7-.4a3 3 0 0 1-1.2-1.3q-.3-.8-.3-1.9t.3-1.9 1.2-1.3 1.7-.4 1.6.4q.7.5 1 1.1m-4.7 2.1q0 1.2.6 2 .6.6 1.7.6.6 0 1.2-.3t.8-.9.3-1.4-.3-1.4l-.8-.9-1.2-.3q-1 0-1.7.7t-.6 1.9m11.3 3.5v-1.3a2 2 0 0 1-1 1q-.5.4-1.4.4-.7 0-1.3-.2l-.8-.7-.3-1q0-1 .7-1.5t1.9-.7l2.1-.2v-.6q0-.6-.4-1-.4-.3-1.2-.3t-1.2.3-.7 1l-.9-.3q.3-1 1-1.5.8-.5 1.9-.5 1.2 0 1.9.6t.7 1.8v4.7zm0-3.3-2.2.2q-.7 0-1.1.4a1 1 0 0 0-.4.8q0 .5.4.8.3.3 1 .3.8 0 1.3-.3t.7-.9.2-1.1zm2.6-3.7v-2h1v2h2v1h-2v3.7q0 .7.4 1 .2.3.7.3h.9v1H348l-1-.3-.6-.7q-.3-.5-.3-1.3V483h-1v-1zm6.6 7.1a3 3 0 0 1-1.7-.5 3 3 0 0 1-1.2-1.3q-.5-.8-.5-1.9t.5-1.8 1.2-1.2 1.7-.5 1.7.4 1.2 1.2.3 1.7v.7h-5.4q0 .6.3 1.1t.8.8 1 .3q.9 0 1.5-.3l.8-.9.9.4a3 3 0 0 1-1.2 1.3q-.8.5-1.9.5m2.1-4.1-.3-1.1-.7-.7-1.2-.3q-.5 0-1 .3l-.7.7-.4 1zm2.6 1.9q0 .4.3.7l.6.4.8.1q.8 0 1.2-.3t.3-.7l-.2-.6-.6-.4-.8-.2-.8-.2-.8-.4-.6-.5q-.3-.3-.3-.9t.4-1 .9-.7 1.3-.3 1.5.4 1 1.2l-1 .3-.3-.6-.6-.2-.6-.1q-.7 0-1 .2t-.4.8v.4l.4.3.6.2.6.2.9.2.8.4q.3.2.5.6t.3.9q0 .6-.4 1-.3.5-.9.7-.6.3-1.4.3-1 0-1.8-.5-.7-.5-.9-1.4zm5.8 2.2-.5-.3-.2-.5q0-.3.2-.5l.5-.3q.3 0 .5.3l.3.5-.3.5z"/><defs><linearGradient id="c" x1="302" x2="302" y1="114.3" y2="150.9" gradientUnits="userSpaceOnUse"><stop stop-color="#f6f6f6"/><stop offset="1" stop-color="#e6e6e6"/></linearGradient><linearGradient id="e" x1="302" x2="302" y1="259.4" y2="296" gradientUnits="userSpaceOnUse"><stop stop-color="#f6f6f6"/><stop offset="1" stop-color="#e6e6e6"/></linearGradient><linearGradient id="g" x1="302.4" x2="302.4" y1="126.5" y2="283.8" gradientUnits="userSpaceOnUse"><stop stop-color="#f6f6f6"/><stop offset="1" stop-color="#e6e6e6"/></linearGradient><linearGradient id="l" x1="262.7" x2="262.7" y1="167.7" y2="314.3" gradientUnits="userSpaceOnUse"><stop stop-color="#fdfdfd" stop-opacity=".3"/><stop offset="1" stop-color="#fdfdfd"/></linearGradient><linearGradient id="m" x1="262.7" x2="262.7" y1="167.7" y2="314.3" gradientUnits="userSpaceOnUse"><stop stop-color="#e2e2e2"/><stop offset="1" stop-color="#e2e2e2" stop-opacity=".8"/></linearGradient><linearGradient id="o" x1="262.7" x2="262.7" y1="175.4" y2="306.7" gradientUnits="userSpaceOnUse"><stop stop-color="#f6f6f6"/><stop offset="1" stop-color="#e6e6e6"/></linearGradient><linearGradient id="q" x1="303.5" x2="303.5" y1="175.6" y2="208.7" gradientUnits="userSpaceOnUse"><stop stop-color="#ebebeb"/><stop offset="1" stop-color="#c4c4c4"/></linearGradient><linearGradient id="r" x1="262.7" x2="262.7" y1="270.3" y2="303.4" gradientUnits="userSpaceOnUse"><stop stop-color="#ebebeb"/><stop offset="1" stop-color="#c4c4c4"/></linearGradient><linearGradient id="w" x1="174" x2="174" y1="284" y2="363" gradientUnits="userSpaceOnUse"><stop stop-color="#e2e2e2" stop-opacity="0"/><stop offset="1" stop-color="#e2e2e2"/></linearGradient><linearGradient id="y" x1="79" x2="79" y1="0" y2="66" gradientUnits="userSpaceOnUse"><stop stop-color="#e2e2e2" stop-opacity="0"/><stop offset="1" stop-color="#e2e2e2"/></linearGradient><clipPath id="k" transform="translate(-174.5 -143.3)"><path d="M233.1 168.3h59.1q8.9 0 14 .3 5.2.4 8.3 2a21 21 0 0 1 9.1 9c1.1 2.3 1.7 4.8 2 8.3s.3 8 .3 14v78.2q0 8.9-.3 14-.4 5.2-2 8.3a21 21 0 0 1-9.1 9.1 22 22 0 0 1-8.3 2q-5.1.4-14 .3h-59q-8.9 0-14-.3-5.2-.4-8.4-2a21 21 0 0 1-9-9 22 22 0 0 1-2-8.4q-.4-5.1-.3-14V202q0-8.8.3-14 .3-5 2-8.2a21 21 0 0 1 9-9.1q3.2-1.6 8.3-2t14-.3"/></clipPath><clipPath id="v" transform="translate(-70.6 -101.6)"><rect width="156.9" height="77.9" x="95.6" y="283.4" rx="17.8" transform="rotate(-90 95.6 283.4)"/></clipPath><clipPath id="x" transform="translate(-405.6 -101.6)"><rect width="156.9" height="64.9" x="-.6" y="-.6" rx="17.8" transform="matrix(0 -1 -1 0 494.9 282.9)"/></clipPath><clipPath id="a"><rect width="380" height="376" x="112" y="37" fill="#fff" rx="16"/></clipPath><clipPath id="p"><rect width="21.4" height="21.4" x="292.8" y="181.5" fill="#fff" rx="10.7"/></clipPath><clipPath id="s"><path fill="#fff" d="M217.2 213.5h6.1v6.2h-6z"/></clipPath><clipPath id="t"><path fill="#fff" d="M217.2 228.8h6.1v6.1h-6z"/></clipPath><clipPath id="u"><path fill="#fff" d="M217.2 244h6.1v6.2h-6z"/></clipPath><filter id="b" width="262.7" height="116.1" x="170.7" y="99" color-interpolation-filters="sRGB" filterUnits="userSpaceOnUse"><feFlood flood-opacity="0" result="BackgroundImageFix"/><feColorMatrix in="SourceAlpha" result="hardAlpha" values="0 0 0 0 0 0 0 0 0 0 0 0 0 0 0 0 0 0 127 0"/><feMorphology in="SourceAlpha" radius="3.1" result="effect1_dropShadow_107_21293"/><feOffset dy="3.8"/><feGaussianBlur stdDeviation=".6"/><feComposite in2="hardAlpha" operator="out"/><feColorMatrix values="0 0 0 0 0.0313726 0 0 0 0 0.0313726 0 0 0 0 0.0313726 0 0 0 0.05 0"/><feBlend in2="BackgroundImageFix" result="effect1_dropShadow_107_21293"/><feColorMatrix in="SourceAlpha" result="hardAlpha" values="0 0 0 0 0 0 0 0 0 0 0 0 0 0 0 0 0 0 127 0"/><feMorphology in="SourceAlpha" radius="3.1" result="effect2_dropShadow_107_21293"/><feOffset dy="4.6"/><feGaussianBlur stdDeviation="1.5"/><feComposite in2="hardAlpha" operator="out"/><feColorMatrix values="0 0 0 0 0.0313726 0 0 0 0 0.0313726 0 0 0 0 0.0313726 0 0 0 0.05 0"/><feBlend in2="effect1_dropShadow_107_21293" result="effect2_dropShadow_107_21293"/><feColorMatrix in="SourceAlpha" result="hardAlpha" values="0 0 0 0 0 0 0 0 0 0 0 0 0 0 0 0 0 0 127 0"/><feOffset dy="4.6"/><feGaussianBlur stdDeviation="5"/><feComposite in2="hardAlpha" operator="out"/><feColorMatrix values="0 0 0 0 0.0313726 0 0 0 0 0.0313726 0 0 0 0 0.0313726 0 0 0 0.03 0"/><feBlend in2="effect2_dropShadow_107_21293" result="effect3_dropShadow_107_21293"/><feColorMatrix in="SourceAlpha" result="hardAlpha" values="0 0 0 0 0 0 0 0 0 0 0 0 0 0 0 0 0 0 127 0"/><feMorphology in="SourceAlpha" radius="12.2" result="effect4_dropShadow_107_21293"/><feOffset dy="18.3"/><feGaussianBlur stdDeviation="9.2"/><feComposite in2="hardAlpha" operator="out"/><feColorMatrix values="0 0 0 0 0.0313726 0 0 0 0 0.0313726 0 0 0 0 0.0313726 0 0 0 0.04 0"/><feBlend in2="effect3_dropShadow_107_21293" result="effect4_dropShadow_107_21293"/><feColorMatrix in="SourceAlpha" result="hardAlpha" values="0 0 0 0 0 0 0 0 0 0 0 0 0 0 0 0 0 0 127 0"/><feMorphology in="SourceAlpha" radius="1.5" result="effect5_dropShadow_107_21293"/><feOffset dy="1.6"/><feGaussianBlur stdDeviation=".2"/><feComposite in2="hardAlpha" operator="out"/><feColorMatrix values="0 0 0 0 0 0 0 0 0 0 0 0 0 0 0 0 0 0 0.25 0"/><feBlend in2="effect4_dropShadow_107_21293" result="effect5_dropShadow_107_21293"/><feColorMatrix in="SourceAlpha" result="hardAlpha" values="0 0 0 0 0 0 0 0 0 0 0 0 0 0 0 0 0 0 127 0"/><feMorphology in="SourceAlpha" radius="9.2" result="effect6_dropShadow_107_21293"/><feOffset dy="24.4"/><feGaussianBlur stdDeviation="24.4"/><feComposite in2="hardAlpha" operator="out"/><feColorMatrix values="0 0 0 0 0 0 0 0 0 0 0 0 0 0 0 0 0 0 0.075 0"/><feBlend in2="effect5_dropShadow_107_21293" mode="multiply" result="effect6_dropShadow_107_21293"/><feBlend in="SourceGraphic" in2="effect6_dropShadow_107_21293" result="shape"/></filter><filter id="d" width="262.7" height="116.1" x="170.7" y="244.1" color-interpolation-filters="sRGB" filterUnits="userSpaceOnUse"><feFlood flood-opacity="0" result="BackgroundImageFix"/><feColorMatrix in="SourceAlpha" result="hardAlpha" values="0 0 0 0 0 0 0 0 0 0 0 0 0 0 0 0 0 0 127 0"/><feMorphology in="SourceAlpha" radius="3.1" result="effect1_dropShadow_107_21293"/><feOffset dy="3.8"/><feGaussianBlur stdDeviation=".6"/><feComposite in2="hardAlpha" operator="out"/><feColorMatrix values="0 0 0 0 0.0313726 0 0 0 0 0.0313726 0 0 0 0 0.0313726 0 0 0 0.05 0"/><feBlend in2="BackgroundImageFix" result="effect1_dropShadow_107_21293"/><feColorMatrix in="SourceAlpha" result="hardAlpha" values="0 0 0 0 0 0 0 0 0 0 0 0 0 0 0 0 0 0 127 0"/><feMorphology in="SourceAlpha" radius="3.1" result="effect2_dropShadow_107_21293"/><feOffset dy="4.6"/><feGaussianBlur stdDeviation="1.5"/><feComposite in2="hardAlpha" operator="out"/><feColorMatrix values="0 0 0 0 0.0313726 0 0 0 0 0.0313726 0 0 0 0 0.0313726 0 0 0 0.05 0"/><feBlend in2="effect1_dropShadow_107_21293" result="effect2_dropShadow_107_21293"/><feColorMatrix in="SourceAlpha" result="hardAlpha" values="0 0 0 0 0 0 0 0 0 0 0 0 0 0 0 0 0 0 127 0"/><feOffset dy="4.6"/><feGaussianBlur stdDeviation="5"/><feComposite in2="hardAlpha" operator="out"/><feColorMatrix values="0 0 0 0 0.0313726 0 0 0 0 0.0313726 0 0 0 0 0.0313726 0 0 0 0.03 0"/><feBlend in2="effect2_dropShadow_107_21293" result="effect3_dropShadow_107_21293"/><feColorMatrix in="SourceAlpha" result="hardAlpha" values="0 0 0 0 0 0 0 0 0 0 0 0 0 0 0 0 0 0 127 0"/><feMorphology in="SourceAlpha" radius="12.2" result="effect4_dropShadow_107_21293"/><feOffset dy="18.3"/><feGaussianBlur stdDeviation="9.2"/><feComposite in2="hardAlpha" operator="out"/><feColorMatrix values="0 0 0 0 0.0313726 0 0 0 0 0.0313726 0 0 0 0 0.0313726 0 0 0 0.04 0"/><feBlend in2="effect3_dropShadow_107_21293" result="effect4_dropShadow_107_21293"/><feColorMatrix in="SourceAlpha" result="hardAlpha" values="0 0 0 0 0 0 0 0 0 0 0 0 0 0 0 0 0 0 127 0"/><feMorphology in="SourceAlpha" radius="1.5" result="effect5_dropShadow_107_21293"/><feOffset dy="1.6"/><feGaussianBlur stdDeviation=".2"/><feComposite in2="hardAlpha" operator="out"/><feColorMatrix values="0 0 0 0 0 0 0 0 0 0 0 0 0 0 0 0 0 0 0.25 0"/><feBlend in2="effect4_dropShadow_107_21293" result="effect5_dropShadow_107_21293"/><feColorMatrix in="SourceAlpha" result="hardAlpha" values="0 0 0 0 0 0 0 0 0 0 0 0 0 0 0 0 0 0 127 0"/><feMorphology in="SourceAlpha" radius="9.2" result="effect6_dropShadow_107_21293"/><feOffset dy="24.4"/><feGaussianBlur stdDeviation="24.4"/><feComposite in2="hardAlpha" operator="out"/><feColorMatrix values="0 0 0 0 0 0 0 0 0 0 0 0 0 0 0 0 0 0 0.075 0"/><feBlend in2="effect5_dropShadow_107_21293" mode="multiply" result="effect6_dropShadow_107_21293"/><feBlend in="SourceGraphic" in2="effect6_dropShadow_107_21293" result="shape"/></filter><filter id="f" width="251.2" height="177.2" x="176.8" y="121.1" color-interpolation-filters="sRGB" filterUnits="userSpaceOnUse"><feFlood flood-opacity="0" result="BackgroundImageFix"/><feColorMatrix in="SourceAlpha" result="hardAlpha" values="0 0 0 0 0 0 0 0 0 0 0 0 0 0 0 0 0 0 127 0"/><feMorphology in="SourceAlpha" radius="3.1" result="effect1_dropShadow_107_21293"/><feOffset dy="3.8"/><feGaussianBlur stdDeviation=".6"/><feComposite in2="hardAlpha" operator="out"/><feColorMatrix values="0 0 0 0 0.0313726 0 0 0 0 0.0313726 0 0 0 0 0.0313726 0 0 0 0.05 0"/><feBlend in2="BackgroundImageFix" result="effect1_dropShadow_107_21293"/><feColorMatrix in="SourceAlpha" result="hardAlpha" values="0 0 0 0 0 0 0 0 0 0 0 0 0 0 0 0 0 0 127 0"/><feMorphology in="SourceAlpha" radius="3.1" result="effect2_dropShadow_107_21293"/><feOffset dy="4.6"/><feGaussianBlur stdDeviation="1.5"/><feComposite in2="hardAlpha" operator="out"/><feColorMatrix values="0 0 0 0 0.0313726 0 0 0 0 0.0313726 0 0 0 0 0.0313726 0 0 0 0.05 0"/><feBlend in2="effect1_dropShadow_107_21293" result="effect2_dropShadow_107_21293"/><feColorMatrix in="SourceAlpha" result="hardAlpha" values="0 0 0 0 0 0 0 0 0 0 0 0 0 0 0 0 0 0 127 0"/><feOffset dy="4.6"/><feGaussianBlur stdDeviation="5"/><feComposite in2="hardAlpha" operator="out"/><feColorMatrix values="0 0 0 0 0.0313726 0 0 0 0 0.0313726 0 0 0 0 0.0313726 0 0 0 0.03 0"/><feBlend in2="effect2_dropShadow_107_21293" result="effect3_dropShadow_107_21293"/><feBlend in="SourceGraphic" in2="effect3_dropShadow_107_21293" result="shape"/></filter><filter id="h" width="85.5" height="51.2" x="329.5" y="167.7" color-interpolation-filters="sRGB" filterUnits="userSpaceOnUse"><feFlood flood-opacity="0" result="BackgroundImageFix"/><feColorMatrix in="SourceAlpha" result="hardAlpha" values="0 0 0 0 0 0 0 0 0 0 0 0 0 0 0 0 0 0 127 0"/><feMorphology in="SourceAlpha" radius="3.1" result="effect1_dropShadow_107_21293"/><feOffset dy="11.5"/><feGaussianBlur stdDeviation="6.1"/><feComposite in2="hardAlpha" operator="out"/><feColorMatrix values="0 0 0 0 0 0 0 0 0 0 0 0 0 0 0 0 0 0 0.15 0"/><feBlend in2="BackgroundImageFix" mode="multiply" result="effect1_dropShadow_107_21293"/><feBlend in="SourceGraphic" in2="effect1_dropShadow_107_21293" result="shape"/></filter><filter id="j" width="213.1" height="240.5" x="156.1" y="143.3" color-interpolation-filters="sRGB" filterUnits="userSpaceOnUse"><feFlood flood-opacity="0" result="BackgroundImageFix"/><feBlend in="SourceGraphic" in2="BackgroundImageFix" result="shape"/><feGaussianBlur result="effect1_foregroundBlur_107_21293" stdDeviation="24.4"/></filter><filter id="n" width="194.7" height="210.8" x="165.3" y="160.1" color-interpolation-filters="sRGB" filterUnits="userSpaceOnUse"><feFlood flood-opacity="0" result="BackgroundImageFix"/><feColorMatrix in="SourceAlpha" result="hardAlpha" values="0 0 0 0 0 0 0 0 0 0 0 0 0 0 0 0 0 0 127 0"/><feMorphology in="SourceAlpha" radius="3.1" result="effect1_dropShadow_107_21293"/><feOffset dy="3.8"/><feGaussianBlur stdDeviation=".6"/><feComposite in2="hardAlpha" operator="out"/><feColorMatrix values="0 0 0 0 0.0313726 0 0 0 0 0.0313726 0 0 0 0 0.0313726 0 0 0 0.05 0"/><feBlend in2="BackgroundImageFix" result="effect1_dropShadow_107_21293"/><feColorMatrix in="SourceAlpha" result="hardAlpha" values="0 0 0 0 0 0 0 0 0 0 0 0 0 0 0 0 0 0 127 0"/><feMorphology in="SourceAlpha" radius="3.1" result="effect2_dropShadow_107_21293"/><feOffset dy="4.6"/><feGaussianBlur stdDeviation="1.5"/><feComposite in2="hardAlpha" operator="out"/><feColorMatrix values="0 0 0 0 0.0313726 0 0 0 0 0.0313726 0 0 0 0 0.0313726 0 0 0 0.05 0"/><feBlend in2="effect1_dropShadow_107_21293" result="effect2_dropShadow_107_21293"/><feColorMatrix in="SourceAlpha" result="hardAlpha" values="0 0 0 0 0 0 0 0 0 0 0 0 0 0 0 0 0 0 127 0"/><feOffset dy="4.6"/><feGaussianBlur stdDeviation="5"/><feComposite in2="hardAlpha" operator="out"/><feColorMatrix values="0 0 0 0 0.0313726 0 0 0 0 0.0313726 0 0 0 0 0.0313726 0 0 0 0.03 0"/><feBlend in2="effect2_dropShadow_107_21293" result="effect3_dropShadow_107_21293"/><feColorMatrix in="SourceAlpha" result="hardAlpha" values="0 0 0 0 0 0 0 0 0 0 0 0 0 0 0 0 0 0 127 0"/><feMorphology in="SourceAlpha" radius="12.2" result="effect4_dropShadow_107_21293"/><feOffset dy="18.3"/><feGaussianBlur stdDeviation="9.2"/><feComposite in2="hardAlpha" operator="out"/><feColorMatrix values="0 0 0 0 0.0313726 0 0 0 0 0.0313726 0 0 0 0 0.0313726 0 0 0 0.04 0"/><feBlend in2="effect3_dropShadow_107_21293" result="effect4_dropShadow_107_21293"/><feColorMatrix in="SourceAlpha" result="hardAlpha" values="0 0 0 0 0 0 0 0 0 0 0 0 0 0 0 0 0 0 127 0"/><feMorphology in="SourceAlpha" radius="1.5" result="effect5_dropShadow_107_21293"/><feOffset dy="1.6"/><feGaussianBlur stdDeviation=".2"/><feComposite in2="hardAlpha" operator="out"/><feColorMatrix values="0 0 0 0 0 0 0 0 0 0 0 0 0 0 0 0 0 0 0.25 0"/><feBlend in2="effect4_dropShadow_107_21293" result="effect5_dropShadow_107_21293"/><feColorMatrix in="SourceAlpha" result="hardAlpha" values="0 0 0 0 0 0 0 0 0 0 0 0 0 0 0 0 0 0 127 0"/><feMorphology in="SourceAlpha" radius="9.2" result="effect6_dropShadow_107_21293"/><feOffset dy="24.4"/><feGaussianBlur stdDeviation="24.4"/><feComposite in2="hardAlpha" operator="out"/><feColorMatrix values="0 0 0 0 0 0 0 0 0 0 0 0 0 0 0 0 0 0 0.075 0"/><feBlend in2="effect5_dropShadow_107_21293" mode="multiply" result="effect6_dropShadow_107_21293"/><feBlend in="SourceGraphic" in2="effect6_dropShadow_107_21293" result="shape"/></filter></defs></svg>