<svg xmlns="http://www.w3.org/2000/svg" width="40" height="40" fill="none" viewBox="0 0 40 40"><rect width="39" height="39" x=".5" y=".5" fill="#fff" stroke="#e1e2e6" rx="19.5"/><g clip-path="url(#a)"><path fill="#00bcff" d="M20.023 20a3.333 3.333 0 1 1 6.667 0 3.333 3.333 0 0 1-6.667 0"/><path fill="#00cf7f" d="M13.356 26.668a3.333 3.333 0 0 1 3.333-3.334l1.776-.937 1.557.937v3.334a3.333 3.333 0 0 1-6.666 0"/><path fill="#ff7361" d="m20.023 10-1.814 3.151 1.814 3.516h3.286a3.333 3.333 0 1 0 0-6.667z"/><path fill="#ff4d12" d="M13.309 13.333a3.333 3.333 0 0 0 3.333 3.334l1.768.683 1.612-.683V10h-3.38a3.333 3.333 0 0 0-3.333 3.333"/><path fill="#b659ff" d="M13.356 20a3.333 3.333 0 0 0 3.333 3.333h3.333v-6.667H16.69a3.333 3.333 0 0 0-3.334 3.333"/></g><defs><clipPath id="a"><path fill="#fff" d="M10 10h20v20H10z"/></clipPath></defs></svg>