<svg width="40" height="40" viewBox="0 0 40 40" fill="none" xmlns="http://www.w3.org/2000/svg">
<rect x="0.5" y="0.5" width="39" height="39" rx="19.5" fill="white" stroke="#E1E2E6"/>
<g clip-path="url(#clip0_101_14164)">
<path d="M20.0234 19.9993C20.0234 18.1584 21.5158 16.666 23.3568 16.666C25.1977 16.666 26.6901 18.1584 26.6901 19.9993C26.6901 21.8403 25.1977 23.3327 23.3568 23.3327C21.5158 23.3327 20.0234 21.8403 20.0234 19.9993Z" fill="#00BCFF"/>
<path d="M13.3555 26.6677C13.3555 24.8267 14.8479 23.3343 16.6888 23.3343L18.4652 22.3965L20.0221 23.3343V26.6677C20.0221 28.5086 18.5297 30.001 16.6888 30.001C14.8479 30.001 13.3555 28.5086 13.3555 26.6677Z" fill="#00CF7F"/>
<path d="M20.0228 10L18.209 13.1512L20.0228 16.6666H23.3094C25.1504 16.6666 26.6427 15.1743 26.6427 13.3333C26.6427 11.4924 25.1503 10 23.3094 10H20.0228Z" fill="#FF7361"/>
<path d="M13.3086 13.3333C13.3086 15.1743 14.801 16.6666 16.6419 16.6666L18.4102 17.3496L20.022 16.6666V10H16.6419C14.801 10 13.3086 11.4924 13.3086 13.3333Z" fill="#FF4D12"/>
<path d="M13.3555 19.9994C13.3555 21.8404 14.8479 23.3327 16.6888 23.3327H20.0221V16.666H16.6888C14.8479 16.666 13.3555 18.1584 13.3555 19.9994Z" fill="#B659FF"/>
</g>
<defs>
<clipPath id="clip0_101_14164">
<rect width="20" height="20" fill="white" transform="translate(10 10)"/>
</clipPath>
</defs>
</svg>
