<svg xmlns="http://www.w3.org/2000/svg" fill="none" viewBox="0 0 384 370"><g clip-path="url(#a)"><g filter="url(#b)" opacity=".5" style="mix-blend-mode:multiply"><rect width="80.3" height="94.3" x="151.9" y="158.8" fill="#000" fill-opacity=".3" rx="14"/></g><path stroke="#d9d9d9" stroke-width="1.3" d="m316 66.3-39.2 35.3a21 21 0 0 0-7 15.6v55.4c0 10.7-8.6 19.4-19.3 19.4"/><path stroke="#d9d9d9" stroke-width="1.3" d="m316 129.2-33.8 15.2a21 21 0 0 0-12.4 19v9.2c0 10.7-8.6 19.4-19.3 19.4m65.4 62.8-33.7-15.2a21 21 0 0 1-12.4-19v-9.2c0-10.7-8.6-19.4-19.3-19.4"/><path stroke="#d9d9d9" stroke-width="1.3" d="m316 317.7-39.2-35.3a21 21 0 0 1-7-15.6v-55.4c0-10.7-8.6-19.4-19.3-19.4"/><foreignObject width="160.9" height="160.9" x="111.7" y="111.7"><div xmlns="http://www.w3.org/1999/xhtml" clip-path="url(#c)" style="backdrop-filter:blur(13.96px);height:100%;width:100%"/></foreignObject><path fill="url(#d)" fill-opacity=".8" stroke="url(#e)" stroke-width="1.3" d="M178.7 140.3h26.8q10.2 0 16 .3 5.9.5 9.5 2.3a24 24 0 0 1 10.4 10.4q1.9 3.6 2.3 9.4t.3 16v26.8q0 10.2-.3 16-.5 5.9-2.3 9.5a24 24 0 0 1-10.4 10.4q-3.6 1.9-9.5 2.3-5.8.4-16 .3h-26.8q-10.1 0-16-.3-5.9-.5-9.4-2.3a24 24 0 0 1-10.4-10.4q-1.9-3.6-2.3-9.5-.4-5.8-.3-16v-26.8q0-10.1.3-16 .5-5.9 2.3-9.4a24 24 0 0 1 10.4-10.4q3.6-1.9 9.4-2.3t16-.3Z"/><g filter="url(#f)"><path fill="#f1f1f1" d="M146.6 174.5c0-9.7 0-14.6 2-18.4a17 17 0 0 1 7.5-7.6c3.8-1.9 8.7-1.9 18.4-1.9h35.2c9.8 0 14.7 0 18.4 2a17 17 0 0 1 7.7 7.5c1.9 3.8 1.9 8.7 1.9 18.4v35.2c0 9.8 0 14.7-2 18.4a18 18 0 0 1-7.6 7.7c-3.7 1.9-8.6 1.9-18.4 1.9h-35.2c-9.7 0-14.6 0-18.4-2a18 18 0 0 1-7.6-7.6c-1.9-3.7-1.9-8.6-1.9-18.4z"/><path stroke="url(#g)" stroke-width="1.3" d="M174.5 147.3h35.2q7.3 0 11.4.2 4.3.3 6.7 1.6a17 17 0 0 1 7.4 7.3q1.3 2.6 1.6 6.7c.2 3 .2 6.5.2 11.4v35.2q0 7.3-.2 11.4-.3 4.3-1.6 6.7a17 17 0 0 1-7.4 7.4q-2.4 1.3-6.7 1.6-4.1.2-11.4.2h-35.2q-7.2 0-11.4-.2-4.1-.3-6.7-1.6a17 17 0 0 1-7.3-7.4q-1.3-2.4-1.6-6.7-.2-4.1-.2-11.4v-35.2q0-7.2.2-11.4.3-4.1 1.6-6.7a17 17 0 0 1 7.3-7.3q2.6-1.3 6.7-1.6c3-.2 6.5-.2 11.4-.2Z"/></g><circle cx="192" cy="192" r="33.2" fill="url(#h)"/><g opacity=".2"><foreignObject width="136.1" height="136.1" x="123.8" y="123.8"><div xmlns="http://www.w3.org/1999/xhtml" clip-path="url(#i)" style="backdrop-filter:blur(13.96px);height:100%;width:100%"/></foreignObject><rect width="79" height="79" x="152.4" y="152.4" stroke="url(#j)" stroke-width="1.3" rx="39.5"/></g><g clip-path="url(#k)" filter="url(#l)" shape-rendering="crispEdges"><rect width="52.4" height="52.4" x="289.7" y="40.1" fill="#fdfdfd" fill-opacity=".5" rx="26.2"/><rect width="51.1" height="51.1" x="290.4" y="40.8" stroke="#fdfdfd" stroke-opacity=".3" stroke-width="1.3" rx="25.5"/></g><g clip-path="url(#m)" filter="url(#n)" shape-rendering="crispEdges"><rect width="52.4" height="52.4" x="289.7" y="165.8" fill="#fdfdfd" fill-opacity=".5" rx="26.2"/><rect width="51.1" height="51.1" x="290.4" y="166.5" stroke="#fdfdfd" stroke-opacity=".3" stroke-width="1.3" rx="25.5"/></g><g clip-path="url(#o)" filter="url(#p)" shape-rendering="crispEdges"><rect width="52.4" height="52.4" x="289.7" y="103" fill="#fdfdfd" fill-opacity=".5" rx="26.2"/><rect width="51.1" height="51.1" x="290.4" y="103.6" stroke="#fdfdfd" stroke-opacity=".3" stroke-width="1.3" rx="25.5"/></g><g clip-path="url(#q)" filter="url(#r)" shape-rendering="crispEdges"><rect width="52.4" height="52.4" x="289.7" y="228.7" fill="#fdfdfd" fill-opacity=".5" rx="26.2"/><rect width="51.1" height="51.1" x="290.4" y="229.3" stroke="#fdfdfd" stroke-opacity=".3" stroke-width="1.3" rx="25.5"/></g><g clip-path="url(#s)" filter="url(#t)" shape-rendering="crispEdges"><rect width="52.4" height="52.4" x="289.7" y="291.5" fill="#fdfdfd" fill-opacity=".5" rx="26.2"/><rect width="51.1" height="51.1" x="290.4" y="292.1" stroke="#fdfdfd" stroke-opacity=".3" stroke-width="1.3" rx="25.5"/></g><rect width="54.5" height="195.1" x="46" y="94" stroke="url(#u)" stroke-width="1.3" rx="27.3"/><rect width="68.5" height="209" x=".7" y="-.7" stroke="url(#v)" stroke-width="1.3" rx="34.3" transform="matrix(1 0 0 -1 38.4 295.4)"/><g filter="url(#w)"><rect width="41.9" height="181.5" x="52.5" y="99.8" fill="#f1f1f1" rx="20.9"/><rect width="40.6" height="180.2" x="53.1" y="100.4" stroke="url(#x)" stroke-width="1.3" rx="20.3"/></g><g clip-path="url(#y)"><rect width="34.9" height="34.9" x="55.4" y="173.7" fill="url(#z)" rx="17.5"/><rect width="33.6" height="33.6" x="56.1" y="174.3" stroke="#a8a8a8" stroke-opacity=".1" stroke-width="1.3" rx="16.8"/></g><path fill="url(#A)" d="M60.6 260.5a12.2 12.2 0 1 1 24.5 0 12.2 12.2 0 0 1-24.5 0"/><path stroke="#d9d9d9" stroke-linecap="round" stroke-width="1.3" d="M108.2 192h24.5M0 192h38.4m94.3 7v-14m157 7h-39.2m137.9 0H349m0 7v-14"/></g><defs><linearGradient id="d" x1="192.1" x2="192.1" y1="139.6" y2="244.6" gradientUnits="userSpaceOnUse"><stop stop-color="#fdfdfd" stop-opacity=".3"/><stop offset="1" stop-color="#fdfdfd"/></linearGradient><linearGradient id="e" x1="192.1" x2="192.1" y1="139.6" y2="244.6" gradientUnits="userSpaceOnUse"><stop stop-color="#e2e2e2"/><stop offset="1" stop-color="#e2e2e2" stop-opacity=".8"/></linearGradient><linearGradient id="g" x1="192.1" x2="192.1" y1="146.6" y2="237.7" gradientUnits="userSpaceOnUse"><stop stop-color="#f6f6f6"/><stop offset="1" stop-color="#e6e6e6"/></linearGradient><linearGradient id="j" x1="191.9" x2="191.9" y1="151.7" y2="232" gradientUnits="userSpaceOnUse"><stop stop-color="#e2e2e2" stop-opacity="0"/><stop offset="1" stop-color="#e2e2e2"/></linearGradient><linearGradient id="u" x1="73.3" x2="73.3" y1="93.4" y2="289.7" gradientUnits="userSpaceOnUse"><stop stop-color="#e2e2e2" stop-opacity="0"/><stop offset="1" stop-color="#e2e2e2"/></linearGradient><linearGradient id="v" x1="34.9" x2="34.9" y1="0" y2="210.3" gradientUnits="userSpaceOnUse"><stop stop-color="#e2e2e2" stop-opacity="0"/><stop offset="1" stop-color="#e2e2e2"/></linearGradient><linearGradient id="x" x1="73.4" x2="73.4" y1="99.8" y2="281.3" gradientUnits="userSpaceOnUse"><stop stop-color="#f6f6f6"/><stop offset="1" stop-color="#e6e6e6"/></linearGradient><linearGradient id="z" x1="72.9" x2="72.9" y1="164.2" y2="218.1" gradientUnits="userSpaceOnUse"><stop stop-color="#ebebeb"/><stop offset="1" stop-color="#c4c4c4"/></linearGradient><linearGradient id="A" x1="72.9" x2="72.9" y1="248.3" y2="272.7" gradientUnits="userSpaceOnUse"><stop stop-color="#779dff"/><stop offset="1" stop-color="#2d68ff"/></linearGradient><clipPath id="c" transform="translate(-111.7 -111.7)"><path d="M178.7 140.3h26.8q10.2 0 16 .3 5.9.5 9.5 2.3a24 24 0 0 1 10.4 10.4q1.9 3.6 2.3 9.4t.3 16v26.8q0 10.2-.3 16-.5 5.9-2.3 9.5a24 24 0 0 1-10.4 10.4q-3.6 1.9-9.5 2.3-5.8.4-16 .3h-26.8q-10.1 0-16-.3-5.9-.5-9.4-2.3a24 24 0 0 1-10.4-10.4q-1.9-3.6-2.3-9.5-.4-5.8-.3-16v-26.8q0-10.1.3-16 .5-5.9 2.3-9.4a24 24 0 0 1 10.4-10.4q3.6-1.9 9.4-2.3t16-.3"/></clipPath><clipPath id="i" transform="translate(-123.8 -123.8)"><rect width="79" height="79" x="152.4" y="152.4" rx="39.5"/></clipPath><clipPath id="a"><path fill="#fff" d="M0 44.7C0 29 0 21.2 3 15.2A28 28 0 0 1 15.2 3c6-3 13.8-3 29.5-3h294.6c15.7 0 23.5 0 29.5 3A28 28 0 0 1 381 15.2c3 6 3 13.8 3 29.5v294.6c0 15.7 0 23.5-3 29.5a28 28 0 0 1-12.2 12.2c-6 3-13.8 3-29.5 3H44.7c-15.7 0-23.5 0-29.5-3A28 28 0 0 1 3 368.8c-3-6-3-13.8-3-29.5z"/></clipPath><clipPath id="k"><path fill="#fff" d="M289.7 40.1h52.4v52.4h-52.4z"/></clipPath><clipPath id="m"><path fill="#fff" d="M289.7 165.8h52.4v52.4h-52.4z"/></clipPath><clipPath id="o"><path fill="#fff" d="M289.7 103h52.4v52.3h-52.4z"/></clipPath><clipPath id="q"><path fill="#fff" d="M289.7 228.7h52.4V281h-52.4z"/></clipPath><clipPath id="s"><path fill="#fff" d="M289.7 291.5h52.4v52.4h-52.4z"/></clipPath><clipPath id="y"><rect width="34.9" height="34.9" x="55.4" y="173.7" fill="#fff" rx="17.5"/></clipPath><filter id="b" width="192" height="206" x="96" y="103" color-interpolation-filters="sRGB" filterUnits="userSpaceOnUse"><feFlood flood-opacity="0" result="BackgroundImageFix"/><feBlend in="SourceGraphic" in2="BackgroundImageFix" result="shape"/><feGaussianBlur result="effect1_foregroundBlur_211_5161" stdDeviation="27.9"/></filter><filter id="f" width="181.8" height="181.8" x="101.2" y="129.2" color-interpolation-filters="sRGB" filterUnits="userSpaceOnUse"><feFlood flood-opacity="0" result="BackgroundImageFix"/><feColorMatrix in="SourceAlpha" result="hardAlpha" values="0 0 0 0 0 0 0 0 0 0 0 0 0 0 0 0 0 0 127 0"/><feOffset dy="20.9"/><feGaussianBlur stdDeviation="10.5"/><feComposite in2="hardAlpha" operator="out"/><feColorMatrix values="0 0 0 0 0.0313726 0 0 0 0 0.0313726 0 0 0 0 0.0313726 0 0 0 0.04 0"/><feBlend in2="BackgroundImageFix" result="effect4_dropShadow_211_5161"/><feBlend in="SourceGraphic" in2="effect4_dropShadow_211_5161" result="shape"/></filter><filter id="l" width="108.2" height="108.2" x="261.8" y="12.2" color-interpolation-filters="sRGB" filterUnits="userSpaceOnUse"><feFlood flood-opacity="0" result="BackgroundImageFix"/><feColorMatrix in="SourceAlpha" result="hardAlpha" values="0 0 0 0 0 0 0 0 0 0 0 0 0 0 0 0 0 0 127 0"/><feOffset dy=".9"/><feGaussianBlur stdDeviation="3.5"/><feComposite in2="hardAlpha" operator="out"/><feColorMatrix values="0 0 0 0 0 0 0 0 0 0 0 0 0 0 0 0 0 0 0.2 0"/><feBlend in2="BackgroundImageFix" mode="multiply" result="effect1_dropShadow_211_5161"/><feBlend in="SourceGraphic" in2="effect1_dropShadow_211_5161" result="shape"/></filter><filter id="n" width="108.2" height="108.2" x="261.8" y="137.9" color-interpolation-filters="sRGB" filterUnits="userSpaceOnUse"><feFlood flood-opacity="0" result="BackgroundImageFix"/><feColorMatrix in="SourceAlpha" result="hardAlpha" values="0 0 0 0 0 0 0 0 0 0 0 0 0 0 0 0 0 0 127 0"/><feOffset dy=".9"/><feGaussianBlur stdDeviation="3.5"/><feComposite in2="hardAlpha" operator="out"/><feColorMatrix values="0 0 0 0 0 0 0 0 0 0 0 0 0 0 0 0 0 0 0.2 0"/><feBlend in2="BackgroundImageFix" mode="multiply" result="effect1_dropShadow_211_5161"/><feBlend in="SourceGraphic" in2="effect1_dropShadow_211_5161" result="shape"/></filter><filter id="p" width="108.2" height="108.2" x="261.8" y="75.1" color-interpolation-filters="sRGB" filterUnits="userSpaceOnUse"><feFlood flood-opacity="0" result="BackgroundImageFix"/><feColorMatrix in="SourceAlpha" result="hardAlpha" values="0 0 0 0 0 0 0 0 0 0 0 0 0 0 0 0 0 0 127 0"/><feOffset dy=".9"/><feGaussianBlur stdDeviation="3.5"/><feComposite in2="hardAlpha" operator="out"/><feColorMatrix values="0 0 0 0 0 0 0 0 0 0 0 0 0 0 0 0 0 0 0.2 0"/><feBlend in2="BackgroundImageFix" mode="multiply" result="effect1_dropShadow_211_5161"/><feBlend in="SourceGraphic" in2="effect1_dropShadow_211_5161" result="shape"/></filter><filter id="r" width="108.2" height="108.2" x="261.8" y="200.7" color-interpolation-filters="sRGB" filterUnits="userSpaceOnUse"><feFlood flood-opacity="0" result="BackgroundImageFix"/><feColorMatrix in="SourceAlpha" result="hardAlpha" values="0 0 0 0 0 0 0 0 0 0 0 0 0 0 0 0 0 0 127 0"/><feOffset dy=".9"/><feGaussianBlur stdDeviation="3.5"/><feComposite in2="hardAlpha" operator="out"/><feColorMatrix values="0 0 0 0 0 0 0 0 0 0 0 0 0 0 0 0 0 0 0.2 0"/><feBlend in2="BackgroundImageFix" mode="multiply" result="effect1_dropShadow_211_5161"/><feBlend in="SourceGraphic" in2="effect1_dropShadow_211_5161" result="shape"/></filter><filter id="t" width="108.2" height="108.2" x="261.8" y="263.6" color-interpolation-filters="sRGB" filterUnits="userSpaceOnUse"><feFlood flood-opacity="0" result="BackgroundImageFix"/><feColorMatrix in="SourceAlpha" result="hardAlpha" values="0 0 0 0 0 0 0 0 0 0 0 0 0 0 0 0 0 0 127 0"/><feOffset dy=".9"/><feGaussianBlur stdDeviation="3.5"/><feComposite in2="hardAlpha" operator="out"/><feColorMatrix values="0 0 0 0 0 0 0 0 0 0 0 0 0 0 0 0 0 0 0.2 0"/><feBlend in2="BackgroundImageFix" mode="multiply" result="effect1_dropShadow_211_5161"/><feBlend in="SourceGraphic" in2="effect1_dropShadow_211_5161" result="shape"/></filter><filter id="w" width="132.7" height="272.3" x="7.1" y="82.3" color-interpolation-filters="sRGB" filterUnits="userSpaceOnUse"><feFlood flood-opacity="0" result="BackgroundImageFix"/><feColorMatrix in="SourceAlpha" result="hardAlpha" values="0 0 0 0 0 0 0 0 0 0 0 0 0 0 0 0 0 0 127 0"/><feOffset dy="20.9"/><feGaussianBlur stdDeviation="10.5"/><feComposite in2="hardAlpha" operator="out"/><feColorMatrix values="0 0 0 0 0.0313726 0 0 0 0 0.0313726 0 0 0 0 0.0313726 0 0 0 0.04 0"/><feBlend in2="BackgroundImageFix" result="effect4_dropShadow_211_5161"/><feBlend in="SourceGraphic" in2="effect4_dropShadow_211_5161" result="shape"/></filter><radialGradient id="h" cx="0" cy="0" r="1" gradientTransform="rotate(90 0 192)scale(33.1636)" gradientUnits="userSpaceOnUse"><stop stop-color="#c786f6"/><stop offset="1" stop-color="#fff"/></radialGradient></defs></svg>