<svg xmlns="http://www.w3.org/2000/svg" fill="none" viewBox="0 0 384 329"><g clip-path="url(#a)"><g filter="url(#b)"><rect width="200.7" height="75.1" x="91.6" y="48.9" fill="#f1f1f1" rx="14"/><rect width="199.4" height="73.7" x="92.3" y="49.5" stroke="url(#c)" stroke-width="1.3" rx="13.3"/></g><g filter="url(#d)" opacity=".5" style="mix-blend-mode:multiply"><rect width="178.9" height="148.4" x="103" y="60.2" fill="#000" fill-opacity=".3" rx="14"/></g><g filter="url(#e)"><rect width="228.7" height="75.1" x="77.7" y="67.2" fill="#f1f1f1" rx="14"/><rect width="227.3" height="73.7" x="78.3" y="67.9" stroke="url(#f)" stroke-width="1.3" rx="13.3"/></g><g filter="url(#g)" opacity=".5" style="mix-blend-mode:multiply"><rect width="199.9" height="148.4" x="92.5" y="81.2" fill="#000" fill-opacity=".3" rx="14"/></g><foreignObject width="314.2" height="249.6" x="34.9" y="58.5"><div xmlns="http://www.w3.org/1999/xhtml" clip-path="url(#h)" style="backdrop-filter:blur(13.96px);height:100%;width:100%"/></foreignObject><path fill="url(#i)" fill-opacity=".8" stroke="url(#j)" stroke-width="1.3" d="M102 87h180c7 0 12 0 16 .4 4.1.3 7 1 9.5 2.2A24 24 0 0 1 318 100q1.9 3.6 2.3 9.5.4 5.8.3 16V241q0 10.2-.3 16-.5 5.9-2.3 9.5a24 24 0 0 1-10.4 10.4q-3.6 1.9-9.4 2.3t-16 .3H101.9q-10.1 0-16-.3-5.9-.5-9.4-2.3A24 24 0 0 1 66 266.5c-1.3-2.5-2-5.4-2.3-9.5q-.4-5.8-.3-16V125.5q0-10.2.3-16 .5-5.9 2.3-9.5a24 24 0 0 1 10.4-10.4q3.6-1.8 9.4-2.2t16-.3Z"/><g filter="url(#k)"><path fill="#f1f1f1" d="M69.8 121.3c0-9.8 0-14.7 2-18.4a18 18 0 0 1 7.5-7.6c3.8-2 8.7-2 18.4-2h188.6c9.7 0 14.6 0 18.4 2a18 18 0 0 1 7.6 7.6c1.9 3.7 1.9 8.6 1.9 18.4v124c0 9.7 0 14.6-2 18.3a18 18 0 0 1-7.5 7.7c-3.8 1.9-8.7 1.9-18.4 1.9H97.7c-9.7 0-14.6 0-18.4-2a18 18 0 0 1-7.6-7.6c-1.9-3.7-1.9-8.6-1.9-18.4z"/><path stroke="url(#l)" stroke-width="1.3" d="M97.7 94h188.6q7.2 0 11.4.3 4.1.3 6.7 1.6a17 17 0 0 1 7.3 7.3q1.3 2.5 1.6 6.7t.2 11.4v124q0 7.1-.2 11.3t-1.6 6.7a17 17 0 0 1-7.3 7.4q-2.6 1.3-6.7 1.6c-3 .2-6.5.2-11.4.2H97.7q-7.2 0-11.4-.2-4.1-.4-6.7-1.6a17 17 0 0 1-7.3-7.4q-1.3-2.4-1.6-6.7-.2-4.1-.2-11.4V121.3q0-7.2.2-11.4t1.6-6.7a17 17 0 0 1 7.3-7.3q2.6-1.4 6.7-1.6c3-.3 6.5-.3 11.4-.3Z"/></g><g clip-path="url(#m)"><mask id="o" width="246" height="181" x="69" y="93" maskUnits="userSpaceOnUse" style="mask-type:alpha"><rect width="244.4" height="179.8" x="69.8" y="93.4" fill="url(#n)" rx="17.5"/></mask><g mask="url(#o)"><circle cx="300.2" cy="107.3" r="3.5" fill="#00a656"/><path fill="#a8a8a8" d="M84.4 112.3v-.6h1.3v-3.8l-1.3 1v-.8l1.1-.8h1v4.4h1v.6zm0 14v-.7L86 124l.5-.7.2-.6q0-.4-.3-.6t-.5-.2-.7.2-.2.6h-.8q0-.4.3-.8l.5-.5.9-.2.8.2q.3.1.5.5.2.3.2.7l-.2 1-.8.9-1.1 1.2h2.2v.6zm1.4 14.1q-.5 0-.8-.2l-.6-.5-.2-.7h.8l.2.6q.2.2.6.2t.6-.3.3-.5v-.4q0-.4-.3-.6t-.6-.2h-.5v-.8l1.2-1h-2v-.7h2.7v.7l-1.4 1.3v-.2q.8 0 1.2.4t.4 1v.5q0 .4-.2.7-.2.4-.5.5zm.8 14v-1.1h-2.3v-1.1l2-3h.8l-2 3.1v.3h1.5v-1.2h.7v3zm-.7 14q-.7 0-1.1-.3a1 1 0 0 1-.5-1h.8l.2.5q.2.2.6.2t.6-.3.2-.6v-.5l-.2-.6q-.2-.2-.6-.2l-.5.2-.2.3h-.8v-2.8h2.8v.6h-2v1.6h.2l-.2.2q0-.3.2-.5t.7-.2 1 .4q.3.4.3 1v.5q0 .7-.4 1.1t-1.1.4m0 14q-.5 0-.9-.2l-.6-.6-.2-.9.1-.7q.1-.4.4-.7l1.2-2h.8l-1.4 2.3.4-.3.5-.1q.4 0 .7.2l.5.5.1.9q0 .5-.2.8l-.5.6zm0-.6q.5 0 .7-.3.3-.3.3-.7t-.3-.7-.6-.3-.7.3-.2.7.2.7.7.3m-1 14.5 1.9-4.4H85v.8h-.7v-1.4h3.2v.7l-1.7 4.3zm1 14.1-.9-.1-.5-.5-.2-.7q0-.5.2-.8t.8-.6l.7-.4q.3 0 .5-.3l.1-.5-.2-.5q-.2-.2-.5-.2t-.6.2l-.2.5q0 .3.2.5.1.2.4.3l.7.4q.6.2.8.6t.3.8q0 .6-.5 1-.4.3-1.1.3m0-.6q.4 0 .6-.2l.2-.6-.1-.5-.5-.4-.7-.3-.8-.6-.2-.7q0-.4.2-.7.1-.3.5-.5l.8-.1.8.1.5.5q.2.3.2.7t-.3.7l-.7.6-.8.3-.4.4-.2.5q0 .3.3.6t.6.2m-.9 14.5 1.5-2.3-.4.3-.5.1q-.4 0-.7-.2l-.5-.5-.2-.9q0-.5.2-.8t.6-.6.9-.2.8.2.6.6.2.9v.7l-.4.7-1.2 2zm.9-2.5q.4 0 .6-.3.3-.2.3-.7t-.3-.7-.6-.3-.7.3-.2.7.2.7.7.3m-1.5 16.5v-.6h1.3v-3.8l-1.3 1v-.8l1.1-.8h1v4.4h1v.6zm5.4.1q-.5 0-.9-.2l-.5-.5-.2-.8v-2.2q0-.5.2-.8l.5-.5q.4-.2.9-.2t.8.2.6.5.2.8v2.2q0 .5-.2.8t-.6.5zm0-.6q.4 0 .6-.3t.2-.6v-2.2l-.2-.6q-.2-.3-.6-.3t-.6.3-.3.6v2.2q0 .4.3.6.2.3.6.3m0-1.6h-.3l-.2-.4q0-.2.2-.3l.3-.2q.2 0 .3.2l.1.3-.1.3zm-5.4 16.1v-.6h1.3v-3.8l-1.3 1v-.8l1.1-.8h1v4.4h1v.6zm3.9 0v-.6h1.4v-3.8l-1.4 1v-.8l1.2-.8h.9v4.4h1.1v.6zm-4 14v-.6h1.4v-3.8l-1.3 1v-.8l1.1-.8h1v4.4h1v.6zm4 0v-.7L90 264l.5-.7.2-.6q0-.4-.3-.6t-.5-.2-.7.2-.2.6h-.8q0-.4.3-.8l.5-.5.9-.2.8.2q.3.1.5.5.2.3.2.7l-.2 1q-.2.4-.8.9l-1.1 1.2h2.2v.6zm-4 14v-.6h1.4v-3.8l-1.3 1v-.8l1.1-.8h1v4.4h1v.6zm5.4.1q-.5 0-.8-.2l-.6-.5-.2-.7h.8l.2.6q.2.2.6.2t.6-.3.3-.5v-.4q0-.4-.3-.6t-.6-.2h-.5v-.8l1.2-1h-2v-.7H91v.7l-1.4 1.3v-.2q.8 0 1.2.4t.4 1v.5q0 .4-.2.7-.2.4-.5.5zm-5.3 14v-.7h1.3v-3.8l-1.3 1v-.8l1.1-.8h1v4.4h1v.6zm6 0v-1.1h-2.2v-1.1l2-3h.8l-2 3.1v.3h1.5v-1.2h.7v3z"/><path fill="#2c97fc" d="M101.6 112.4q-.5 0-.8-.2l-.6-.5-.2-.8v-1l.2-.8q.2-.3.6-.5t.8-.2q.7 0 1.1.4t.5 1h-.8q0-.3-.2-.5t-.6-.2-.6.2-.2.6v1q0 .4.2.6.2.3.6.3t.6-.2.2-.5h.8q0 .6-.5 1-.4.3-1 .3m4.3 0-.6-.2-.4-.4-.1-.6v-3.3h-1.3v-.6h2v3.9l.1.3.4.2h1.2v.6zm3 0q-.6 0-1-.3-.3-.3-.3-.8t.4-.9 1-.3h1v-.4l-.1-.5-.6-.1-.5.1-.2.4h-.8q0-.5.5-.9.4-.3 1-.3t1.1.4.4 1v2.5h-.7v-.7h-.1v-.1l-.2.7q-.4.2-.9.2m.2-.6q.4 0 .7-.2l.3-.5v-.5h-1l-.6.2-.1.4q0 .3.2.5zm4 .6-.8-.1-.4-.4-.2-.5h.7l.2.3h1.3l.2-.4-.2-.4-.5-.2h-.5q-.6-.1-.9-.4-.2-.2-.2-.7 0-.6.3-.9t1-.3h.3q.6 0 1 .3.3.3.4.8h-.8l-.2-.3-.4-.1h-.3l-.5.1-.1.4.1.3.4.1.5.1q.7.1 1 .4.3.2.3.7 0 .6-.4.9-.3.3-1 .3zm3.9 0-.7-.1-.5-.4-.2-.5h.7l.2.3h1.3l.2-.4-.2-.4-.4-.2h-.5q-.7-.1-1-.4-.2-.2-.2-.7 0-.6.3-.9.4-.3 1-.3h.3q.6 0 1 .3.3.3.4.8h-.8l-.2-.3-.4-.1h-.3l-.5.1-.1.4.1.3.4.1.6.1q.6.1 1 .4.2.2.2.7 0 .6-.4.9-.3.3-1 .3zm7.7 14q-.6 0-1-.4t-.3-1v-1.1q0-.7.3-1 .4-.5 1-.5.4 0 .7.3t.3.7l-.2-.2h.2v-1.9h.7v5h-.7v-.7h-.2l.2-.2q0 .5-.3.8-.3.2-.7.2m.2-.6q.4 0 .6-.3t.2-.6v-1q0-.4-.2-.6t-.6-.2-.6.2-.2.6v1q0 .4.2.7t.6.2m4 .6-.9-.2-.5-.5-.2-.8v-1l.2-.8.5-.5.8-.2q.5 0 .9.2l.5.5.2.8v.7H128v.3q0 .5.2.7t.6.2l.6-.1.2-.3h.8l-.5.7q-.4.3-1 .3m.8-2.2v-.3q0-.4-.3-.6-.2-.3-.6-.3t-.6.3-.2.6v.2zm2.4 2.1v-2.7h-1v-.7h1v-.6q0-.5.3-.8.3-.2.9-.2h1.1v.6h-1.1l-.3.1-.1.3v.6h1.5v.7H133v2.7zm-7.4 42.1q-.6 0-1-.4t-.3-1v-1.1q0-.7.3-1 .4-.5 1-.5.4 0 .7.3t.3.7l-.2-.2h.2v-1.9h.7v5h-.7v-.7h-.2l.2-.2q0 .5-.3.8-.3.2-.7.2m.2-.6q.4 0 .6-.3t.2-.6v-1q0-.4-.2-.6t-.6-.2-.6.2-.2.6v1q0 .4.2.7t.6.2m4 .6-.9-.2-.5-.5-.2-.8v-1l.2-.8.5-.5.8-.2q.5 0 .9.2l.5.5.2.8v.7H128v.3q0 .5.2.7t.6.2l.6-.1.2-.3h.8l-.5.7q-.4.3-1 .3m.8-2.2v-.3q0-.4-.3-.6-.2-.3-.6-.3t-.6.3-.2.6v.2h1.7zm2.4 2.1v-2.7h-1v-.7h1v-.6q0-.5.3-.8.3-.2.9-.2h1.1v.6h-1.1l-.3.1-.1.3v.6h1.5v.7H133v2.7zm11 14v-3.8h.7v.7h.2l-.2.5q0-.6.2-1 .3-.3.8-.3.7 0 1 .4t.4 1v.3h-.8v-.2q0-.4-.2-.6t-.6-.2-.6.2-.2.6v2.4zm5.3.1q-.5 0-.9-.2l-.5-.5-.2-.8v-1l.2-.8.5-.5.9-.2.8.2.5.5.2.8v.7h-2.4v.3q0 .5.3.7t.6.2l.5-.1.3-.3h.7l-.5.7q-.4.3-1 .3m.8-2.2v-.3q0-.4-.2-.6-.2-.3-.6-.3t-.6.3q-.3.2-.3.6v.2h1.8zm3.5 2.1q-.5 0-.8-.2t-.3-.8v-2.1h-1v-.7h1v-1h.7v1h1.5v.7h-1.5v2q0 .5.4.5h1v.6zm3.5.1q-.7 0-1.1-.4t-.4-1v-2.5h.7v2.4q0 .4.2.6.2.3.6.3t.5-.3.3-.6v-2.4h.7v2.4q0 .7-.4 1.1t-1.1.4m2.5 0v-3.9h.7v.7h.2l-.2.5q0-.6.3-1 .2-.3.8-.3t1 .4.3 1v.3h-.8v-.2q0-.4-.2-.6t-.6-.2-.5.2-.2.6v2.4zm3.8 0v-3.9h.7v.7h.2l-.2.2q0-.4.3-.7t.8-.3.9.4.3 1v2.5h-.7V180q0-.4-.2-.6t-.6-.2l-.6.2q-.2.2-.2.6v2.4zm32.1 0v-2.8h-1v-.7h1v-.6q0-.5.4-.8.3-.2.8-.2h1.1v.6h-1l-.4.1-.1.3v.6h1.5v.7h-1.5v2.7zm4.6 0-.9-.2-.5-.5-.2-.8v-1l.2-.8.5-.5.9-.2.8.2.5.5.2.8v1q0 .5-.2.8l-.5.5zm0-.7.6-.2q.2-.2.2-.6v-1q0-.4-.2-.6l-.6-.2q-.4 0-.6.2t-.2.6v1q0 .4.2.6t.6.2m2.5.6v-3.8h.7v.7h.2l-.2.5q0-.6.2-1 .3-.3.8-.3.7 0 1 .4t.4 1v.3h-.8v-.2q0-.4-.2-.6t-.6-.2-.6.2-.2.6v2.4zm35 0v-.6h1.4v-2.5H237v-.7h1.9v3.2h1.2v.6zm1.6-4.5h-.3l-.2-.4q0-.3.2-.4l.3-.1.4.1q.2.1.2.4l-.2.3zm2.3 4.5v-3.8h.8v.7h.2l-.2.2q0-.4.3-.7t.7-.3q.6 0 1 .4.3.4.3 1v2.5h-.8V180q0-.4-.2-.6t-.5-.2-.6.2-.2.6v2.4zm46.9 0v-.6h1.3v-2.5h-1.1v-.7h1.9v3.2h1.2v.6zm1.6-4.5h-.4l-.1-.4.1-.4.4-.1.4.1q.2.1.2.4l-.2.3zm3.2 4.5v-2.7h-1v-.7h1v-.6q0-.5.3-.8.3-.2.9-.2h1v.6h-1l-.3.1-.1.3v.6h1.5v.7h-1.5v2.7z"/><path fill="#1b1b1b" d="m187.5 109.5-.4-.1-.2-.4q0-.3.2-.4l.4-.2q.3 0 .5.2l.2.4-.2.4zm0 3-.4-.2-.2-.4q0-.3.2-.4l.4-.2q.3 0 .5.2l.2.4-.2.4zm-14.3 14.8q-1-.3-1.6-1t-.6-1.7v-1.3q0-.7.3-1.2t.8-1l1.1-.5v.7l-.7.4-.5.7-.2 1v1.2q0 .5.2.9.1.4.5.7l.7.3zm2.5-.8-.7-.1-.5-.4-.2-.5h.7l.2.3h1.3l.2-.4-.2-.4-.4-.2h-.5q-.7-.1-1-.4-.2-.2-.2-.7 0-.6.3-.9.4-.3 1-.3h.3q.6 0 1 .3.3.3.4.8h-.8l-.2-.3-.4-.1h-.3l-.4.1q-.2.1-.2.4l.1.3.5.1.5.1q.6.1 1 .4.2.2.2.7 0 .6-.3 1-.4.2-1.1.2zm4 0-.8-.2-.5-.5-.2-.8v-1l.2-.8.5-.5.8-.2q.5 0 .9.2l.5.5.2.8v.7h-2.4v.3q0 .5.2.7t.6.2l.6-.1.2-.3h.8l-.5.7q-.5.3-1 .3m.8-2.2v-.3q0-.4-.3-.6-.2-.3-.6-.3t-.6.3-.2.6v.2zm3.6 2.1h-.6l-.5-.5-.1-.6V122h-1.3v-.6h2v3.9q0 .2.2.3l.3.2h1.2v.6zm2.7 0v-2.7h-1v-.7h1v-.6q0-.5.3-.8.3-.2.9-.2h1.1v.6h-1.1l-.3.1-.1.3v.6h1.5v.7h-1.5v2.7zm3.6 1.2.5-2.2h1l-.9 2.2zm8.5-1q-.6 0-1-.5-.3-.4-.3-1V124q0-.7.4-1 .3-.5.9-.5.5 0 .7.3.3.3.3.7l-.1-.2h.1v-1.9h.8v5h-.8v-.7h-.1l.1-.2q0 .5-.3.8-.2.2-.7.2m.2-.6q.4 0 .6-.3t.2-.6v-1q0-.4-.2-.6t-.6-.2-.5.2-.2.6v1q0 .4.2.7t.5.2m3.6.6q-.6 0-1-.3-.3-.3-.3-.8t.4-.9q.3-.3 1-.3h1v-.4q0-.3-.2-.5l-.5-.1-.5.1-.3.4h-.7q0-.5.5-.9.4-.3 1-.3t1 .4.5 1v2.5h-.7v-.7h-.2l.2-.1q0 .4-.4.7-.3.2-.8.2m.2-.6q.4 0 .7-.2l.2-.5v-.5h-1q-.3 0-.5.2l-.2.4q0 .3.3.5zm4.5.5q-.5 0-.8-.2t-.3-.8v-2.1h-1v-.7h1v-1h.7v1h1.5v.7h-1.5v2q0 .5.4.5h1v.6zm3.1.1q-.6 0-1-.3-.3-.3-.3-.8t.4-.9q.3-.3 1-.3h1v-.4l-.1-.5-.6-.1-.5.1-.3.4h-.7q0-.5.5-.9.4-.3 1-.3t1.1.4.4 1v2.5h-.7v-.7h-.2l.2-.1-.3.7q-.4.2-.9.2m.2-.6q.4 0 .7-.2l.3-.5v-.5h-1.1q-.3 0-.5.2l-.1.4q0 .3.2.5zm2.8 1.4v-.8q.4 0 .7-.3.4-.3.5-.7.2-.4.2-1v-1.2l-.2-1a2 2 0 0 0-1.2-1v-.7l1.2.5.7 1q.3.5.3 1.2v1.3q0 1-.6 1.7t-1.6 1m5.2-3.7-.4-.1-.2-.4.2-.4.4-.2q.3 0 .4.2l.2.4-.2.4zm0 3-.4-.2-.2-.4.2-.4.4-.2q.3 0 .4.2l.2.4-.2.4zm-117.3 14-.8-.1-.5-.4-.2-.5h.8l.2.3h1.3l.1-.4-.1-.4-.5-.2h-.5q-.6-.1-.9-.4-.3-.2-.3-.7 0-.6.4-.9.3-.3 1-.3h.3q.6 0 1 .3.3.3.3.8h-.7l-.2-.3-.4-.1h-.3l-.5.1-.1.4.1.3.4.1.5.1q.7.1 1 .4.3.2.3.7 0 .6-.4.9-.3.3-1 .3zm4 0q-.5 0-.8-.2l-.6-.5-.2-.8v-1l.2-.8q.2-.3.6-.5l.8-.2q.5 0 .8.2t.6.5l.1.8v.7h-2.3v.3q0 .5.2.7t.6.2l.5-.1.3-.3h.7l-.5.7q-.4.3-1 .3m.8-2.2v-.3q0-.4-.2-.6-.2-.3-.6-.3t-.6.3-.2.6v.2zm3.7 2.1h-.7l-.4-.5-.1-.6v-3.3h-1.3v-.6h2v3.9l.1.3.4.2h1.2v.6zm2.7 0v-2.7h-1v-.7h1v-.6q0-.5.3-.8.3-.2.8-.2h1.2v.6h-1.1l-.3.1q-.2.1-.2.3v.6h1.6v.7h-1.6v2.7zm4.5.1-.4-.1-.2-.5q0-.3.2-.4l.4-.2q.3 0 .5.2l.1.4-.1.5zm3.6 0q-.5 0-.9-.4t-.3-1v-1.1q0-.7.3-1 .4-.5 1-.5.4 0 .7.3t.3.7l-.2-.2h.2v-1.9h.7v5h-.7v-.7h-.2l.2-.2q0 .5-.3.8-.3.2-.8.2m.3-.6q.4 0 .6-.3t.2-.6v-1q0-.4-.2-.6t-.6-.2-.6.2-.2.6v1q0 .4.2.7t.6.2m3.5.6q-.6 0-1-.3-.2-.3-.2-.8t.3-.9q.4-.3 1-.3h1.1v-.4q0-.3-.2-.5l-.6-.1-.5.1-.2.4h-.8q.1-.5.5-.9.4-.3 1-.3.8 0 1.2.4.3.3.3 1v2.5h-.7v-.7h-.1l.1-.1-.3.7q-.3.2-.9.2m.3-.6q.4 0 .6-.2l.3-.5v-.5h-1q-.4 0-.5.2l-.2.4q0 .3.2.5zm4.5.5q-.6 0-.9-.2t-.3-.8v-2.1h-1v-.7h1v-1h.8v1h1.5v.7H129v2q0 .5.4.5h1v.6zm3 .1q-.5 0-.9-.3-.3-.3-.3-.8t.3-.9 1-.3h1.1v-.4q0-.3-.2-.5l-.5-.1-.6.1-.2.4h-.7q0-.5.4-.9.4-.3 1-.3.8 0 1.2.4.4.3.4 1v2.5h-.8v-.8l-.3.7q-.3.2-.8.2m.2-.6q.4 0 .6-.2l.3-.5v-.5h-1q-.3 0-.5.2l-.2.4q0 .3.2.5zm6.4-2.3v-.6h3v.6zm0 1.7v-.6h3v.6zm9.1 1.2q-.6 0-1-.4t-.3-1v-1.1q0-.7.4-1 .3-.5.9-.5.5 0 .8.3.2.3.2.7l-.1-.2h.1v-1.9h.8v5h-.8v-.7h-.1l.1-.2q0 .5-.2.8-.3.2-.8.2m.3-.6q.3 0 .5-.3t.2-.6v-1q0-.4-.2-.6t-.5-.2-.6.2-.2.6v1q0 .4.2.7t.6.2m3.5.6q-.6 0-1-.3-.3-.3-.3-.8t.4-.9 1-.3h1v-.4l-.1-.5-.6-.1-.5.1-.3.4h-.7q0-.5.5-.9.4-.3 1-.3t1.1.4.4 1v2.5h-.7v-.7h-.2l.2-.1-.4.7q-.3.2-.8.2m.2-.6q.4 0 .7-.2l.2-.5v-.5h-1l-.5.2-.1.4q0 .3.2.5zm4.5.5q-.5 0-.8-.2t-.3-.8v-2.1h-1v-.7h1v-1h.7v1h1.5v.7h-1.5v2q0 .5.4.5h1v.6zm3.1.1q-.6 0-1-.3-.3-.3-.3-.8t.4-.9 1-.3h1v-.4l-.1-.5-.6-.1-.5.1-.3.4h-.7q0-.5.5-.9.4-.3 1-.3t1.1.4.4 1v2.5h-.7v-.7h-.1v-.1q0 .4-.2.7-.4.2-.9.2m.2-.6q.4 0 .7-.2l.3-.5v-.5h-1.1q-.3 0-.5.2l-.1.4q0 .3.2.5zm36.6 29.4q-1-.3-1.5-1t-.6-1.7v-1.3q0-.7.2-1.2t.8-1l1.1-.5v.7l-.7.4-.5.7-.2 1v1.2q0 .5.2.9l.5.7.7.3zm2.5-.8-.7-.1-.5-.4-.2-.5h.8l.2.3h1.2l.2-.4-.1-.4-.5-.2h-.5q-.6-.1-.9-.4-.3-.2-.3-.7 0-.6.4-.9.3-.3 1-.3h.2q.6 0 1 .3t.4.8h-.7l-.2-.3-.5-.1h-.2l-.5.1q-.2.1-.2.4 0 .2.2.3l.4.1.5.1q.7.1 1 .4.3.2.3.7 0 .6-.4.9t-1 .3zm4 0-.8-.2-.5-.5-.2-.8v-1l.2-.8.5-.5.9-.2.8.2.5.5.2.8v.7h-2.4v.3q0 .5.3.7t.6.2l.5-.1.3-.3h.7l-.5.7q-.4.3-1 .3m.8-2.2v-.3q0-.4-.2-.6-.2-.3-.6-.3t-.6.3-.3.6v.2h1.7zm3.6 2.1h-.6l-.4-.5-.2-.6v-3.3h-1.2v-.6h2v3.9l.1.3.4.2h1.2v.6zm2.8 0v-2.7h-1.1v-.7h1v-.6q0-.5.4-.8.3-.2.8-.2h1.1v.6h-1l-.4.1v.9h1.4v.7h-1.5v2.7zm3.2.9v-.8q.4 0 .7-.3.4-.3.5-.7.2-.4.2-1v-1.2l-.2-1a2 2 0 0 0-1.2-1v-.7l1.2.5.7 1q.3.5.3 1.2v1.3q0 1-.6 1.7t-1.6 1m5.2-3.7-.4-.1-.2-.4.2-.4.4-.2q.3 0 .4.2l.2.4-.2.4zm0 3-.4-.2-.2-.4.2-.4.4-.2q.3 0 .4.2l.2.4-.2.4zm-47 14-.7-.1-.5-.4-.2-.5h.7l.2.3h1.3l.2-.4-.2-.4-.4-.2h-.5q-.7-.1-1-.4-.2-.2-.2-.7 0-.6.3-.9.4-.3 1-.3h.3q.6 0 1 .3.3.3.4.8h-.8l-.2-.3-.4-.1h-.3l-.5.1-.1.4.1.3.4.1.6.1q.6.1 1 .4.2.2.2.7 0 .6-.4.9-.3.3-1 .3zm4 0q-.7 0-1-.4-.5-.4-.5-1v-2.5h.8v2.4q0 .4.2.6.2.3.5.3.4 0 .6-.3t.2-.6v-2.4h.7v2.4q0 .7-.4 1.1t-1 .4m2.1 0v-3.9h.7v.5h.1v.1-.5l.5-.2q.4 0 .5.3.2.2.2.7l-.2-.4h.3l-.1.1q0-.3.2-.5l.4-.2q.4 0 .6.3t.2.7v3h-.7V179l-.3-.1-.3.1v3.3h-.7V179l-.3-.1-.3.1v3.3zm7 .8q-1.1-.3-1.7-1t-.5-1.7v-1.3q0-.7.2-1.2t.8-1l1.1-.5v.7l-.7.4-.5.7-.2 1v1.2q0 .5.2.9l.5.7.7.3zm1-.9v-.6h1.4v-3.8l-1.4 1v-.8l1.2-.8h1v4.4h1v.6zm25 .1q-.5 0-.8-.2l-.6-.5-.2-.8v-1l.2-.8q.2-.3.6-.5l.8-.2q.7 0 1.1.4t.5 1h-.8q0-.3-.2-.5t-.6-.2-.6.2-.2.6v1q0 .4.2.6.2.3.6.3t.6-.2.2-.5h.8q0 .6-.5 1-.4.3-1 .3m4.3 0-.6-.2-.4-.4-.1-.6v-3.3H213v-.6h2v3.9l.1.3.4.2h1.2v.6zm1.9 0v-.7h1.3v-2.5h-1.2v-.7h2v3.2h1.2v.6zm1.6-4.6h-.4l-.1-.4.1-.4.4-.1.4.1.1.4-.1.3zm3.8 4.6q-.5 0-.8-.2l-.6-.5-.1-.8v-1l.1-.8.6-.5q.3-.2.8-.2t.8.2.6.5l.2.8v.7h-2.4v.3q0 .5.2.7t.6.2l.5-.1.3-.3h.7l-.5.7q-.4.3-1 .3m.8-2.2v-.3q0-.4-.2-.6-.2-.3-.6-.3t-.6.3-.2.6v.2h1.7zm1.6 2.1v-3.8h.8v.7h.1l-.1.2q0-.4.2-.7t.8-.3.9.4.3 1v2.5h-.7V180q0-.4-.2-.6t-.6-.2-.5.2-.2.6v2.4zm5.8 0q-.5 0-.8-.2t-.3-.8v-2.1h-1v-.7h1v-1h.8v1h1.5v.7h-1.5v2q0 .5.4.5h1v.6zm19 .1-.7-.1-.5-.4-.2-.5h.8l.2.3h1.2l.2-.4-.1-.4-.5-.2h-.5q-.6-.1-1-.4-.2-.2-.2-.7 0-.6.3-.9.4-.3 1-.3h.3q.6 0 1 .3t.4.8h-.7l-.2-.3-.5-.1h-.2l-.5.1q-.2.1-.2.4 0 .2.2.3l.4.1.5.1q.6.1 1 .4.3.2.3.7 0 .6-.4.9t-1 .3zm4 0-.8-.2-.5-.5-.2-.8v-1l.2-.8.5-.5.9-.2.8.2.5.5.2.8v.7h-2.4v.3q0 .5.2.7t.7.2l.5-.1.3-.3h.7l-.5.7q-.4.3-1 .3m.8-2.2v-.3q0-.4-.2-.6-.2-.3-.6-.3t-.7.3-.2.6v.2h1.7zm3.6 2.1h-.6l-.4-.5-.2-.6v-3.3H256v-.6h2v3.9l.1.3.4.2h1.1v.6zm2.8 0v-2.7H260v-.7h1v-.6q0-.5.4-.8.3-.2.8-.2h1.1v.6h-1l-.4.1v.9h1.4v.7H262v2.7zm4.5.1-.5-.1-.1-.5.1-.4.5-.2q.3 0 .4.2.2.1.2.4l-.2.5zm3.6 0q-.6 0-1-.4-.3-.4-.3-1v-1.1q0-.7.4-1 .3-.5 1-.5.4 0 .7.3t.3.7l-.2-.2h.2v-1.9h.7v5h-.7v-.7h-.2l.2-.2q0 .5-.3.8-.3.2-.8.2m.3-.6q.3 0 .5-.3t.2-.6v-1q0-.4-.2-.6t-.5-.2-.6.2-.2.6v1q0 .4.2.7t.6.2m3.5.6q-.6 0-1-.3-.3-.3-.3-.8t.4-.9 1-.3h1v-.4l-.1-.5-.6-.1-.5.1-.3.4h-.7q0-.5.5-.9.4-.3 1-.3t1.1.4.4 1v2.5h-.7v-.7h-.1v-.1l-.2.7q-.4.2-.9.2m.2-.6q.4 0 .7-.2l.3-.5v-.5h-1l-.6.2-.1.4q0 .3.2.5zm4.5.5q-.5 0-.8-.2t-.3-.8v-2.1h-1v-.7h1v-1h.8v1h1.5v.7h-1.5v2q0 .5.4.5h1v.6zm3.1.1q-.6 0-1-.3-.3-.3-.3-.8t.4-.9 1-.3h1v-.4l-.1-.5-.6-.1-.5.1-.2.4h-.8q0-.5.5-.9.4-.3 1-.3t1.1.4.4 1v2.5h-.7v-.7h-.1l.1-.1-.3.7q-.3.2-.9.2m.3-.6q.4 0 .6-.2l.3-.5v-.5h-1l-.5.2-.2.4q0 .3.2.5zm-179.6 14.6q-.5 0-.8-.2l-.6-.5-.2-.8v-1l.2-.8q.2-.3.6-.5t.8-.2q.7 0 1.1.4t.5 1h-.8q0-.3-.2-.5t-.6-.2-.6.2-.2.6v1q0 .4.2.6.2.3.6.3t.6-.2.2-.5h.8q0 .6-.5 1-.4.3-1 .3m4.3 0-.6-.2-.4-.4-.1-.6v-3.3h-1.3v-.6h2v3.9l.1.3.4.2h1.2v.6zm1.9 0v-.7h1.3v-2.5H108v-.7h2v3.2h1.2v.6zm1.6-4.6h-.4l-.1-.4.1-.4.4-.1.4.1.1.4-.1.3zm3.8 4.6-.8-.2-.6-.5-.1-.8v-1l.1-.8q.2-.3.6-.5l.8-.2q.5 0 .8.2t.6.5l.2.8v.7h-2.4v.3q0 .5.2.7t.6.2l.5-.1.3-.3h.7l-.5.7q-.4.3-1 .3m.8-2.2v-.3q0-.4-.2-.6-.2-.3-.6-.3t-.6.3-.2.6v.2h1.7zm1.6 2.1v-3.8h.8v.7h.1l-.1.2q0-.4.2-.7t.8-.3.9.4.3 1v2.5h-.7V194q0-.4-.2-.6t-.6-.2-.5.2-.2.6v2.4zm5.8 0q-.5 0-.8-.2t-.3-.8v-2.1h-1v-.7h1v-1h.8v1h1.5v.7h-1.5v2q0 .5.4.5h1v.6zm2.8.8v-6.5h1.8v.6h-1v5.2h1v.7zm38.7 0v-.7h1v-5.2h-1v-.6h1.8v6.5zm7-3.6v-.6h7.4v.6zm0 1.7v-.6h7.4v.6zm13.3-1.9v-2h.7v2zm18.6 3.9v-.8q.4 0 .7-.3l.5-.7q.2-.4.2-1v-1.2l-.2-1a2 2 0 0 0-1.2-1v-.7l1.1.5q.5.4.8 1 .2.5.2 1.2v1.3q0 1-.5 1.7t-1.6 1m-100.6 13.2q-.6 0-1-.4-.3-.4-.3-1v-1.1q0-.7.4-1 .3-.5 1-.5.4 0 .7.3t.2.7l-.1-.2h.2v-1.9h.7v5h-.8v-.7h-.1l.1-.2q0 .5-.2.8-.3.2-.8.2m.3-.6q.3 0 .5-.3t.2-.6v-1q0-.4-.2-.6t-.5-.2-.6.2-.2.6v1q0 .4.2.7t.6.2m3.5.6q-.6 0-1-.3-.3-.3-.3-.8t.4-.9q.3-.3 1-.3h1v-.4l-.1-.5-.6-.1-.5.1-.3.4h-.7q0-.5.5-.9.4-.3 1-.3t1.1.4.4 1v2.5h-.7v-.7h-.1v-.1l-.2.7q-.4.2-.9.2m.2-.6q.4 0 .7-.2l.3-.5v-.5h-1l-.6.2-.1.4q0 .3.2.5zm4.5.5q-.5 0-.8-.2t-.3-.8v-2.1h-1v-.7h1v-1h.8v1h1.5v.7h-1.5v2q0 .5.3.5h1v.6zm3.1.1q-.6 0-1-.3-.3-.3-.3-.8t.4-.9 1-.3h1v-.4l-.1-.5-.6-.1-.5.1-.2.4h-.8q0-.5.5-.9.4-.3 1-.3t1.1.4.4 1v2.5h-.7v-.7h-.1v-.1l-.2.7q-.3.2-.9.2m.2-.6q.5 0 .7-.2l.3-.5v-.5h-1q-.4 0-.5.2l-.2.4q0 .3.2.5zm6.5-2.3v-.6h3v.6zm0 1.7v-.6h3v.6zm8.6 2v-6.6h1.8v.6h-1v5.2h1v.7zm-2 14q-.4 0-.7-.2l-.5-.4-.1-.7v-1.6l-.6-.1h-.8v-.7h.8q.4 0 .5-.2.2-.1.1-.4V220l.1-.6.5-.4.7-.1h.3v.6h-.3q-.3 0-.4.2t-.2.4v1.1q.1.4-.1.7t-.8.2q.5 0 .8.3.2.2.2.7v1.5l.5.1h.3v.7zm26.2-3.7-.5-.1-.1-.4.1-.4.5-.2q.3 0 .4.2l.2.4-.2.4zm0 3-.5-.2-.1-.4.1-.4.5-.2q.3 0 .4.2l.2.4-.2.4zm34.1 1 .6-2.1h1l-.9 2.2zm44-3.9-.4-.1-.2-.4q0-.3.2-.4l.4-.2q.3 0 .5.2l.1.4-.1.4zm0 3-.4-.2-.2-.4q0-.3.2-.4l.4-.2q.3 0 .5.2l.1.4-.1.4zm25.8.7v-.7h.4l.4-.1q.2-.1.2-.4v-1.1q-.1-.5.1-.7.3-.3.8-.3-.5 0-.8-.2-.2-.3-.2-.7v-1.5q-.2-.2-.5-.2h-.4v-.6h1.1q.3 0 .5.5l.1.6v1.6q.2.2.6.2h.8v.7h-.8l-.5.1q-.2.2-.1.5v1.1l-.1.7-.5.4-.7.1zm4.5.4.5-2.2h1l-.9 2.2zm-134.6 13-.7-.1-.5-.4-.1-.7v-1.6l-.6-.1h-.8v-.7h.8q.4 0 .5-.2.2-.1.1-.4v-1.2l.1-.6.5-.4.7-.1h.3v.6h-.3q-.3 0-.4.2t-.2.4v1.1q.1.4-.1.7t-.8.2q.5 0 .8.3.2.2.2.7v1.5l.5.1h.3v.7zm26.2-3.6-.5-.1-.1-.4.1-.4.5-.2q.3 0 .4.2l.2.4-.2.4zm0 3-.5-.2-.1-.4.1-.4.5-.2q.3 0 .4.2l.2.4-.2.4zm8.2-3v-2.1h.7v2zm-1.4 0-.1-1.4v-.7h.7v2zm17 0v-2.1h.8v.7l-.1 1.3zm-1.4 0-.1-1.4v-.7h.8v.7l-.1 1.3zm4 4 .5-2.1h1l-1 2.2zm43.9-3.9-.4-.1-.2-.4q0-.3.2-.4l.4-.2q.3 0 .5.2l.1.4-.1.4zm0 3-.4-.2-.2-.4q0-.3.2-.4l.4-.2q.3 0 .5.2l.1.4-.1.4zm37.6.7v-.7h.3l.4-.1q.2-.1.2-.4v-1.1q-.1-.5.1-.7.3-.3.8-.3-.5 0-.8-.2-.2-.3-.2-.7v-1.1q.1-.3 0-.4-.2-.2-.5-.2h-.3v-.6h1l.5.5q.2.3.1.6v1.6q.2.2.6.2h.8v.7h-.8l-.5.1q-.2.2-.1.5v1.1l-.1.7-.5.4-.6.1zm4.4.4.5-2.2h1l-.9 2.2zM126.2 253l-.7-.1-.5-.4-.1-.7v-1.6l-.6-.1h-.8v-.7h.8q.4 0 .5-.2.2-.1.1-.4v-1.2l.1-.6.5-.4.7-.1h.3v.6h-.3q-.3 0-.4.2t-.2.4v1.1q.1.4-.1.7t-.8.2q.5 0 .8.3.2.2.2.7v1.5l.5.1h.3v.7zm26.2-3.6-.5-.1-.1-.4.1-.4.5-.2q.3 0 .4.2l.2.4-.2.4zm0 3-.5-.2-.1-.4.1-.4.5-.2q.3 0 .4.2l.2.4-.2.4zm8.2-3v-2.1h.7v2zm-1.4 0-.1-1.4v-.7h.7v2zm17 0v-2.1h.8v.7l-.1 1.3zm-1.4 0-.1-1.4v-.7h.8v.7l-.1 1.3zm4 4 .5-2.1h1l-1 2.2zm43.9-3.9-.4-.1-.2-.4q0-.3.2-.4l.4-.2q.3 0 .5.2l.1.4-.1.4zm0 3-.4-.2-.2-.4q0-.3.2-.4l.4-.2q.3 0 .5.2l.1.4-.1.4zm25.8.7v-.7h.4l.4-.1.2-.4-.1-1.1q0-.5.2-.7.3-.3.7-.3-.4 0-.7-.2t-.2-.7v-1.5q-.2-.2-.5-.2h-.4v-.6h1.1q.3 0 .5.5l.1.6v1.6q.2.2.6.2h.8v.7h-.8l-.5.1q-.2.2-.2.5l.1 1.1-.1.7-.5.4-.7.1zm-148 14v-.7h1v-5.2h-1v-.6h1.8v6.5zm.7 13.3q-.6 0-1-.3-.3-.3-.3-.8t.4-.9q.3-.3 1-.3h1v-.4l-.1-.5-.6-.1-.5.1-.3.4h-.7q0-.5.5-.9.4-.3 1-.3t1.1.4.4 1v2.5h-.7v-.7h-.2l.2-.1-.3.7q-.4.2-.9.2m.2-.6q.4 0 .7-.2l.3-.5v-.5h-1.1l-.5.2-.1.4q0 .3.2.5zm2.6.5v-3.8h.7v.7h.2l-.2.2q0-.4.3-.7t.8-.3.9.4q.3.4.3 1v2.5h-.7V278q0-.4-.2-.6t-.6-.2-.6.2-.2.6v2.4zm5 .1q-.6 0-1-.3-.3-.3-.3-.8t.4-.9 1-.3h1v-.4l-.1-.5-.6-.1-.5.1-.2.4h-.8q0-.5.5-.9.4-.3 1-.3t1.1.4.4 1v2.5h-.7v-.7h-.1v-.1l-.2.7q-.4.2-.9.2m.2-.6q.4 0 .7-.2l.3-.5v-.5h-1l-.6.2-.1.4q0 .3.2.5zm4.7.5h-.7l-.4-.5-.1-.6V276h-1.3v-.6h2v3.9q0 .2.2.3l.3.2h1.2v.6zm2.4 1.3.6-1.5-1.5-3.6h.9l.8 2.2v.3l.2.3v-.3l.1-.3.8-2.2h.8l-1.9 5.1zm5.2-1.3q-.5 0-.8-.2t-.3-.8v-2.1h-1v-.7h1v-1h.8v1h1.5v.7h-1.5v2q0 .5.4.5h1v.6zm2 0v-.6h1.3v-2.5h-1.1v-.7h1.9v3.2h1.2v.6zm1.6-4.5h-.4l-.1-.4.1-.4.4-.1.4.1q.2.1.2.4l-.2.3zm3.9 4.6q-.5 0-.9-.2l-.5-.5-.2-.8v-1l.2-.8.5-.5.9-.2q.7 0 1 .4t.5 1h-.7q0-.3-.3-.5t-.5-.2-.6.2-.3.6v1q0 .4.3.6.2.3.6.3t.5-.2l.3-.5h.7q0 .6-.4 1-.4.3-1.1.3m3.7 0-.7-.1-.5-.4-.2-.5h.7l.2.3h1.3l.2-.4-.2-.4-.4-.2h-.5q-.6-.1-1-.4-.2-.2-.2-.7 0-.6.3-.9.4-.3 1-.3h.3q.6 0 1 .3.3.3.4.8h-.8l-.2-.3-.4-.1h-.2l-.5.1q-.2.1-.2.4 0 .2.2.3l.4.1.5.1q.6.1 1 .4.2.2.2.7 0 .6-.3 1-.4.2-1 .2zm6.4-2.9v-.6h3v.6zm0 1.7v-.6h3v.6zm7.9 1.1v-5h1.6l.9.1q.4.2.6.6t.2.8-.2.8l-.6.5-.9.2h-.9v2zm.7-2.7h1l.6-.2q.2-.2.2-.6t-.2-.6q-.3-.3-.7-.3h-.9zm3.3 2.7v-3.8h.7v.7h.2l-.2.5q0-.6.2-1 .3-.3.9-.3t1 .4.3 1v.3h-.8v-.2q0-.4-.2-.6t-.6-.2-.5.2-.3.6v2.4zm5.3.1-.8-.2-.6-.5-.2-.8v-1l.2-.8q.2-.3.6-.5l.8-.2q.5 0 .8.2t.5.5l.2.8v1q0 .5-.2.8l-.5.5zm0-.7q.4 0 .6-.2t.2-.6v-1q0-.4-.2-.6t-.6-.2-.6.2-.2.6v1q0 .4.2.6t.6.2m3.6.7q-.6 0-1-.4-.3-.4-.3-1V278q0-.7.4-1 .3-.5 1-.5.4 0 .7.3t.3.7l-.2-.2h.2v-1.9h.7v5h-.7v-.7h-.2l.2-.2q0 .5-.3.8-.3.2-.8.2m.3-.6q.3 0 .5-.3t.2-.6v-1q0-.4-.2-.6t-.5-.2-.6.2-.2.6v1q0 .4.2.7t.6.2m3.9.6q-.7 0-1.1-.4t-.4-1v-2.5h.7v2.4q0 .4.2.6.2.3.6.3t.6-.3.2-.6v-2.4h.7v2.4q0 .7-.4 1.1t-1.1.4m4 0q-.5 0-.9-.2l-.6-.5-.1-.8v-1l.1-.8q.2-.3.6-.5l.8-.2q.7 0 1.1.4t.5 1h-.8q0-.3-.2-.5t-.6-.2-.6.2-.2.6v1q0 .4.2.6.2.3.6.3t.6-.2.2-.5h.8q0 .6-.5 1-.4.3-1 .3m4.2 0q-.5 0-.8-.3t-.3-.8v-2.1h-1v-.7h1v-1h.8v1h1.5v.7H172v2q0 .5.4.5h1v.6zm1.7 0 1.3-5.1h1l1.3 5h-.7l-.4-1.2h-1.4l-.3 1.2zm1.2-2h1.2l-.4-1.4-.1-.7v-.4l-.2.4-.1.7zm3 2v-3.9h.8v.7h.1l-.1.2q0-.4.2-.7t.8-.3 1 .4q.2.4.2 1v2.5h-.7V278q0-.4-.2-.6t-.6-.2-.5.2-.2.6v2.4zm5 0q-.6 0-.9-.3t-.3-.8.3-.9 1-.3h1.1v-.4q0-.3-.2-.5l-.5-.1-.6.1-.2.4h-.8q.1-.5.5-.9.4-.3 1-.3.8 0 1.2.4.4.3.4 1v2.5h-.8v-.7h-.1l.1-.1-.3.7q-.3.2-.9.2m.3-.6q.4 0 .6-.2l.3-.5v-.5h-1l-.5.2-.2.4q0 .3.2.5zm4.6.5h-.6l-.4-.5-.2-.6V276h-1.3v-.6h2v3.9q0 .2.2.3l.3.2h1.2v.6zm2.5 1.3.5-1.5-1.4-3.6h.8l.8 2.2.1.3v.3l.2-.3v-.3l.8-2.2h.8l-1.8 5.1zm5.2-1.3q-.5 0-.8-.2t-.3-.8v-2.1h-1.1v-.7h1v-1h.8v1h1.5v.7h-1.5v2q0 .5.4.5h1v.6zm2 0v-.6h1.3v-2.5h-1.2v-.7h2v3.2h1.1v.6zm1.6-4.5h-.4l-.2-.4q0-.3.2-.4l.4-.1.4.1.1.4-.1.3zm3.8 4.6q-.5 0-.8-.2l-.6-.5-.2-.8v-1l.2-.8q.2-.3.6-.5l.8-.2q.7 0 1.1.4t.4 1h-.7q0-.3-.2-.5t-.6-.2-.6.2-.2.6v1q0 .4.2.6.2.3.6.3t.6-.2.2-.5h.7q0 .6-.4 1-.4.3-1.1.3m3.7 0-.7-.1-.5-.4-.2-.5h.8l.2.3h1.3l.1-.4-.1-.4-.5-.2h-.5q-.6-.1-.9-.4-.3-.2-.3-.7 0-.6.4-.9.3-.3 1-.3h.3q.6 0 1 .3.3.3.3.8h-.7l-.2-.3-.4-.1h-.3l-.5.1-.1.4.1.3.4.1.5.1q.7.1 1 .4.3.2.3.7 0 .6-.4 1-.3.2-1 .2zm5.4.8q-1-.3-1.6-1t-.6-1.7v-1.3q0-.7.3-1.2t.7-1l1.2-.5v.7l-.8.4-.5.7-.1 1v1.2l.1.9.5.7.8.3zm2.3-.8q-.6 0-1-.4t-.3-1V278q0-.7.4-1 .3-.5 1-.5.4 0 .7.3t.3.7l-.2-.2h.2v-1.9h.7v5h-.7v-.7h-.2l.2-.2q0 .5-.3.8-.3.2-.8.2m.3-.6q.3 0 .5-.3t.2-.6v-1q0-.4-.2-.6t-.5-.2-.6.2-.2.6v1q0 .4.2.7t.6.2m3.5.6q-.6 0-1-.3-.3-.3-.3-.8t.4-.9 1-.3h1v-.4l-.1-.5-.6-.1-.5.1-.2.4h-.8q0-.5.5-.9.4-.3 1-.3t1.1.4.4 1v2.5h-.7v-.7h-.1v-.1l-.2.7q-.4.2-.9.2m.2-.6q.4 0 .7-.2l.3-.5v-.5h-1q-.4 0-.6.2l-.1.4q0 .3.2.5zm4.5.5q-.5 0-.8-.2t-.3-.8v-2.1h-1v-.7h1v-1h.8v1h1.5v.7h-1.5v2q0 .5.4.5h1v.6zm3.1.1q-.6 0-1-.3-.3-.3-.3-.8t.4-.9 1-.3h1v-.4l-.1-.5-.6-.1-.5.1-.2.4h-.8q0-.5.5-.9.4-.3 1-.3t1.1.4.4 1v2.5h-.7v-.7h-.1l.1-.1-.3.7q-.3.2-.9.2m.3-.6q.4 0 .6-.2l.3-.5v-.5h-1l-.5.2-.2.4q0 .3.2.5zm2.7 1.4v-.8q.5 0 .8-.3l.5-.7.1-1v-1.2l-.1-1a2 2 0 0 0-1.3-1v-.7l1.2.5q.5.4.7 1 .3.5.3 1.2v1.3q0 1-.6 1.7t-1.6 1m7.6.4v-5h.8v.6h.1l-.1.2q0-.4.3-.7t.7-.3q.6 0 1 .4.3.4.3 1v1.2q0 .4-.2.7l-.4.5q-.3.2-.7.2-.5 0-.7-.2-.3-.3-.3-.8l.1.2h-.1v2zm1.6-1.8q.3 0 .5-.2t.2-.7v-1q0-.4-.2-.6t-.5-.2-.6.2-.2.6v1q0 .4.2.6.2.3.6.3m2.5.5v-3.8h.7v.7h.2l-.3.5q0-.6.3-1 .3-.3.8-.3t1 .4.4 1v.3h-.8v-.2q0-.4-.2-.6t-.6-.2-.6.2-.2.6v2.4zm3.7 0v-.6h1.4v-2.5h-1.2v-.7h1.9v3.2h1.2v.6zm1.7-4.5h-.4l-.2-.4q0-.3.2-.4l.4-.1.3.1q.2.1.2.4l-.2.3zm2.2 4.5v-3.8h.8v.7h.2l-.2.2q0-.4.3-.7t.7-.3q.6 0 1 .4.3.4.3 1v2.5h-.8V278q0-.4-.2-.6t-.5-.2-.6.2-.2.6v2.4zm5.9 0q-.5 0-.8-.2t-.3-.8v-2.1h-1v-.7h1v-1h.7v1h1.5v.7H254v2q0 .5.4.5h1v.6zm4.8.9q-1-.3-1.6-1t-.6-1.7v-1.3q0-.7.3-1.2t.7-1l1.2-.5v.7l-.8.4-.5.7-.1 1v1.2l.1.9.5.7.8.3zm3-3.9v-2h.7v2zm-1.5 0v-2h.7v2zm5 3.1q-.5 0-.8-.2l-.6-.5-.2-.8v-2.2q0-.5.2-.8l.6-.5.8-.2q.5 0 .8.2.4.1.6.5.2.3.2.8h-.8q0-.4-.2-.6t-.6-.2-.6.2-.2.6v2.2q0 .4.2.6t.6.2.6-.2.2-.6h.8q0 .5-.2.8l-.6.5zm4.4 0-.6-.2-.4-.4-.1-.6V276h-1.3v-.6h2v3.9l.1.3.4.2h1.2v.6zm1.9 0v-.7h1.3v-2.5h-1.2v-.7h2v3.2h1.2v.6zm1.6-4.6h-.4l-.1-.4.1-.4.4-.1.4.1.1.4-.1.3zm3.8 4.6q-.5 0-.8-.2l-.6-.5-.1-.8v-1l.1-.8q.2-.3.6-.5l.8-.2q.5 0 .8.2t.6.5l.2.8v.7h-2.4v.3q0 .5.2.7t.6.2l.5-.1.3-.3h.7l-.5.7q-.4.3-1 .3m.8-2.2v-.3q0-.4-.2-.6-.2-.3-.6-.3t-.6.3-.2.6v.2h1.7zm1.6 2.1v-3.8h.7v.7h.2l-.2.2q0-.4.3-.7t.8-.3.9.4.3 1v2.5h-.7V278q0-.4-.2-.6t-.6-.2-.5.2-.2.6v2.4zm5.8 0q-.5 0-.8-.2t-.3-.8v-2.1h-1v-.7h1v-1h.8v1h1.5v.7h-1.5v2q0 .5.4.5h1v.6zm3.4.1-.7-.1-.5-.4-.2-.5h.7l.2.3h1.3l.2-.4-.2-.4-.4-.2h-.5q-.6-.1-1-.4-.2-.2-.2-.7 0-.6.3-.9.4-.3 1-.3h.3q.6 0 1 .3.3.3.4.8h-.8l-.2-.3-.4-.1h-.3l-.4.1q-.2.1-.2.4l.1.3.5.1.5.1q.6.1 1 .4.2.2.2.7 0 .6-.3 1-.4.2-1.1.2zm-189 14v-.7h1.4v-2.5h-1.2v-.7h2v3.2h1.2v.6zm1.7-4.6h-.4l-.1-.4.1-.4.4-.1.4.1.1.4-.1.3zm2.3 4.5v-3.8h.7v.7h.2l-.2.2q0-.4.3-.7t.8-.3.9.4q.3.4.3 1v2.5h-.7V292q0-.4-.2-.6t-.6-.2-.6.2-.2.6v2.4zm9.3.1q-.7 0-1.1-.4t-.4-1v-3.7h.7v3.6q0 .4.2.6.2.3.6.3t.6-.3.2-.6v-3.6h.7v3.6q0 .7-.4 1.1t-1 .4m3.8 0-.9-.1-.5-.5-.2-.8h.7q0 .4.3.6l.6.1.7-.1q.2-.2.2-.6a1 1 0 0 0-.6-.8l-.6-.2q-.6-.1-1-.5-.2-.4-.2-1l.2-.7q.2-.3.5-.4l.8-.2q.7 0 1.2.4.4.3.4 1h-.8q0-.4-.2-.6t-.6-.2l-.6.2q-.2.2-.2.5t.2.5l.4.3.7.2q.6.2.9.6t.3.9-.2.7l-.6.5zm2.1 0 1.3-5.1h1l1.3 5h-.7l-.4-1.2h-1.4l-.3 1.2zm1.2-2h1.2l-.3-1.4-.2-.7v-.4l-.2.4-.1.7zm4.5-.9-.4-.1-.2-.4.2-.4.4-.2q.3 0 .5.2l.1.4-.1.4zm0 3-.4-.2-.2-.4.2-.4.4-.2q.3 0 .5.2l.1.4-.1.4zm4.4-3-.1-1.4v-.7h.8v.7l-.1 1.3zm-1.5 0-.1-1.4v-.7h.8v2zm4 4 .5-2.1h1l-.9 2.2zm8.4-1q-.6 0-1-.3-.3-.3-.3-.8t.3-.9 1-.3h1.1v-.4q0-.3-.2-.5l-.5-.1-.5.1-.3.4h-.7q0-.5.4-.9.5-.3 1.1-.3t1 .4.5 1v2.5h-.8v-.8l-.3.7q-.3.2-.8.2m.2-.6q.4 0 .7-.2l.2-.5v-.5h-1l-.5.2-.2.4q0 .3.2.5zm2.6.5v-3.8h.7v.7h.2l-.2.2q0-.4.3-.7t.7-.3q.6 0 1 .4.3.4.3 1v2.5h-.8V292q0-.4-.2-.6t-.5-.2-.6.2-.2.6v2.4zm5 .1q-.6 0-1-.3-.3-.3-.3-.8t.4-.9 1-.3h1v-.4q0-.3-.2-.5l-.5-.1-.5.1-.3.4h-.7q0-.5.5-.9.4-.3 1-.3t1 .4.5 1v2.5h-.7v-.7h-.2l.2-.1-.4.7q-.3.2-.8.2m.2-.6q.4 0 .7-.2l.2-.5v-.5h-1l-.5.2-.2.4q0 .3.3.5zm4.6.5h-.6l-.4-.5-.2-.6v-3.3h-1.2v-.6h2v3.9l.1.3.4.2h1.2v.6zm2.5 1.3.5-1.5-1.4-3.6h.8l.8 2.2.1.3.1.3.1-.3.1-.3.8-2.2h.8l-2 5.1zm5.2-1.3q-.5 0-.8-.2t-.3-.8v-2.1h-1v-.7h1v-1h.8v1h1.5v.7h-1.5v2q0 .5.3.5h1v.6zm2 0v-.6h1.3v-2.5h-1.2v-.7h2v3.2h1.2v.6zm1.6-4.5h-.4l-.1-.4.1-.4.4-.1.4.1.1.4-.1.3zm3.8 4.6-.8-.2-.6-.5-.1-.8v-1l.1-.8q.2-.3.6-.5l.8-.2q.7 0 1.1.4t.5 1h-.8q0-.3-.2-.5t-.6-.2-.6.2-.2.6v1q0 .4.2.6.2.3.6.3t.6-.2.2-.5h.8q0 .6-.5 1-.4.3-1 .3m3.7 0-.7-.1-.5-.4-.2-.5h.7l.2.3h1.3l.2-.4-.2-.4-.5-.2h-.4q-.7-.1-1-.4-.2-.2-.2-.7 0-.6.3-.9.4-.3 1-.3h.3q.6 0 1 .3.3.3.4.8h-.8l-.2-.3-.4-.1h-.3l-.5.1-.1.4.1.3.4.1.6.1q.6.1.9.4.3.2.3.7 0 .6-.4 1-.3.2-1 .2zm4 0-.4-.1-.2-.5q0-.3.2-.4l.4-.2q.3 0 .5.2l.1.4-.1.5zm4 0q-.5 0-.9-.2l-.5-.5-.2-.8v-1l.2-.8.5-.5q.4-.2.9-.2t1 .4.5 1h-.7q0-.3-.3-.5t-.5-.2-.7.2-.2.6v1q0 .4.2.6.3.3.7.3t.5-.2l.3-.5h.7q0 .6-.4 1-.5.3-1.1.3m4.4 0q-.4 0-.6-.2l-.5-.4-.1-.6v-3.3h-1.3v-.6h2v3.9q0 .2.2.3l.3.2h1.2v.6zm1.8 0v-.7h1.4v-2.5h-1.2v-.7h1.9v3.2h1.2v.6zm1.7-4.6h-.4l-.2-.4q0-.3.2-.4l.4-.1.3.1q.2.1.2.4l-.2.3zm3.7 4.6-.8-.2-.5-.5-.2-.8v-1l.2-.8.5-.5.8-.2q.5 0 .9.2l.5.5.2.8v.7h-2.4v.3q0 .5.2.7t.7.2l.5-.1.2-.3h.8l-.5.7q-.4.3-1 .3m.8-2.2v-.3q0-.4-.2-.6-.2-.3-.7-.3t-.6.3-.2.6v.2h1.7zm1.5 2.1v-3.8h.8v.7h.2l-.2.2q0-.4.3-.7t.7-.3q.6 0 1 .4.3.4.3 1v2.5h-.8V292q0-.4-.2-.6t-.5-.2-.6.2-.2.6v2.4zm5.9 0q-.5 0-.8-.2t-.3-.8v-2.1h-1v-.7h1v-1h.7v1h1.5v.7h-1.5v2q0 .5.4.5h1v.6zm3.3.1-.7-.1-.5-.4-.2-.5h.8l.2.3h1.3l.1-.4-.1-.4-.5-.2h-.5q-.6-.1-.9-.4-.3-.2-.3-.7 0-.6.4-.9.3-.3 1-.3h.3q.6 0 1 .3.3.3.3.8h-.7l-.2-.3-.4-.1h-.3l-.5.1-.1.4v.3l.5.1.5.1q.7.1 1 .4.3.2.3.7 0 .6-.4 1-.4.2-1 .2zm2.4.8v-.7h3.4v.7zm4-.9v-.6h1.4v-2.5h-1.2v-.7h2v3.2h1.2v.6zm1.7-4.5h-.4l-.1-.4.1-.4.4-.1.4.1.1.4-.1.3zm2.3 4.5v-3.8h.7v.7h.2l-.2.2q0-.4.3-.7t.8-.3.9.4.3 1v2.5h-.7V292q0-.4-.2-.6t-.6-.2-.6.2-.2.6v2.4zm3.7.9v-.7h3.4v.7zm5.6-.8q-.7 0-1.1-.4t-.4-1v-2.5h.7v2.4q0 .4.2.6.2.3.6.3t.6-.3.2-.6v-2.4h.7v2.4q0 .7-.4 1.1t-1.1.4m3.8 0-.7-.1-.5-.4-.2-.5h.7l.2.3h1.3l.2-.4-.2-.4-.5-.2h-.4q-.7-.1-1-.4-.2-.2-.2-.7 0-.6.3-.9.4-.3 1-.3h.3q.6 0 1 .3.3.3.4.8h-.8l-.2-.3-.4-.1h-.3l-.5.1-.1.4.1.3.4.1.6.1q.6.1.9.4.3.2.3.7 0 .6-.4 1-.3.2-1 .2zm3.6 0q-.6 0-1-.3-.3-.3-.3-.8t.4-.9 1-.3h1v-.4l-.1-.5-.6-.1-.5.1-.2.4h-.8q0-.5.5-.9.4-.3 1-.3t1.1.4.4 1v2.5h-.7v-.7h-.1l.1-.1-.3.7q-.3.2-.9.2m.3-.6q.4 0 .6-.2l.3-.5v-.5h-1l-.5.2-.2.4q0 .3.2.5zm5.3 1.4q-1-.3-1.6-1-.5-.7-.5-1.7v-1.3q0-.7.2-1.2t.8-1l1.1-.5v.7l-.7.4-.5.7-.2 1v1.2q0 .5.2.9l.5.7.7.3zm1.3 0v-.8q.5 0 .8-.3l.5-.7.1-1v-1.2l-.1-1-.5-.6-.8-.4v-.7l1.2.5q.5.4.7 1 .3.5.3 1.2v1.3q0 1-.6 1.7t-1.6 1m4 0v-.8q.4 0 .7-.3l.5-.7q.2-.4.2-1v-1.2l-.2-1-.5-.6-.8-.4v-.7l1.2.5q.5.4.7 1 .3.5.3 1.2v1.3q0 1-.6 1.7t-1.6 1"/><path fill="#f55b2c" d="M123.5 112.3v-5h1.7l.8.1q.4.2.6.6t.2.8l-.2.8-.6.5-.8.2h-1v2zm.8-2.7h.9q.4 0 .6-.2t.2-.6-.2-.6-.6-.3h-1zm3.3 2.7v-3.8h.7v.7h.2l-.3.5q0-.6.3-1 .3-.3.8-.3t1 .4q.3.4.3 1v.3h-.7v-.2q0-.4-.2-.6t-.6-.2-.6.2-.2.6v2.4zm5.2.1-.8-.2-.5-.5-.2-.8v-1l.2-.8.5-.5q.3-.2.8-.2t.9.2l.5.5.2.8v1q0 .5-.2.8l-.5.5zm0-.7q.4 0 .6-.2t.2-.6v-1q0-.4-.2-.6t-.6-.2l-.6.2q-.2.2-.2.6v1q0 .4.2.6zm3.7.7q-.6 0-1-.4t-.3-1v-1.1q0-.7.3-1 .4-.5 1-.5t.7.3q.3.3.3.7l-.2-.2h.2v-1.9h.8v5h-.8v-.7h-.2l.2-.2q0 .5-.3.8-.2.2-.7.2m.2-.6q.4 0 .6-.3t.2-.6v-1q0-.4-.2-.6t-.6-.2-.5.2-.3.6v1q0 .4.3.7t.5.2m4 .6q-.7 0-1.2-.4t-.4-1v-2.5h.8v2.4q0 .4.2.6.2.3.5.3.4 0 .6-.3t.2-.6v-2.4h.8v2.4q0 .7-.4 1.1t-1.2.4m4 0q-.5 0-.8-.2l-.6-.5-.2-.8v-1l.2-.8q.2-.3.6-.5t.8-.2q.7 0 1.1.4t.4 1h-.7q0-.3-.2-.5l-.6-.2q-.4 0-.6.2t-.2.6v1q0 .4.2.6.2.3.6.3l.6-.2q.2-.2.2-.5h.7q0 .6-.4 1-.4.3-1.1.3m4.3 0q-.5 0-.8-.3t-.3-.8v-2.1h-1v-.7h1v-1h.7v1h1.5v.7h-1.5v2q0 .5.4.5h1v.6zm1.7 0 1.3-5.1h1l1.3 5h-.8l-.3-1.2h-1.4l-.3 1.2zm1.2-2h1.2l-.4-1.4-.1-.7-.1-.4-.1.4-.2.7zm3 2v-3.9h.7v.7h.2l-.2.2q0-.4.3-.7t.7-.3q.6 0 1 .4.3.4.3 1v2.5h-.7V110q0-.4-.3-.6t-.5-.2-.6.2-.2.6v2.4zm5 0q-.6 0-1-.3-.3-.3-.3-.8t.4-.9q.3-.3 1-.3h1v-.4l-.1-.5-.6-.1-.5.1-.3.4h-.7q0-.5.5-.9.4-.3 1-.3t1.1.4.4 1v2.5h-.7v-.7h-.1v-.1q0 .4-.2.7-.4.2-.9.2m.2-.6q.4 0 .7-.2l.3-.5v-.5h-1.1q-.3 0-.5.2l-.1.4q0 .3.2.5zm4.6.5h-.6l-.4-.5-.1-.6v-3.3h-1.3v-.6h2v3.9l.1.3.4.2h1.2v.6zm2.5 1.3.6-1.5-1.5-3.6h.9l.8 2.2v.3l.1.3.1-.3.1-.3.8-2.2h.8l-1.9 5.1zm5.2-1.3q-.5 0-.8-.2t-.3-.8v-2.1h-1v-.7h1v-1h.8v1h1.5v.7H172v2q0 .5.4.5h1v.6zm2 0v-.6h1.3v-2.5h-1.1v-.7h1.9v3.2h1.2v.6zm1.6-4.5h-.4l-.1-.4.1-.4.4-.1.4.1q.2.1.2.4l-.2.3zm3.9 4.6q-.5 0-.9-.2l-.5-.5-.2-.8v-1l.2-.8.5-.5q.4-.2.9-.2t1 .4.5 1h-.7q0-.3-.3-.5t-.5-.2-.7.2-.2.6v1q0 .4.2.6.3.3.7.3t.5-.2l.3-.5h.7q0 .6-.4 1-.5.3-1.1.3m3.7 0-.7-.1-.5-.4-.2-.5h.7l.2.3h1.3l.2-.4-.2-.4-.4-.2h-.5q-.6-.1-1-.4-.2-.2-.2-.7 0-.6.3-.9.4-.3 1-.3h.3q.6 0 1 .3.3.3.4.8h-.8l-.2-.3-.4-.1h-.3l-.4.1q-.2.1-.2.4 0 .2.2.3l.4.1.5.1q.6.1 1 .4.2.2.2.7 0 .6-.3.9-.4.3-1.1.3zm-44.8 14.8v-.7h7.5v.7zm8.2-.9v-.6h1.4v-2.5H147v-.7h2v3.2h1.2v.6zm1.7-4.5h-.4l-.2-.4q0-.3.2-.4l.4-.1.4.1.1.4-.1.3zm2.3 4.5v-3.8h.7v.7h.2l-.2.2q0-.4.3-.7t.7-.3q.6 0 1 .4.3.4.3 1v2.5h-.8V124q0-.4-.2-.6t-.5-.2-.6.2-.2.6v2.4zm3.9 0v-.6h1.3v-2.5h-1.2v-.7h2v3.2h1.2v.6zm1.6-4.5h-.4l-.1-.4.1-.4.4-.1.4.1.1.4-.1.3zm4.2 4.5q-.5 0-.8-.2t-.3-.8v-2.1h-1v-.7h1v-1h.8v1h1.5v.7h-1.5v2q0 .5.3.5h1v.6zm1.5.9v-.7h7.6v.7zm-21.4 41.2q-.5 0-.9-.2l-.5-.5-.2-.8v-1l.2-.8.5-.5q.4-.2.9-.2.7 0 1 .4t.5 1h-.7q0-.3-.3-.5t-.5-.2-.6.2-.2.6v1q0 .4.2.6.2.3.6.3t.5-.2q.3-.2.3-.5h.7q0 .6-.4 1-.4.3-1.1.3m4.4 0-.6-.2-.4-.4-.2-.6v-3.3h-1.2v-.6h2v3.9l.1.3.3.2h1.2v.6zm1.8 0v-.7h1.4v-2.5H147v-.7h2v3.2h1.2v.6zm1.7-4.6h-.4l-.2-.4q0-.3.2-.4l.4-.1.4.1.1.4-.1.3zm3.8 4.6q-.5 0-.8-.2l-.6-.5-.2-.8v-1l.2-.8q.2-.3.6-.5l.8-.2q.5 0 .8.2t.5.5l.2.8v.7h-2.3v.3q0 .5.2.7t.6.2l.5-.1.3-.3h.7l-.5.7q-.4.3-1 .3m.8-2.2v-.3q0-.4-.2-.6-.2-.3-.6-.3t-.6.3-.2.6v.2h1.7zm1.6 2.1v-3.8h.7v.7h.2l-.2.2q0-.4.3-.7t.7-.3q.6 0 1 .4.3.4.3 1v2.5h-.7V166q0-.4-.3-.6t-.5-.2-.6.2-.2.6v2.4zm5.8 0q-.5 0-.8-.2t-.3-.8v-2.1h-1v-.7h1v-1h.8v1h1.5v.7h-1.5v2q0 .5.3.5h1v.6zm3.4.1-.8-.1-.4-.4-.3-.5h.8l.2.3h1.3l.2-.4-.2-.4-.5-.2h-.5q-.6-.1-.9-.4-.3-.2-.3-.7 0-.6.4-.9.3-.3 1-.3h.3q.6 0 1 .3.3.3.3.8h-.7l-.2-.3-.4-.1h-.3l-.5.1-.1.4.1.3.4.1.5.1q.7.1 1 .4.3.2.3.7 0 .6-.4.9-.3.3-1 .3zm2.3.8v-.7h3.4v.7zm4-.9v-.6h1.4v-2.5h-1.1v-.7h1.9v3.2h1.2v.6zm1.7-4.5h-.4l-.1-.4.1-.4.4-.1.4.1q.2.1.2.4l-.2.3zm2.3 4.5v-3.8h.8v.7h.1l-.1.2q0-.4.2-.7t.8-.3.9.4.3 1v2.5h-.7V166q0-.4-.2-.6t-.6-.2-.5.2-.2.6v2.4zm3.8.9v-.7h3.3v.7zm5.5-.8q-.7 0-1-.4-.5-.4-.5-1v-2.5h.8v2.4q0 .4.2.6.2.3.5.3.4 0 .6-.3t.2-.6v-2.4h.8v2.4q0 .7-.5 1.1t-1 .4m3.7 0-.7-.1-.5-.4-.2-.5h.7l.2.3h1.3l.2-.4-.2-.4-.4-.2h-.5q-.6-.1-1-.4-.2-.2-.2-.7 0-.6.3-.9.4-.3 1-.3h.3q.6 0 1 .3.3.3.4.8h-.8l-.2-.3-.4-.1h-.2l-.5.1q-.2.1-.2.4 0 .2.2.3l.4.1.5.1q.6.1 1 .4.2.2.2.7 0 .6-.3.9-.4.3-1 .3zm3.7 0q-.6 0-1-.3-.3-.3-.3-.8t.3-.9 1-.3h1.1v-.4q0-.3-.2-.5l-.5-.1-.6.1-.2.4h-.7q0-.5.4-.9.5-.3 1-.3.8 0 1.2.4.4.3.4 1v2.5h-.8v-.8l-.3.7q-.3.2-.8.2m.2-.6q.4 0 .7-.2l.2-.5v-.5h-1l-.5.2-.2.4q0 .3.2.5z"/><path fill="#279741" d="M128.6 193.3v-2h.7v2zm4.3 3.1q-.5 0-.9-.2l-.5-.5-.2-.8v-1l.2-.8.5-.5.9-.2q.7 0 1 .4t.5 1h-.7q0-.3-.3-.5t-.5-.2-.6.2-.3.6v1q0 .4.3.6.2.3.6.3t.5-.2l.3-.5h.7q0 .6-.4 1t-1.1.3m3.8 0-.8-.2-.5-.5-.2-.8v-1l.2-.8.5-.5.8-.2q.5 0 .9.2l.5.5.2.8v1q0 .5-.2.8l-.5.5zm0-.7q.4 0 .6-.2.3-.2.3-.6v-1q0-.4-.3-.6t-.6-.2-.5.2-.3.6v1q0 .4.3.6t.5.2m4 .7q-.7 0-1.2-.4t-.4-1v-2.5h.8v2.4q0 .4.2.6.2.3.5.3.4 0 .6-.3t.2-.6v-2.4h.8v2.4q0 .7-.4 1.1t-1.2.4m2.5 0v-3.9h.7v.7h.2l-.2.2q0-.4.3-.7t.7-.3q.6 0 1 .4.3.4.3 1v2.5h-.8V194q0-.4-.2-.6t-.5-.2-.6.2-.2.6v2.4zm5.8 0q-.5 0-.8-.3t-.3-.8v-2.1h-1v-.7h1v-1h.7v1h1.5v.7h-1.5v2q0 .5.4.5h1v.6zm2 0v-3.9h.8v.7h.2l-.2.5q0-.6.2-1 .3-.3.9-.3t1 .4.3 1v.3h-.8v-.2q0-.4-.2-.6t-.6-.2-.5.2-.3.6v2.4zm4.5 1.2.5-1.5-1.4-3.6h.8l.8 2.2.1.3.1.3.1-.3.1-.3.8-2.2h.8l-2 5.1zm4.5-4.3-.1-1v-1h.8v1l-.1 1zm27.6 3.1q-.7 0-1-.4-.5-.4-.5-1v-3.7h.8v3.6q0 .4.2.6.1.3.5.3t.6-.3q.2-.2.2-.6v-3.6h.8v3.6q0 .7-.4 1.1t-1.2.4m4 0-1-.1-.5-.5-.2-.8h.8q0 .4.2.6l.7.1.6-.1.2-.6-.1-.5-.5-.3-.6-.2q-.6-.1-.9-.5l-.3-1 .2-.7.6-.5.8-.1q.7 0 1 .4.5.3.5 1h-.7q0-.4-.2-.6l-.6-.2q-.4 0-.6.2t-.2.5l.1.5.5.3.6.2q.6.2.9.6t.3.9-.2.7l-.6.5zm2 0 1.4-5.1h1l1.2 5h-.7l-.3-1.2h-1.5l-.3 1.2zm1.3-2h1.1l-.3-1.4-.2-.7v-.4l-.1.4-.2.7zm4.1-1v-2.1h.7v2zm-69.5 28-.1-1.4v-.7h.8v.7l-.1 1.3zm-1.5 0-.1-1.4v-.7h.8v2zm3.4 3v-3.9h.8v.7h.2l-.2.2q0-.4.3-.7t.7-.3q.6 0 1 .4.3.4.3 1v2.5h-.8V222q0-.4-.2-.6t-.5-.2-.6.2-.2.6v2.4zm5 0q-.5 0-.9-.3-.3-.3-.3-.8t.3-.9 1-.3h1.1v-.4q0-.3-.2-.5l-.5-.1-.6.1-.2.4h-.7q0-.5.4-.9.5-.3 1-.3.8 0 1.2.4.4.3.4 1v2.5h-.8v-.8l-.3.7q-.3.2-.8.2m.2-.6q.4 0 .7-.2l.2-.5v-.5h-1q-.3 0-.5.2l-.2.4q0 .3.2.5zm2.4.5v-3.8h.6v.5h.1v.1l.1-.5.5-.2q.3 0 .5.3l.1.7-.1-.4h.2v.1l.1-.5.5-.2q.3 0 .5.3t.2.7v3h-.6v-3l-.1-.3-.3-.1-.3.1v3.3h-.6v-3l-.1-.3-.3-.1-.3.1v3.3zm5.6.1q-.5 0-.9-.2l-.5-.5-.2-.8v-1l.2-.8.5-.5q.4-.2.9-.2l.8.2.5.5.2.8v.7h-2.4v.3q0 .5.2.7t.7.2l.5-.1.3-.3h.7l-.5.7q-.4.3-1 .3m.8-2.2v-.3q0-.4-.2-.6-.2-.3-.6-.3t-.7.3-.2.6v.2h1.7zm3.5-.9v-2h.7v2zm-1.5 0v-2h.7v2zm13.2 0v-2h.7v2zm-1.4 0-.1-1.3v-.7h.7v2zm3.1 3 1.3-5h1l1.3 5h-.8l-.3-1.2h-1.4l-.3 1.2zm1.2-1.9h1.2l-.4-1.4-.1-.7-.1-.4v.4l-.2.7zm5 2-.6-.2-.4-.4-.1-.6v-3.3H166v-.6h2v3.9l.1.3.4.2h1.2v.6zm1.9 0v-.7h1.3v-2.5h-1.1v-.7h1.9v3.2h1.2v.6zm1.6-4.6h-.4l-.1-.4.1-.4.4-.1.4.1q.2.1.2.4l-.2.3zm3.8 4.6-.8-.2-.5-.5-.2-.8v-1l.2-.8.5-.5.8-.2q.7 0 1.2.4t.4 1h-.8q0-.3-.2-.5t-.6-.2l-.6.2q-.2.2-.2.6v1q0 .4.2.6.3.3.6.3.4 0 .6-.2t.2-.5h.8q0 .6-.4 1-.5.3-1.2.3m4 0q-.5 0-.9-.2l-.5-.5-.2-.8v-1l.2-.8.5-.5.8-.2q.5 0 .9.2l.5.5.2.8v.7h-2.4v.3q0 .5.2.7t.6.2l.6-.1.2-.3h.8l-.5.7q-.5.3-1 .3m.8-2.2v-.3q0-.4-.3-.6-.2-.3-.6-.3t-.6.3-.2.6v.2h1.7zm3.5-.9-.1-1.3v-.7h.8v.7l-.1 1.3zm-1.5 0-.1-1.3v-.7h.8v2zm13.2 0v-2h.7v.7l-.1 1.3zm-1.5 0v-2h.7v2zm5 3.1-.8-.2-.6-.5-.2-.8v-1l.2-.8q.2-.3.6-.5t.8-.2q.7 0 1.1.4t.4 1h-.7q0-.3-.2-.5l-.6-.2q-.4 0-.6.2t-.2.6v1q0 .4.2.6t.6.3l.6-.2q.2-.2.2-.5h.7q0 .6-.4 1-.4.3-1.1.3m3.9 0q-.5 0-.9-.2l-.5-.5-.2-.8v-1l.2-.8.5-.5q.4-.2.9-.2t.8.2l.5.5.2.8v1q0 .5-.2.8l-.5.5zm0-.7q.4 0 .6-.2t.2-.6v-1q0-.4-.2-.6t-.6-.2-.6.2-.2.6v1q0 .4.2.6t.6.2m3.9.7q-.7 0-1.1-.4t-.4-1v-2.5h.7v2.4q0 .4.2.6.2.3.6.3t.5-.3.2-.6v-2.4h.8v2.4q0 .7-.4 1.1t-1.1.4m2.4 0v-3.9h.7v.7h.2l-.2.2q0-.4.3-.7t.7-.3q.6 0 1 .4.3.4.3 1v2.5h-.7V222q0-.4-.3-.6t-.5-.2-.6.2-.2.6v2.4zm5.8 0q-.5 0-.8-.3t-.3-.8v-2.1h-1v-.7h1v-1h.8v1h1.5v.7H215v2q0 .5.3.5h1v.6zm2.1 0v-3.9h.7v.7h.2l-.2.5q0-.6.3-1 .2-.3.8-.3t1 .4.3 1v.3h-.8v-.2q0-.4-.2-.6t-.5-.2-.6.2-.2.6v2.4zm4.4 1.2.6-1.5-1.5-3.6h.9l.8 2.2v.3l.1.3.1-.3.1-.3.8-2.2h.8l-1.9 5.1zm5.2-4.3v-2h.7v2zm-1.4 0-.1-1.3v-.7h.8v.7l-.1 1.3zm13.2 0-.1-1.3v-.7h.8v.7l-.1 1.3zm-1.5 0-.1-1.3v-.7h.8v2zm5 3.1q-.8 0-1.2-.4t-.4-1v-3.7h.8v3.6q0 .4.2.6.1.3.5.3t.6-.3q.2-.2.2-.6v-3.6h.8v3.6q0 .7-.4 1.1t-1.2.4m4 0-1-.1-.5-.5-.2-.8h.8q0 .4.2.6l.7.1.6-.1q.2-.2.2-.6a1 1 0 0 0-.6-.8l-.6-.2q-.6-.1-.9-.5t-.3-1l.2-.7q.2-.3.6-.4t.8-.2q.7 0 1 .4.5.3.5 1h-.7q0-.4-.2-.6l-.6-.2q-.4 0-.6.2t-.2.5l.1.5.5.3.6.2q.6.2.9.6t.3.9-.2.7l-.6.5zm2 0 1.4-5.1h1l1.2 5h-.7l-.3-1.2h-1.5l-.3 1.2zm1.3-2h1.1l-.3-1.4-.2-.7v-.4l-.1.4-.2.7zm4.9-1v-2.1h.7v2zm-1.5 0v-2.1h.7v2zm-123.5 14-.1-1.4v-.7h.8v.7l-.1 1.3zm-1.5 0-.1-1.4v-.7h.8v2zm3.4 3v-3.9h.8v.7h.2l-.2.2q0-.4.3-.7t.7-.3q.6 0 1 .4.3.4.3 1v2.5h-.8V236q0-.4-.2-.6t-.5-.2-.6.2-.2.6v2.4zm5 0q-.5 0-.9-.3-.3-.3-.3-.8t.3-.9 1-.3h1.1v-.4q0-.3-.2-.5l-.5-.1-.6.1-.2.4h-.7q0-.5.4-.9.5-.3 1-.3.8 0 1.2.4.4.3.4 1v2.5h-.8v-.8l-.3.7q-.3.2-.8.2m.2-.6q.4 0 .7-.2l.2-.5v-.5h-1q-.3 0-.5.2l-.2.4q0 .3.2.5zm2.4.5v-3.8h.6v.5h.1v.1l.1-.5.5-.2q.3 0 .5.3l.1.7-.1-.4h.2v.1l.1-.5.5-.2q.3 0 .5.3t.2.7v3h-.6v-3l-.1-.3-.3-.1-.3.1v3.3h-.6v-3l-.1-.3-.3-.1-.3.1v3.3zm5.6.1q-.5 0-.9-.2l-.5-.5-.2-.8v-1l.2-.8.5-.5q.4-.2.9-.2l.8.2.5.5.2.8v.7h-2.4v.3q0 .5.2.7t.7.2l.5-.1.3-.3h.7l-.5.7q-.4.3-1 .3m.8-2.2v-.3q0-.4-.2-.6-.2-.3-.6-.3t-.7.3-.2.6v.2h1.7zm3.5-.9v-2h.7v2zm-1.5 0v-2h.7v2zm15.2 3v-5h1.5q.7 0 1.1.3.4.4.4 1l-.1.6-.4.4-.6.1h.6l.5.5q.2.3.2.7 0 .5-.2.8l-.6.5-.8.1zm.7-.6h.8q.4 0 .7-.2t.2-.6-.2-.6-.7-.3h-.8zm0-2.3h.8q.4 0 .6-.2l.2-.6q0-.3-.2-.5t-.6-.2h-.8zm4.7 3q-.5 0-.8-.2l-.6-.5-.1-.8v-1l.1-.8q.2-.3.6-.5t.8-.2.8.2.6.5l.2.8v1q0 .5-.2.8l-.6.5zm0-.7q.4 0 .6-.2t.2-.6v-1q0-.4-.2-.6t-.6-.2-.6.2-.2.6v1q0 .4.2.6t.6.2m4.2.7q-.5 0-.8-.2-.2-.3-.2-.8l.1.2h-.1v.7h-.8v-5h.8v2h.1l-.1.1q0-.4.2-.7t.8-.3 1 .4.3 1v1.2q0 .6-.4 1t-1 .4m-.2-.6q.4 0 .6-.2t.2-.7v-1q0-.4-.2-.6t-.6-.2-.5.2-.2.6v1q0 .4.2.6.2.3.5.3m16-2.5v-2h.8v.7l-.1 1.3zm-1.4 0v-2h.7v2zm5 3.1q-.5 0-.9-.2l-.5-.5-.2-.8v-1l.2-.8.5-.5q.4-.2.9-.2.7 0 1 .4t.5 1h-.7q0-.3-.3-.5t-.5-.2-.6.2-.3.6v1q0 .4.3.6.2.3.6.3t.5-.2q.3-.2.3-.5h.7q0 .6-.4 1-.4.3-1.1.3m3.9 0-.9-.2-.5-.5-.2-.8v-1l.2-.8.5-.5.9-.2.8.2.5.5.2.8v1q0 .5-.2.8l-.5.5zm0-.7q.3 0 .5-.2t.3-.6v-1q0-.4-.3-.6t-.5-.2-.6.2-.2.6v1q0 .4.2.6t.6.2m3.9.7q-.7 0-1.1-.4t-.5-1v-2.5h.8v2.4q0 .4.2.6.2.3.6.3t.5-.3.2-.6v-2.4h.8v2.4q0 .7-.4 1.1t-1.1.4m2.4 0v-3.9h.7v.7h.2l-.2.2q0-.4.3-.7t.7-.3q.6 0 1 .4.3.4.3 1v2.5h-.8V236q0-.4-.2-.6t-.5-.2-.6.2-.2.6v2.4zm5.8 0q-.5 0-.8-.3t-.3-.8v-2.1h-1v-.7h1v-1h.7v1h1.5v.7h-1.5v2q0 .5.4.5h1v.6zm2.1 0v-3.9h.7v.7h.2l-.2.5q0-.6.3-1 .2-.3.8-.3t1 .4.3 1v.3h-.8v-.2q0-.4-.2-.6t-.6-.2-.5.2-.2.6v2.4zm4.4 1.2.5-1.5-1.4-3.6h.8l.9 2.2v.3l.1.3.1-.3.1-.3.8-2.2h.8l-2 5.1zm5.2-4.3v-2h.7v2zm-1.4 0-.1-1.3v-.7h.7v2zm13.2 0-.1-1.3v-.7h.7v2zm-1.5 0-.1-1.3v-.7h.8v.7l-.1 1.3zm5 3.1q-.5 0-.9-.2l-.5-.5-.2-.8v-2.2q0-.5.2-.8t.5-.5l.9-.2.8.2q.3.1.5.5.2.3.2.8h-.7q0-.4-.3-.6t-.5-.2-.6.2-.3.6v2.2q0 .4.3.6t.6.2.5-.2.3-.6h.7q0 .5-.2.8l-.5.5zm3.4 0q-.6 0-.9-.3t-.3-.8.3-.9 1-.3h1.1v-.4q0-.3-.2-.5l-.5-.1-.6.1-.2.4h-.8q.1-.5.5-.9.4-.3 1-.3.8 0 1.2.4.4.3.4 1v2.5h-.8v-.7h-.1l.1-.1-.3.7q-.3.2-.9.2m.3-.6q.4 0 .6-.2l.3-.5v-.5h-1l-.5.2-.2.4q0 .3.2.5zm2.5.5v-3.8h.8v.7h.2l-.2.2q0-.4.3-.7t.7-.3q.6 0 1 .4.3.4.3 1v2.5h-.8V236q0-.4-.2-.6t-.5-.2-.6.2-.2.6v2.4zm5 .1q-.5 0-.9-.3-.3-.3-.3-.8t.3-.9 1-.3h1.1v-.4q0-.3-.2-.5l-.5-.1-.6.1-.2.4h-.7q0-.5.4-.9.5-.3 1-.3.8 0 1.2.4.4.3.4 1v2.5h-.8v-.8q0 .4-.3.7t-.8.2m.2-.6q.4 0 .6-.2l.3-.5v-.5h-1q-.3 0-.5.2l-.2.4q0 .3.2.5zm3.8.6q-.6 0-1-.4t-.3-1v-1.1q0-.7.4-1 .3-.5.9-.5.5 0 .7.3.3.3.3.7l-.1-.2h.1v-1.9h.8v5h-.8v-.7h-.1l.1-.2q0 .5-.3.8-.2.2-.7.2m.2-.6q.4 0 .6-.3t.2-.6v-1q0-.4-.2-.6t-.6-.2-.5.2-.2.6v1q0 .4.2.7t.5.2m3.6.6q-.6 0-1-.3-.3-.3-.3-.8t.3-.9 1-.3h1.1v-.4q0-.3-.2-.5l-.5-.1-.5.1-.3.4h-.7q0-.5.4-.9.5-.3 1.1-.3t1 .4.5 1v2.5h-.7v-.7h-.2l.2-.1-.4.7q-.3.2-.8.2m.2-.6q.4 0 .7-.2l.2-.5v-.5h-1q-.3 0-.5.2l-.2.4q0 .3.2.5zm4.5-2.5v-2h.7v2zm-1.5 0v-2h.7v2zm-127.4 14-.1-1.3v-.7h.8v.7l-.1 1.3zm-1.5 0-.1-1.3v-.7h.8v2zm3.4 3v-3.8h.8v.7h.2l-.2.2q0-.4.3-.7t.7-.3q.6 0 1 .4.3.4.3 1v2.5h-.8V250q0-.4-.2-.6t-.5-.2-.6.2-.2.6v2.4zm5 .1q-.5 0-.9-.3-.3-.3-.3-.8t.3-.9 1-.3h1.1v-.4q0-.3-.2-.5l-.5-.1-.6.1-.2.4h-.7q0-.5.4-.9.5-.3 1-.3.8 0 1.2.4.4.3.4 1v2.5h-.8v-.8l-.3.7q-.3.2-.8.2m.2-.6q.4 0 .7-.2l.2-.5v-.5h-1q-.3 0-.5.2l-.2.4q0 .3.2.5zm2.4.5v-3.8h.6v.5h.1v.1l.1-.5.5-.2q.3 0 .5.3l.1.7-.1-.4h.2v.1l.1-.5.5-.2q.3 0 .5.3t.2.7v3h-.6v-3l-.1-.3-.3-.1-.3.1v3.3h-.6v-3l-.1-.3-.3-.1-.3.1v3.3zm5.6.1q-.5 0-.9-.2l-.5-.5-.2-.8v-1l.2-.8.5-.5q.4-.2.9-.2l.8.2.5.5.2.8v.7h-2.4v.3q0 .5.2.7t.7.2l.5-.1.3-.3h.7l-.5.7q-.4.3-1 .3m.8-2.2v-.3q0-.4-.2-.6-.2-.3-.6-.3t-.7.3-.2.6v.2h1.7zm3.5-.9v-2h.7v2zm-1.5 0v-2h.7v2zm15.3 3v-5h3v.6h-2.3v1.5h2v.6h-2v1.7h2.3v.6zm4.8 0-1.3-3.8h.8l.8 2.5.1.4.1.3.1-.3.1-.4.8-2.5h.8l-1.3 3.8zm4.4.1-.8-.2-.5-.5-.2-.8v-1l.2-.8q.1-.3.5-.5l.8-.2q.5 0 .8.2t.6.5l.2.8v.7H171v.3q0 .5.2.7t.6.2l.6-.1.2-.3h.7l-.5.7q-.4.3-1 .3m.8-2.2v-.3q0-.4-.2-.6-.2-.3-.6-.3t-.6.3-.2.6v.2h1.7zm15.3-.9-.1-1.3v-.7h.8v.7l-.1 1.3zm-1.5 0v-2h.7v2zm5 3.1q-.5 0-.9-.2l-.5-.5-.2-.8v-1l.2-.8.5-.5q.4-.2.9-.2.7 0 1 .4t.5 1h-.7q0-.3-.3-.5t-.5-.2-.6.2-.3.6v1q0 .4.3.6.2.3.6.3t.5-.2q.3-.2.3-.5h.7q0 .6-.4 1-.4.3-1.1.3m3.9 0-.9-.2-.5-.5-.2-.8v-1l.2-.8.5-.5.9-.2.8.2.5.5.2.8v1q0 .5-.2.8l-.5.5zm0-.7q.3 0 .5-.2t.3-.6v-1q0-.4-.3-.6t-.5-.2-.6.2-.2.6v1q0 .4.2.6t.6.2m3.9.7q-.7 0-1.1-.4t-.5-1v-2.5h.8v2.4q0 .4.2.6.2.3.6.3t.5-.3.2-.6v-2.4h.8v2.4q0 .7-.4 1.1t-1.1.4m2.4 0v-3.9h.7v.7h.2l-.2.2q0-.4.3-.7t.7-.3q.6 0 1 .4.3.4.3 1v2.5h-.8V250q0-.4-.2-.6t-.5-.2-.6.2-.2.6v2.4zm5.8 0q-.5 0-.8-.3t-.3-.8v-2.1h-1v-.7h1v-1h.7v1h1.5v.7H207v2q0 .5.4.5h1v.6zm2.1 0v-3.9h.7v.7h.2l-.2.5q0-.6.3-1 .2-.3.8-.3t1 .4.3 1v.3h-.8v-.2q0-.4-.2-.6t-.6-.2-.5.2-.2.6v2.4zm4.4 1.2.5-1.5-1.4-3.6h.8l.9 2.2v.3l.1.3.1-.3.1-.3.8-2.2h.8l-2 5.1zm5.2-4.3v-2h.7v2zm-1.4 0-.1-1.3v-.7h.7v2zm13.2 0-.1-1.3v-.7h.7v2zm-1.5 0-.1-1.3v-.7h.8v.7l-.1 1.3zm5 3.1q-.8 0-1.2-.4t-.4-1v-3.7h.8v3.6l.1.6q.2.3.6.3t.6-.3.2-.6v-3.6h.8v3.6q0 .7-.4 1.1t-1.2.4m4 0-1-.1-.5-.5-.2-.8h.7q0 .3.3.6l.7.1.6-.1.2-.6a1 1 0 0 0-.6-.8l-.6-.2q-.6-.1-.9-.5l-.3-1 .2-.7q.2-.4.5-.5l.9-.1q.7 0 1 .4.5.3.5 1h-.7q0-.4-.3-.6t-.6-.2-.5.2-.2.5l.1.5.5.3.6.2q.6.2.9.6t.3.9-.2.7l-.6.5zm2 0 1.3-5.1h1l1.3 5h-.7l-.3-1.2h-1.5l-.3 1.2zm1.3-2h1.1l-.3-1.4-.2-.7v-.4l-.1.4-.2.7zm4.9-1-.1-1.4v-.7h.8v.7l-.1 1.3zm-1.5 0v-2.1h.7v2z"/><rect width="231.3" height="13.1" x="76.8" y="173.7" fill="#2d68ff" opacity=".1" rx="1.7"/><g filter="url(#p)"><path fill="#000" stroke="#fff" stroke-width=".9" d="M184 172h.3v1.8h-1.5l-.6.4-.3.4-.3.3v3.5h.9v1.8h-1v4.4h.1v.1l.3.3.3.4q.3.3.7.3h1.4v1.5l.1.4h-.4l-1.5-.1h-.1l-1.3-.7-.4-.5-.5.5-1.3.7h-2v-.4l.1-.9v-.4h1.4l.7-.4.3-.4.3-.3v-4.5h-.9v-1.8h1V175h-.1v-.1l-.3-.3-.3-.4-.7-.4H177V172h1.8v.1h.1l1.3.7.5.4.4-.4 1.3-.7z"/></g></g></g><g opacity=".5"><path fill="url(#q)" d="M438.1 93.4v178h-83.4l-9.7-10.1a11 11 0 0 1-2.9-7.3V110.8q0-4.2 3-7.3l9.6-10.1z"/><path fill="url(#r)" d="M-54.1 93.4v178h83.4l9.7-10.1a11 11 0 0 0 2.9-7.3V110.8q0-4.2-3-7.3l-9.6-10.1z"/></g></g><defs><linearGradient id="c" x1="192" x2="192" y1="48.9" y2="123.9" gradientUnits="userSpaceOnUse"><stop stop-color="#f6f6f6"/><stop offset="1" stop-color="#e6e6e6"/></linearGradient><linearGradient id="f" x1="192" x2="192" y1="67.2" y2="142.3" gradientUnits="userSpaceOnUse"><stop stop-color="#f6f6f6"/><stop offset="1" stop-color="#e6e6e6"/></linearGradient><linearGradient id="i" x1="192" x2="192" y1="86.4" y2="280.1" gradientUnits="userSpaceOnUse"><stop stop-color="#fdfdfd" stop-opacity=".3"/><stop offset="1" stop-color="#fdfdfd"/></linearGradient><linearGradient id="j" x1="192" x2="192" y1="86.4" y2="280.1" gradientUnits="userSpaceOnUse"><stop stop-color="#e2e2e2"/><stop offset="1" stop-color="#e2e2e2" stop-opacity=".8"/></linearGradient><linearGradient id="l" x1="192" x2="192" y1="93.4" y2="273.2" gradientUnits="userSpaceOnUse"><stop stop-color="#f6f6f6"/><stop offset="1" stop-color="#e6e6e6"/></linearGradient><linearGradient id="n" x1="192" x2="192" y1="93.4" y2="273.2" gradientUnits="userSpaceOnUse"><stop offset=".7"/><stop offset="1" stop-opacity="0"/></linearGradient><linearGradient id="q" x1="342.1" x2="438.1" y1="182.4" y2="182.4" gradientUnits="userSpaceOnUse"><stop stop-color="#f1f1f1"/><stop offset="1" stop-color="#f1f1f1" stop-opacity="0"/></linearGradient><linearGradient id="r" x1="41.9" x2="-54.1" y1="182.4" y2="182.4" gradientUnits="userSpaceOnUse"><stop stop-color="#f1f1f1"/><stop offset="1" stop-color="#f1f1f1" stop-opacity="0"/></linearGradient><filter id="b" width="291.5" height="165.8" x="46.3" y="31.4" color-interpolation-filters="sRGB" filterUnits="userSpaceOnUse"><feFlood flood-opacity="0" result="BackgroundImageFix"/><feColorMatrix in="SourceAlpha" result="hardAlpha" values="0 0 0 0 0 0 0 0 0 0 0 0 0 0 0 0 0 0 127 0"/><feMorphology in="SourceAlpha" radius="3.5" result="effect1_dropShadow_211_5181"/><feOffset dy="4.4"/><feGaussianBlur stdDeviation=".7"/><feComposite in2="hardAlpha" operator="out"/><feColorMatrix values="0 0 0 0 0.0313726 0 0 0 0 0.0313726 0 0 0 0 0.0313726 0 0 0 0.05 0"/><feBlend in2="BackgroundImageFix" result="effect1_dropShadow_211_5181"/><feColorMatrix in="SourceAlpha" result="hardAlpha" values="0 0 0 0 0 0 0 0 0 0 0 0 0 0 0 0 0 0 127 0"/><feMorphology in="SourceAlpha" radius="3.5" result="effect2_dropShadow_211_5181"/><feOffset dy="5.2"/><feGaussianBlur stdDeviation="1.7"/><feComposite in2="hardAlpha" operator="out"/><feColorMatrix values="0 0 0 0 0.0313726 0 0 0 0 0.0313726 0 0 0 0 0.0313726 0 0 0 0.05 0"/><feBlend in2="effect1_dropShadow_211_5181" result="effect2_dropShadow_211_5181"/><feColorMatrix in="SourceAlpha" result="hardAlpha" values="0 0 0 0 0 0 0 0 0 0 0 0 0 0 0 0 0 0 127 0"/><feOffset dy="5.2"/><feGaussianBlur stdDeviation="5.7"/><feComposite in2="hardAlpha" operator="out"/><feColorMatrix values="0 0 0 0 0.0313726 0 0 0 0 0.0313726 0 0 0 0 0.0313726 0 0 0 0.03 0"/><feBlend in2="effect2_dropShadow_211_5181" result="effect3_dropShadow_211_5181"/><feColorMatrix in="SourceAlpha" result="hardAlpha" values="0 0 0 0 0 0 0 0 0 0 0 0 0 0 0 0 0 0 127 0"/><feMorphology in="SourceAlpha" radius="14" result="effect4_dropShadow_211_5181"/><feOffset dy="20.9"/><feGaussianBlur stdDeviation="10.5"/><feComposite in2="hardAlpha" operator="out"/><feColorMatrix values="0 0 0 0 0.0313726 0 0 0 0 0.0313726 0 0 0 0 0.0313726 0 0 0 0.04 0"/><feBlend in2="effect3_dropShadow_211_5181" result="effect4_dropShadow_211_5181"/><feColorMatrix in="SourceAlpha" result="hardAlpha" values="0 0 0 0 0 0 0 0 0 0 0 0 0 0 0 0 0 0 127 0"/><feMorphology in="SourceAlpha" radius="1.7" result="effect5_dropShadow_211_5181"/><feOffset dy="1.9"/><feGaussianBlur stdDeviation=".2"/><feComposite in2="hardAlpha" operator="out"/><feColorMatrix values="0 0 0 0 0 0 0 0 0 0 0 0 0 0 0 0 0 0 0.25 0"/><feBlend in2="effect4_dropShadow_211_5181" result="effect5_dropShadow_211_5181"/><feColorMatrix in="SourceAlpha" result="hardAlpha" values="0 0 0 0 0 0 0 0 0 0 0 0 0 0 0 0 0 0 127 0"/><feMorphology in="SourceAlpha" radius="10.5" result="effect6_dropShadow_211_5181"/><feOffset dy="27.9"/><feGaussianBlur stdDeviation="27.9"/><feComposite in2="hardAlpha" operator="out"/><feColorMatrix values="0 0 0 0 0 0 0 0 0 0 0 0 0 0 0 0 0 0 0.075 0"/><feBlend in2="effect5_dropShadow_211_5181" mode="multiply" result="effect6_dropShadow_211_5181"/><feBlend in="SourceGraphic" in2="effect6_dropShadow_211_5181" result="shape"/></filter><filter id="d" width="290.6" height="260.1" x="47.1" y="4.4" color-interpolation-filters="sRGB" filterUnits="userSpaceOnUse"><feFlood flood-opacity="0" result="BackgroundImageFix"/><feBlend in="SourceGraphic" in2="BackgroundImageFix" result="shape"/><feGaussianBlur result="effect1_foregroundBlur_211_5181" stdDeviation="27.9"/></filter><filter id="e" width="319.4" height="165.8" x="32.3" y="49.7" color-interpolation-filters="sRGB" filterUnits="userSpaceOnUse"><feFlood flood-opacity="0" result="BackgroundImageFix"/><feColorMatrix in="SourceAlpha" result="hardAlpha" values="0 0 0 0 0 0 0 0 0 0 0 0 0 0 0 0 0 0 127 0"/><feMorphology in="SourceAlpha" radius="3.5" result="effect1_dropShadow_211_5181"/><feOffset dy="4.4"/><feGaussianBlur stdDeviation=".7"/><feComposite in2="hardAlpha" operator="out"/><feColorMatrix values="0 0 0 0 0.0313726 0 0 0 0 0.0313726 0 0 0 0 0.0313726 0 0 0 0.05 0"/><feBlend in2="BackgroundImageFix" result="effect1_dropShadow_211_5181"/><feColorMatrix in="SourceAlpha" result="hardAlpha" values="0 0 0 0 0 0 0 0 0 0 0 0 0 0 0 0 0 0 127 0"/><feMorphology in="SourceAlpha" radius="3.5" result="effect2_dropShadow_211_5181"/><feOffset dy="5.2"/><feGaussianBlur stdDeviation="1.7"/><feComposite in2="hardAlpha" operator="out"/><feColorMatrix values="0 0 0 0 0.0313726 0 0 0 0 0.0313726 0 0 0 0 0.0313726 0 0 0 0.05 0"/><feBlend in2="effect1_dropShadow_211_5181" result="effect2_dropShadow_211_5181"/><feColorMatrix in="SourceAlpha" result="hardAlpha" values="0 0 0 0 0 0 0 0 0 0 0 0 0 0 0 0 0 0 127 0"/><feOffset dy="5.2"/><feGaussianBlur stdDeviation="5.7"/><feComposite in2="hardAlpha" operator="out"/><feColorMatrix values="0 0 0 0 0.0313726 0 0 0 0 0.0313726 0 0 0 0 0.0313726 0 0 0 0.03 0"/><feBlend in2="effect2_dropShadow_211_5181" result="effect3_dropShadow_211_5181"/><feColorMatrix in="SourceAlpha" result="hardAlpha" values="0 0 0 0 0 0 0 0 0 0 0 0 0 0 0 0 0 0 127 0"/><feMorphology in="SourceAlpha" radius="14" result="effect4_dropShadow_211_5181"/><feOffset dy="20.9"/><feGaussianBlur stdDeviation="10.5"/><feComposite in2="hardAlpha" operator="out"/><feColorMatrix values="0 0 0 0 0.0313726 0 0 0 0 0.0313726 0 0 0 0 0.0313726 0 0 0 0.04 0"/><feBlend in2="effect3_dropShadow_211_5181" result="effect4_dropShadow_211_5181"/><feColorMatrix in="SourceAlpha" result="hardAlpha" values="0 0 0 0 0 0 0 0 0 0 0 0 0 0 0 0 0 0 127 0"/><feMorphology in="SourceAlpha" radius="1.7" result="effect5_dropShadow_211_5181"/><feOffset dy="1.9"/><feGaussianBlur stdDeviation=".2"/><feComposite in2="hardAlpha" operator="out"/><feColorMatrix values="0 0 0 0 0 0 0 0 0 0 0 0 0 0 0 0 0 0 0.25 0"/><feBlend in2="effect4_dropShadow_211_5181" result="effect5_dropShadow_211_5181"/><feColorMatrix in="SourceAlpha" result="hardAlpha" values="0 0 0 0 0 0 0 0 0 0 0 0 0 0 0 0 0 0 127 0"/><feMorphology in="SourceAlpha" radius="10.5" result="effect6_dropShadow_211_5181"/><feOffset dy="27.9"/><feGaussianBlur stdDeviation="27.9"/><feComposite in2="hardAlpha" operator="out"/><feColorMatrix values="0 0 0 0 0 0 0 0 0 0 0 0 0 0 0 0 0 0 0.075 0"/><feBlend in2="effect5_dropShadow_211_5181" mode="multiply" result="effect6_dropShadow_211_5181"/><feBlend in="SourceGraphic" in2="effect6_dropShadow_211_5181" result="shape"/></filter><filter id="g" width="311.6" height="260.1" x="36.7" y="25.3" color-interpolation-filters="sRGB" filterUnits="userSpaceOnUse"><feFlood flood-opacity="0" result="BackgroundImageFix"/><feBlend in="SourceGraphic" in2="BackgroundImageFix" result="shape"/><feGaussianBlur result="effect1_foregroundBlur_211_5181" stdDeviation="27.9"/></filter><filter id="k" width="335.1" height="270.5" x="24.4" y="75.9" color-interpolation-filters="sRGB" filterUnits="userSpaceOnUse"><feFlood flood-opacity="0" result="BackgroundImageFix"/><feColorMatrix in="SourceAlpha" result="hardAlpha" values="0 0 0 0 0 0 0 0 0 0 0 0 0 0 0 0 0 0 127 0"/><feMorphology in="SourceAlpha" radius="3.5" result="effect1_dropShadow_211_5181"/><feOffset dy="4.4"/><feGaussianBlur stdDeviation=".7"/><feComposite in2="hardAlpha" operator="out"/><feColorMatrix values="0 0 0 0 0.0313726 0 0 0 0 0.0313726 0 0 0 0 0.0313726 0 0 0 0.05 0"/><feBlend in2="BackgroundImageFix" result="effect1_dropShadow_211_5181"/><feColorMatrix in="SourceAlpha" result="hardAlpha" values="0 0 0 0 0 0 0 0 0 0 0 0 0 0 0 0 0 0 127 0"/><feMorphology in="SourceAlpha" radius="3.5" result="effect2_dropShadow_211_5181"/><feOffset dy="5.2"/><feGaussianBlur stdDeviation="1.7"/><feComposite in2="hardAlpha" operator="out"/><feColorMatrix values="0 0 0 0 0.0313726 0 0 0 0 0.0313726 0 0 0 0 0.0313726 0 0 0 0.05 0"/><feBlend in2="effect1_dropShadow_211_5181" result="effect2_dropShadow_211_5181"/><feColorMatrix in="SourceAlpha" result="hardAlpha" values="0 0 0 0 0 0 0 0 0 0 0 0 0 0 0 0 0 0 127 0"/><feOffset dy="5.2"/><feGaussianBlur stdDeviation="5.7"/><feComposite in2="hardAlpha" operator="out"/><feColorMatrix values="0 0 0 0 0.0313726 0 0 0 0 0.0313726 0 0 0 0 0.0313726 0 0 0 0.03 0"/><feBlend in2="effect2_dropShadow_211_5181" result="effect3_dropShadow_211_5181"/><feColorMatrix in="SourceAlpha" result="hardAlpha" values="0 0 0 0 0 0 0 0 0 0 0 0 0 0 0 0 0 0 127 0"/><feMorphology in="SourceAlpha" radius="14" result="effect4_dropShadow_211_5181"/><feOffset dy="20.9"/><feGaussianBlur stdDeviation="10.5"/><feComposite in2="hardAlpha" operator="out"/><feColorMatrix values="0 0 0 0 0.0313726 0 0 0 0 0.0313726 0 0 0 0 0.0313726 0 0 0 0.04 0"/><feBlend in2="effect3_dropShadow_211_5181" result="effect4_dropShadow_211_5181"/><feColorMatrix in="SourceAlpha" result="hardAlpha" values="0 0 0 0 0 0 0 0 0 0 0 0 0 0 0 0 0 0 127 0"/><feMorphology in="SourceAlpha" radius="1.7" result="effect5_dropShadow_211_5181"/><feOffset dy="1.9"/><feGaussianBlur stdDeviation=".2"/><feComposite in2="hardAlpha" operator="out"/><feColorMatrix values="0 0 0 0 0 0 0 0 0 0 0 0 0 0 0 0 0 0 0.25 0"/><feBlend in2="effect4_dropShadow_211_5181" result="effect5_dropShadow_211_5181"/><feColorMatrix in="SourceAlpha" result="hardAlpha" values="0 0 0 0 0 0 0 0 0 0 0 0 0 0 0 0 0 0 127 0"/><feMorphology in="SourceAlpha" radius="10.5" result="effect6_dropShadow_211_5181"/><feOffset dy="27.9"/><feGaussianBlur stdDeviation="27.9"/><feComposite in2="hardAlpha" operator="out"/><feColorMatrix values="0 0 0 0 0 0 0 0 0 0 0 0 0 0 0 0 0 0 0.075 0"/><feBlend in2="effect5_dropShadow_211_5181" mode="multiply" result="effect6_dropShadow_211_5181"/><feBlend in="SourceGraphic" in2="effect6_dropShadow_211_5181" result="shape"/></filter><filter id="p" width="11.9" height="20" x="174.7" y="171.5" color-interpolation-filters="sRGB" filterUnits="userSpaceOnUse"><feFlood flood-opacity="0" result="BackgroundImageFix"/><feColorMatrix in="SourceAlpha" result="hardAlpha" values="0 0 0 0 0 0 0 0 0 0 0 0 0 0 0 0 0 0 127 0"/><feOffset dy="1.7"/><feGaussianBlur stdDeviation=".9"/><feColorMatrix values="0 0 0 0 0 0 0 0 0 0 0 0 0 0 0 0 0 0 0.25 0"/><feBlend in2="BackgroundImageFix" result="effect1_dropShadow_211_5181"/><feBlend in="SourceGraphic" in2="effect1_dropShadow_211_5181" result="shape"/></filter><clipPath id="h" transform="translate(-35 -58.5)"><path d="M102 87h180c7 0 12 0 16 .4 4.1.3 7 1 9.5 2.2A24 24 0 0 1 318 100q1.9 3.6 2.3 9.5.4 5.8.3 16V241q0 10.2-.3 16-.5 5.9-2.3 9.5a24 24 0 0 1-10.4 10.4q-3.6 1.9-9.4 2.3t-16 .3H101.9q-10.1 0-16-.3-5.9-.5-9.4-2.3A24 24 0 0 1 66 266.5c-1.3-2.5-2-5.4-2.3-9.5q-.4-5.8-.3-16V125.5q0-10.2.3-16 .5-5.9 2.3-9.5a24 24 0 0 1 10.4-10.4q3.6-1.8 9.4-2.2t16-.3"/></clipPath><clipPath id="a"><path fill="#fff" d="M0 44.7C0 29 0 21.2 3 15.2A28 28 0 0 1 15.2 3c6-3 13.8-3 29.5-3h294.6c15.7 0 23.5 0 29.5 3A28 28 0 0 1 381 15.2c3 6 3 13.8 3 29.5v238.8c0 15.6 0 23.4-3 29.4a28 28 0 0 1-12.2 12.2c-6 3-13.8 3-29.5 3H44.7c-15.7 0-23.5 0-29.5-3A28 28 0 0 1 3 312.9c-3-6-3-13.8-3-29.4z"/></clipPath><clipPath id="m"><path fill="#fff" d="M69.8 110.8c0-9.6 7.8-17.4 17.5-17.4h209.4c9.7 0 17.5 7.8 17.5 17.4v145c0 9.5-7.8 17.4-17.5 17.4H87.3c-9.7 0-17.5-7.9-17.5-17.5z"/></clipPath></defs></svg>