<svg xmlns="http://www.w3.org/2000/svg" width="384" height="372" fill="none" viewBox="0 0 384 372"><g clip-path="url(#a)"><foreignObject width="244.364" height="247.855" x="69.818" y="-27.927"><div xmlns="http://www.w3.org/1999/xhtml" style="backdrop-filter:blur(13.96px);clip-path:url(#b);height:100%;width:100%"/></foreignObject><rect width="187.2" height="190.691" x="98.4" y=".655" stroke="url(#c)" stroke-width="1.309" data-figma-bg-blur-radius="27.927" rx="20.291"/><foreignObject width="317.673" height="153.6" x="33.163" y="-27.927"><div xmlns="http://www.w3.org/1999/xhtml" style="backdrop-filter:blur(13.96px);clip-path:url(#d);height:100%;width:100%"/></foreignObject><rect width="260.509" height="96.436" x="61.745" y=".655" stroke="url(#e)" stroke-width="1.309" data-figma-bg-blur-radius="27.927" rx="20.291"/><foreignObject width="317.673" height="153.6" x="33.163" y="258.325"><div xmlns="http://www.w3.org/1999/xhtml" style="backdrop-filter:blur(13.96px);clip-path:url(#f);height:100%;width:100%"/></foreignObject><rect width="260.509" height="96.436" x="61.745" y="286.906" stroke="url(#g)" stroke-width="1.309" data-figma-bg-blur-radius="27.927" rx="20.291"/><foreignObject width="244.364" height="247.855" x="69.818" y="162.325"><div xmlns="http://www.w3.org/1999/xhtml" style="backdrop-filter:blur(13.96px);clip-path:url(#h);height:100%;width:100%"/></foreignObject><rect width="187.2" height="190.691" x=".655" y="-.655" stroke="url(#i)" stroke-width="1.309" data-figma-bg-blur-radius="27.927" rx="20.291" transform="matrix(1 0 0 -1 97.745 380.943)"/><foreignObject width="132.655" height="80.291" x="125.673" y="150.114"><div xmlns="http://www.w3.org/1999/xhtml" style="backdrop-filter:blur(13.96px);clip-path:url(#j);height:100%;width:100%"/></foreignObject><g data-figma-bg-blur-radius="27.927"><path fill="url(#k)" d="M153.6 190.259c0-6.748 5.47-12.218 12.218-12.218h52.364c6.748 0 12.218 5.47 12.218 12.218s-5.47 12.218-12.218 12.218h-52.364c-6.748 0-12.218-5.47-12.218-12.218"/><path stroke="url(#l)" stroke-opacity=".15" stroke-width="1.309" d="M165.818 178.695h52.364c6.386 0 11.563 5.178 11.564 11.564s-5.178 11.564-11.564 11.564h-52.364c-6.386 0-11.564-5.178-11.564-11.564.001-6.386 5.178-11.563 11.564-11.564Z"/><rect width="22.691" height="3.491" x="180.655" y="188.511" fill="#fdfdfd" rx="1.745"/></g><foreignObject width="142.254" height="90.764" x="121.309" y="144.875"><div xmlns="http://www.w3.org/1999/xhtml" style="backdrop-filter:blur(13.96px);clip-path:url(#m);height:100%;width:100%"/></foreignObject><rect width="85.091" height="33.6" x="149.891" y="173.457" stroke="url(#n)" stroke-width="1.309" data-figma-bg-blur-radius="27.927" rx="16.8"/><foreignObject width="152.727" height="97.745" x="116.073" y="141.385"><div xmlns="http://www.w3.org/1999/xhtml" style="backdrop-filter:blur(13.96px);clip-path:url(#o);height:100%;width:100%"/></foreignObject><rect width="95.564" height="40.582" x="144.655" y="169.967" stroke="url(#p)" stroke-width="1.309" data-figma-bg-blur-radius="27.927" rx="20.291"/><g filter="url(#q)" opacity=".5"><rect width="216.436" height="48.873" x="83.782" y="-7.851" fill="#f1f1f1" rx="10.473"/><rect width="215.127" height="47.564" x="84.436" y="-7.196" stroke="url(#r)" stroke-width="1.309" rx="9.818"/></g><foreignObject width="286.254" height="167.564" x="48.873" y="20.075"><div xmlns="http://www.w3.org/1999/xhtml" style="backdrop-filter:blur(13.96px);clip-path:url(#s);height:100%;width:100%"/></foreignObject><path fill="url(#t)" fill-opacity=".75" stroke="url(#u)" stroke-width="1.309" d="M115.899 48.656h152.203c6.853 0 11.954.001 15.996.331 4.034.33 6.957.985 9.463 2.262a23.8 23.8 0 0 1 10.392 10.393c1.277 2.505 1.932 5.427 2.262 9.461.33 4.043.33 9.144.33 15.998v33.512c0 6.854 0 11.954-.33 15.996-.33 4.035-.985 6.956-2.262 9.462a23.78 23.78 0 0 1-10.392 10.394c-2.506 1.277-5.429 1.931-9.463 2.261-4.042.33-9.143.331-15.996.331H115.899c-6.854 0-11.955-.001-15.997-.331-4.034-.33-6.956-.984-9.462-2.261a23.8 23.8 0 0 1-10.393-10.394c-1.277-2.506-1.932-5.427-2.262-9.462-.33-4.042-.33-9.142-.33-15.996V87.101c0-6.854 0-11.955.33-15.998.33-4.034.985-6.956 2.262-9.461A23.78 23.78 0 0 1 90.44 51.249c2.506-1.277 5.427-1.932 9.462-2.262 4.042-.33 9.143-.33 15.997-.33Z" data-figma-bg-blur-radius="27.927"/><g filter="url(#v)"><path fill="#f1f1f1" d="M83.782 82.91c0-9.776 0-14.663 1.902-18.397a17.45 17.45 0 0 1 7.628-7.628c3.734-1.903 8.622-1.903 18.397-1.903h160.582c9.776 0 14.663 0 18.397 1.903a17.45 17.45 0 0 1 7.628 7.628c1.902 3.733 1.902 8.621 1.902 18.397v41.89c0 9.775 0 14.663-1.902 18.397a17.45 17.45 0 0 1-7.628 7.627c-3.734 1.903-8.621 1.903-18.397 1.903H111.709c-9.775 0-14.663 0-18.397-1.903a17.45 17.45 0 0 1-7.628-7.627c-1.902-3.734-1.902-8.622-1.902-18.397z"/><path stroke="url(#w)" stroke-width="1.309" d="M111.71 55.637h160.581c4.898 0 8.533 0 11.411.236 2.87.235 4.929.699 6.688 1.595a16.8 16.8 0 0 1 7.343 7.342c.897 1.759 1.36 3.819 1.595 6.689.235 2.878.236 6.513.236 11.411v41.891c0 4.898-.001 8.532-.236 11.41-.235 2.87-.699 4.93-1.595 6.689a16.8 16.8 0 0 1-7.343 7.342c-1.759.896-3.818 1.361-6.688 1.596-2.878.235-6.513.235-11.411.235H111.71c-4.899 0-8.534 0-11.411-.235-2.87-.235-4.93-.699-6.69-1.596a16.8 16.8 0 0 1-7.342-7.342c-.896-1.759-1.36-3.819-1.594-6.689-.236-2.878-.237-6.512-.237-11.41v-41.89c0-4.9.001-8.534.237-11.412.234-2.87.698-4.93 1.594-6.69a16.8 16.8 0 0 1 7.342-7.341c1.76-.897 3.82-1.36 6.69-1.595 2.877-.235 6.512-.236 11.411-.236Z"/></g><rect width="50.618" height="83.782" x="242.618" y="61.964" fill="#e2e2e2" fill-opacity=".5" rx="10.473"/><rect width="27.927" height="8.727" x="97.745" y="68.95" fill="#1b1b1b" opacity=".15" rx="1.745"/><rect width="27.927" height="3.491" x="97.745" y="84.654" fill="#1b1b1b" opacity=".15" rx="1.745"/><mask id="z" width="84" height="85" x="144" y="68" maskUnits="userSpaceOnUse" style="mask-type:alpha"><path fill="url(#x)" d="M144.873 68.952h82.909v83.782h-82.909z"/></mask><g clip-path="url(#y)" mask="url(#z)"><rect width="3.491" height="20.945" x="144.873" y="68.954" fill="#727272" opacity=".1" rx="1.745"/><rect width="27.927" height="3.491" x="156.218" y="74.19" fill="#1b1b1b" opacity=".15" rx="1.745"/><rect width="71.564" height="3.491" x="156.218" y="81.172" fill="#727272" opacity=".1" rx="1.745"/><rect width="3.491" height="20.945" x="144.873" y="103.863" fill="#727272" opacity=".1" rx="1.745"/><rect width="27.927" height="3.491" x="156.218" y="109.099" fill="#1b1b1b" opacity=".15" rx="1.745"/><rect width="71.564" height="3.491" x="156.218" y="116.081" fill="#727272" opacity=".1" rx="1.745"/><rect width="3.491" height="20.945" x="144.873" y="138.772" fill="#727272" opacity=".1" rx="1.745"/><rect width="27.927" height="3.491" x="156.218" y="144.008" fill="#1b1b1b" opacity=".15" rx="1.745"/><rect width="71.564" height="3.491" x="156.218" y="150.99" fill="#727272" opacity=".1" rx="1.745"/></g><foreignObject width="286.254" height="167.564" x="48.873" y="192.873"><div xmlns="http://www.w3.org/1999/xhtml" style="backdrop-filter:blur(13.96px);clip-path:url(#B);height:100%;width:100%"/></foreignObject><path fill="url(#C)" fill-opacity=".75" stroke="url(#D)" stroke-width="1.309" d="M115.899 221.454h152.203c6.853 0 11.954.001 15.996.331 4.034.33 6.957.985 9.463 2.262a23.8 23.8 0 0 1 10.392 10.392c1.277 2.506 1.932 5.428 2.262 9.462.33 4.042.33 9.144.33 15.997v33.513c0 6.854 0 11.954-.33 15.996-.33 4.035-.985 6.956-2.262 9.462a23.78 23.78 0 0 1-10.392 10.394c-2.506 1.277-5.429 1.931-9.463 2.26-4.042.331-9.143.331-15.996.331H115.899c-6.854 0-11.955 0-15.997-.331-4.034-.329-6.956-.984-9.462-2.26a23.8 23.8 0 0 1-10.393-10.394c-1.277-2.506-1.932-5.427-2.262-9.462-.33-4.042-.33-9.142-.33-15.996v-33.513c0-6.853 0-11.955.33-15.997.33-4.034.985-6.956 2.262-9.462a23.8 23.8 0 0 1 10.393-10.392c2.506-1.277 5.427-1.932 9.462-2.262 4.042-.33 9.143-.331 15.997-.331Z" data-figma-bg-blur-radius="27.927"/><g filter="url(#E)"><path fill="#f1f1f1" d="M83.782 255.708c0-9.776 0-14.664 1.902-18.397a17.45 17.45 0 0 1 7.628-7.628c3.734-1.903 8.622-1.903 18.397-1.903h160.582c9.776 0 14.663 0 18.397 1.903a17.45 17.45 0 0 1 7.628 7.628c1.902 3.733 1.902 8.621 1.902 18.397v41.89c0 9.776 0 14.664-1.902 18.397a17.45 17.45 0 0 1-7.628 7.628c-3.734 1.903-8.621 1.903-18.397 1.903H111.709c-9.775 0-14.663 0-18.397-1.903a17.45 17.45 0 0 1-7.628-7.628c-1.902-3.733-1.902-8.621-1.902-18.397z"/><path stroke="url(#F)" stroke-width="1.309" d="M111.71 228.435h160.581c4.898 0 8.533.001 11.411.236 2.87.234 4.929.698 6.688 1.595a16.8 16.8 0 0 1 7.343 7.341c.897 1.76 1.36 3.82 1.595 6.69.235 2.878.236 6.513.236 11.411v41.891c0 4.898-.001 8.532-.236 11.41-.235 2.87-.699 4.93-1.595 6.689a16.8 16.8 0 0 1-7.343 7.342c-1.759.896-3.818 1.361-6.688 1.596-2.878.235-6.513.235-11.411.235H111.71c-4.899 0-8.534 0-11.411-.235-2.87-.235-4.93-.7-6.69-1.596a16.8 16.8 0 0 1-7.342-7.342c-.896-1.759-1.36-3.819-1.594-6.689-.236-2.878-.237-6.512-.237-11.41v-41.891c0-4.898.001-8.533.237-11.411.234-2.87.698-4.93 1.594-6.69a16.8 16.8 0 0 1 7.342-7.341c1.76-.897 3.82-1.361 6.69-1.595 2.877-.235 6.512-.236 11.411-.236Z"/></g><rect width="32.291" height="8.727" x="97.746" y="241.744" fill="#1b1b1b" opacity=".15" rx="1.745"/><mask id="H" width="218" height="59" x="83" y="266" maskUnits="userSpaceOnUse" style="mask-type:alpha"><path fill="url(#G)" d="M83.782 266.181h216.436v58.473H83.782z"/></mask><g mask="url(#H)"><rect width="8.727" height="8.727" x="97.746" y="267.809" fill="#1b1b1b" opacity=".15" rx="1.745"/><rect width="27.927" height="3.491" x="116.946" y="266.936" fill="#1b1b1b" opacity=".15" rx="1.745"/><rect width="71.564" height="3.491" x="116.946" y="273.917" fill="#727272" opacity=".1" rx="1.745"/><rect width="41.982" height="11.982" x="244.273" y="266.181" fill="#fdfdfd" rx="3.491"/><rect width="41.109" height="11.109" x="244.709" y="266.617" stroke="#2d68ff" stroke-opacity=".15" stroke-width=".873" rx="3.055"/><rect width="8.727" height="8.727" x="97.746" y="290.5" fill="#1b1b1b" opacity=".15" rx="1.745"/><rect width="27.927" height="3.491" x="116.946" y="289.627" fill="#1b1b1b" opacity=".15" rx="1.745"/><rect width="71.564" height="3.491" x="116.946" y="296.608" fill="#727272" opacity=".1" rx="1.745"/><rect width="23.982" height="11.982" x="262.273" y="288.872" fill="#fdfdfd" rx="3.491"/><rect width="23.109" height="11.109" x="262.709" y="289.308" stroke="#00a656" stroke-opacity=".15" stroke-width=".873" rx="3.055"/><rect width="8.727" height="8.727" x="97.746" y="313.19" fill="#1b1b1b" opacity=".15" rx="1.745"/><rect width="27.927" height="3.491" x="116.946" y="312.317" fill="#1b1b1b" opacity=".15" rx="1.745"/><rect width="71.564" height="3.491" x="116.946" y="319.3" fill="#727272" opacity=".1" rx="1.745"/><rect width="41.982" height="11.982" x="244.273" y="311.562" fill="#fdfdfd" rx="3.491"/><rect width="41.109" height="11.109" x="244.709" y="311.999" stroke="#2d68ff" stroke-opacity=".15" stroke-width=".873" rx="3.055"/></g><g opacity=".5"><mask id="K" width="218" height="45" x="83" y="339" maskUnits="userSpaceOnUse" style="mask-type:alpha"><path fill="url(#I)" d="M83.782 339.488h216.436v43.636H83.782z"/></mask><g filter="url(#J)" mask="url(#K)"><rect width="216.436" height="48.873" x="83.782" y="339.485" fill="#f1f1f1" rx="10.473"/><rect width="215.127" height="47.564" x="84.436" y="340.14" stroke="url(#L)" stroke-width="1.309" rx="9.818"/></g></g><rect width="36.654" height="36.654" x="35.782" y="173.672" fill="url(#M)" rx="18.327"/><rect width="35.346" height="35.346" x="36.437" y="174.327" stroke="#a8a8a8" stroke-opacity=".1" stroke-width="1.309" rx="17.673"/><path stroke="#fdfdfd" stroke-linecap="square" stroke-linejoin="round" stroke-width="1.309" d="M46.91 188.291h14.4M49.526 199.2h9.164a2.62 2.62 0 0 0 2.618-2.618v-9.164a2.62 2.62 0 0 0-2.618-2.618h-9.164a2.62 2.62 0 0 0-2.618 2.618v9.164a2.62 2.62 0 0 0 2.618 2.618Z"/><path fill="#fdfdfd" d="M49.746 192a.873.873 0 1 1 1.745 0 .873.873 0 0 1-1.745 0m0 3.491a.873.873 0 1 1 1.745 0 .873.873 0 0 1-1.745 0m3.491 0a.873.873 0 1 1 1.745 0 .873.873 0 0 1-1.745 0m0-3.491a.873.873 0 1 1 1.745 0 .873.873 0 0 1-1.745 0m3.49 0a.873.873 0 1 1 1.746 0 .873.873 0 0 1-1.746 0"/><foreignObject width="106.473" height="106.473" x=".873" y="138.763"><div xmlns="http://www.w3.org/1999/xhtml" style="backdrop-filter:blur(13.96px);clip-path:url(#N);height:100%;width:100%"/></foreignObject><rect width="49.309" height="49.309" x="29.455" y="167.345" stroke="url(#O)" stroke-width="1.309" data-figma-bg-blur-radius="27.927" rx="24.654"/><rect width="36.654" height="36.654" x="312.436" y="173.672" fill="url(#P)" rx="18.327"/><rect width="35.346" height="35.346" x="313.091" y="174.327" stroke="#a8a8a8" stroke-opacity=".1" stroke-width="1.309" rx="17.673"/><path stroke="#fdfdfd" stroke-linecap="round" stroke-linejoin="round" stroke-width="1.309" d="M330.763 184.8v7.2m0 0v7.2m0-7.2h-7.2m7.2 0h7.2"/><foreignObject width="106.473" height="106.473" x="277.527" y="138.763"><div xmlns="http://www.w3.org/1999/xhtml" style="backdrop-filter:blur(13.96px);clip-path:url(#Q);height:100%;width:100%"/></foreignObject><rect width="49.309" height="49.309" x="306.109" y="167.345" stroke="url(#R)" stroke-width="1.309" data-figma-bg-blur-radius="27.927" rx="24.654"/><path stroke="#d9d9d9" stroke-width="1.309" d="M0 192h28.8m325.527 0H384"/><circle cx="30.982" cy="71.13" r="2.182" fill="url(#S)"/><circle cx="31.418" cy="273.163" r="3.491" fill="url(#T)"/><circle cx="345.6" cy="314.181" r="3.491" fill="url(#U)"/><circle cx="356.073" cy="47.998" r="1.745" fill="url(#V)"/><circle cx="332.509" cy="264.436" r="1.745" fill="url(#W)"/><circle cx="61.964" cy="138.763" r="3.491" fill="url(#X)"/></g><defs><linearGradient id="c" x1="192" x2="192" y1="0" y2="192" gradientUnits="userSpaceOnUse"><stop stop-color="#e2e2e2" stop-opacity="0"/><stop offset="1" stop-color="#e2e2e2"/></linearGradient><linearGradient id="e" x1="192" x2="192" y1="0" y2="97.746" gradientUnits="userSpaceOnUse"><stop stop-color="#e2e2e2" stop-opacity="0"/><stop offset="1" stop-color="#e2e2e2"/></linearGradient><linearGradient id="g" x1="192" x2="192" y1="286.252" y2="383.997" gradientUnits="userSpaceOnUse"><stop stop-color="#e2e2e2" stop-opacity="0"/><stop offset="1" stop-color="#e2e2e2"/></linearGradient><linearGradient id="i" x1="94.254" x2="94.254" y1="0" y2="192" gradientUnits="userSpaceOnUse"><stop stop-color="#e2e2e2" stop-opacity="0"/><stop offset="1" stop-color="#e2e2e2"/></linearGradient><linearGradient id="l" x1="192" x2="192" y1="178.041" y2="202.477" gradientUnits="userSpaceOnUse"><stop stop-color="#e2e2e2"/><stop offset="1" stop-color="#e2e2e2" stop-opacity="0"/></linearGradient><linearGradient id="n" x1="192.436" x2="192.436" y1="172.803" y2="207.712" gradientUnits="userSpaceOnUse"><stop stop-color="#e2e2e2" stop-opacity="0"/><stop offset="1" stop-color="#e2e2e2"/></linearGradient><linearGradient id="p" x1="192.436" x2="192.436" y1="169.312" y2="211.203" gradientUnits="userSpaceOnUse"><stop stop-color="#e2e2e2" stop-opacity="0"/><stop offset="1" stop-color="#e2e2e2"/></linearGradient><linearGradient id="r" x1="192" x2="192" y1="-7.851" y2="41.022" gradientUnits="userSpaceOnUse"><stop stop-color="#f6f6f6"/><stop offset="1" stop-color="#e6e6e6"/></linearGradient><linearGradient id="t" x1="192" x2="192" y1="48.002" y2="159.711" gradientUnits="userSpaceOnUse"><stop stop-color="#fdfdfd" stop-opacity=".3"/><stop offset="1" stop-color="#fdfdfd"/></linearGradient><linearGradient id="u" x1="192" x2="192" y1="48.002" y2="159.711" gradientUnits="userSpaceOnUse"><stop stop-color="#e2e2e2"/><stop offset="1" stop-color="#e2e2e2" stop-opacity=".75"/></linearGradient><linearGradient id="w" x1="192" x2="192" y1="54.982" y2="152.728" gradientUnits="userSpaceOnUse"><stop stop-color="#f6f6f6"/><stop offset="1" stop-color="#e6e6e6"/></linearGradient><linearGradient id="x" x1="186.327" x2="186.327" y1="68.952" y2="152.733" gradientUnits="userSpaceOnUse"><stop/><stop offset="1" stop-opacity="0"/></linearGradient><linearGradient id="C" x1="192" x2="192" y1="220.8" y2="332.509" gradientUnits="userSpaceOnUse"><stop stop-color="#fdfdfd" stop-opacity=".3"/><stop offset="1" stop-color="#fdfdfd"/></linearGradient><linearGradient id="D" x1="192" x2="192" y1="220.8" y2="332.509" gradientUnits="userSpaceOnUse"><stop stop-color="#e2e2e2"/><stop offset="1" stop-color="#e2e2e2" stop-opacity=".75"/></linearGradient><linearGradient id="F" x1="192" x2="192" y1="227.78" y2="325.526" gradientUnits="userSpaceOnUse"><stop stop-color="#f6f6f6"/><stop offset="1" stop-color="#e6e6e6"/></linearGradient><linearGradient id="G" x1="192" x2="192" y1="266.181" y2="324.653" gradientUnits="userSpaceOnUse"><stop/><stop offset="1" stop-opacity="0"/></linearGradient><linearGradient id="I" x1="192" x2="192" y1="339.488" y2="383.125" gradientUnits="userSpaceOnUse"><stop offset=".742"/><stop offset="1" stop-opacity="0"/></linearGradient><linearGradient id="L" x1="192" x2="192" y1="339.485" y2="388.358" gradientUnits="userSpaceOnUse"><stop stop-color="#f6f6f6"/><stop offset="1" stop-color="#e6e6e6"/></linearGradient><linearGradient id="M" x1="54.109" x2="54.109" y1="163.676" y2="220.324" gradientUnits="userSpaceOnUse"><stop stop-color="#ebebeb"/><stop offset="1" stop-color="#737e87"/></linearGradient><linearGradient id="O" x1="54.109" x2="54.109" y1="166.69" y2="217.309" gradientUnits="userSpaceOnUse"><stop stop-color="#e2e2e2"/><stop offset="1" stop-color="#e2e2e2" stop-opacity="0"/></linearGradient><linearGradient id="P" x1="330.764" x2="330.764" y1="163.676" y2="220.324" gradientUnits="userSpaceOnUse"><stop stop-color="#ebebeb"/><stop offset="1" stop-color="#737e87"/></linearGradient><linearGradient id="R" x1="330.763" x2="330.763" y1="166.69" y2="217.309" gradientUnits="userSpaceOnUse"><stop stop-color="#e2e2e2"/><stop offset="1" stop-color="#e2e2e2" stop-opacity="0"/></linearGradient><linearGradient id="S" x1="32.482" x2="30.027" y1="67.857" y2="73.721" gradientUnits="userSpaceOnUse"><stop stop-color="#f5f5f5"/><stop offset="1" stop-color="#cecece"/></linearGradient><linearGradient id="T" x1="33.818" x2="29.891" y1="267.926" y2="277.308" gradientUnits="userSpaceOnUse"><stop stop-color="#f5f5f5"/><stop offset="1" stop-color="#cecece"/></linearGradient><linearGradient id="U" x1="348" x2="344.073" y1="308.945" y2="318.327" gradientUnits="userSpaceOnUse"><stop stop-color="#f5f5f5"/><stop offset="1" stop-color="#cecece"/></linearGradient><linearGradient id="V" x1="357.273" x2="355.309" y1="45.38" y2="50.071" gradientUnits="userSpaceOnUse"><stop stop-color="#f5f5f5"/><stop offset="1" stop-color="#cecece"/></linearGradient><linearGradient id="W" x1="333.709" x2="331.745" y1="261.818" y2="266.509" gradientUnits="userSpaceOnUse"><stop stop-color="#f5f5f5"/><stop offset="1" stop-color="#cecece"/></linearGradient><linearGradient id="X" x1="64.364" x2="60.436" y1="133.527" y2="142.908" gradientUnits="userSpaceOnUse"><stop stop-color="#f5f5f5"/><stop offset="1" stop-color="#cecece"/></linearGradient><clipPath id="b" transform="translate(-69.818 27.927)"><rect width="187.2" height="190.691" x="98.4" y=".655" rx="20.291"/></clipPath><clipPath id="d" transform="translate(-33.163 27.927)"><rect width="260.509" height="96.436" x="61.745" y=".655" rx="20.291"/></clipPath><clipPath id="f" transform="translate(-33.163 -258.325)"><rect width="260.509" height="96.436" x="61.745" y="286.906" rx="20.291"/></clipPath><clipPath id="h" transform="translate(-69.818 -162.325)"><rect width="187.2" height="190.691" x=".655" y="-.655" rx="20.291" transform="matrix(1 0 0 -1 97.745 380.943)"/></clipPath><clipPath id="j" transform="translate(-125.673 -150.114)"><path d="M153.6 190.259c0-6.748 5.47-12.218 12.218-12.218h52.364c6.748 0 12.218 5.47 12.218 12.218s-5.47 12.218-12.218 12.218h-52.364c-6.748 0-12.218-5.47-12.218-12.218"/></clipPath><clipPath id="m" transform="translate(-121.309 -144.875)"><rect width="85.091" height="33.6" x="149.891" y="173.457" rx="16.8"/></clipPath><clipPath id="o" transform="translate(-116.073 -141.385)"><rect width="95.564" height="40.582" x="144.655" y="169.967" rx="20.291"/></clipPath><clipPath id="s" transform="translate(-48.873 -20.075)"><path d="M115.899 48.656h152.203c6.853 0 11.954.001 15.996.331 4.034.33 6.957.985 9.463 2.262a23.8 23.8 0 0 1 10.392 10.393c1.277 2.505 1.932 5.427 2.262 9.461.33 4.043.33 9.144.33 15.998v33.512c0 6.854 0 11.954-.33 15.996-.33 4.035-.985 6.956-2.262 9.462a23.78 23.78 0 0 1-10.392 10.394c-2.506 1.277-5.429 1.931-9.463 2.261-4.042.33-9.143.331-15.996.331H115.899c-6.854 0-11.955-.001-15.997-.331-4.034-.33-6.956-.984-9.462-2.261a23.8 23.8 0 0 1-10.393-10.394c-1.277-2.506-1.932-5.427-2.262-9.462-.33-4.042-.33-9.142-.33-15.996V87.101c0-6.854 0-11.955.33-15.998.33-4.034.985-6.956 2.262-9.461A23.78 23.78 0 0 1 90.44 51.249c2.506-1.277 5.427-1.932 9.462-2.262 4.042-.33 9.143-.33 15.997-.33"/></clipPath><clipPath id="B" transform="translate(-48.873 -192.873)"><path d="M115.899 221.454h152.203c6.853 0 11.954.001 15.996.331 4.034.33 6.957.985 9.463 2.262a23.8 23.8 0 0 1 10.392 10.392c1.277 2.506 1.932 5.428 2.262 9.462.33 4.042.33 9.144.33 15.997v33.513c0 6.854 0 11.954-.33 15.996-.33 4.035-.985 6.956-2.262 9.462a23.78 23.78 0 0 1-10.392 10.394c-2.506 1.277-5.429 1.931-9.463 2.26-4.042.331-9.143.331-15.996.331H115.899c-6.854 0-11.955 0-15.997-.331-4.034-.329-6.956-.984-9.462-2.26a23.8 23.8 0 0 1-10.393-10.394c-1.277-2.506-1.932-5.427-2.262-9.462-.33-4.042-.33-9.142-.33-15.996v-33.513c0-6.853 0-11.955.33-15.997.33-4.034.985-6.956 2.262-9.462a23.8 23.8 0 0 1 10.393-10.392c2.506-1.277 5.427-1.932 9.462-2.262 4.042-.33 9.143-.331 15.997-.331"/></clipPath><clipPath id="N" transform="translate(-.873 -138.763)"><rect width="49.309" height="49.309" x="29.455" y="167.345" rx="24.654"/></clipPath><clipPath id="Q" transform="translate(-277.527 -138.763)"><rect width="49.309" height="49.309" x="306.109" y="167.345" rx="24.654"/></clipPath><clipPath id="a"><path fill="#fff" d="M0 44.684c0-15.641 0-23.461 3.044-29.435A27.93 27.93 0 0 1 15.249 3.044C21.223 0 29.043 0 44.684 0h294.632c15.641 0 23.461 0 29.435 3.044a27.93 27.93 0 0 1 12.205 12.205C384 21.223 384 29.043 384 44.684v294.632c0 15.641 0 23.461-3.044 29.435a27.92 27.92 0 0 1-12.205 12.205C362.777 384 354.957 384 339.316 384H44.684c-15.641 0-23.461 0-29.435-3.044a27.93 27.93 0 0 1-12.205-12.205C0 362.777 0 354.957 0 339.316z"/></clipPath><clipPath id="y"><path fill="#fff" d="M144.873 68.954h82.909v90.764h-82.909z"/></clipPath><filter id="q" width="307.2" height="139.636" x="38.4" y="-25.305" color-interpolation-filters="sRGB" filterUnits="userSpaceOnUse"><feFlood flood-opacity="0" result="BackgroundImageFix"/><feColorMatrix in="SourceAlpha" result="hardAlpha" values="0 0 0 0 0 0 0 0 0 0 0 0 0 0 0 0 0 0 127 0"/><feMorphology in="SourceAlpha" radius="3.491" result="effect1_dropShadow_211_5060"/><feOffset dy="4.364"/><feGaussianBlur stdDeviation=".655"/><feComposite in2="hardAlpha" operator="out"/><feColorMatrix values="0 0 0 0 0.0313726 0 0 0 0 0.0313726 0 0 0 0 0.0313726 0 0 0 0.05 0"/><feBlend in2="BackgroundImageFix" result="effect1_dropShadow_211_5060"/><feColorMatrix in="SourceAlpha" result="hardAlpha" values="0 0 0 0 0 0 0 0 0 0 0 0 0 0 0 0 0 0 127 0"/><feMorphology in="SourceAlpha" radius="3.491" result="effect2_dropShadow_211_5060"/><feOffset dy="5.236"/><feGaussianBlur stdDeviation="1.745"/><feComposite in2="hardAlpha" operator="out"/><feColorMatrix values="0 0 0 0 0.0313726 0 0 0 0 0.0313726 0 0 0 0 0.0313726 0 0 0 0.05 0"/><feBlend in2="effect1_dropShadow_211_5060" result="effect2_dropShadow_211_5060"/><feColorMatrix in="SourceAlpha" result="hardAlpha" values="0 0 0 0 0 0 0 0 0 0 0 0 0 0 0 0 0 0 127 0"/><feOffset dy="5.236"/><feGaussianBlur stdDeviation="5.673"/><feComposite in2="hardAlpha" operator="out"/><feColorMatrix values="0 0 0 0 0.0313726 0 0 0 0 0.0313726 0 0 0 0 0.0313726 0 0 0 0.03 0"/><feBlend in2="effect2_dropShadow_211_5060" result="effect3_dropShadow_211_5060"/><feColorMatrix in="SourceAlpha" result="hardAlpha" values="0 0 0 0 0 0 0 0 0 0 0 0 0 0 0 0 0 0 127 0"/><feMorphology in="SourceAlpha" radius="13.964" result="effect4_dropShadow_211_5060"/><feOffset dy="20.945"/><feGaussianBlur stdDeviation="10.473"/><feComposite in2="hardAlpha" operator="out"/><feColorMatrix values="0 0 0 0 0.0313726 0 0 0 0 0.0313726 0 0 0 0 0.0313726 0 0 0 0.04 0"/><feBlend in2="effect3_dropShadow_211_5060" result="effect4_dropShadow_211_5060"/><feBlend in="SourceGraphic" in2="effect4_dropShadow_211_5060" result="shape"/></filter><filter id="v" width="307.2" height="188.509" x="38.4" y="37.528" color-interpolation-filters="sRGB" filterUnits="userSpaceOnUse"><feFlood flood-opacity="0" result="BackgroundImageFix"/><feColorMatrix in="SourceAlpha" result="hardAlpha" values="0 0 0 0 0 0 0 0 0 0 0 0 0 0 0 0 0 0 127 0"/><feOffset dy="20.945"/><feGaussianBlur stdDeviation="10.473"/><feComposite in2="hardAlpha" operator="out"/><feColorMatrix values="0 0 0 0 0.0313726 0 0 0 0 0.0313726 0 0 0 0 0.0313726 0 0 0 0.04 0"/><feBlend in2="BackgroundImageFix" result="effect4_dropShadow_211_5060"/><feBlend in="SourceGraphic" in2="effect4_dropShadow_211_5060" result="shape"/></filter><filter id="E" width="307.2" height="188.509" x="38.4" y="210.326" color-interpolation-filters="sRGB" filterUnits="userSpaceOnUse"><feFlood flood-opacity="0" result="BackgroundImageFix"/><feColorMatrix in="SourceAlpha" result="hardAlpha" values="0 0 0 0 0 0 0 0 0 0 0 0 0 0 0 0 0 0 127 0"/><feOffset dy="20.945"/><feGaussianBlur stdDeviation="10.473"/><feComposite in2="hardAlpha" operator="out"/><feColorMatrix values="0 0 0 0 0.0313726 0 0 0 0 0.0313726 0 0 0 0 0.0313726 0 0 0 0.04 0"/><feBlend in2="BackgroundImageFix" result="effect4_dropShadow_211_5060"/><feBlend in="SourceGraphic" in2="effect4_dropShadow_211_5060" result="shape"/></filter><filter id="J" width="307.2" height="139.637" x="38.4" y="322.031" color-interpolation-filters="sRGB" filterUnits="userSpaceOnUse"><feFlood flood-opacity="0" result="BackgroundImageFix"/><feColorMatrix in="SourceAlpha" result="hardAlpha" values="0 0 0 0 0 0 0 0 0 0 0 0 0 0 0 0 0 0 127 0"/><feOffset dy="5.236"/><feGaussianBlur stdDeviation="1.745"/><feComposite in2="hardAlpha" operator="out"/><feColorMatrix values="0 0 0 0 0.0313726 0 0 0 0 0.0313726 0 0 0 0 0.0313726 0 0 0 0.05 0"/><feBlend in2="BackgroundImageFix" result="effect2_dropShadow_211_5060"/><feBlend in="SourceGraphic" in2="effect2_dropShadow_211_5060" result="shape"/></filter><radialGradient id="k" cx="0" cy="0" r="1" gradientTransform="rotate(74.285 -29.59 221.868)scale(25.3174 79.569)" gradientUnits="userSpaceOnUse"><stop stop-color="#4b28ff"/><stop offset="1" stop-color="#fff"/></radialGradient></defs></svg>