<svg xmlns="http://www.w3.org/2000/svg" fill="none" viewBox="0 0 280 280"><g clip-path="url(#a)"><g opacity=".5"><mask id="c" width="93" height="281" x="94" y="-1" maskUnits="userSpaceOnUse" style="mask-type:alpha"><path fill="url(#b)" d="M94.2 0h92.3v280H94.2z"/></mask><g mask="url(#c)"><foreignObject width="106.9" height="160.4" x="86.5" y="199.8"><div xmlns="http://www.w3.org/1999/xhtml" clip-path="url(#d)" style="backdrop-filter:blur(10.18px);height:100%;width:100%"/></foreignObject><g filter="url(#e)" shape-rendering="crispEdges"><path fill="#fdfdfd" fill-opacity=".5" d="M107 230.4a10 10 0 0 1 10-10.2h46a10 10 0 0 1 10 10.2v99.2a10 10 0 0 1-10 10.2h-46a10 10 0 0 1-10-10.2z"/><path stroke="#fdfdfd" stroke-opacity=".3" d="M117 220.7h46c5.3 0 9.6 4.3 9.6 9.7v99.2c0 5.4-4.3 9.7-9.7 9.7h-45.8a9.7 9.7 0 0 1-9.7-9.7v-99.2c0-5.4 4.3-9.7 9.7-9.7Z"/></g><foreignObject width="106.9" height="160.4" x="86.5" y="-80.2"><div xmlns="http://www.w3.org/1999/xhtml" clip-path="url(#f)" style="backdrop-filter:blur(10.18px);height:100%;width:100%"/></foreignObject><g filter="url(#g)" shape-rendering="crispEdges"><path fill="#fdfdfd" fill-opacity=".5" d="M107-49.6a10 10 0 0 1 10-10.2h46a10 10 0 0 1 10 10.2v99.2a10 10 0 0 1-10 10.2h-46a10 10 0 0 1-10-10.2z"/><path stroke="#fdfdfd" stroke-opacity=".3" d="M117-59.3h46a9.7 9.7 0 0 1 9.6 9.7v99.2c0 5.4-4.3 9.7-9.7 9.7h-45.8a9.7 9.7 0 0 1-9.7-9.7v-99.2a9.7 9.7 0 0 1 9.7-9.7Z"/></g></g></g><rect width="159.1" height="239.3" x="60.5" y="20.4" stroke="#d9d9d9" stroke-dasharray="1.27 3.82" stroke-linecap="round" opacity=".5" rx="11.5"/><path stroke="#d9d9d9" stroke-dasharray="1.27 3.82" stroke-linecap="round" d="M140 0v280M0 140h280"/><foreignObject width="116.5" height="201.1" x="-19.7" y="39.5"><div xmlns="http://www.w3.org/1999/xhtml" clip-path="url(#h)" style="backdrop-filter:blur(10.18px);height:100%;width:100%"/></foreignObject><rect width="159.4" height="74.8" x=".5" y=".5" stroke="url(#i)" rx="11" transform="matrix(0 1 1 0 .6 59.8)"/><foreignObject width="116.5" height="201.1" x="183.9" y="39.5"><div xmlns="http://www.w3.org/1999/xhtml" clip-path="url(#j)" style="backdrop-filter:blur(10.18px);height:100%;width:100%"/></foreignObject><rect width="159.4" height="74.8" x="-.5" y="-.5" stroke="url(#k)" rx="11" transform="matrix(0 -1 -1 0 279 219.2)"/><path stroke="#d9d9d9" stroke-dasharray="1.27 3.82" stroke-linecap="round" d="M205 75h75"/><foreignObject width="117.1" height="170.5" x="81.5" y="54.7"><div xmlns="http://www.w3.org/1999/xhtml" clip-path="url(#l)" style="backdrop-filter:blur(10.18px);height:100%;width:100%"/></foreignObject><path fill="url(#m)" fill-opacity=".8" stroke="url(#n)" d="M130.3 75.6h19.4q7.4 0 11.6.2 4.3.3 7 1.7a17 17 0 0 1 7.5 7.5q1.4 2.7 1.7 7t.2 11.6v72.8q0 7.3-.2 11.7c-.3 3-.8 5-1.7 6.9a17 17 0 0 1-7.6 7.5 18 18 0 0 1-6.9 1.7q-4.3.2-11.6.2h-19.4q-7.4 0-11.6-.2-4.3-.2-7-1.7a17 17 0 0 1-7.5-7.5 18 18 0 0 1-1.7-7q-.2-4.2-.2-11.6v-72.8q0-7.3.2-11.7.4-4.2 1.7-6.9a17 17 0 0 1 7.6-7.5q2.6-1.4 6.9-1.7 4.3-.2 11.6-.2Z"/><g filter="url(#o)"><path fill="#f1f1f1" d="M107 100.5c0-7 0-10.6 1.3-13.4a13 13 0 0 1 5.6-5.5c2.7-1.4 6.2-1.4 13.4-1.4h25.4c7.2 0 10.7 0 13.4 1.4a13 13 0 0 1 5.6 5.5c1.4 2.8 1.4 6.3 1.4 13.4v79c0 7 0 10.6-1.4 13.4a13 13 0 0 1-5.6 5.5c-2.7 1.4-6.2 1.4-13.4 1.4h-25.4c-7.2 0-10.7 0-13.4-1.4a13 13 0 0 1-5.6-5.5c-1.4-2.8-1.4-6.3-1.4-13.4z"/><path stroke="url(#p)" d="M127.3 80.7h25.4l8.3.1q3 .2 5 1.2a12 12 0 0 1 5.3 5.3q1 1.8 1.1 5 .2 3 .2 8.2v79q0 5.2-.2 8.3-.2 3-1.1 4.9a12 12 0 0 1-5.4 5.3q-1.9 1-4.9 1.2l-8.3.1h-25.4l-8.3-.1q-3-.2-5-1.2a12 12 0 0 1-5.3-5.3q-1-1.8-1.1-5-.3-3-.2-8.2v-79q0-5.2.2-8.3.2-3 1.1-4.9a12 12 0 0 1 5.4-5.3q1.8-1 4.9-1.2z"/></g><path fill="#fdfdfd" d="M132.6 184.3v3.2h1.7v.4H132v-3.6zm3.6 3.6v-.4l-.3.3-.5.1h-.5l-.3-.3v-.4q0-.3.2-.5t.7-.3h.7v-.2q0-.2-.2-.3l-.3-.1h-.4l-.3.4-.4-.2.4-.5q.3-.2.7-.2.5 0 .7.3.3.2.3.6v1.7zm0-1.2-.7.1-.4.2v.4l.4.1h.4l.2-.3zm3.2 1.2h-.5v-.3l-.3.3h-.9l-.4-.4v-2.1h.4v1.4l.1.5q.2.2.5.2l.4-.2q.2-.2.2-.5v-1.4h.5zm.6-2.5h.4v.3l.4-.3h.9l.3.4.2.6v1.5h-.5v-1.4q0-.4-.2-.5-.1-.2-.4-.2t-.5.2l-.1.5v1.4h-.5zm3.8 2.5-.6-.1-.4-.5-.2-.7.2-.6.4-.5q.2-.2.7-.2l.6.2.5.5-.5.2-.2-.3-.4-.1-.7.4v.4l.1.7.6.2h.4l.3-.4.4.2-.5.5zm1.7-3.7h.4v1.4l.4-.2h.9l.3.4q.2.3.1.6v1.5h-.5v-1.4l-.1-.5q-.1-.2-.4-.2t-.5.2-.2.5v1.4h-.4z"/><rect width="61.1" height="57.3" x="109.5" y="82.7" fill="url(#q)" fill-opacity=".5" rx="10.2"/><rect width="20.4" height="2.5" x="112" y="150.8" fill="#1b1b1b" opacity=".1" rx="1.3"/><rect width="56" height="2.5" x="112" y="155.9" fill="#727272" opacity=".1" rx="1.3"/><rect width="56" height="2.5" x="112" y="161" fill="#727272" opacity=".1" rx="1.3"/><g filter="url(#r)"><rect width="68.7" height="22.9" x="193.5" y="128.5" fill="#f1f1f1" rx="7.6"/><rect width="67.8" height="22" x="193.9" y="129" stroke="url(#s)" rx="7.2"/></g><g filter="url(#t)"><circle cx="206.8" cy="144.5" r="2.5" fill="#efefef"/></g><foreignObject width="33.1" height="33.1" x="188.4" y="123.5"><div xmlns="http://www.w3.org/1999/xhtml" clip-path="url(#u)" style="backdrop-filter:blur(3.82px);height:100%;width:100%"/></foreignObject><rect width="17.8" height="17.8" x="196" y="131.1" fill="#efefef" fill-opacity=".1" rx="5.1"/><rect width="16.9" height="16.9" x="196.5" y="131.6" stroke="#efefef" stroke-opacity=".1" rx="4.6"/><g clip-path="url(#v)"><path stroke="#efefef" stroke-linecap="round" stroke-linejoin="round" d="M201.4 142.6h1.5m-1.5-2.6h2.3m-2.3-2.7h7m-1.4 2 .7 1.3 1.2.7-1.2.6-.7 1.3-.6-1.3-1.3-.6 1.3-.7z"/></g><path stroke="#efefef" stroke-linecap="round" d="M255.2 130.5a5 5 0 0 1 5 5"/><g filter="url(#w)"><rect width="68.7" height="22.9" x="218.9" y="92.9" fill="#f1f1f1" rx="7.6"/><rect width="67.8" height="22" x="219.4" y="93.4" stroke="url(#x)" rx="7.2"/></g><g filter="url(#y)"><circle cx="232.3" cy="108.8" r="2.5" fill="#efefef"/></g><foreignObject width="33.1" height="33.1" x="213.8" y="87.8"><div xmlns="http://www.w3.org/1999/xhtml" clip-path="url(#z)" style="backdrop-filter:blur(3.82px);height:100%;width:100%"/></foreignObject><rect width="17.8" height="17.8" x="221.5" y="95.5" fill="#efefef" fill-opacity=".1" rx="5.1"/><rect width="16.9" height="16.9" x="221.9" y="95.9" stroke="#efefef" stroke-opacity=".1" rx="4.6"/><g clip-path="url(#A)"><path stroke="#efefef" stroke-linecap="round" stroke-linejoin="round" d="M227.3 105.5V101q0-.5.4-.5h5.8q.5.1.3.7l-1 1.6v.5l1 1.7a.4.4 0 0 1-.3.6zm0 0v2.8"/></g><g filter="url(#B)"><rect width="68.7" height="22.9" x="218.9" y="164.2" fill="#f1f1f1" rx="7.6"/><rect width="67.8" height="22" x="219.4" y="164.7" stroke="url(#C)" rx="7.2"/></g><g filter="url(#D)"><circle cx="232.3" cy="180.1" r="2.5" fill="#efefef"/></g><foreignObject width="33.1" height="33.1" x="213.8" y="159.1"><div xmlns="http://www.w3.org/1999/xhtml" clip-path="url(#E)" style="backdrop-filter:blur(3.82px);height:100%;width:100%"/></foreignObject><rect width="17.8" height="17.8" x="221.5" y="166.7" fill="#efefef" fill-opacity=".1" rx="5.1"/><rect width="16.9" height="16.9" x="221.9" y="167.2" stroke="#efefef" stroke-opacity=".1" rx="4.6"/><path stroke="#efefef" stroke-linecap="square" stroke-linejoin="round" d="M229.2 179.1v-2.3h-2l-.3.4v1.5q0 .3.4.4zm0 0h2.3m-2.3 0V175q0-.3.4-.4h2v4.6m0 0h2a.2.2 0 0 0 .3-.2v-6.3a.4.4 0 0 0-.5-.5H232a.4.4 0 0 0-.5.5z"/><g filter="url(#F)"><rect width="68.7" height="22.9" x="-7.6" y="92.9" fill="#f1f1f1" rx="7.6"/><rect width="67.8" height="22" x="-7.2" y="93.4" stroke="url(#G)" rx="7.2"/></g><g filter="url(#H)"><circle cx="5.7" cy="108.8" r="2.5" fill="#efefef"/></g><foreignObject width="33.1" height="33.1" x="-12.7" y="87.8"><div xmlns="http://www.w3.org/1999/xhtml" clip-path="url(#I)" style="backdrop-filter:blur(3.82px);height:100%;width:100%"/></foreignObject><rect width="17.8" height="17.8" x="-5.1" y="95.5" fill="#efefef" fill-opacity=".1" rx="5.1"/><rect width="16.9" height="16.9" x="-4.6" y="95.9" stroke="#efefef" stroke-opacity=".1" rx="4.6"/><g clip-path="url(#J)"><path stroke="#efefef" stroke-linecap="round" d="M3.8 108a2 2 0 0 0 3-1.1 1.5 1.5 0 0 0 .5-2.5 1.5 1.5 0 0 0-1-2.6 1.7 1.7 0 0 0-2.5-1.1m0 7.3a2 2 0 0 1-3-1.1 1.5 1.5 0 0 1-.4-2.5 1.5 1.5 0 0 1 .9-2.6 1.7 1.7 0 0 1 2.5-1.1m0 7.3v-7.3M2.4 105q1.3.1 1.4 1.4m1.4-2.9a1.4 1.4 0 0 1-1.4-1.4"/></g><path stroke="#efefef" stroke-linecap="round" d="M54 94.8a5 5 0 0 1 5.2 5.1"/><g filter="url(#K)"><rect width="68.7" height="22.9" x="-7.6" y="164.2" fill="#f1f1f1" rx="7.6"/><rect width="67.8" height="22" x="-7.2" y="164.7" stroke="url(#L)" rx="7.2"/></g><g filter="url(#M)"><circle cx="5.7" cy="180.1" r="2.5" fill="#efefef"/></g><foreignObject width="33.1" height="33.1" x="-12.7" y="159.1"><div xmlns="http://www.w3.org/1999/xhtml" clip-path="url(#N)" style="backdrop-filter:blur(3.82px);height:100%;width:100%"/></foreignObject><rect width="17.8" height="17.8" x="-5.1" y="166.7" fill="#efefef" fill-opacity=".1" rx="5.1"/><rect width="16.9" height="16.9" x="-4.6" y="167.2" stroke="#efefef" stroke-opacity=".1" rx="4.6"/><g clip-path="url(#O)"><path stroke="#efefef" stroke-linecap="round" stroke-linejoin="round" d="m2.9 179.1 1.9-7m1.7 1.7.8 1q.8.9 0 1.7l-.8 1m-5.3 0-1-1a1.3 1.3 0 0 1 0-1.7l1-1"/></g><path stroke="#efefef" stroke-linecap="round" d="M54 166a5 5 0 0 1 5.2 5.2"/><g filter="url(#P)"><rect width="68.7" height="22.9" x="17.8" y="128.5" fill="#f1f1f1" rx="7.6"/><rect width="67.8" height="22" x="18.3" y="129" stroke="url(#Q)" rx="7.2"/></g><g filter="url(#R)"><circle cx="31.2" cy="144.5" r="2.5" fill="#efefef"/></g><foreignObject width="33.1" height="33.1" x="12.7" y="123.5"><div xmlns="http://www.w3.org/1999/xhtml" clip-path="url(#S)" style="backdrop-filter:blur(3.82px);height:100%;width:100%"/></foreignObject><rect width="17.8" height="17.8" x="20.4" y="131.1" fill="#efefef" fill-opacity=".1" rx="5.1"/><rect width="16.9" height="16.9" x="20.8" y="131.6" stroke="#efefef" stroke-opacity=".1" rx="4.6"/><path fill="#efefef" d="m27 140.6.3.3zm1.2 0 .3-.3zm-1.6-4.1v.5H32v-1h-5.3zm6.2.8h-.5v5.4h1v-5.4zm-7 4.5.3.3 1.2-1.2-.3-.3-.4-.3-1.2 1.2zm0 .9h.4v-.9h-1v.9zm0-.9h.4v-4.5h-1v4.5zm2.4-1.2-.4.3 3 3 .3-.4.3-.3-2.9-3zm3.7 2.9v-.5h-.8v1h.8zm-.8 0v-.5h-4.5v1h4.5zm-4.1-2.9.3.3h.5l.4-.3.3-.3a1.3 1.3 0 0 0-1.9 0zm-1.2 2h-.5q.1 1.3 1.3 1.4v-1l-.4-.3zm7 0h-.5a.4.4 0 0 1-.4.4v1q1.3-.1 1.3-1.3zm-.9-6.1v.5q.4 0 .4.3h1q-.1-1.2-1.4-1.3zm-5.3 0v-.5q-1.2.1-1.3 1.3h1q0-.3.3-.3zm4.6 2.4h-.5a.4.4 0 0 1-.4.4v1q1.3-.1 1.4-1.4zm-.9.9v-.5l-.3-.4h-1q.1 1.3 1.3 1.4zm-.8-.9h.5l.3-.3v-1q-1.2.1-1.3 1.3zm.8-.8v.5q.4 0 .4.3h1q-.1-1.2-1.4-1.3z"/><path stroke="#efefef" stroke-linecap="round" d="M79.5 130.5a5 5 0 0 1 5.1 5"/><path stroke="#d9d9d9" stroke-dasharray="1.27 3.82" stroke-linecap="round" d="M.6 75h75.1"/><g opacity=".6"><path stroke="url(#T)" d="M61 105h15.7c5.4 0 9.8 4.4 9.8 9.9s4.5 9.8 10 9.8h5.3"/><path stroke="url(#U)" d="M61 175.6h15.7c5.5 0 9.9-4.4 9.9-9.8a10 10 0 0 1 9.8-9.9h5.4"/></g><g opacity=".6"><path stroke="url(#V)" d="M219 105h-15.7a10 10 0 0 0-9.8 9.9 10 10 0 0 1-10 9.8h-5.3"/><path stroke="url(#W)" d="M219 175.6h-15.7a10 10 0 0 1-9.9-9.8 10 10 0 0 0-9.8-9.9h-5.4"/></g></g><defs><linearGradient id="b" x1="140.3" x2="140.3" y1="0" y2="280" gradientUnits="userSpaceOnUse"><stop stop-opacity="0"/><stop offset=".1"/><stop offset=".9"/><stop offset="1" stop-opacity="0"/></linearGradient><linearGradient id="i" x1="80.2" x2="80.2" y1="0" y2="75.7" gradientUnits="userSpaceOnUse"><stop stop-color="#e2e2e2" stop-opacity="0"/><stop offset="1" stop-color="#e2e2e2"/></linearGradient><linearGradient id="k" x1="80.2" x2="80.2" y1="0" y2="75.7" gradientUnits="userSpaceOnUse"><stop stop-color="#e2e2e2" stop-opacity="0"/><stop offset="1" stop-color="#e2e2e2"/></linearGradient><linearGradient id="m" x1="140" x2="140" y1="75.1" y2="204.9" gradientUnits="userSpaceOnUse"><stop stop-color="#fdfdfd" stop-opacity=".3"/><stop offset="1" stop-color="#fdfdfd"/></linearGradient><linearGradient id="n" x1="140" x2="140" y1="75.1" y2="204.9" gradientUnits="userSpaceOnUse"><stop stop-color="#e2e2e2"/><stop offset="1" stop-color="#e2e2e2" stop-opacity=".8"/></linearGradient><linearGradient id="p" x1="140" x2="140" y1="80.2" y2="199.8" gradientUnits="userSpaceOnUse"><stop stop-color="#f6f6f6"/><stop offset="1" stop-color="#e6e6e6"/></linearGradient><linearGradient id="s" x1="227.8" x2="227.8" y1="128.5" y2="151.5" gradientUnits="userSpaceOnUse"><stop stop-color="#f6f6f6"/><stop offset="1" stop-color="#e6e6e6"/></linearGradient><linearGradient id="x" x1="253.3" x2="253.3" y1="92.9" y2="115.8" gradientUnits="userSpaceOnUse"><stop stop-color="#f6f6f6"/><stop offset="1" stop-color="#e6e6e6"/></linearGradient><linearGradient id="C" x1="253.3" x2="253.3" y1="164.2" y2="187.1" gradientUnits="userSpaceOnUse"><stop stop-color="#f6f6f6"/><stop offset="1" stop-color="#e6e6e6"/></linearGradient><linearGradient id="G" x1="26.7" x2="26.7" y1="92.9" y2="115.8" gradientUnits="userSpaceOnUse"><stop stop-color="#f6f6f6"/><stop offset="1" stop-color="#e6e6e6"/></linearGradient><linearGradient id="L" x1="26.7" x2="26.7" y1="164.2" y2="187.1" gradientUnits="userSpaceOnUse"><stop stop-color="#f6f6f6"/><stop offset="1" stop-color="#e6e6e6"/></linearGradient><linearGradient id="Q" x1="52.2" x2="52.2" y1="128.5" y2="151.5" gradientUnits="userSpaceOnUse"><stop stop-color="#f6f6f6"/><stop offset="1" stop-color="#e6e6e6"/></linearGradient><linearGradient id="T" x1="61.1" x2="101.8" y1="114.9" y2="114.9" gradientUnits="userSpaceOnUse"><stop stop-color="#d9d9d9"/><stop offset="1" stop-color="#cb90f6"/></linearGradient><linearGradient id="U" x1="61.1" x2="101.8" y1="165.8" y2="165.8" gradientUnits="userSpaceOnUse"><stop stop-color="#d9d9d9"/><stop offset="1" stop-color="#cb90f6"/></linearGradient><linearGradient id="V" x1="218.9" x2="178.2" y1="114.9" y2="114.9" gradientUnits="userSpaceOnUse"><stop stop-color="#d9d9d9"/><stop offset="1" stop-color="#cb90f6"/></linearGradient><linearGradient id="W" x1="218.9" x2="178.2" y1="165.8" y2="165.8" gradientUnits="userSpaceOnUse"><stop stop-color="#d9d9d9"/><stop offset="1" stop-color="#cb90f6"/></linearGradient><clipPath id="d" transform="translate(-86.5 -199.8)"><path d="M107 230.4a10 10 0 0 1 10-10.2h46a10 10 0 0 1 10 10.2v99.2a10 10 0 0 1-10 10.2h-46a10 10 0 0 1-10-10.2z"/></clipPath><clipPath id="f" transform="translate(-86.5 80.2)"><path d="M107-49.6a10 10 0 0 1 10-10.2h46a10 10 0 0 1 10 10.2v99.2a10 10 0 0 1-10 10.2h-46a10 10 0 0 1-10-10.2z"/></clipPath><clipPath id="h" transform="translate(19.7 -39.5)"><rect width="159.4" height="74.8" x=".5" y=".5" rx="11" transform="matrix(0 1 1 0 .6 59.8)"/></clipPath><clipPath id="j" transform="translate(-184 -39.5)"><rect width="159.4" height="74.8" x="-.5" y="-.5" rx="11" transform="matrix(0 -1 -1 0 279 219.2)"/></clipPath><clipPath id="l" transform="translate(-81.5 -54.7)"><path d="M130.3 75.6h19.4q7.4 0 11.6.2 4.3.3 7 1.7a17 17 0 0 1 7.5 7.5q1.4 2.7 1.7 7t.2 11.6v72.8q0 7.3-.2 11.7c-.3 3-.8 5-1.7 6.9a17 17 0 0 1-7.6 7.5 18 18 0 0 1-6.9 1.7q-4.3.2-11.6.2h-19.4q-7.4 0-11.6-.2-4.3-.2-7-1.7a17 17 0 0 1-7.5-7.5 18 18 0 0 1-1.7-7q-.2-4.2-.2-11.6v-72.8q0-7.3.2-11.7.4-4.2 1.7-6.9a17 17 0 0 1 7.6-7.5q2.6-1.4 6.9-1.7 4.3-.2 11.6-.2"/></clipPath><clipPath id="u" transform="translate(-188.4 -123.5)"><rect width="17.8" height="17.8" x="196" y="131.1" rx="5.1"/></clipPath><clipPath id="z" transform="translate(-213.8 -87.8)"><rect width="17.8" height="17.8" x="221.5" y="95.5" rx="5.1"/></clipPath><clipPath id="E" transform="translate(-213.8 -159)"><rect width="17.8" height="17.8" x="221.5" y="166.7" rx="5.1"/></clipPath><clipPath id="I" transform="translate(12.7 -87.8)"><rect width="17.8" height="17.8" x="-5.1" y="95.5" rx="5.1"/></clipPath><clipPath id="N" transform="translate(12.7 -159)"><rect width="17.8" height="17.8" x="-5.1" y="166.7" rx="5.1"/></clipPath><clipPath id="S" transform="translate(-12.7 -123.5)"><rect width="17.8" height="17.8" x="20.4" y="131.1" rx="5.1"/></clipPath><clipPath id="a"><path fill="#fff" d="M0 32.6C0 21.2 0 15.5 2.2 11a20 20 0 0 1 9-8.9C15.4 0 21.1 0 32.5 0h214.8c11.4 0 17.1 0 21.5 2.2a20 20 0 0 1 8.9 9c2.2 4.3 2.2 10 2.2 21.4v214.8c0 11.4 0 17.1-2.2 21.5a20 20 0 0 1-9 8.9c-4.3 2.2-10 2.2-21.4 2.2H32.6c-11.4 0-17.1 0-21.5-2.2a20 20 0 0 1-8.9-9C0 264.6 0 258.9 0 247.5z"/></clipPath><clipPath id="v"><path fill="#fff" d="M199.8 135H210v10h-10.2z"/></clipPath><clipPath id="A"><path fill="#fff" d="M225.3 99.3h10.2v10.2h-10.2z"/></clipPath><clipPath id="J"><path fill="#fff" d="M-1.3 99.3H9v10.2H-1.3z"/></clipPath><clipPath id="O"><path fill="#fff" d="M-1.3 170.5H9v10.2H-1.3z"/></clipPath><filter id="e" width="106.9" height="160.4" x="86.5" y="199.8" color-interpolation-filters="sRGB" filterUnits="userSpaceOnUse"><feFlood flood-opacity="0" result="BackgroundImageFix"/><feColorMatrix in="SourceAlpha" result="hardAlpha" values="0 0 0 0 0 0 0 0 0 0 0 0 0 0 0 0 0 0 127 0"/><feMorphology in="SourceAlpha" radius="2.5" result="effect1_dropShadow_211_4978"/><feOffset dy=".6"/><feGaussianBlur stdDeviation="2.5"/><feComposite in2="hardAlpha" operator="out"/><feColorMatrix values="0 0 0 0 0 0 0 0 0 0 0 0 0 0 0 0 0 0 0.2 0"/><feBlend in2="BackgroundImageFix" mode="multiply" result="effect1_dropShadow_211_4978"/><feBlend in="SourceGraphic" in2="effect1_dropShadow_211_4978" result="shape"/></filter><filter id="g" width="106.9" height="160.4" x="86.5" y="-80.2" color-interpolation-filters="sRGB" filterUnits="userSpaceOnUse"><feFlood flood-opacity="0" result="BackgroundImageFix"/><feColorMatrix in="SourceAlpha" result="hardAlpha" values="0 0 0 0 0 0 0 0 0 0 0 0 0 0 0 0 0 0 127 0"/><feMorphology in="SourceAlpha" radius="2.5" result="effect1_dropShadow_211_4978"/><feOffset dy=".6"/><feGaussianBlur stdDeviation="2.5"/><feComposite in2="hardAlpha" operator="out"/><feColorMatrix values="0 0 0 0 0 0 0 0 0 0 0 0 0 0 0 0 0 0 0.2 0"/><feBlend in2="BackgroundImageFix" mode="multiply" result="effect1_dropShadow_211_4978"/><feBlend in="SourceGraphic" in2="effect1_dropShadow_211_4978" result="shape"/></filter><filter id="o" width="132.4" height="185.8" x="73.8" y="67.5" color-interpolation-filters="sRGB" filterUnits="userSpaceOnUse"><feFlood flood-opacity="0" result="BackgroundImageFix"/><feColorMatrix in="SourceAlpha" result="hardAlpha" values="0 0 0 0 0 0 0 0 0 0 0 0 0 0 0 0 0 0 127 0"/><feMorphology in="SourceAlpha" radius="2.5" result="effect1_dropShadow_211_4978"/><feOffset dy="3.2"/><feGaussianBlur stdDeviation=".5"/><feComposite in2="hardAlpha" operator="out"/><feColorMatrix values="0 0 0 0 0.0313726 0 0 0 0 0.0313726 0 0 0 0 0.0313726 0 0 0 0.05 0"/><feBlend in2="BackgroundImageFix" result="effect1_dropShadow_211_4978"/><feColorMatrix in="SourceAlpha" result="hardAlpha" values="0 0 0 0 0 0 0 0 0 0 0 0 0 0 0 0 0 0 127 0"/><feMorphology in="SourceAlpha" radius="2.5" result="effect2_dropShadow_211_4978"/><feOffset dy="3.8"/><feGaussianBlur stdDeviation="1.3"/><feComposite in2="hardAlpha" operator="out"/><feColorMatrix values="0 0 0 0 0.0313726 0 0 0 0 0.0313726 0 0 0 0 0.0313726 0 0 0 0.05 0"/><feBlend in2="effect1_dropShadow_211_4978" result="effect2_dropShadow_211_4978"/><feColorMatrix in="SourceAlpha" result="hardAlpha" values="0 0 0 0 0 0 0 0 0 0 0 0 0 0 0 0 0 0 127 0"/><feOffset dy="3.8"/><feGaussianBlur stdDeviation="4.1"/><feComposite in2="hardAlpha" operator="out"/><feColorMatrix values="0 0 0 0 0.0313726 0 0 0 0 0.0313726 0 0 0 0 0.0313726 0 0 0 0.03 0"/><feBlend in2="effect2_dropShadow_211_4978" result="effect3_dropShadow_211_4978"/><feColorMatrix in="SourceAlpha" result="hardAlpha" values="0 0 0 0 0 0 0 0 0 0 0 0 0 0 0 0 0 0 127 0"/><feMorphology in="SourceAlpha" radius="10.2" result="effect4_dropShadow_211_4978"/><feOffset dy="15.3"/><feGaussianBlur stdDeviation="7.6"/><feComposite in2="hardAlpha" operator="out"/><feColorMatrix values="0 0 0 0 0.0313726 0 0 0 0 0.0313726 0 0 0 0 0.0313726 0 0 0 0.04 0"/><feBlend in2="effect3_dropShadow_211_4978" result="effect4_dropShadow_211_4978"/><feColorMatrix in="SourceAlpha" result="hardAlpha" values="0 0 0 0 0 0 0 0 0 0 0 0 0 0 0 0 0 0 127 0"/><feMorphology in="SourceAlpha" radius="1.3" result="effect5_dropShadow_211_4978"/><feOffset dy="1.4"/><feGaussianBlur stdDeviation=".2"/><feComposite in2="hardAlpha" operator="out"/><feColorMatrix values="0 0 0 0 0 0 0 0 0 0 0 0 0 0 0 0 0 0 0.25 0"/><feBlend in2="effect4_dropShadow_211_4978" result="effect5_dropShadow_211_4978"/><feColorMatrix in="SourceAlpha" result="hardAlpha" values="0 0 0 0 0 0 0 0 0 0 0 0 0 0 0 0 0 0 127 0"/><feMorphology in="SourceAlpha" radius="7.6" result="effect6_dropShadow_211_4978"/><feOffset dy="20.4"/><feGaussianBlur stdDeviation="20.4"/><feComposite in2="hardAlpha" operator="out"/><feColorMatrix values="0 0 0 0 0 0 0 0 0 0 0 0 0 0 0 0 0 0 0.075 0"/><feBlend in2="effect5_dropShadow_211_4978" mode="multiply" result="effect6_dropShadow_211_4978"/><feBlend in="SourceGraphic" in2="effect6_dropShadow_211_4978" result="shape"/></filter><filter id="r" width="134.9" height="89.1" x="160.4" y="115.8" color-interpolation-filters="sRGB" filterUnits="userSpaceOnUse"><feFlood flood-opacity="0" result="BackgroundImageFix"/><feColorMatrix in="SourceAlpha" result="hardAlpha" values="0 0 0 0 0 0 0 0 0 0 0 0 0 0 0 0 0 0 127 0"/><feMorphology in="SourceAlpha" radius="2.5" result="effect1_dropShadow_211_4978"/><feOffset dy="3.2"/><feGaussianBlur stdDeviation=".5"/><feComposite in2="hardAlpha" operator="out"/><feColorMatrix values="0 0 0 0 0.0313726 0 0 0 0 0.0313726 0 0 0 0 0.0313726 0 0 0 0.05 0"/><feBlend in2="BackgroundImageFix" result="effect1_dropShadow_211_4978"/><feColorMatrix in="SourceAlpha" result="hardAlpha" values="0 0 0 0 0 0 0 0 0 0 0 0 0 0 0 0 0 0 127 0"/><feMorphology in="SourceAlpha" radius="2.5" result="effect2_dropShadow_211_4978"/><feOffset dy="3.8"/><feGaussianBlur stdDeviation="1.3"/><feComposite in2="hardAlpha" operator="out"/><feColorMatrix values="0 0 0 0 0.0313726 0 0 0 0 0.0313726 0 0 0 0 0.0313726 0 0 0 0.05 0"/><feBlend in2="effect1_dropShadow_211_4978" result="effect2_dropShadow_211_4978"/><feColorMatrix in="SourceAlpha" result="hardAlpha" values="0 0 0 0 0 0 0 0 0 0 0 0 0 0 0 0 0 0 127 0"/><feOffset dy="3.8"/><feGaussianBlur stdDeviation="4.1"/><feComposite in2="hardAlpha" operator="out"/><feColorMatrix values="0 0 0 0 0.0313726 0 0 0 0 0.0313726 0 0 0 0 0.0313726 0 0 0 0.03 0"/><feBlend in2="effect2_dropShadow_211_4978" result="effect3_dropShadow_211_4978"/><feColorMatrix in="SourceAlpha" result="hardAlpha" values="0 0 0 0 0 0 0 0 0 0 0 0 0 0 0 0 0 0 127 0"/><feMorphology in="SourceAlpha" radius="10.2" result="effect4_dropShadow_211_4978"/><feOffset dy="15.3"/><feGaussianBlur stdDeviation="7.6"/><feComposite in2="hardAlpha" operator="out"/><feColorMatrix values="0 0 0 0 0.0313726 0 0 0 0 0.0313726 0 0 0 0 0.0313726 0 0 0 0.04 0"/><feBlend in2="effect3_dropShadow_211_4978" result="effect4_dropShadow_211_4978"/><feColorMatrix in="SourceAlpha" result="hardAlpha" values="0 0 0 0 0 0 0 0 0 0 0 0 0 0 0 0 0 0 127 0"/><feMorphology in="SourceAlpha" radius="1.3" result="effect5_dropShadow_211_4978"/><feOffset dy="1.4"/><feGaussianBlur stdDeviation=".2"/><feComposite in2="hardAlpha" operator="out"/><feColorMatrix values="0 0 0 0 0 0 0 0 0 0 0 0 0 0 0 0 0 0 0.25 0"/><feBlend in2="effect4_dropShadow_211_4978" result="effect5_dropShadow_211_4978"/><feColorMatrix in="SourceAlpha" result="hardAlpha" values="0 0 0 0 0 0 0 0 0 0 0 0 0 0 0 0 0 0 127 0"/><feMorphology in="SourceAlpha" radius="7.6" result="effect6_dropShadow_211_4978"/><feOffset dy="20.4"/><feGaussianBlur stdDeviation="20.4"/><feComposite in2="hardAlpha" operator="out"/><feColorMatrix values="0 0 0 0 0 0 0 0 0 0 0 0 0 0 0 0 0 0 0.075 0"/><feBlend in2="effect5_dropShadow_211_4978" mode="multiply" result="effect6_dropShadow_211_4978"/><feBlend in="SourceGraphic" in2="effect6_dropShadow_211_4978" result="shape"/></filter><filter id="t" width="7.6" height="7.6" x="203" y="140.6" color-interpolation-filters="sRGB" filterUnits="userSpaceOnUse"><feFlood flood-opacity="0" result="BackgroundImageFix"/><feBlend in="SourceGraphic" in2="BackgroundImageFix" result="shape"/><feGaussianBlur result="effect1_foregroundBlur_211_4978" stdDeviation=".6"/></filter><filter id="w" width="134.9" height="89.1" x="185.8" y="80.2" color-interpolation-filters="sRGB" filterUnits="userSpaceOnUse"><feFlood flood-opacity="0" result="BackgroundImageFix"/><feColorMatrix in="SourceAlpha" result="hardAlpha" values="0 0 0 0 0 0 0 0 0 0 0 0 0 0 0 0 0 0 127 0"/><feMorphology in="SourceAlpha" radius="2.5" result="effect1_dropShadow_211_4978"/><feOffset dy="3.2"/><feGaussianBlur stdDeviation=".5"/><feComposite in2="hardAlpha" operator="out"/><feColorMatrix values="0 0 0 0 0.0313726 0 0 0 0 0.0313726 0 0 0 0 0.0313726 0 0 0 0.05 0"/><feBlend in2="BackgroundImageFix" result="effect1_dropShadow_211_4978"/><feColorMatrix in="SourceAlpha" result="hardAlpha" values="0 0 0 0 0 0 0 0 0 0 0 0 0 0 0 0 0 0 127 0"/><feMorphology in="SourceAlpha" radius="2.5" result="effect2_dropShadow_211_4978"/><feOffset dy="3.8"/><feGaussianBlur stdDeviation="1.3"/><feComposite in2="hardAlpha" operator="out"/><feColorMatrix values="0 0 0 0 0.0313726 0 0 0 0 0.0313726 0 0 0 0 0.0313726 0 0 0 0.05 0"/><feBlend in2="effect1_dropShadow_211_4978" result="effect2_dropShadow_211_4978"/><feColorMatrix in="SourceAlpha" result="hardAlpha" values="0 0 0 0 0 0 0 0 0 0 0 0 0 0 0 0 0 0 127 0"/><feOffset dy="3.8"/><feGaussianBlur stdDeviation="4.1"/><feComposite in2="hardAlpha" operator="out"/><feColorMatrix values="0 0 0 0 0.0313726 0 0 0 0 0.0313726 0 0 0 0 0.0313726 0 0 0 0.03 0"/><feBlend in2="effect2_dropShadow_211_4978" result="effect3_dropShadow_211_4978"/><feColorMatrix in="SourceAlpha" result="hardAlpha" values="0 0 0 0 0 0 0 0 0 0 0 0 0 0 0 0 0 0 127 0"/><feMorphology in="SourceAlpha" radius="10.2" result="effect4_dropShadow_211_4978"/><feOffset dy="15.3"/><feGaussianBlur stdDeviation="7.6"/><feComposite in2="hardAlpha" operator="out"/><feColorMatrix values="0 0 0 0 0.0313726 0 0 0 0 0.0313726 0 0 0 0 0.0313726 0 0 0 0.04 0"/><feBlend in2="effect3_dropShadow_211_4978" result="effect4_dropShadow_211_4978"/><feColorMatrix in="SourceAlpha" result="hardAlpha" values="0 0 0 0 0 0 0 0 0 0 0 0 0 0 0 0 0 0 127 0"/><feMorphology in="SourceAlpha" radius="1.3" result="effect5_dropShadow_211_4978"/><feOffset dy="1.4"/><feGaussianBlur stdDeviation=".2"/><feComposite in2="hardAlpha" operator="out"/><feColorMatrix values="0 0 0 0 0 0 0 0 0 0 0 0 0 0 0 0 0 0 0.25 0"/><feBlend in2="effect4_dropShadow_211_4978" result="effect5_dropShadow_211_4978"/><feColorMatrix in="SourceAlpha" result="hardAlpha" values="0 0 0 0 0 0 0 0 0 0 0 0 0 0 0 0 0 0 127 0"/><feMorphology in="SourceAlpha" radius="7.6" result="effect6_dropShadow_211_4978"/><feOffset dy="20.4"/><feGaussianBlur stdDeviation="20.4"/><feComposite in2="hardAlpha" operator="out"/><feColorMatrix values="0 0 0 0 0 0 0 0 0 0 0 0 0 0 0 0 0 0 0.075 0"/><feBlend in2="effect5_dropShadow_211_4978" mode="multiply" result="effect6_dropShadow_211_4978"/><feBlend in="SourceGraphic" in2="effect6_dropShadow_211_4978" result="shape"/></filter><filter id="y" width="7.6" height="7.6" x="228.5" y="105" color-interpolation-filters="sRGB" filterUnits="userSpaceOnUse"><feFlood flood-opacity="0" result="BackgroundImageFix"/><feBlend in="SourceGraphic" in2="BackgroundImageFix" result="shape"/><feGaussianBlur result="effect1_foregroundBlur_211_4978" stdDeviation=".6"/></filter><filter id="B" width="134.9" height="89.1" x="185.8" y="151.5" color-interpolation-filters="sRGB" filterUnits="userSpaceOnUse"><feFlood flood-opacity="0" result="BackgroundImageFix"/><feColorMatrix in="SourceAlpha" result="hardAlpha" values="0 0 0 0 0 0 0 0 0 0 0 0 0 0 0 0 0 0 127 0"/><feMorphology in="SourceAlpha" radius="2.5" result="effect1_dropShadow_211_4978"/><feOffset dy="3.2"/><feGaussianBlur stdDeviation=".5"/><feComposite in2="hardAlpha" operator="out"/><feColorMatrix values="0 0 0 0 0.0313726 0 0 0 0 0.0313726 0 0 0 0 0.0313726 0 0 0 0.05 0"/><feBlend in2="BackgroundImageFix" result="effect1_dropShadow_211_4978"/><feColorMatrix in="SourceAlpha" result="hardAlpha" values="0 0 0 0 0 0 0 0 0 0 0 0 0 0 0 0 0 0 127 0"/><feMorphology in="SourceAlpha" radius="2.5" result="effect2_dropShadow_211_4978"/><feOffset dy="3.8"/><feGaussianBlur stdDeviation="1.3"/><feComposite in2="hardAlpha" operator="out"/><feColorMatrix values="0 0 0 0 0.0313726 0 0 0 0 0.0313726 0 0 0 0 0.0313726 0 0 0 0.05 0"/><feBlend in2="effect1_dropShadow_211_4978" result="effect2_dropShadow_211_4978"/><feColorMatrix in="SourceAlpha" result="hardAlpha" values="0 0 0 0 0 0 0 0 0 0 0 0 0 0 0 0 0 0 127 0"/><feOffset dy="3.8"/><feGaussianBlur stdDeviation="4.1"/><feComposite in2="hardAlpha" operator="out"/><feColorMatrix values="0 0 0 0 0.0313726 0 0 0 0 0.0313726 0 0 0 0 0.0313726 0 0 0 0.03 0"/><feBlend in2="effect2_dropShadow_211_4978" result="effect3_dropShadow_211_4978"/><feColorMatrix in="SourceAlpha" result="hardAlpha" values="0 0 0 0 0 0 0 0 0 0 0 0 0 0 0 0 0 0 127 0"/><feMorphology in="SourceAlpha" radius="10.2" result="effect4_dropShadow_211_4978"/><feOffset dy="15.3"/><feGaussianBlur stdDeviation="7.6"/><feComposite in2="hardAlpha" operator="out"/><feColorMatrix values="0 0 0 0 0.0313726 0 0 0 0 0.0313726 0 0 0 0 0.0313726 0 0 0 0.04 0"/><feBlend in2="effect3_dropShadow_211_4978" result="effect4_dropShadow_211_4978"/><feColorMatrix in="SourceAlpha" result="hardAlpha" values="0 0 0 0 0 0 0 0 0 0 0 0 0 0 0 0 0 0 127 0"/><feMorphology in="SourceAlpha" radius="1.3" result="effect5_dropShadow_211_4978"/><feOffset dy="1.4"/><feGaussianBlur stdDeviation=".2"/><feComposite in2="hardAlpha" operator="out"/><feColorMatrix values="0 0 0 0 0 0 0 0 0 0 0 0 0 0 0 0 0 0 0.25 0"/><feBlend in2="effect4_dropShadow_211_4978" result="effect5_dropShadow_211_4978"/><feColorMatrix in="SourceAlpha" result="hardAlpha" values="0 0 0 0 0 0 0 0 0 0 0 0 0 0 0 0 0 0 127 0"/><feMorphology in="SourceAlpha" radius="7.6" result="effect6_dropShadow_211_4978"/><feOffset dy="20.4"/><feGaussianBlur stdDeviation="20.4"/><feComposite in2="hardAlpha" operator="out"/><feColorMatrix values="0 0 0 0 0 0 0 0 0 0 0 0 0 0 0 0 0 0 0.075 0"/><feBlend in2="effect5_dropShadow_211_4978" mode="multiply" result="effect6_dropShadow_211_4978"/><feBlend in="SourceGraphic" in2="effect6_dropShadow_211_4978" result="shape"/></filter><filter id="D" width="7.6" height="7.6" x="228.5" y="176.3" color-interpolation-filters="sRGB" filterUnits="userSpaceOnUse"><feFlood flood-opacity="0" result="BackgroundImageFix"/><feBlend in="SourceGraphic" in2="BackgroundImageFix" result="shape"/><feGaussianBlur result="effect1_foregroundBlur_211_4978" stdDeviation=".6"/></filter><filter id="F" width="134.9" height="89.1" x="-40.7" y="80.2" color-interpolation-filters="sRGB" filterUnits="userSpaceOnUse"><feFlood flood-opacity="0" result="BackgroundImageFix"/><feColorMatrix in="SourceAlpha" result="hardAlpha" values="0 0 0 0 0 0 0 0 0 0 0 0 0 0 0 0 0 0 127 0"/><feMorphology in="SourceAlpha" radius="2.5" result="effect1_dropShadow_211_4978"/><feOffset dy="3.2"/><feGaussianBlur stdDeviation=".5"/><feComposite in2="hardAlpha" operator="out"/><feColorMatrix values="0 0 0 0 0.0313726 0 0 0 0 0.0313726 0 0 0 0 0.0313726 0 0 0 0.05 0"/><feBlend in2="BackgroundImageFix" result="effect1_dropShadow_211_4978"/><feColorMatrix in="SourceAlpha" result="hardAlpha" values="0 0 0 0 0 0 0 0 0 0 0 0 0 0 0 0 0 0 127 0"/><feMorphology in="SourceAlpha" radius="2.5" result="effect2_dropShadow_211_4978"/><feOffset dy="3.8"/><feGaussianBlur stdDeviation="1.3"/><feComposite in2="hardAlpha" operator="out"/><feColorMatrix values="0 0 0 0 0.0313726 0 0 0 0 0.0313726 0 0 0 0 0.0313726 0 0 0 0.05 0"/><feBlend in2="effect1_dropShadow_211_4978" result="effect2_dropShadow_211_4978"/><feColorMatrix in="SourceAlpha" result="hardAlpha" values="0 0 0 0 0 0 0 0 0 0 0 0 0 0 0 0 0 0 127 0"/><feOffset dy="3.8"/><feGaussianBlur stdDeviation="4.1"/><feComposite in2="hardAlpha" operator="out"/><feColorMatrix values="0 0 0 0 0.0313726 0 0 0 0 0.0313726 0 0 0 0 0.0313726 0 0 0 0.03 0"/><feBlend in2="effect2_dropShadow_211_4978" result="effect3_dropShadow_211_4978"/><feColorMatrix in="SourceAlpha" result="hardAlpha" values="0 0 0 0 0 0 0 0 0 0 0 0 0 0 0 0 0 0 127 0"/><feMorphology in="SourceAlpha" radius="10.2" result="effect4_dropShadow_211_4978"/><feOffset dy="15.3"/><feGaussianBlur stdDeviation="7.6"/><feComposite in2="hardAlpha" operator="out"/><feColorMatrix values="0 0 0 0 0.0313726 0 0 0 0 0.0313726 0 0 0 0 0.0313726 0 0 0 0.04 0"/><feBlend in2="effect3_dropShadow_211_4978" result="effect4_dropShadow_211_4978"/><feColorMatrix in="SourceAlpha" result="hardAlpha" values="0 0 0 0 0 0 0 0 0 0 0 0 0 0 0 0 0 0 127 0"/><feMorphology in="SourceAlpha" radius="1.3" result="effect5_dropShadow_211_4978"/><feOffset dy="1.4"/><feGaussianBlur stdDeviation=".2"/><feComposite in2="hardAlpha" operator="out"/><feColorMatrix values="0 0 0 0 0 0 0 0 0 0 0 0 0 0 0 0 0 0 0.25 0"/><feBlend in2="effect4_dropShadow_211_4978" result="effect5_dropShadow_211_4978"/><feColorMatrix in="SourceAlpha" result="hardAlpha" values="0 0 0 0 0 0 0 0 0 0 0 0 0 0 0 0 0 0 127 0"/><feMorphology in="SourceAlpha" radius="7.6" result="effect6_dropShadow_211_4978"/><feOffset dy="20.4"/><feGaussianBlur stdDeviation="20.4"/><feComposite in2="hardAlpha" operator="out"/><feColorMatrix values="0 0 0 0 0 0 0 0 0 0 0 0 0 0 0 0 0 0 0.075 0"/><feBlend in2="effect5_dropShadow_211_4978" mode="multiply" result="effect6_dropShadow_211_4978"/><feBlend in="SourceGraphic" in2="effect6_dropShadow_211_4978" result="shape"/></filter><filter id="H" width="7.6" height="7.6" x="1.9" y="105" color-interpolation-filters="sRGB" filterUnits="userSpaceOnUse"><feFlood flood-opacity="0" result="BackgroundImageFix"/><feBlend in="SourceGraphic" in2="BackgroundImageFix" result="shape"/><feGaussianBlur result="effect1_foregroundBlur_211_4978" stdDeviation=".6"/></filter><filter id="K" width="134.9" height="89.1" x="-40.7" y="151.5" color-interpolation-filters="sRGB" filterUnits="userSpaceOnUse"><feFlood flood-opacity="0" result="BackgroundImageFix"/><feColorMatrix in="SourceAlpha" result="hardAlpha" values="0 0 0 0 0 0 0 0 0 0 0 0 0 0 0 0 0 0 127 0"/><feMorphology in="SourceAlpha" radius="2.5" result="effect1_dropShadow_211_4978"/><feOffset dy="3.2"/><feGaussianBlur stdDeviation=".5"/><feComposite in2="hardAlpha" operator="out"/><feColorMatrix values="0 0 0 0 0.0313726 0 0 0 0 0.0313726 0 0 0 0 0.0313726 0 0 0 0.05 0"/><feBlend in2="BackgroundImageFix" result="effect1_dropShadow_211_4978"/><feColorMatrix in="SourceAlpha" result="hardAlpha" values="0 0 0 0 0 0 0 0 0 0 0 0 0 0 0 0 0 0 127 0"/><feMorphology in="SourceAlpha" radius="2.5" result="effect2_dropShadow_211_4978"/><feOffset dy="3.8"/><feGaussianBlur stdDeviation="1.3"/><feComposite in2="hardAlpha" operator="out"/><feColorMatrix values="0 0 0 0 0.0313726 0 0 0 0 0.0313726 0 0 0 0 0.0313726 0 0 0 0.05 0"/><feBlend in2="effect1_dropShadow_211_4978" result="effect2_dropShadow_211_4978"/><feColorMatrix in="SourceAlpha" result="hardAlpha" values="0 0 0 0 0 0 0 0 0 0 0 0 0 0 0 0 0 0 127 0"/><feOffset dy="3.8"/><feGaussianBlur stdDeviation="4.1"/><feComposite in2="hardAlpha" operator="out"/><feColorMatrix values="0 0 0 0 0.0313726 0 0 0 0 0.0313726 0 0 0 0 0.0313726 0 0 0 0.03 0"/><feBlend in2="effect2_dropShadow_211_4978" result="effect3_dropShadow_211_4978"/><feColorMatrix in="SourceAlpha" result="hardAlpha" values="0 0 0 0 0 0 0 0 0 0 0 0 0 0 0 0 0 0 127 0"/><feMorphology in="SourceAlpha" radius="10.2" result="effect4_dropShadow_211_4978"/><feOffset dy="15.3"/><feGaussianBlur stdDeviation="7.6"/><feComposite in2="hardAlpha" operator="out"/><feColorMatrix values="0 0 0 0 0.0313726 0 0 0 0 0.0313726 0 0 0 0 0.0313726 0 0 0 0.04 0"/><feBlend in2="effect3_dropShadow_211_4978" result="effect4_dropShadow_211_4978"/><feColorMatrix in="SourceAlpha" result="hardAlpha" values="0 0 0 0 0 0 0 0 0 0 0 0 0 0 0 0 0 0 127 0"/><feMorphology in="SourceAlpha" radius="1.3" result="effect5_dropShadow_211_4978"/><feOffset dy="1.4"/><feGaussianBlur stdDeviation=".2"/><feComposite in2="hardAlpha" operator="out"/><feColorMatrix values="0 0 0 0 0 0 0 0 0 0 0 0 0 0 0 0 0 0 0.25 0"/><feBlend in2="effect4_dropShadow_211_4978" result="effect5_dropShadow_211_4978"/><feColorMatrix in="SourceAlpha" result="hardAlpha" values="0 0 0 0 0 0 0 0 0 0 0 0 0 0 0 0 0 0 127 0"/><feMorphology in="SourceAlpha" radius="7.6" result="effect6_dropShadow_211_4978"/><feOffset dy="20.4"/><feGaussianBlur stdDeviation="20.4"/><feComposite in2="hardAlpha" operator="out"/><feColorMatrix values="0 0 0 0 0 0 0 0 0 0 0 0 0 0 0 0 0 0 0.075 0"/><feBlend in2="effect5_dropShadow_211_4978" mode="multiply" result="effect6_dropShadow_211_4978"/><feBlend in="SourceGraphic" in2="effect6_dropShadow_211_4978" result="shape"/></filter><filter id="M" width="7.6" height="7.6" x="1.9" y="176.3" color-interpolation-filters="sRGB" filterUnits="userSpaceOnUse"><feFlood flood-opacity="0" result="BackgroundImageFix"/><feBlend in="SourceGraphic" in2="BackgroundImageFix" result="shape"/><feGaussianBlur result="effect1_foregroundBlur_211_4978" stdDeviation=".6"/></filter><filter id="P" width="134.9" height="89.1" x="-15.3" y="115.8" color-interpolation-filters="sRGB" filterUnits="userSpaceOnUse"><feFlood flood-opacity="0" result="BackgroundImageFix"/><feColorMatrix in="SourceAlpha" result="hardAlpha" values="0 0 0 0 0 0 0 0 0 0 0 0 0 0 0 0 0 0 127 0"/><feMorphology in="SourceAlpha" radius="2.5" result="effect1_dropShadow_211_4978"/><feOffset dy="3.2"/><feGaussianBlur stdDeviation=".5"/><feComposite in2="hardAlpha" operator="out"/><feColorMatrix values="0 0 0 0 0.0313726 0 0 0 0 0.0313726 0 0 0 0 0.0313726 0 0 0 0.05 0"/><feBlend in2="BackgroundImageFix" result="effect1_dropShadow_211_4978"/><feColorMatrix in="SourceAlpha" result="hardAlpha" values="0 0 0 0 0 0 0 0 0 0 0 0 0 0 0 0 0 0 127 0"/><feMorphology in="SourceAlpha" radius="2.5" result="effect2_dropShadow_211_4978"/><feOffset dy="3.8"/><feGaussianBlur stdDeviation="1.3"/><feComposite in2="hardAlpha" operator="out"/><feColorMatrix values="0 0 0 0 0.0313726 0 0 0 0 0.0313726 0 0 0 0 0.0313726 0 0 0 0.05 0"/><feBlend in2="effect1_dropShadow_211_4978" result="effect2_dropShadow_211_4978"/><feColorMatrix in="SourceAlpha" result="hardAlpha" values="0 0 0 0 0 0 0 0 0 0 0 0 0 0 0 0 0 0 127 0"/><feOffset dy="3.8"/><feGaussianBlur stdDeviation="4.1"/><feComposite in2="hardAlpha" operator="out"/><feColorMatrix values="0 0 0 0 0.0313726 0 0 0 0 0.0313726 0 0 0 0 0.0313726 0 0 0 0.03 0"/><feBlend in2="effect2_dropShadow_211_4978" result="effect3_dropShadow_211_4978"/><feColorMatrix in="SourceAlpha" result="hardAlpha" values="0 0 0 0 0 0 0 0 0 0 0 0 0 0 0 0 0 0 127 0"/><feMorphology in="SourceAlpha" radius="10.2" result="effect4_dropShadow_211_4978"/><feOffset dy="15.3"/><feGaussianBlur stdDeviation="7.6"/><feComposite in2="hardAlpha" operator="out"/><feColorMatrix values="0 0 0 0 0.0313726 0 0 0 0 0.0313726 0 0 0 0 0.0313726 0 0 0 0.04 0"/><feBlend in2="effect3_dropShadow_211_4978" result="effect4_dropShadow_211_4978"/><feColorMatrix in="SourceAlpha" result="hardAlpha" values="0 0 0 0 0 0 0 0 0 0 0 0 0 0 0 0 0 0 127 0"/><feMorphology in="SourceAlpha" radius="1.3" result="effect5_dropShadow_211_4978"/><feOffset dy="1.4"/><feGaussianBlur stdDeviation=".2"/><feComposite in2="hardAlpha" operator="out"/><feColorMatrix values="0 0 0 0 0 0 0 0 0 0 0 0 0 0 0 0 0 0 0.25 0"/><feBlend in2="effect4_dropShadow_211_4978" result="effect5_dropShadow_211_4978"/><feColorMatrix in="SourceAlpha" result="hardAlpha" values="0 0 0 0 0 0 0 0 0 0 0 0 0 0 0 0 0 0 127 0"/><feMorphology in="SourceAlpha" radius="7.6" result="effect6_dropShadow_211_4978"/><feOffset dy="20.4"/><feGaussianBlur stdDeviation="20.4"/><feComposite in2="hardAlpha" operator="out"/><feColorMatrix values="0 0 0 0 0 0 0 0 0 0 0 0 0 0 0 0 0 0 0.075 0"/><feBlend in2="effect5_dropShadow_211_4978" mode="multiply" result="effect6_dropShadow_211_4978"/><feBlend in="SourceGraphic" in2="effect6_dropShadow_211_4978" result="shape"/></filter><filter id="R" width="7.6" height="7.6" x="27.4" y="140.6" color-interpolation-filters="sRGB" filterUnits="userSpaceOnUse"><feFlood flood-opacity="0" result="BackgroundImageFix"/><feBlend in="SourceGraphic" in2="BackgroundImageFix" result="shape"/><feGaussianBlur result="effect1_foregroundBlur_211_4978" stdDeviation=".6"/></filter><radialGradient id="q" cx="0" cy="0" r="1" gradientTransform="matrix(0 28.6364 -30.5455 0 140 111.4)" gradientUnits="userSpaceOnUse"><stop stop-color="#e2e2e2"/><stop offset="1" stop-color="#c786f7"/></radialGradient></defs></svg>