<svg xmlns="http://www.w3.org/2000/svg" fill="none" viewBox="0 0 384 372"><g clip-path="url(#a)"><foreignObject width="244.4" height="247.9" x="69.8" y="-27.9"><div xmlns="http://www.w3.org/1999/xhtml" clip-path="url(#b)" style="backdrop-filter:blur(13.96px);height:100%;width:100%"/></foreignObject><rect width="187.2" height="190.7" x="98.4" y=".7" stroke="url(#c)" stroke-width="1.3" rx="20.3"/><foreignObject width="317.7" height="153.6" x="33.2" y="-27.9"><div xmlns="http://www.w3.org/1999/xhtml" clip-path="url(#d)" style="backdrop-filter:blur(13.96px);height:100%;width:100%"/></foreignObject><rect width="260.5" height="96.4" x="61.7" y=".7" stroke="url(#e)" stroke-width="1.3" rx="20.3"/><foreignObject width="317.7" height="153.6" x="33.2" y="258.3"><div xmlns="http://www.w3.org/1999/xhtml" clip-path="url(#f)" style="backdrop-filter:blur(13.96px);height:100%;width:100%"/></foreignObject><rect width="260.5" height="96.4" x="61.7" y="286.9" stroke="url(#g)" stroke-width="1.3" rx="20.3"/><foreignObject width="244.4" height="247.9" x="69.8" y="162.3"><div xmlns="http://www.w3.org/1999/xhtml" clip-path="url(#h)" style="backdrop-filter:blur(13.96px);height:100%;width:100%"/></foreignObject><rect width="187.2" height="190.7" x=".7" y="-.7" stroke="url(#i)" stroke-width="1.3" rx="20.3" transform="matrix(1 0 0 -1 97.7 381)"/><foreignObject width="132.7" height="80.3" x="125.7" y="150.1"><div xmlns="http://www.w3.org/1999/xhtml" clip-path="url(#j)" style="backdrop-filter:blur(13.96px);height:100%;width:100%"/></foreignObject><path fill="url(#k)" d="M153.6 190.3c0-6.8 5.5-12.3 12.2-12.3h52.4a12.2 12.2 0 1 1 0 24.5h-52.4c-6.7 0-12.2-5.5-12.2-12.2"/><path stroke="url(#l)" stroke-opacity=".1" stroke-width="1.3" d="M165.8 178.7h52.4a11.6 11.6 0 0 1 0 23.1h-52.4a11.6 11.6 0 0 1 0-23.1Z"/><rect width="22.7" height="3.5" x="180.7" y="188.5" fill="#fdfdfd" rx="1.7"/><foreignObject width="142.3" height="90.8" x="121.3" y="144.9"><div xmlns="http://www.w3.org/1999/xhtml" clip-path="url(#m)" style="backdrop-filter:blur(13.96px);height:100%;width:100%"/></foreignObject><rect width="85.1" height="33.6" x="149.9" y="173.5" stroke="url(#n)" stroke-width="1.3" rx="16.8"/><foreignObject width="152.7" height="97.7" x="116.1" y="141.4"><div xmlns="http://www.w3.org/1999/xhtml" clip-path="url(#o)" style="backdrop-filter:blur(13.96px);height:100%;width:100%"/></foreignObject><rect width="95.6" height="40.6" x="144.7" y="170" stroke="url(#p)" stroke-width="1.3" rx="20.3"/><g filter="url(#q)" opacity=".5"><rect width="216.4" height="48.9" x="83.8" y="-7.9" fill="#f1f1f1" rx="10.5"/><rect width="215.1" height="47.6" x="84.4" y="-7.2" stroke="url(#r)" stroke-width="1.3" rx="9.8"/></g><foreignObject width="286.3" height="167.6" x="48.9" y="20.1"><div xmlns="http://www.w3.org/1999/xhtml" clip-path="url(#s)" style="backdrop-filter:blur(13.96px);height:100%;width:100%"/></foreignObject><path fill="url(#t)" fill-opacity=".8" stroke="url(#u)" stroke-width="1.3" d="M115.9 48.7h152.2q10.2 0 16 .3 5.9.4 9.5 2.2A24 24 0 0 1 304 61.6q1.8 3.6 2.2 9.5.4 5.8.3 16v33.5q0 10.2-.3 16-.4 5.9-2.2 9.5a24 24 0 0 1-10.4 10.4q-3.6 1.8-9.5 2.2-5.8.5-16 .4H115.9q-10.2.1-16-.4t-9.5-2.2A24 24 0 0 1 80 146q-1.8-3.6-2.2-9.5-.4-5.8-.3-16V87.1q0-10.2.3-16 .4-5.9 2.2-9.5a24 24 0 0 1 10.4-10.4Q94 49.4 100 49q5.8-.4 16-.3Z"/><g filter="url(#v)"><path fill="#f1f1f1" d="M83.8 83c0-9.9 0-14.8 1.9-18.5a18 18 0 0 1 7.6-7.6c3.7-2 8.6-2 18.4-2h160.6c9.8 0 14.7 0 18.4 2a18 18 0 0 1 7.6 7.6c2 3.7 2 8.6 2 18.4v41.9c0 9.8 0 14.7-2 18.4a18 18 0 0 1-7.6 7.6c-3.7 2-8.6 2-18.4 2H111.7c-9.8 0-14.7 0-18.4-2a18 18 0 0 1-7.6-7.6c-2-3.7-2-8.6-2-18.4z"/><path stroke="url(#w)" stroke-width="1.3" d="M111.7 55.6h160.6q7.2 0 11.4.3t6.7 1.6a17 17 0 0 1 7.3 7.3q1.4 2.5 1.6 6.7.4 4.2.3 11.4v41.9q0 7.2-.3 11.4t-1.6 6.7a17 17 0 0 1-7.3 7.3q-2.5 1.4-6.7 1.6-4.2.4-11.4.3H111.7q-7.2 0-11.4-.3t-6.7-1.6a17 17 0 0 1-7.3-7.3q-1.4-2.5-1.6-6.7-.4-4.2-.3-11.4V82.9q0-7.2.3-11.4t1.6-6.7a17 17 0 0 1 7.3-7.3q2.5-1.4 6.7-1.6 4.2-.4 11.4-.3Z"/></g><rect width="50.6" height="83.8" x="242.6" y="62" fill="#e2e2e2" fill-opacity=".5" rx="10.5"/><rect width="27.9" height="8.7" x="97.7" y="69" fill="#1b1b1b" opacity=".1" rx="1.7"/><rect width="27.9" height="3.5" x="97.7" y="84.7" fill="#1b1b1b" opacity=".1" rx="1.7"/><mask id="z" width="84" height="85" x="144" y="68" maskUnits="userSpaceOnUse" style="mask-type:alpha"><path fill="url(#x)" d="M144.9 69h82.9v83.7h-83z"/></mask><g clip-path="url(#y)" mask="url(#z)"><rect width="3.5" height="20.9" x="144.9" y="69" fill="#727272" opacity=".1" rx="1.7"/><rect width="27.9" height="3.5" x="156.2" y="74.2" fill="#1b1b1b" opacity=".1" rx="1.7"/><rect width="71.6" height="3.5" x="156.2" y="81.2" fill="#727272" opacity=".1" rx="1.7"/><rect width="3.5" height="20.9" x="144.9" y="103.9" fill="#727272" opacity=".1" rx="1.7"/><rect width="27.9" height="3.5" x="156.2" y="109.1" fill="#1b1b1b" opacity=".1" rx="1.7"/><rect width="71.6" height="3.5" x="156.2" y="116.1" fill="#727272" opacity=".1" rx="1.7"/><rect width="3.5" height="20.9" x="144.9" y="138.8" fill="#727272" opacity=".1" rx="1.7"/><rect width="27.9" height="3.5" x="156.2" y="144" fill="#1b1b1b" opacity=".1" rx="1.7"/><rect width="71.6" height="3.5" x="156.2" y="151" fill="#727272" opacity=".1" rx="1.7"/></g><foreignObject width="286.3" height="167.6" x="48.9" y="192.9"><div xmlns="http://www.w3.org/1999/xhtml" clip-path="url(#A)" style="backdrop-filter:blur(13.96px);height:100%;width:100%"/></foreignObject><path fill="url(#B)" fill-opacity=".8" stroke="url(#D)" stroke-width="1.3" d="M115.9 221.5h152.2q10.2 0 16 .3 5.9.4 9.5 2.2a24 24 0 0 1 10.4 10.4q1.8 3.6 2.2 9.5.4 5.8.3 16v33.5q0 10.2-.3 16-.4 5.9-2.2 9.5a24 24 0 0 1-10.4 10.4q-3.6 1.8-9.5 2.2-5.8.5-16 .4H115.9q-10.2.1-16-.4t-9.5-2.2A24 24 0 0 1 80 318.9q-1.8-3.6-2.2-9.5-.4-5.8-.3-16V260q0-10.2.3-16 .4-5.9 2.2-9.5A24 24 0 0 1 90.4 224q3.6-1.8 9.5-2.2 5.8-.4 16-.3Z"/><g filter="url(#E)"><path fill="#f1f1f1" d="M83.8 255.7c0-9.8 0-14.7 1.9-18.4a18 18 0 0 1 7.6-7.6c3.7-2 8.6-2 18.4-2h160.6c9.8 0 14.7 0 18.4 2a18 18 0 0 1 7.6 7.6c2 3.7 2 8.6 2 18.4v41.9c0 9.8 0 14.7-2 18.4a18 18 0 0 1-7.6 7.6c-3.7 2-8.6 2-18.4 2H111.7c-9.8 0-14.7 0-18.4-2a18 18 0 0 1-7.6-7.6c-2-3.7-2-8.6-2-18.4z"/><path stroke="url(#F)" stroke-width="1.3" d="M111.7 228.4h160.6q7.2 0 11.4.3t6.7 1.6a17 17 0 0 1 7.3 7.3q1.4 2.5 1.6 6.7.4 4.2.3 11.4v41.9q0 7.2-.3 11.4t-1.6 6.7a17 17 0 0 1-7.3 7.3q-2.5 1.4-6.7 1.6-4.2.4-11.4.3H111.7q-7.2 0-11.4-.3t-6.7-1.6a17 17 0 0 1-7.3-7.3q-1.4-2.5-1.6-6.7-.4-4.2-.3-11.4v-41.9q0-7.2.3-11.4t1.6-6.7a17 17 0 0 1 7.3-7.3q2.5-1.4 6.7-1.6 4.2-.4 11.4-.3Z"/></g><rect width="32.3" height="8.7" x="97.7" y="241.7" fill="#1b1b1b" opacity=".1" rx="1.7"/><mask id="H" width="218" height="59" x="83" y="266" maskUnits="userSpaceOnUse" style="mask-type:alpha"><path fill="url(#G)" d="M83.8 266.2h216.4v58.5H83.8z"/></mask><g mask="url(#H)"><rect width="8.7" height="8.7" x="97.7" y="267.8" fill="#1b1b1b" opacity=".1" rx="1.7"/><rect width="27.9" height="3.5" x="116.9" y="266.9" fill="#1b1b1b" opacity=".1" rx="1.7"/><rect width="71.6" height="3.5" x="116.9" y="273.9" fill="#727272" opacity=".1" rx="1.7"/><rect width="42" height="12" x="244.3" y="266.2" fill="#fdfdfd" rx="3.5"/><rect width="41.1" height="11.1" x="244.7" y="266.6" stroke="#2d68ff" stroke-opacity=".1" stroke-width=".9" rx="3.1"/><rect width="8.7" height="8.7" x="97.7" y="290.5" fill="#1b1b1b" opacity=".1" rx="1.7"/><rect width="27.9" height="3.5" x="116.9" y="289.6" fill="#1b1b1b" opacity=".1" rx="1.7"/><rect width="71.6" height="3.5" x="116.9" y="296.6" fill="#727272" opacity=".1" rx="1.7"/><rect width="24" height="12" x="262.3" y="288.9" fill="#fdfdfd" rx="3.5"/><rect width="23.1" height="11.1" x="262.7" y="289.3" stroke="#00a656" stroke-opacity=".1" stroke-width=".9" rx="3.1"/><rect width="8.7" height="8.7" x="97.7" y="313.2" fill="#1b1b1b" opacity=".1" rx="1.7"/><rect width="27.9" height="3.5" x="116.9" y="312.3" fill="#1b1b1b" opacity=".1" rx="1.7"/><rect width="71.6" height="3.5" x="116.9" y="319.3" fill="#727272" opacity=".1" rx="1.7"/><rect width="42" height="12" x="244.3" y="311.6" fill="#fdfdfd" rx="3.5"/><rect width="41.1" height="11.1" x="244.7" y="312" stroke="#2d68ff" stroke-opacity=".1" stroke-width=".9" rx="3.1"/></g><g opacity=".5"><mask id="K" width="218" height="45" x="83" y="339" maskUnits="userSpaceOnUse" style="mask-type:alpha"><path fill="url(#I)" d="M83.8 339.5h216.4V383H83.8z"/></mask><g filter="url(#J)" mask="url(#K)"><rect width="216.4" height="48.9" x="83.8" y="339.5" fill="#f1f1f1" rx="10.5"/><rect width="215.1" height="47.6" x="84.4" y="340.1" stroke="url(#L)" stroke-width="1.3" rx="9.8"/></g></g><rect width="36.7" height="36.7" x="35.8" y="173.7" fill="url(#M)" rx="18.3"/><rect width="35.3" height="35.3" x="36.4" y="174.3" stroke="#a8a8a8" stroke-opacity=".1" stroke-width="1.3" rx="17.7"/><path stroke="#fdfdfd" stroke-linecap="square" stroke-linejoin="round" stroke-width="1.3" d="M47 188.3h14.3m-11.8 10.9h9.2a2.6 2.6 0 0 0 2.6-2.6v-9.2a2.6 2.6 0 0 0-2.6-2.6h-9.2a2.6 2.6 0 0 0-2.6 2.6v9.2a2.6 2.6 0 0 0 2.6 2.6Z"/><path fill="#fdfdfd" d="M49.7 192a.9.9 0 1 1 1.8 0 .9.9 0 0 1-1.8 0m0 3.5a.9.9 0 1 1 1.8 0 .9.9 0 0 1-1.8 0m3.5 0a.9.9 0 1 1 1.8 0 .9.9 0 0 1-1.8 0m0-3.5a.9.9 0 1 1 1.8 0 .9.9 0 0 1-1.8 0m3.5 0a.9.9 0 1 1 1.8 0 .9.9 0 0 1-1.8 0"/><foreignObject width="106.5" height="106.5" x=".9" y="138.8"><div xmlns="http://www.w3.org/1999/xhtml" clip-path="url(#N)" style="backdrop-filter:blur(13.96px);height:100%;width:100%"/></foreignObject><rect width="49.3" height="49.3" x="29.5" y="167.3" stroke="url(#O)" stroke-width="1.3" rx="24.7"/><rect width="36.7" height="36.7" x="312.4" y="173.7" fill="url(#P)" rx="18.3"/><rect width="35.3" height="35.3" x="313.1" y="174.3" stroke="#a8a8a8" stroke-opacity=".1" stroke-width="1.3" rx="17.7"/><path stroke="#fdfdfd" stroke-linecap="round" stroke-linejoin="round" stroke-width="1.3" d="M330.8 184.8v7.2m0 0v7.2m0-7.2h-7.2m7.2 0h7.2"/><foreignObject width="106.5" height="106.5" x="277.5" y="138.8"><div xmlns="http://www.w3.org/1999/xhtml" clip-path="url(#Q)" style="backdrop-filter:blur(13.96px);height:100%;width:100%"/></foreignObject><rect width="49.3" height="49.3" x="306.1" y="167.3" stroke="url(#R)" stroke-width="1.3" rx="24.7"/><path stroke="#d9d9d9" stroke-width="1.3" d="M0 192h28.8m325.5 0H384"/><circle cx="31" cy="71.1" r="2.2" fill="url(#S)"/><circle cx="31.4" cy="273.2" r="3.5" fill="url(#T)"/><circle cx="345.6" cy="314.2" r="3.5" fill="url(#U)"/><circle cx="356.1" cy="48" r="1.7" fill="url(#V)"/><circle cx="332.5" cy="264.4" r="1.7" fill="url(#W)"/><circle cx="62" cy="138.8" r="3.5" fill="url(#X)"/></g><defs><linearGradient id="c" x1="192" x2="192" y1="0" y2="192" gradientUnits="userSpaceOnUse"><stop stop-color="#e2e2e2" stop-opacity="0"/><stop offset="1" stop-color="#e2e2e2"/></linearGradient><linearGradient id="e" x1="192" x2="192" y1="0" y2="97.7" gradientUnits="userSpaceOnUse"><stop stop-color="#e2e2e2" stop-opacity="0"/><stop offset="1" stop-color="#e2e2e2"/></linearGradient><linearGradient id="g" x1="192" x2="192" y1="286.3" y2="384" gradientUnits="userSpaceOnUse"><stop stop-color="#e2e2e2" stop-opacity="0"/><stop offset="1" stop-color="#e2e2e2"/></linearGradient><linearGradient id="i" x1="94.3" x2="94.3" y1="0" y2="192" gradientUnits="userSpaceOnUse"><stop stop-color="#e2e2e2" stop-opacity="0"/><stop offset="1" stop-color="#e2e2e2"/></linearGradient><linearGradient id="l" x1="192" x2="192" y1="178" y2="202.5" gradientUnits="userSpaceOnUse"><stop stop-color="#e2e2e2"/><stop offset="1" stop-color="#e2e2e2" stop-opacity="0"/></linearGradient><linearGradient id="n" x1="192.4" x2="192.4" y1="172.8" y2="207.7" gradientUnits="userSpaceOnUse"><stop stop-color="#e2e2e2" stop-opacity="0"/><stop offset="1" stop-color="#e2e2e2"/></linearGradient><linearGradient id="p" x1="192.4" x2="192.4" y1="169.3" y2="211.2" gradientUnits="userSpaceOnUse"><stop stop-color="#e2e2e2" stop-opacity="0"/><stop offset="1" stop-color="#e2e2e2"/></linearGradient><linearGradient id="r" x1="192" x2="192" y1="-7.9" y2="41" gradientUnits="userSpaceOnUse"><stop stop-color="#f6f6f6"/><stop offset="1" stop-color="#e6e6e6"/></linearGradient><linearGradient id="t" x1="192" x2="192" y1="48" y2="159.7" gradientUnits="userSpaceOnUse"><stop stop-color="#fdfdfd" stop-opacity=".3"/><stop offset="1" stop-color="#fdfdfd"/></linearGradient><linearGradient id="u" x1="192" x2="192" y1="48" y2="159.7" gradientUnits="userSpaceOnUse"><stop stop-color="#e2e2e2"/><stop offset="1" stop-color="#e2e2e2" stop-opacity=".8"/></linearGradient><linearGradient id="w" x1="192" x2="192" y1="55" y2="152.7" gradientUnits="userSpaceOnUse"><stop stop-color="#f6f6f6"/><stop offset="1" stop-color="#e6e6e6"/></linearGradient><linearGradient id="x" x1="186.3" x2="186.3" y1="69" y2="152.7" gradientUnits="userSpaceOnUse"><stop/><stop offset="1" stop-opacity="0"/></linearGradient><linearGradient id="B" x1="192" x2="192" y1="220.8" y2="332.5" gradientUnits="userSpaceOnUse"><stop stop-color="#fdfdfd" stop-opacity=".3"/><stop offset="1" stop-color="#fdfdfd"/></linearGradient><linearGradient id="D" x1="192" x2="192" y1="220.8" y2="332.5" gradientUnits="userSpaceOnUse"><stop stop-color="#e2e2e2"/><stop offset="1" stop-color="#e2e2e2" stop-opacity=".8"/></linearGradient><linearGradient id="F" x1="192" x2="192" y1="227.8" y2="325.5" gradientUnits="userSpaceOnUse"><stop stop-color="#f6f6f6"/><stop offset="1" stop-color="#e6e6e6"/></linearGradient><linearGradient id="G" x1="192" x2="192" y1="266.2" y2="324.7" gradientUnits="userSpaceOnUse"><stop/><stop offset="1" stop-opacity="0"/></linearGradient><linearGradient id="I" x1="192" x2="192" y1="339.5" y2="383.1" gradientUnits="userSpaceOnUse"><stop offset=".7"/><stop offset="1" stop-opacity="0"/></linearGradient><linearGradient id="L" x1="192" x2="192" y1="339.5" y2="388.4" gradientUnits="userSpaceOnUse"><stop stop-color="#f6f6f6"/><stop offset="1" stop-color="#e6e6e6"/></linearGradient><linearGradient id="M" x1="54.1" x2="54.1" y1="163.7" y2="220.3" gradientUnits="userSpaceOnUse"><stop stop-color="#ebebeb"/><stop offset="1" stop-color="#737e87"/></linearGradient><linearGradient id="O" x1="54.1" x2="54.1" y1="166.7" y2="217.3" gradientUnits="userSpaceOnUse"><stop stop-color="#e2e2e2"/><stop offset="1" stop-color="#e2e2e2" stop-opacity="0"/></linearGradient><linearGradient id="P" x1="330.8" x2="330.8" y1="163.7" y2="220.3" gradientUnits="userSpaceOnUse"><stop stop-color="#ebebeb"/><stop offset="1" stop-color="#737e87"/></linearGradient><linearGradient id="R" x1="330.8" x2="330.8" y1="166.7" y2="217.3" gradientUnits="userSpaceOnUse"><stop stop-color="#e2e2e2"/><stop offset="1" stop-color="#e2e2e2" stop-opacity="0"/></linearGradient><linearGradient id="S" x1="32.5" x2="30" y1="67.9" y2="73.7" gradientUnits="userSpaceOnUse"><stop stop-color="#f5f5f5"/><stop offset="1" stop-color="#cecece"/></linearGradient><linearGradient id="T" x1="33.8" x2="29.9" y1="267.9" y2="277.3" gradientUnits="userSpaceOnUse"><stop stop-color="#f5f5f5"/><stop offset="1" stop-color="#cecece"/></linearGradient><linearGradient id="U" x1="348" x2="344.1" y1="308.9" y2="318.3" gradientUnits="userSpaceOnUse"><stop stop-color="#f5f5f5"/><stop offset="1" stop-color="#cecece"/></linearGradient><linearGradient id="V" x1="357.3" x2="355.3" y1="45.4" y2="50.1" gradientUnits="userSpaceOnUse"><stop stop-color="#f5f5f5"/><stop offset="1" stop-color="#cecece"/></linearGradient><linearGradient id="W" x1="333.7" x2="331.7" y1="261.8" y2="266.5" gradientUnits="userSpaceOnUse"><stop stop-color="#f5f5f5"/><stop offset="1" stop-color="#cecece"/></linearGradient><linearGradient id="X" x1="64.4" x2="60.4" y1="133.5" y2="142.9" gradientUnits="userSpaceOnUse"><stop stop-color="#f5f5f5"/><stop offset="1" stop-color="#cecece"/></linearGradient><clipPath id="b" transform="translate(-69.8 28)"><rect width="187.2" height="190.7" x="98.4" y=".7" rx="20.3"/></clipPath><clipPath id="d" transform="translate(-33.2 28)"><rect width="260.5" height="96.4" x="61.7" y=".7" rx="20.3"/></clipPath><clipPath id="f" transform="translate(-33.2 -258.3)"><rect width="260.5" height="96.4" x="61.7" y="286.9" rx="20.3"/></clipPath><clipPath id="h" transform="translate(-69.8 -162.3)"><rect width="187.2" height="190.7" x=".7" y="-.7" rx="20.3" transform="matrix(1 0 0 -1 97.7 381)"/></clipPath><clipPath id="j" transform="translate(-125.7 -150.1)"><path d="M153.6 190.3c0-6.8 5.5-12.3 12.2-12.3h52.4a12.2 12.2 0 1 1 0 24.5h-52.4c-6.7 0-12.2-5.5-12.2-12.2"/></clipPath><clipPath id="m" transform="translate(-121.3 -144.9)"><rect width="85.1" height="33.6" x="149.9" y="173.5" rx="16.8"/></clipPath><clipPath id="o" transform="translate(-116 -141.4)"><rect width="95.6" height="40.6" x="144.7" y="170" rx="20.3"/></clipPath><clipPath id="s" transform="translate(-48.9 -20)"><path d="M115.9 48.7h152.2q10.2 0 16 .3 5.9.4 9.5 2.2A24 24 0 0 1 304 61.6q1.8 3.6 2.2 9.5.4 5.8.3 16v33.5q0 10.2-.3 16-.4 5.9-2.2 9.5a24 24 0 0 1-10.4 10.4q-3.6 1.8-9.5 2.2-5.8.5-16 .4H115.9q-10.2.1-16-.4t-9.5-2.2A24 24 0 0 1 80 146q-1.8-3.6-2.2-9.5-.4-5.8-.3-16V87.1q0-10.2.3-16 .4-5.9 2.2-9.5a24 24 0 0 1 10.4-10.4Q94 49.4 100 49q5.8-.4 16-.3"/></clipPath><clipPath id="A" transform="translate(-48.9 -192.9)"><path d="M115.9 221.5h152.2q10.2 0 16 .3 5.9.4 9.5 2.2a24 24 0 0 1 10.4 10.4q1.8 3.6 2.2 9.5.4 5.8.3 16v33.5q0 10.2-.3 16-.4 5.9-2.2 9.5a24 24 0 0 1-10.4 10.4q-3.6 1.8-9.5 2.2-5.8.5-16 .4H115.9q-10.2.1-16-.4t-9.5-2.2A24 24 0 0 1 80 318.9q-1.8-3.6-2.2-9.5-.4-5.8-.3-16V260q0-10.2.3-16 .4-5.9 2.2-9.5A24 24 0 0 1 90.4 224q3.6-1.8 9.5-2.2 5.8-.4 16-.3"/></clipPath><clipPath id="N" transform="translate(-.9 -138.8)"><rect width="49.3" height="49.3" x="29.5" y="167.3" rx="24.7"/></clipPath><clipPath id="Q" transform="translate(-277.5 -138.8)"><rect width="49.3" height="49.3" x="306.1" y="167.3" rx="24.7"/></clipPath><clipPath id="a"><path fill="#fff" d="M0 44.7C0 29 0 21.2 3 15.2A28 28 0 0 1 15.2 3c6-3 13.8-3 29.5-3h294.6c15.7 0 23.5 0 29.5 3A28 28 0 0 1 381 15.2c3 6 3 13.8 3 29.5v294.6c0 15.7 0 23.5-3 29.5a28 28 0 0 1-12.2 12.2c-6 3-13.8 3-29.5 3H44.7c-15.7 0-23.5 0-29.5-3A28 28 0 0 1 3 368.8c-3-6-3-13.8-3-29.5z"/></clipPath><clipPath id="y"><path fill="#fff" d="M144.9 69h82.9v90.7h-83z"/></clipPath><filter id="q" width="307.2" height="139.6" x="38.4" y="-25.3" color-interpolation-filters="sRGB" filterUnits="userSpaceOnUse"><feFlood flood-opacity="0" result="BackgroundImageFix"/><feColorMatrix in="SourceAlpha" result="hardAlpha" values="0 0 0 0 0 0 0 0 0 0 0 0 0 0 0 0 0 0 127 0"/><feMorphology in="SourceAlpha" radius="3.5" result="effect1_dropShadow_211_5060"/><feOffset dy="4.4"/><feGaussianBlur stdDeviation=".7"/><feComposite in2="hardAlpha" operator="out"/><feColorMatrix values="0 0 0 0 0.0313726 0 0 0 0 0.0313726 0 0 0 0 0.0313726 0 0 0 0.05 0"/><feBlend in2="BackgroundImageFix" result="effect1_dropShadow_211_5060"/><feColorMatrix in="SourceAlpha" result="hardAlpha" values="0 0 0 0 0 0 0 0 0 0 0 0 0 0 0 0 0 0 127 0"/><feMorphology in="SourceAlpha" radius="3.5" result="effect2_dropShadow_211_5060"/><feOffset dy="5.2"/><feGaussianBlur stdDeviation="1.7"/><feComposite in2="hardAlpha" operator="out"/><feColorMatrix values="0 0 0 0 0.0313726 0 0 0 0 0.0313726 0 0 0 0 0.0313726 0 0 0 0.05 0"/><feBlend in2="effect1_dropShadow_211_5060" result="effect2_dropShadow_211_5060"/><feColorMatrix in="SourceAlpha" result="hardAlpha" values="0 0 0 0 0 0 0 0 0 0 0 0 0 0 0 0 0 0 127 0"/><feOffset dy="5.2"/><feGaussianBlur stdDeviation="5.7"/><feComposite in2="hardAlpha" operator="out"/><feColorMatrix values="0 0 0 0 0.0313726 0 0 0 0 0.0313726 0 0 0 0 0.0313726 0 0 0 0.03 0"/><feBlend in2="effect2_dropShadow_211_5060" result="effect3_dropShadow_211_5060"/><feColorMatrix in="SourceAlpha" result="hardAlpha" values="0 0 0 0 0 0 0 0 0 0 0 0 0 0 0 0 0 0 127 0"/><feMorphology in="SourceAlpha" radius="14" result="effect4_dropShadow_211_5060"/><feOffset dy="20.9"/><feGaussianBlur stdDeviation="10.5"/><feComposite in2="hardAlpha" operator="out"/><feColorMatrix values="0 0 0 0 0.0313726 0 0 0 0 0.0313726 0 0 0 0 0.0313726 0 0 0 0.04 0"/><feBlend in2="effect3_dropShadow_211_5060" result="effect4_dropShadow_211_5060"/><feBlend in="SourceGraphic" in2="effect4_dropShadow_211_5060" result="shape"/></filter><filter id="v" width="307.2" height="188.5" x="38.4" y="37.5" color-interpolation-filters="sRGB" filterUnits="userSpaceOnUse"><feFlood flood-opacity="0" result="BackgroundImageFix"/><feColorMatrix in="SourceAlpha" result="hardAlpha" values="0 0 0 0 0 0 0 0 0 0 0 0 0 0 0 0 0 0 127 0"/><feOffset dy="20.9"/><feGaussianBlur stdDeviation="10.5"/><feComposite in2="hardAlpha" operator="out"/><feColorMatrix values="0 0 0 0 0.0313726 0 0 0 0 0.0313726 0 0 0 0 0.0313726 0 0 0 0.04 0"/><feBlend in2="BackgroundImageFix" result="effect4_dropShadow_211_5060"/><feBlend in="SourceGraphic" in2="effect4_dropShadow_211_5060" result="shape"/></filter><filter id="E" width="307.2" height="188.5" x="38.4" y="210.3" color-interpolation-filters="sRGB" filterUnits="userSpaceOnUse"><feFlood flood-opacity="0" result="BackgroundImageFix"/><feColorMatrix in="SourceAlpha" result="hardAlpha" values="0 0 0 0 0 0 0 0 0 0 0 0 0 0 0 0 0 0 127 0"/><feOffset dy="20.9"/><feGaussianBlur stdDeviation="10.5"/><feComposite in2="hardAlpha" operator="out"/><feColorMatrix values="0 0 0 0 0.0313726 0 0 0 0 0.0313726 0 0 0 0 0.0313726 0 0 0 0.04 0"/><feBlend in2="BackgroundImageFix" result="effect4_dropShadow_211_5060"/><feBlend in="SourceGraphic" in2="effect4_dropShadow_211_5060" result="shape"/></filter><filter id="J" width="307.2" height="139.6" x="38.4" y="322" color-interpolation-filters="sRGB" filterUnits="userSpaceOnUse"><feFlood flood-opacity="0" result="BackgroundImageFix"/><feColorMatrix in="SourceAlpha" result="hardAlpha" values="0 0 0 0 0 0 0 0 0 0 0 0 0 0 0 0 0 0 127 0"/><feOffset dy="5.2"/><feGaussianBlur stdDeviation="1.7"/><feComposite in2="hardAlpha" operator="out"/><feColorMatrix values="0 0 0 0 0.0313726 0 0 0 0 0.0313726 0 0 0 0 0.0313726 0 0 0 0.05 0"/><feBlend in2="BackgroundImageFix" result="effect2_dropShadow_211_5060"/><feBlend in="SourceGraphic" in2="effect2_dropShadow_211_5060" result="shape"/></filter><radialGradient id="k" cx="0" cy="0" r="1" gradientTransform="rotate(74.3 -29.6 221.9)scale(25.3174 79.569)" gradientUnits="userSpaceOnUse"><stop stop-color="#4b28ff"/><stop offset="1" stop-color="#fff"/></radialGradient></defs></svg>