<svg xmlns="http://www.w3.org/2000/svg" width="384" height="384" fill="none" viewBox="0 0 384 384"><g clip-path="url(#a)"><foreignObject width="272.291" height="190.255" x="55.855" y="191.999"><div xmlns="http://www.w3.org/1999/xhtml" style="backdrop-filter:blur(13.96px);clip-path:url(#b);height:100%;width:100%"/></foreignObject><rect width="216.436" height="134.4" x="83.782" y="219.927" fill="#fdfdfd" fill-opacity=".5" data-figma-bg-blur-radius="27.927" rx="13.964"/><g filter="url(#c)" opacity=".5" style="mix-blend-mode:multiply"><rect width="192" height="22.691" x="96" y="324.655" fill="#000" fill-opacity=".3" rx="11.345"/></g><foreignObject width="300.218" height="190.255" x="41.891" y="171.054"><div xmlns="http://www.w3.org/1999/xhtml" style="backdrop-filter:blur(13.96px);clip-path:url(#d);height:100%;width:100%"/></foreignObject><rect width="244.364" height="134.4" x="69.818" y="198.981" fill="#fdfdfd" fill-opacity=".5" data-figma-bg-blur-radius="27.927" rx="13.964"/><g filter="url(#e)" opacity=".5" style="mix-blend-mode:multiply"><rect width="272.291" height="94.254" x="55.855" y="225.163" fill="#000" fill-opacity=".3" rx="13.964"/></g><foreignObject width="342.109" height="209.454" x="20.945" y="130.912"><div xmlns="http://www.w3.org/1999/xhtml" style="backdrop-filter:blur(13.96px);clip-path:url(#f);height:100%;width:100%"/></foreignObject><path fill="url(#g)" fill-opacity=".75" stroke="url(#h)" stroke-width="1.309" d="M87.971 159.493H296.03c6.854 0 11.955.001 15.997.331 4.034.33 6.956.985 9.462 2.262a23.78 23.78 0 0 1 10.393 10.393c1.276 2.505 1.932 5.427 2.261 9.461.331 4.042.33 9.144.33 15.998v75.403c0 6.853.001 11.954-.33 15.996-.329 4.034-.985 6.956-2.261 9.462a23.78 23.78 0 0 1-10.393 10.393c-2.506 1.277-5.429 1.932-9.463 2.261-4.042.33-9.143.331-15.996.331H87.971c-6.854 0-11.955-.001-15.997-.331-4.034-.329-6.956-.984-9.461-2.261a23.78 23.78 0 0 1-10.393-10.393c-1.277-2.506-1.932-5.428-2.262-9.462-.33-4.042-.33-9.143-.33-15.996v-75.403c0-6.854 0-11.956.33-15.998.33-4.034.985-6.956 2.262-9.461a23.78 23.78 0 0 1 10.393-10.393c2.505-1.277 5.427-1.932 9.461-2.262 4.042-.33 9.144-.331 15.997-.331Z" data-figma-bg-blur-radius="27.927"/><g filter="url(#i)"><path fill="#f1f1f1" d="M55.855 193.748c0-9.776 0-14.664 1.902-18.397a17.45 17.45 0 0 1 7.628-7.628c3.734-1.903 8.621-1.903 18.397-1.903h216.436c9.776 0 14.664 0 18.397 1.903a17.44 17.44 0 0 1 7.628 7.628c1.903 3.733 1.903 8.621 1.903 18.397v83.781c0 9.776 0 14.664-1.903 18.397a17.44 17.44 0 0 1-7.628 7.628c-3.733 1.903-8.621 1.903-18.397 1.903H83.782c-9.775 0-14.663 0-18.397-1.903a17.45 17.45 0 0 1-7.628-7.628c-1.902-3.733-1.902-8.621-1.902-18.397z"/><path stroke="url(#j)" stroke-width="1.309" d="M83.783 166.475h216.435c4.899 0 8.533.001 11.411.236 2.87.234 4.93.698 6.69 1.595a16.8 16.8 0 0 1 7.341 7.341c.897 1.76 1.361 3.82 1.595 6.69.235 2.878.236 6.513.236 11.411v83.781c0 4.899-.001 8.534-.236 11.411-.234 2.87-.698 4.93-1.595 6.689a16.8 16.8 0 0 1-7.341 7.342c-1.76.896-3.82 1.361-6.69 1.595-2.878.236-6.512.236-11.411.236H83.782c-4.898 0-8.533 0-11.41-.236-2.87-.234-4.93-.699-6.69-1.595a16.8 16.8 0 0 1-7.342-7.342c-.896-1.759-1.36-3.819-1.595-6.689-.235-2.877-.236-6.512-.236-11.411v-83.781c0-4.898.001-8.533.236-11.411.235-2.87.699-4.93 1.595-6.69a16.8 16.8 0 0 1 7.342-7.341c1.76-.897 3.82-1.361 6.69-1.595 2.877-.235 6.512-.236 11.41-.236Z"/></g><path fill="#727272" d="M70.585 292.002v-3.823h.712l1.115 3.179-.026-.361q-.015-.21-.026-.435-.005-.225-.005-.408v-1.975h.523v3.823h-.712l-1.11-3.179q.01.137.021.341.016.204.021.424.01.22.01.408v2.006zm4.182.047a1.3 1.3 0 0 1-.618-.136.96.96 0 0 1-.403-.388 1.2 1.2 0 0 1-.142-.591v-.744q0-.345.142-.592a.96.96 0 0 1 .403-.387 1.3 1.3 0 0 1 .618-.136q.355 0 .618.136.261.137.403.387.141.247.141.592v.744q0 .34-.141.591a.96.96 0 0 1-.403.388 1.3 1.3 0 0 1-.618.136m0-.497q.288 0 .445-.157.157-.163.157-.461v-.744q0-.303-.157-.461-.157-.156-.445-.157a.62.62 0 0 0-.445.157q-.157.158-.157.461v.744q0 .298.157.461a.62.62 0 0 0 .445.157m2.663.45-.953-2.88h.576l.592 1.843q.057.162.1.33.045.162.067.257l.068-.257.095-.33.58-1.843h.572l-.953 2.88zm5.327 0v-.503h1.015v-2.827l-1.02.759v-.613l.874-.639h.712v3.32h.822v.503zm4.14.052q-.497 0-.807-.251a.96.96 0 0 1-.346-.686h.56a.46.46 0 0 0 .179.325q.151.115.419.115.299 0 .45-.157.157-.163.157-.451v-.371q0-.294-.152-.451-.15-.162-.45-.162a.6.6 0 0 0-.325.089.5.5 0 0 0-.199.236h-.56l.026-2.111h2.084v.514H86.39l-.01 1.188h.146l-.152.136q0-.246.194-.387t.518-.142q.466 0 .723.288.261.283.261.802v.371q0 .508-.309.807-.307.298-.864.298m58.82-.052v-3.823h1.068q.376 0 .654.147.277.141.43.403.157.262.157.618v1.482q0 .351-.157.618a1.05 1.05 0 0 1-.43.414 1.4 1.4 0 0 1-.654.141zm.565-.513h.503q.314 0 .492-.173.183-.178.183-.487v-1.482q0-.303-.183-.476-.178-.178-.492-.178h-.503zm3.606.565a1.34 1.34 0 0 1-.618-.136 1 1 0 0 1-.403-.393 1.2 1.2 0 0 1-.142-.586v-.754q0-.34.142-.587a.96.96 0 0 1 .403-.387q.267-.141.618-.141.356 0 .618.141.261.137.403.387.141.247.141.587v.513h-1.78v.241q0 .32.157.487.162.168.466.168a.8.8 0 0 0 .398-.084.4.4 0 0 0 .189-.257h.56a.88.88 0 0 1-.377.587q-.315.214-.775.214m.618-1.696v-.178q0-.315-.157-.487-.158-.173-.461-.173-.299 0-.461.173-.157.173-.157.492v.131l1.278-.005zm2.438 1.696q-.356 0-.628-.131a1 1 0 0 1-.414-.387 1.2 1.2 0 0 1-.142-.597v-.754q0-.345.142-.597a.95.95 0 0 1 .414-.382q.272-.136.628-.136.518 0 .832.272.315.272.33.743h-.565a.53.53 0 0 0-.173-.382.62.62 0 0 0-.424-.136q-.288 0-.456.162-.167.157-.167.451v.759q0 .292.167.456.168.162.456.162a.63.63 0 0 0 .424-.136.53.53 0 0 0 .173-.383h.565q-.015.472-.33.744-.314.273-.832.272m4.934-.052v-.503h1.016v-2.827l-1.022.759v-.613l.875-.639h.712v3.32h.822v.503zm4.14.052q-.498 0-.807-.251a.96.96 0 0 1-.345-.686h.56a.46.46 0 0 0 .178.325q.152.115.419.115.299 0 .45-.157.157-.163.157-.451v-.371q0-.294-.152-.451-.151-.162-.45-.162a.6.6 0 0 0-.325.089.5.5 0 0 0-.199.236h-.56l.026-2.111h2.084v.514h-1.544l-.011 1.188h.147l-.152.136q0-.246.194-.387t.518-.142q.466 0 .723.288.261.283.262.802v.371q0 .508-.309.807-.309.298-.864.298m59.799 0q-.566 0-.89-.314t-.325-.853h.561q0 .319.172.497.174.173.482.173.31 0 .482-.173.173-.178.173-.492v-2.194h-.901v-.519h1.461v2.713q0 .539-.33.853-.324.309-.885.309m2.904 0q-.45 0-.712-.23-.256-.235-.256-.639 0-.408.272-.639.278-.235.759-.235h.801v-.267a.47.47 0 0 0-.146-.367q-.147-.13-.414-.131a.7.7 0 0 0-.393.105.38.38 0 0 0-.183.267h-.555a.87.87 0 0 1 .356-.618q.314-.23.791-.23.513 0 .811.261.299.256.299.702v1.969h-.55v-.529h-.094l.094-.105q0 .315-.241.503-.24.183-.639.183m.168-.434a.8.8 0 0 0 .497-.152.49.49 0 0 0 .199-.398v-.377h-.79a.5.5 0 0 0-.351.12.44.44 0 0 0-.126.33.44.44 0 0 0 .152.351q.152.126.419.126m2.024.382v-2.88h.561v.55h.136l-.136.131q0-.346.204-.54.204-.193.565-.193.43 0 .686.277.257.273.257.738v1.917h-.566v-1.854q0-.282-.152-.434a.56.56 0 0 0-.413-.152.56.56 0 0 0-.424.162q-.153.157-.152.461v1.817zm6.086 0v-.503h1.016v-2.827l-1.021.759v-.613l.874-.639h.712v3.32h.823v.503zm4.14.052q-.497 0-.806-.251a.96.96 0 0 1-.346-.686h.56q.027.21.178.325a.7.7 0 0 0 .419.115q.298 0 .451-.157.157-.163.157-.451v-.371q0-.294-.152-.451-.152-.162-.451-.162a.6.6 0 0 0-.324.089.5.5 0 0 0-.199.236h-.56l.026-2.111h2.084v.514h-1.545l-.01 1.188h.146l-.152.136q0-.246.194-.387t.518-.142q.466 0 .723.288.262.283.262.802v.371q0 .508-.309.807-.309.298-.864.298m58.846-.052v-3.828h2.31v.524h-1.76v1.141h1.624v.524h-1.613v1.639zm4.146.052a1.34 1.34 0 0 1-.618-.136 1 1 0 0 1-.404-.393 1.2 1.2 0 0 1-.141-.586v-.754q0-.34.141-.587a.97.97 0 0 1 .404-.387q.267-.141.618-.141.356 0 .617.141.262.137.404.387.141.247.141.587v.513h-1.78v.241q0 .32.157.487.162.168.466.168a.8.8 0 0 0 .398-.084.38.38 0 0 0 .188-.257h.561a.88.88 0 0 1-.377.587q-.315.214-.775.214m.617-1.696v-.178q0-.315-.157-.487-.157-.173-.46-.173-.299 0-.461.173-.157.173-.157.492v.131l1.277-.005zm2.622 1.696q-.356 0-.566-.193-.209-.2-.209-.54l.12.131h-.12v.55h-.56v-3.823h.565v.823l-.016.67h.131l-.12.131q0-.34.209-.534.215-.2.566-.199.435 0 .696.293.262.293.262.796v.811q0 .498-.262.791-.261.293-.696.293m-.194-.492q.277 0 .435-.157.156-.163.157-.466v-.754q0-.304-.157-.461-.158-.162-.435-.162a.56.56 0 0 0-.424.167q-.152.163-.152.456v.754q0 .293.152.461a.56.56 0 0 0 .424.162m4.944.44v-.503h1.016v-2.827l-1.021.759v-.613l.875-.639h.712v3.32h.822v.503zm4.14.052q-.497 0-.806-.251a.96.96 0 0 1-.346-.686h.561q.025.21.178.325.151.115.419.115.299 0 .45-.157.157-.163.157-.451v-.371q0-.294-.152-.451-.151-.162-.45-.162a.6.6 0 0 0-.325.089.5.5 0 0 0-.199.236h-.56l.026-2.111h2.084v.514h-1.545l-.01 1.188h.147l-.152.136q0-.246.193-.387.194-.142.519-.142.465 0 .722.288.262.283.262.802v.371q0 .508-.309.807-.309.298-.864.298"/><mask id="k" fill="#fff"><path d="M55.855 193.748c0-9.776 0-14.664 1.902-18.397a17.45 17.45 0 0 1 7.628-7.628c3.734-1.903 8.621-1.903 18.397-1.903h216.436c9.776 0 14.664 0 18.397 1.903a17.44 17.44 0 0 1 7.628 7.628c1.903 3.733 1.903 8.621 1.903 18.397v5.236H55.855z"/></mask><path fill="#fdfdfd" fill-opacity=".5" d="M55.855 193.748c0-9.776 0-14.664 1.902-18.397a17.45 17.45 0 0 1 7.628-7.628c3.734-1.903 8.621-1.903 18.397-1.903h216.436c9.776 0 14.664 0 18.397 1.903a17.44 17.44 0 0 1 7.628 7.628c1.903 3.733 1.903 8.621 1.903 18.397v5.236H55.855z"/><path fill="#a8a8a8" fill-opacity=".1" d="M55.855 165.82h272.291zm272.291 34.037H55.855v-1.746h272.291zm-272.291-.873V165.82zm272.291-33.164v33.164z" mask="url(#k)"/><circle cx="73.309" cy="182.402" r="3.055" fill="#e2e2e2" stroke="#e2e2e2" stroke-width=".873"/><circle cx="85.528" cy="182.402" r="3.055" fill="#e2e2e2" stroke="#e2e2e2" stroke-width=".873"/><circle cx="97.746" cy="182.402" r="3.055" fill="#e2e2e2" stroke="#e2e2e2" stroke-width=".873"/><g clip-path="url(#l)"><mask id="m" width="16" height="19" x="261" y="173" maskUnits="userSpaceOnUse" style="mask-type:alpha"><path fill="#d9d9d9" d="M276.295 174.658a9.26 9.26 0 0 0-5.168-1.565 9.31 9.31 0 1 0 5.168 17.053 10.45 10.45 0 0 1-3.422-7.744c0-3.069 1.32-5.829 3.422-7.744"/></mask><g mask="url(#m)"><path fill="#c4c4c4" d="M261.235 173.092h18.618v18.618h-18.618z"/></g><rect width="47.127" height="19.2" x="274.037" y="172.802" fill="url(#n)" rx="9.6"/><rect width="45.818" height="17.891" x="274.691" y="173.457" stroke="#a8a8a8" stroke-opacity=".1" stroke-width="1.309" rx="8.945"/><rect width="22.691" height="3.491" x="286.255" y="180.657" fill="#fdfdfd" rx="1.745"/></g><circle cx="73.309" cy="216.439" r="3.491" fill="#2d68ff"/><path fill="#727272" d="M83.007 217.648q.042.195.168.363a1 1 0 0 0 .356.272q.223.105.551.105.489 0 .72-.224a.72.72 0 0 0 .237-.537.6.6 0 0 0-.147-.412 1.05 1.05 0 0 0-.39-.279 3.5 3.5 0 0 0-.566-.21q-.28-.084-.552-.174a2.4 2.4 0 0 1-.482-.238 1.1 1.1 0 0 1-.342-.37 1.2 1.2 0 0 1-.125-.572 1.3 1.3 0 0 1 .202-.733q.202-.308.566-.468a2 2 0 0 1 .851-.168q.405 0 .727.119.321.111.537.328.223.21.328.51l-.635.23a.65.65 0 0 0-.175-.286.95.95 0 0 0-.335-.223 1.2 1.2 0 0 0-.454-.084 1.1 1.1 0 0 0-.467.084.8.8 0 0 0-.329.244.63.63 0 0 0-.118.384q0 .245.14.384.14.14.37.23.237.091.516.175.293.09.573.195t.502.266q.23.16.37.405.14.237.14.6 0 .391-.182.712a1.3 1.3 0 0 1-.551.517q-.363.195-.915.195-.454 0-.817-.139a1.64 1.64 0 0 1-.6-.384 1.3 1.3 0 0 1-.307-.58zm4.923 1.34a1.73 1.73 0 0 1-.887-.223 1.63 1.63 0 0 1-.6-.628 2 2 0 0 1-.21-.929q0-.537.217-.943.216-.405.6-.635a1.7 1.7 0 0 1 .894-.23q.538 0 .943.251.411.252.593.677l-.593.21a.82.82 0 0 0-.356-.391 1.06 1.06 0 0 0-.559-.147.97.97 0 0 0-.551.154.95.95 0 0 0-.357.419 1.45 1.45 0 0 0-.125.628q0 .545.279.866.28.321.754.321.315 0 .559-.14a.9.9 0 0 0 .377-.384l.586.21q-.195.418-.614.67-.42.244-.95.244m3.754 0q-.495 0-.893-.216a1.6 1.6 0 0 1-.615-.621 1.94 1.94 0 0 1-.223-.95q0-.552.23-.957t.629-.621q.398-.223.894-.223.495 0 .893.223.405.217.635.621.23.399.23.943 0 .552-.236.957a1.6 1.6 0 0 1-.636.628q-.405.216-.907.216m-.007-.6q.28 0 .524-.126.245-.132.398-.398.16-.265.16-.677 0-.405-.153-.663a.93.93 0 0 0-.39-.391 1.08 1.08 0 0 0-1.034 0 .96.96 0 0 0-.377.391q-.147.265-.147.677 0 .405.14.67.146.258.377.391.23.126.502.126m3.037-.042.07-.021v2.011h-.657v-4.887h.6l.05.523a1.4 1.4 0 0 1 .46-.405q.3-.167.726-.167.462 0 .817.223.357.223.559.628.21.399.21.943 0 .537-.203.943-.195.405-.552.628a1.53 1.53 0 0 1-.83.223q-.454 0-.775-.181a1.3 1.3 0 0 1-.475-.461m2.122-1.152q0-.537-.286-.866a.92.92 0 0 0-.733-.328 1 1 0 0 0-.524.14 1 1 0 0 0-.37.405 1.4 1.4 0 0 0-.14.649q0 .377.14.642.14.266.37.412.23.14.524.14a.92.92 0 0 0 .733-.328q.286-.329.286-.866m2.88 1.794q-.503 0-.893-.23a1.7 1.7 0 0 1-.608-.649 2 2 0 0 1-.216-.943q0-.51.216-.908.216-.397.594-.628.384-.23.865-.23.49 0 .866.216.377.21.587.594.209.377.202.872 0 .084-.007.175l-.021.188h-2.583q.021.28.153.496.14.21.35.328.216.119.488.119.349 0 .608-.133a.8.8 0 0 0 .363-.37l.572.203a1.53 1.53 0 0 1-.614.663 1.77 1.77 0 0 1-.922.237m.894-2.108a.86.86 0 0 0-.468-.768.95.95 0 0 0-.914 0 1.02 1.02 0 0 0-.503.768z"/><path fill="#1b1b1b" d="M70.478 228.825q.042-.66.367-1.121.334-.46.88-.701a3.05 3.05 0 0 1 1.246-.241q.743 0 1.256.283.513.282.775.754.273.46.273 1.005 0 .398-.168.733a1.7 1.7 0 0 1-.46.555 1.7 1.7 0 0 1-.65.325v.052q.42.105.733.335.324.22.503.576.177.346.178.838 0 .597-.273 1.058-.272.45-.816.712-.534.252-1.33.251-.765 0-1.34-.23a1.95 1.95 0 0 1-.912-.723q-.325-.492-.367-1.277h1.006q.052.649.43.995.376.335 1.183.335.47 0 .775-.147a.93.93 0 0 0 .44-.408q.146-.272.146-.65 0-.712-.492-.963-.482-.262-1.466-.262h-.262v-.89h.272q.597-.01.995-.126.409-.116.607-.345.21-.241.21-.629a1.32 1.32 0 0 0-.314-.89q-.314-.367-.964-.367a1.6 1.6 0 0 0-.743.158 1.2 1.2 0 0 0-.482.408 1.34 1.34 0 0 0-.22.597zm10.784-1.99v.88h-3.54v2.189a1.55 1.55 0 0 1 .639-.493 2.3 2.3 0 0 1 .953-.188q.68 0 1.141.23.461.231.744.597.293.367.419.796.135.418.136.807 0 .711-.304 1.298a2.3 2.3 0 0 1-.88.943q-.585.345-1.424.345-.753 0-1.32-.261a2.36 2.36 0 0 1-.89-.734 2.56 2.56 0 0 1-.418-1.068h1.015q.136.545.555.859.43.304 1.069.304.524 0 .869-.21.345-.209.503-.576.167-.377.167-.879 0-.734-.398-1.142t-1.13-.408q-.555 0-.943.261a1.45 1.45 0 0 0-.555.713h-.985v-4.263zm4.126 7.404q-.774 0-1.382-.335a2.4 2.4 0 0 1-.932-.921 2.6 2.6 0 0 1-.335-1.32q0-.576.21-1.152.22-.576.68-1.173l1.916-2.503h1.132l-2.179 2.828-1.215 1.246q.22-.744.807-1.204.597-.462 1.435-.461.732 0 1.298.314.565.303.88.859.325.544.325 1.267 0 .733-.346 1.32a2.4 2.4 0 0 1-.943.911 2.8 2.8 0 0 1-1.35.324m-1.591-2.555q0 .502.178.88.188.366.544.576.367.199.87.199.513 0 .858-.199.357-.21.534-.576.189-.378.189-.88 0-.513-.189-.869a1.22 1.22 0 0 0-.534-.545q-.345-.188-.859-.188-.502 0-.869.188a1.3 1.3 0 0 0-.544.545q-.179.356-.178.869"/><path fill="#00a656" d="M94.821 227.83v5.341h-.963v-5.341zm-3.152 2.231h5.341v.879h-5.341zm6.409-1.236q.041-.66.366-1.121.335-.46.88-.701a3.05 3.05 0 0 1 1.246-.241q.744 0 1.257.283.513.282.775.754.272.46.272 1.005 0 .398-.168.733a1.7 1.7 0 0 1-.46.555 1.7 1.7 0 0 1-.65.325v.052q.42.105.733.335.325.22.503.576.178.346.178.838 0 .597-.272 1.058-.273.45-.817.712-.534.252-1.33.251-.765 0-1.34-.23a1.95 1.95 0 0 1-.912-.723q-.324-.492-.366-1.277h1.005q.052.649.43.995.375.335 1.183.335.47 0 .775-.147a.94.94 0 0 0 .44-.408q.146-.272.146-.65 0-.712-.492-.963-.482-.262-1.466-.262h-.262v-.89h.272q.597-.01.995-.126.409-.116.608-.345.209-.241.209-.629 0-.524-.314-.89-.314-.367-.963-.367a1.6 1.6 0 0 0-.744.158 1.2 1.2 0 0 0-.482.408 1.35 1.35 0 0 0-.22.597zm5.945 4.577 2.157-2.011q.618-.566.974-.974.356-.41.513-.754.157-.357.157-.733 0-.555-.324-.911-.315-.357-1.027-.357-.45 0-.764.199-.315.2-.482.566a2.05 2.05 0 0 0-.178.838h-1.005q.021-.838.345-1.393.325-.555.869-.827.555-.283 1.226-.283.754 0 1.288.272.545.272.827.765.283.482.283 1.131 0 .471-.178.921-.168.44-.587.953-.418.503-1.141 1.173l-1.424 1.309h3.529v.88h-5.058zm5.986-5.048q0-.755.44-1.173.441-.42 1.11-.419.66 0 1.1.419.45.418.45 1.173 0 .754-.45 1.183-.44.419-1.1.419-.669 0-1.11-.419-.44-.43-.44-1.183m1.55-.953a.67.67 0 0 0-.534.23q-.199.231-.199.723 0 .482.199.722a.66.66 0 0 0 .534.241q.325 0 .524-.241.2-.24.199-.722 0-.492-.199-.723a.66.66 0 0 0-.524-.23m3.634-.566h1.027l-4.221 7.331h-1.026zm-1.089 5.812q0-.753.44-1.172.45-.43 1.11-.43t1.1.43q.45.419.45 1.172 0 .744-.45 1.173-.44.42-1.1.419-.66 0-1.11-.419-.44-.429-.44-1.173m1.55-.953a.67.67 0 0 0-.534.231q-.2.23-.199.722 0 .482.199.713.2.23.534.23.315 0 .513-.23.21-.23.21-.713 0-.492-.21-.722a.64.64 0 0 0-.513-.231"/><circle cx="166.691" cy="216.439" r="3.491" fill="#ff381c"/><path fill="#727272" d="M176.389 217.648q.042.195.167.363a1 1 0 0 0 .357.272q.223.105.551.105.49 0 .719-.224a.72.72 0 0 0 .238-.537.6.6 0 0 0-.147-.412 1.04 1.04 0 0 0-.391-.279 3.5 3.5 0 0 0-.565-.21 20 20 0 0 1-.552-.174 2.4 2.4 0 0 1-.482-.238 1.1 1.1 0 0 1-.342-.37 1.2 1.2 0 0 1-.126-.572 1.3 1.3 0 0 1 .203-.733q.202-.308.565-.468.37-.168.852-.168.405 0 .726.119a1.4 1.4 0 0 1 .866.838l-.635.23a.64.64 0 0 0-.175-.286.95.95 0 0 0-.335-.223 1.2 1.2 0 0 0-.454-.084 1.1 1.1 0 0 0-.468.084.8.8 0 0 0-.328.244.63.63 0 0 0-.118.384q0 .245.139.384.14.14.37.23.238.091.517.175.293.09.572.195.28.105.503.266.23.16.37.405.14.237.14.6 0 .391-.182.712a1.3 1.3 0 0 1-.551.517q-.363.195-.915.195-.453 0-.817-.139a1.64 1.64 0 0 1-.6-.384 1.3 1.3 0 0 1-.307-.58zm3.652-2.199v-.978h.664v.978h.872v.586h-.872v1.718q0 .321.125.453.133.133.328.154.203.014.419-.014v.566a1.8 1.8 0 0 1-.565.034 1.1 1.1 0 0 1-.496-.153 1 1 0 0 1-.349-.384q-.126-.258-.126-.656v-1.718h-.502v-.586zm4.262 3.49-.056-.509a1.14 1.14 0 0 1-.419.412q-.25.14-.656.139a1.6 1.6 0 0 1-.642-.118 1 1 0 0 1-.412-.342.96.96 0 0 1-.14-.517q0-.44.328-.726.329-.294.95-.363l.991-.112v-.272a.48.48 0 0 0-.181-.377q-.182-.16-.524-.161a.93.93 0 0 0-.544.154.72.72 0 0 0-.301.44l-.586-.21q.132-.46.517-.719.39-.258.942-.258.656 0 .998.328.343.328.343.866v2.345zm-.056-1.598-.956.118q-.308.042-.461.175a.41.41 0 0 0-.154.335q0 .195.147.328.153.126.426.126.334 0 .558-.126a.77.77 0 0 0 .329-.349q.111-.23.111-.531zm1.469-1.892h.6l.042.467q.147-.181.335-.3a1.3 1.3 0 0 1 .419-.174q.23-.05.475.007v.621a1 1 0 0 0-.447-.014.9.9 0 0 0-.391.181 1 1 0 0 0-.272.357q-.105.224-.105.537v1.808h-.656zm2.62 0v-.978h.663v.978h.873v.586h-.873v1.718q0 .321.126.453.133.133.328.154.203.014.419-.014v.566a1.8 1.8 0 0 1-.566.034 1.1 1.1 0 0 1-.495-.153.97.97 0 0 1-.349-.384q-.126-.258-.126-.656v-1.718h-.503v-.586zm3.647 3.539q-.503 0-.893-.23a1.7 1.7 0 0 1-.608-.649 2 2 0 0 1-.216-.943q0-.51.216-.908.217-.397.594-.628.383-.23.866-.23.488 0 .865.216.377.21.587.594.209.377.202.872 0 .084-.007.175a3 3 0 0 1-.021.188h-2.583q.02.28.154.496.14.21.349.328a1 1 0 0 0 .488.119q.35 0 .608-.133a.8.8 0 0 0 .363-.37l.572.203a1.53 1.53 0 0 1-.614.663 1.77 1.77 0 0 1-.922.237m.894-2.108a.84.84 0 0 0-.468-.768.95.95 0 0 0-.914 0 1.03 1.03 0 0 0-.503.768zm4.018-.838-.077.021v-2.15h.663v5.026h-.6l-.049-.523a1.44 1.44 0 0 1-1.194.572q-.474 0-.831-.223a1.55 1.55 0 0 1-.551-.628 2.15 2.15 0 0 1-.196-.943q0-.537.196-.943.203-.405.551-.628.357-.223.831-.223.454 0 .768.188.321.181.489.454m-2.129 1.152q0 .537.279.866t.747.328a1 1 0 0 0 .517-.14q.23-.14.37-.405.14-.272.139-.649 0-.377-.139-.642a1 1 0 0 0-.37-.405.94.94 0 0 0-.517-.147.94.94 0 0 0-.747.328q-.279.329-.279.866"/><path fill="#1b1b1b" d="M166.415 234.239q-.774 0-1.382-.335a2.4 2.4 0 0 1-.932-.921 2.6 2.6 0 0 1-.335-1.32q0-.576.209-1.152.22-.576.681-1.173l1.916-2.503h1.131l-2.178 2.828-1.215 1.246q.22-.744.807-1.204.597-.462 1.434-.461.733 0 1.299.314.565.303.88.859.324.544.324 1.267 0 .733-.345 1.32a2.4 2.4 0 0 1-.943.911 2.8 2.8 0 0 1-1.351.324m-1.592-2.555q0 .502.179.88.188.366.544.576.366.199.869.199.513 0 .859-.199.356-.21.534-.576.189-.378.189-.88 0-.513-.189-.869a1.2 1.2 0 0 0-.534-.545q-.345-.188-.859-.188-.503 0-.869.188a1.3 1.3 0 0 0-.544.545q-.179.356-.179.869m8.792.806h-3.844v-.764l3.613-4.891h1.267v4.765h1.006v.89h-1.006v1.676h-1.036zm.02-.89v-3.686l-2.67 3.686z"/><circle cx="260.073" cy="216.439" r="3.491" fill="#00a656"/><path fill="#727272" d="M269.08 216.496q0-.552.188-1.006.188-.46.524-.789.334-.335.775-.516.447-.182.963-.182.733 0 1.306.342.579.342.879.985l-.558.202a1.6 1.6 0 0 0-.426-.53 1.8 1.8 0 0 0-.565-.301 2 2 0 0 0-.622-.097q-.495 0-.901.23a1.65 1.65 0 0 0-.628.656q-.223.426-.223 1.006 0 .572.223.998.23.426.628.663.406.231.901.231.321 0 .635-.105t.587-.335q.272-.237.447-.614l.558.195q-.314.74-.9 1.103a2.53 2.53 0 0 1-1.341.356q-.516 0-.963-.181a2.4 2.4 0 0 1-1.299-1.306 2.6 2.6 0 0 1-.188-1.005m6.944 2.492a1.84 1.84 0 0 1-.893-.216 1.6 1.6 0 0 1-.615-.621 1.94 1.94 0 0 1-.223-.95 1.9 1.9 0 0 1 .23-.957q.23-.404.628-.621.399-.223.894-.223.496 0 .894.223.405.217.635.621.231.399.231.943 0 .552-.238.957a1.6 1.6 0 0 1-.635.628 1.9 1.9 0 0 1-.908.216m-.007-.6q.28 0 .524-.126.244-.132.398-.398.16-.265.16-.677 0-.405-.153-.663a.93.93 0 0 0-.391-.391 1.08 1.08 0 0 0-1.034 0 .96.96 0 0 0-.377.391q-.146.265-.146.677 0 .405.139.67.147.258.378.391.23.126.502.126m2.45-2.939h.6l.042.404q.168-.209.419-.328.251-.125.566-.125.356 0 .642.16.293.154.461.461.174-.307.495-.461.322-.16.706-.16.398 0 .698.174.307.167.475.503t.167.838v2.024h-.663v-1.94q0-.489-.21-.741-.209-.258-.6-.258-.398 0-.628.265-.231.266-.231.775v1.899h-.663v-1.94q0-.489-.196-.741-.195-.258-.586-.258-.397 0-.621.265-.217.266-.217.775v1.899h-.656zm6.658 2.897.07-.021v2.011h-.656v-4.887h.6l.049.523a1.4 1.4 0 0 1 .461-.405q.3-.167.726-.167.46 0 .817.223t.558.628q.21.399.21.943 0 .537-.203.943-.195.405-.551.628a1.53 1.53 0 0 1-.831.223 1.55 1.55 0 0 1-.775-.181 1.3 1.3 0 0 1-.475-.461m2.123-1.152q0-.537-.287-.866a.91.91 0 0 0-.733-.328 1 1 0 0 0-.523.14 1 1 0 0 0-.37.405q-.14.265-.14.649 0 .377.14.642.14.266.37.412.23.14.523.14a.91.91 0 0 0 .733-.328q.287-.329.287-.866m1.365-3.281h.656v5.026h-.656zm3.032 5.075q-.502 0-.894-.23a1.7 1.7 0 0 1-.607-.649 2 2 0 0 1-.217-.943q0-.51.217-.908.216-.397.593-.628.384-.23.866-.23.488 0 .866.216.377.21.586.594.21.377.203.872a3 3 0 0 1-.028.363h-2.584q.022.28.154.496.14.21.349.328a1 1 0 0 0 .489.119q.35 0 .607-.133a.8.8 0 0 0 .363-.37l.573.203a1.54 1.54 0 0 1-.615.663 1.76 1.76 0 0 1-.921.237m.894-2.108a.86.86 0 0 0-.468-.768.95.95 0 0 0-.475-.119.86.86 0 0 0-.44.119 1.02 1.02 0 0 0-.503.768zm1.609-1.431v-.978h.663v.978h.873v.586h-.873v1.718q0 .321.126.453.132.133.328.154.202.014.419-.014v.566a1.8 1.8 0 0 1-.566.034 1.1 1.1 0 0 1-.496-.153 1 1 0 0 1-.349-.384 1.5 1.5 0 0 1-.125-.656v-1.718h-.503v-.586zm3.647 3.539q-.502 0-.894-.23a1.7 1.7 0 0 1-.607-.649 2 2 0 0 1-.216-.943q0-.51.216-.908.216-.397.593-.628.384-.23.866-.23.49 0 .866.216.377.21.586.594.21.377.203.872 0 .084-.007.175l-.021.188h-2.583q.021.28.153.496.14.21.349.328.217.119.489.119.349 0 .608-.133a.8.8 0 0 0 .363-.37l.572.203q-.21.426-.614.663a1.77 1.77 0 0 1-.922.237m.894-2.108a.86.86 0 0 0-.468-.768.95.95 0 0 0-.475-.119.86.86 0 0 0-.44.119 1.02 1.02 0 0 0-.502.768zm4.018-.838-.077.021v-2.15h.663v5.026h-.6l-.049-.523a1.44 1.44 0 0 1-1.194.572q-.476 0-.831-.223a1.54 1.54 0 0 1-.551-.628 2.14 2.14 0 0 1-.196-.943q0-.537.196-.943.202-.405.551-.628.356-.223.831-.223.453 0 .768.188.321.181.489.454m-2.13 1.152q0 .537.279.866.28.328.748.328.286 0 .516-.14t.37-.405q.14-.272.14-.649t-.14-.642a1 1 0 0 0-.37-.405.94.94 0 0 0-.516-.147.94.94 0 0 0-.748.328q-.279.329-.279.866"/><path fill="#1b1b1b" d="M257.996 227.715h-.995v-.88h2.042v7.331h-1.047zm4.801-.953q.775 0 1.372.335.607.335.943.922.345.586.345 1.319 0 .576-.22 1.152a4.7 4.7 0 0 1-.68 1.173l-1.907 2.503h-1.131l2.179-2.828 1.204-1.246a2.25 2.25 0 0 1-.806 1.204q-.587.461-1.425.461-.743 0-1.309-.303a2.36 2.36 0 0 1-.879-.859 2.54 2.54 0 0 1-.315-1.278q0-.744.336-1.319a2.45 2.45 0 0 1 .932-.901 2.74 2.74 0 0 1 1.361-.335m1.602 2.555q0-.513-.188-.88a1.3 1.3 0 0 0-.555-.565q-.357-.21-.859-.21-.513 0-.869.21a1.3 1.3 0 0 0-.524.565 2 2 0 0 0-.178.88q0 .503.178.869.178.357.524.545.356.189.869.188.502 0 .859-.188a1.27 1.27 0 0 0 .555-.545q.188-.366.188-.869m1.984 4.085 2.158-2.011q.618-.566.974-.974.356-.41.513-.754.156-.357.157-.733 0-.555-.325-.911-.313-.357-1.026-.357-.45 0-.765.199-.314.2-.481.566a2.05 2.05 0 0 0-.178.838h-1.006q.02-.838.346-1.393.324-.555.869-.827.555-.283 1.225-.283.754 0 1.288.272.545.272.828.765.283.482.283 1.131 0 .471-.178.921-.168.44-.587.953-.419.503-1.141 1.173l-1.425 1.309h3.53v.88h-5.059z"/><circle cx="218.182" cy="237.775" r="1.745" fill="#3292ff"/><path stroke="#00a656" stroke-linecap="round" stroke-width="1.309" d="m70.69 281.02 89.808-30.389a27.9 27.9 0 0 1 8.952-1.474h88.53c1.482 0 2.961-.118 4.424-.352l65.741-10.548"/><path fill="url(#o)" d="M164.853 249.157 70.691 281.02h257.454v-42.763l-67.939 10.9z" opacity=".1"/><path stroke="#3292ff" stroke-linecap="round" stroke-width="1.309" d="m70.69 281.02 25.996-20.585a27.93 27.93 0 0 1 17.338-6.033h54.667c3.242 0 6.46-.564 9.508-1.668l39.983-14.477"/><path stroke="#ff381c" stroke-linecap="round" stroke-width="1.309" d="m70.69 281.02 50.342-15.082a28 28 0 0 1 8.015-1.174h50.856l39.152-5.562"/><circle cx="220.12" cy="259.039" r="1.309" fill="#ff381c" stroke="#ff381c" stroke-width=".873"/><g filter="url(#p)"><path fill="#fff" d="M241.746 261.837v-13.982l10.115 10.142h-5.918z"/><path fill="#000" d="M242.618 249.959v9.766l2.968-2.627h4.154z"/></g><rect width="195.927" height="138.327" x="-154.691" y="166.473" stroke="#d9d9d9" stroke-width="1.309" rx="16.8"/><rect width="195.927" height="138.327" x="342.764" y="166.473" stroke="#d9d9d9" stroke-width="1.309" rx="16.8"/><g filter="url(#q)"><path fill="#f1f1f1" d="M76.8 78.544c0-9.775 0-14.663 1.903-18.396a17.45 17.45 0 0 1 7.627-7.628c3.734-1.903 8.622-1.903 18.397-1.903h174.546c9.775 0 14.663 0 18.397 1.903a17.46 17.46 0 0 1 7.628 7.627c1.902 3.734 1.902 8.622 1.902 18.398v24.436c0 9.775 0 14.663-1.902 18.397a17.46 17.46 0 0 1-7.628 7.628c-3.734 1.902-8.622 1.902-18.397 1.902H104.727c-9.775 0-14.663 0-18.397-1.902a17.46 17.46 0 0 1-7.627-7.628c-1.903-3.734-1.903-8.622-1.903-18.397z"/><path stroke="url(#r)" stroke-width="1.309" d="M104.728 51.272h174.545c4.898 0 8.533 0 11.411.236 2.87.234 4.929.698 6.688 1.594a16.8 16.8 0 0 1 7.342 7.342c.896 1.76 1.361 3.82 1.596 6.69.235 2.877.235 6.513.235 11.41v24.436c0 4.899 0 8.534-.235 11.412-.235 2.87-.7 4.93-1.596 6.689a16.8 16.8 0 0 1-7.342 7.342c-1.759.896-3.818 1.36-6.688 1.595-2.878.235-6.513.236-11.411.236H104.728c-4.899 0-8.534-.001-11.411-.236-2.87-.235-4.93-.699-6.69-1.595a16.8 16.8 0 0 1-7.342-7.342c-.896-1.759-1.36-3.819-1.594-6.689-.235-2.878-.237-6.513-.237-11.412V78.545c0-4.898.002-8.534.237-11.411.234-2.87.698-4.93 1.594-6.69a16.8 16.8 0 0 1 7.342-7.342c1.76-.896 3.82-1.36 6.69-1.594 2.877-.235 6.512-.236 11.411-.236Z"/></g><rect width="69.818" height="24.436" x="87.273" y="95.998" fill="url(#s)" rx="12.218"/><rect width="68.509" height="23.127" x="87.927" y="96.653" stroke="#a8a8a8" stroke-opacity=".1" stroke-width="1.309" rx="11.564"/><path fill="#1b1b1b" d="m104.155 110.598 1.298-5.097h.992l1.298 5.097h-.761l-.307-1.291h-1.445l-.307 1.291zm1.215-1.913h1.159l-.35-1.473-.153-.677-.077-.398-.077.398q-.055.286-.153.67zm4.493 1.976a1.8 1.8 0 0 1-.726-.133 1.2 1.2 0 0 1-.489-.363 1.1 1.1 0 0 1-.202-.558h.754a.44.44 0 0 0 .202.307.85.85 0 0 0 .461.112h.3q.343 0 .517-.14a.45.45 0 0 0 .175-.37.42.42 0 0 0-.161-.349q-.153-.133-.461-.175l-.496-.076q-.614-.099-.907-.35-.286-.257-.286-.761 0-.53.342-.816.348-.294 1.026-.294h.265q.6 0 .957.28.363.271.412.733h-.754a.4.4 0 0 0-.189-.273q-.153-.104-.426-.104h-.265q-.328 0-.482.125-.146.119-.146.356 0 .21.132.315.133.104.412.146l.51.084q.65.09.949.363.308.265.308.775 0 .552-.363.859-.357.307-1.069.307zm4.047 0a1.8 1.8 0 0 1-.726-.133 1.2 1.2 0 0 1-.489-.363 1.1 1.1 0 0 1-.202-.558h.754a.44.44 0 0 0 .202.307q.174.111.461.112h.3q.342 0 .517-.14a.45.45 0 0 0 .174-.37.42.42 0 0 0-.16-.349q-.154-.133-.461-.175l-.496-.076q-.614-.099-.907-.35-.287-.257-.287-.761 0-.53.342-.816.35-.294 1.027-.294h.265q.6 0 .957.28.363.271.411.733h-.754a.4.4 0 0 0-.188-.273q-.153-.104-.426-.104h-.265q-.329 0-.482.125-.147.119-.147.356 0 .21.133.315.132.104.412.146l.51.084q.648.09.949.363.307.265.307.775 0 .552-.363.859-.355.307-1.068.307zm2.65-.063v-.684h1.348v-2.472h-1.173v-.684h1.906v3.156h1.236v.684zm1.641-4.503a.58.58 0 0 1-.391-.126.45.45 0 0 1-.147-.349q0-.223.147-.349a.56.56 0 0 1 .391-.133q.244 0 .391.133.147.126.147.349a.45.45 0 0 1-.147.349.58.58 0 0 1-.391.126m2.93 5.76v-.649h1.179q.294 0 .433-.14.147-.14.147-.412v-.384l.014-.712h-.161l.154-.14q0 .44-.279.691-.273.252-.74.252-.594 0-.936-.391t-.342-1.054v-.782q0-.664.342-1.055t.936-.391q.467 0 .74.259.279.251.279.691l-.154-.147h.154l-.007-.733h.747v3.91q0 .552-.349.866-.349.321-.971.321zm.991-2.144q.356 0 .559-.216.209-.224.209-.614v-.706q0-.39-.209-.607-.203-.223-.559-.223-.37 0-.573.216-.195.21-.195.614v.706q0 .398.195.614.202.216.573.216m2.553.887v-3.84h.747v.733h.181l-.181.175q0-.46.272-.719.272-.26.754-.259.573 0 .915.37.342.364.342.985v2.555h-.754v-2.471q0-.378-.203-.58t-.551-.202q-.357 0-.566.216-.202.21-.202.614v2.423zm5.554.07q-.467 0-.823-.182a1.3 1.3 0 0 1-.538-.523 1.57 1.57 0 0 1-.189-.782v-1.006q0-.453.189-.782.189-.334.538-.516a1.7 1.7 0 0 1 .823-.189q.476 0 .824.189.35.181.538.516.189.329.188.782v.685h-2.373v.321q0 .426.209.649.216.224.621.224.328 0 .531-.112a.5.5 0 0 0 .251-.342h.747a1.16 1.16 0 0 1-.502.782q-.42.286-1.034.286m.824-2.262v-.238q0-.418-.209-.649-.21-.23-.615-.23-.398 0-.614.23-.21.231-.209.656v.175l1.703-.007zm3.223 2.262q-.468 0-.824-.182a1.3 1.3 0 0 1-.537-.523 1.57 1.57 0 0 1-.189-.782v-1.006q0-.453.189-.782a1.3 1.3 0 0 1 .537-.516q.356-.189.824-.189.475 0 .824.189.35.181.538.516.188.329.188.782v.685h-2.374v.321q0 .426.21.649.216.224.621.224.328 0 .531-.112a.5.5 0 0 0 .251-.342h.747a1.16 1.16 0 0 1-.503.782q-.418.286-1.033.286m.824-2.262v-.238q0-.418-.209-.649-.21-.23-.615-.23-.398 0-.614.23-.21.231-.21.656v.175l1.704-.007zm3.09 2.255q-.411 0-.726-.133a1.2 1.2 0 0 1-.489-.363 1.1 1.1 0 0 1-.202-.558h.754a.44.44 0 0 0 .202.307.85.85 0 0 0 .461.112h.3q.343 0 .517-.14a.45.45 0 0 0 .175-.37.42.42 0 0 0-.161-.349q-.153-.133-.461-.175l-.495-.076q-.615-.099-.908-.35-.286-.257-.286-.761 0-.53.342-.816.349-.294 1.026-.294h.265q.602 0 .957.28.363.271.412.733h-.754a.4.4 0 0 0-.189-.273q-.153-.104-.426-.104h-.265q-.328 0-.482.125-.146.119-.146.356 0 .21.132.315.133.104.412.146l.51.084q.65.09.949.363.308.265.308.775 0 .552-.363.859-.357.307-1.069.307z"/><path fill="#727272" d="M176.248 110.599v-5.097h1.668q.496 0 .859.188.37.189.566.538.202.342.202.81 0 .46-.202.81a1.36 1.36 0 0 1-.566.537 1.84 1.84 0 0 1-.859.189h-.914v2.025zm.754-2.702h.914q.391 0 .622-.231.237-.237.237-.628 0-.398-.237-.628-.23-.231-.622-.231h-.914zm3.418 2.702v-3.84h.726v.733h.182l-.231.454q0-.623.273-.936.272-.321.81-.321.614 0 .97.384.363.377.363 1.04v.258h-.775v-.195q0-.412-.209-.628-.202-.224-.573-.224t-.579.224q-.203.223-.203.628v2.423zm3.9 0v-.685h1.348v-2.471h-1.173v-.684h1.906v3.155h1.236v.685zm1.641-4.504a.58.58 0 0 1-.391-.125.45.45 0 0 1-.147-.349q0-.224.147-.349a.56.56 0 0 1 .391-.133q.244 0 .391.133.147.125.147.349 0 .216-.147.349a.58.58 0 0 1-.391.125m3.935 4.566q-.475 0-.824-.181a1.27 1.27 0 0 1-.537-.517 1.6 1.6 0 0 1-.189-.789v-.991q0-.46.189-.789.188-.335.537-.517.349-.181.824-.181.474 0 .824.181.35.182.537.517.189.329.189.789v.991q0 .454-.189.789a1.27 1.27 0 0 1-.537.517 1.8 1.8 0 0 1-.824.181m0-.663q.384 0 .593-.209.21-.217.21-.615v-.991q0-.405-.21-.614-.209-.21-.593-.21-.377 0-.593.21-.21.209-.21.614v.991q0 .398.21.615.216.209.593.209m2.664.601v-3.84h.726v.733h.182l-.23.454q0-.623.272-.936.272-.321.81-.321.614 0 .97.384.363.377.363 1.04v.258h-.775v-.195q0-.412-.209-.628-.202-.224-.573-.224t-.579.224q-.203.223-.203.628v2.423zm3.9 0v-.685h1.348v-2.471h-1.173v-.684h1.906v3.155h1.236v.685zm1.641-4.504a.58.58 0 0 1-.391-.125.45.45 0 0 1-.146-.349q0-.224.146-.349a.56.56 0 0 1 .391-.133q.244 0 .391.133.147.125.147.349 0 .216-.147.349a.58.58 0 0 1-.391.125m4.354 4.504q-.523 0-.817-.287-.293-.285-.293-.796v-2.073h-1.061v-.684h1.061v-1.083h.754v1.083h1.501v.684h-1.501v2.073q0 .398.384.398h1.047v.685zm2.734 1.256.552-1.48-1.432-3.616h.831l.803 2.164q.049.14.098.335.049.196.084.321.027-.125.077-.321.048-.195.097-.335l.754-2.164h.803l-1.871 5.096zm43.519-1.256v-5.097h1.668q.496 0 .859.188.37.189.566.538.202.342.202.81 0 .46-.202.81a1.36 1.36 0 0 1-.566.537 1.84 1.84 0 0 1-.859.189h-.914v2.025zm.754-2.702h.914q.391 0 .622-.231.237-.237.237-.628 0-.398-.237-.628-.23-.231-.622-.231h-.914zm3.418 2.702v-3.84h.726v.733h.182l-.231.454q0-.623.273-.936.272-.321.81-.321.614 0 .97.384.363.377.363 1.04v.258h-.775v-.195q0-.412-.209-.628-.203-.224-.573-.224t-.579.224q-.203.223-.203.628v2.423zm5.429.062q-.475 0-.823-.181a1.3 1.3 0 0 1-.538-.517 1.6 1.6 0 0 1-.189-.789v-.991q0-.46.189-.789.189-.335.538-.517.349-.181.823-.181.475 0 .824.181.35.182.538.517.188.329.188.789v.991q0 .454-.188.789a1.3 1.3 0 0 1-.538.517 1.76 1.76 0 0 1-.824.181m0-.663q.384 0 .594-.209.209-.217.209-.615v-.991q0-.405-.209-.614-.21-.21-.594-.21-.377 0-.593.21-.21.209-.21.614v.991q0 .398.21.615.216.209.593.209m2.539 1.857v-.698h.964q.384 0 .6-.209.216-.21.216-.594v-2.904h-1.571v-.691h2.325v3.602q0 .692-.418 1.089-.42.405-1.132.405zm2.122-5.76a.58.58 0 0 1-.39-.125.45.45 0 0 1-.147-.349q0-.224.147-.349a.56.56 0 0 1 .39-.133q.245 0 .391.133.147.125.147.349 0 .216-.147.349a.58.58 0 0 1-.391.125m3.433 4.573q-.468 0-.824-.181a1.33 1.33 0 0 1-.538-.524 1.6 1.6 0 0 1-.188-.782v-1.005q0-.454.188-.782.189-.335.538-.517.356-.188.824-.188.474 0 .824.188.349.182.537.517.189.328.189.782v.684h-2.374v.321q0 .426.209.65.217.223.622.223.328 0 .53-.112a.51.51 0 0 0 .252-.342h.747a1.16 1.16 0 0 1-.503.782q-.419.286-1.033.286m.824-2.262v-.237q0-.419-.21-.649-.209-.231-.614-.231-.398 0-.615.231-.209.23-.209.656v.174l1.704-.006zm3.25 2.262q-.474 0-.837-.174a1.3 1.3 0 0 1-.552-.517 1.6 1.6 0 0 1-.188-.796v-1.005q0-.461.188-.796.195-.334.552-.51.363-.181.837-.181.691 0 1.111.363.418.363.439.991h-.754q-.02-.327-.23-.509t-.566-.182q-.384 0-.607.217-.223.209-.223.6v1.012q0 .391.223.608t.607.216q.356 0 .566-.181t.23-.51h.754q-.02.628-.439.991-.42.363-1.111.363m4.438-.069q-.523 0-.817-.287-.293-.285-.293-.796v-2.073h-1.061v-.684h1.061v-1.083h.754v1.083h1.501v.684h-1.501v2.073q0 .398.384.398h1.047v.685z"/><rect width="209.455" height="24.436" x="87.273" y="61.09" fill="#e2e2e2" fill-opacity=".3" rx="12.218"/><rect width="208.582" height="23.564" x="87.709" y="61.527" stroke="#a8a8a8" stroke-opacity=".2" stroke-width=".873" rx="11.782"/><g clip-path="url(#t)"><rect width="17.454" height="17.454" x="275.782" y="64.581" fill="url(#u)" rx="8.727"/><rect width="16.145" height="16.145" x="276.436" y="65.235" stroke="#a8a8a8" stroke-opacity=".1" stroke-width="1.309" rx="8.073"/></g><circle cx="284.509" cy="73.308" r="3.491" fill="#fdfdfd"/><rect width="33.164" height="3.491" x="97.745" y="71.561" fill="#727272" opacity=".3" rx="1.745"/><path fill="url(#v)" d="M284.509 137.891v-.654H99.491v1.309H284.51zM99.491 43.637v.654H284.51v-1.309H99.491z"/><path fill="url(#w)" d="M247.854 144.873v-.654H136.145v1.309h111.709zM136.145 36.655v.654h111.709V36H136.145z"/><path fill="url(#x)" d="M219.927 151.855v-.655h-55.854v1.31h55.854zM164.073 29.673v.655h55.854v-1.309h-55.854z"/><path stroke="#d9d9d9" stroke-linecap="round" stroke-width="1.309" d="M192-87.273V22.69m-6.982.001h13.964"/></g><defs><linearGradient id="g" x1="192" x2="192" y1="158.839" y2="312.439" gradientUnits="userSpaceOnUse"><stop stop-color="#fdfdfd" stop-opacity=".3"/><stop offset="1" stop-color="#fdfdfd"/></linearGradient><linearGradient id="h" x1="192" x2="192" y1="158.839" y2="312.439" gradientUnits="userSpaceOnUse"><stop stop-color="#e2e2e2"/><stop offset="1" stop-color="#e2e2e2" stop-opacity=".75"/></linearGradient><linearGradient id="j" x1="192" x2="192" y1="165.82" y2="305.457" gradientUnits="userSpaceOnUse"><stop stop-color="#f6f6f6"/><stop offset="1" stop-color="#e6e6e6"/></linearGradient><linearGradient id="n" x1="297.6" x2="297.6" y1="167.566" y2="197.239" gradientUnits="userSpaceOnUse"><stop stop-color="#ebebeb"/><stop offset="1" stop-color="#c4c4c4"/></linearGradient><linearGradient id="o" x1="199.418" x2="199.418" y1="238.257" y2="281.021" gradientUnits="userSpaceOnUse"><stop stop-color="#00a656"/><stop offset="1" stop-color="#00a656" stop-opacity="0"/></linearGradient><linearGradient id="r" x1="192" x2="192" y1="50.617" y2="130.908" gradientUnits="userSpaceOnUse"><stop stop-color="#f6f6f6"/><stop offset="1" stop-color="#e6e6e6"/></linearGradient><linearGradient id="s" x1="122.182" x2="122.182" y1="89.334" y2="127.099" gradientUnits="userSpaceOnUse"><stop stop-color="#ebebeb"/><stop offset="1" stop-color="#c4c4c4"/></linearGradient><linearGradient id="u" x1="284.509" x2="284.509" y1="59.82" y2="86.795" gradientUnits="userSpaceOnUse"><stop stop-color="#ebebeb"/><stop offset="1" stop-color="#c4c4c4"/></linearGradient><linearGradient id="v" x1="99.491" x2="284.509" y1="90.764" y2="90.764" gradientUnits="userSpaceOnUse"><stop stop-color="#d9d9d9" stop-opacity="0"/><stop offset=".23" stop-color="#d9d9d9"/><stop offset=".802" stop-color="#d9d9d9"/><stop offset="1" stop-color="#d9d9d9" stop-opacity="0"/></linearGradient><linearGradient id="w" x1="136.145" x2="247.854" y1="90.764" y2="90.764" gradientUnits="userSpaceOnUse"><stop stop-color="#d9d9d9" stop-opacity="0"/><stop offset=".23" stop-color="#d9d9d9"/><stop offset=".802" stop-color="#d9d9d9"/><stop offset="1" stop-color="#d9d9d9" stop-opacity="0"/></linearGradient><linearGradient id="x" x1="164.073" x2="219.927" y1="90.764" y2="90.764" gradientUnits="userSpaceOnUse"><stop stop-color="#d9d9d9" stop-opacity="0"/><stop offset=".23" stop-color="#d9d9d9"/><stop offset=".802" stop-color="#d9d9d9"/><stop offset="1" stop-color="#d9d9d9" stop-opacity="0"/></linearGradient><clipPath id="b" transform="translate(-55.855 -191.999)"><rect width="216.436" height="134.4" x="83.782" y="219.927" rx="13.964"/></clipPath><clipPath id="d" transform="translate(-41.89 -171.054)"><rect width="244.364" height="134.4" x="69.818" y="198.981" rx="13.964"/></clipPath><clipPath id="f" transform="translate(-20.945 -130.912)"><path d="M87.971 159.493H296.03c6.854 0 11.955.001 15.997.331 4.034.33 6.956.985 9.462 2.262a23.78 23.78 0 0 1 10.393 10.393c1.276 2.505 1.932 5.427 2.261 9.461.331 4.042.33 9.144.33 15.998v75.403c0 6.853.001 11.954-.33 15.996-.329 4.034-.985 6.956-2.261 9.462a23.78 23.78 0 0 1-10.393 10.393c-2.506 1.277-5.429 1.932-9.463 2.261-4.042.33-9.143.331-15.996.331H87.971c-6.854 0-11.955-.001-15.997-.331-4.034-.329-6.956-.984-9.461-2.261a23.78 23.78 0 0 1-10.393-10.393c-1.277-2.506-1.932-5.428-2.262-9.462-.33-4.042-.33-9.143-.33-15.996v-75.403c0-6.854 0-11.956.33-15.998.33-4.034.985-6.956 2.262-9.461a23.78 23.78 0 0 1 10.393-10.393c2.505-1.277 5.427-1.932 9.461-2.262 4.042-.33 9.144-.331 15.997-.331"/></clipPath><clipPath id="a"><path fill="#fff" d="M0 44.684c0-15.641 0-23.461 3.044-29.435A27.93 27.93 0 0 1 15.249 3.044C21.223 0 29.043 0 44.684 0h294.632c15.641 0 23.461 0 29.435 3.044a27.93 27.93 0 0 1 12.205 12.205C384 21.223 384 29.043 384 44.684v294.632c0 15.641 0 23.461-3.044 29.435a27.92 27.92 0 0 1-12.205 12.205C362.777 384 354.957 384 339.316 384H44.684c-15.641 0-23.461 0-29.435-3.044a27.93 27.93 0 0 1-12.205-12.205C0 362.777 0 354.957 0 339.316z"/></clipPath><clipPath id="l"><rect width="59.346" height="19.2" x="261.818" y="172.802" fill="#fff" rx="9.6"/></clipPath><clipPath id="t"><rect width="17.454" height="17.454" x="275.782" y="64.581" fill="#fff" rx="8.727"/></clipPath><filter id="c" width="303.709" height="134.4" x="40.145" y="268.801" color-interpolation-filters="sRGB" filterUnits="userSpaceOnUse"><feFlood flood-opacity="0" result="BackgroundImageFix"/><feBlend in="SourceGraphic" in2="BackgroundImageFix" result="shape"/><feGaussianBlur result="effect1_foregroundBlur_211_5255" stdDeviation="27.927"/></filter><filter id="e" width="384" height="205.964" x="0" y="169.309" color-interpolation-filters="sRGB" filterUnits="userSpaceOnUse"><feFlood flood-opacity="0" result="BackgroundImageFix"/><feBlend in="SourceGraphic" in2="BackgroundImageFix" result="shape"/><feGaussianBlur result="effect1_foregroundBlur_211_5255" stdDeviation="27.927"/></filter><filter id="i" width="363.055" height="230.4" x="10.473" y="148.366" color-interpolation-filters="sRGB" filterUnits="userSpaceOnUse"><feFlood flood-opacity="0" result="BackgroundImageFix"/><feColorMatrix in="SourceAlpha" result="hardAlpha" values="0 0 0 0 0 0 0 0 0 0 0 0 0 0 0 0 0 0 127 0"/><feMorphology in="SourceAlpha" radius="3.491" result="effect1_dropShadow_211_5255"/><feOffset dy="4.364"/><feGaussianBlur stdDeviation=".655"/><feComposite in2="hardAlpha" operator="out"/><feColorMatrix values="0 0 0 0 0.0313726 0 0 0 0 0.0313726 0 0 0 0 0.0313726 0 0 0 0.05 0"/><feBlend in2="BackgroundImageFix" result="effect1_dropShadow_211_5255"/><feColorMatrix in="SourceAlpha" result="hardAlpha" values="0 0 0 0 0 0 0 0 0 0 0 0 0 0 0 0 0 0 127 0"/><feMorphology in="SourceAlpha" radius="3.491" result="effect2_dropShadow_211_5255"/><feOffset dy="5.236"/><feGaussianBlur stdDeviation="1.745"/><feComposite in2="hardAlpha" operator="out"/><feColorMatrix values="0 0 0 0 0.0313726 0 0 0 0 0.0313726 0 0 0 0 0.0313726 0 0 0 0.05 0"/><feBlend in2="effect1_dropShadow_211_5255" result="effect2_dropShadow_211_5255"/><feColorMatrix in="SourceAlpha" result="hardAlpha" values="0 0 0 0 0 0 0 0 0 0 0 0 0 0 0 0 0 0 127 0"/><feOffset dy="5.236"/><feGaussianBlur stdDeviation="5.673"/><feComposite in2="hardAlpha" operator="out"/><feColorMatrix values="0 0 0 0 0.0313726 0 0 0 0 0.0313726 0 0 0 0 0.0313726 0 0 0 0.03 0"/><feBlend in2="effect2_dropShadow_211_5255" result="effect3_dropShadow_211_5255"/><feColorMatrix in="SourceAlpha" result="hardAlpha" values="0 0 0 0 0 0 0 0 0 0 0 0 0 0 0 0 0 0 127 0"/><feMorphology in="SourceAlpha" radius="13.964" result="effect4_dropShadow_211_5255"/><feOffset dy="20.945"/><feGaussianBlur stdDeviation="10.473"/><feComposite in2="hardAlpha" operator="out"/><feColorMatrix values="0 0 0 0 0.0313726 0 0 0 0 0.0313726 0 0 0 0 0.0313726 0 0 0 0.04 0"/><feBlend in2="effect3_dropShadow_211_5255" result="effect4_dropShadow_211_5255"/><feColorMatrix in="SourceAlpha" result="hardAlpha" values="0 0 0 0 0 0 0 0 0 0 0 0 0 0 0 0 0 0 127 0"/><feMorphology in="SourceAlpha" radius="1.745" result="effect5_dropShadow_211_5255"/><feOffset dy="1.876"/><feGaussianBlur stdDeviation=".218"/><feComposite in2="hardAlpha" operator="out"/><feColorMatrix values="0 0 0 0 0 0 0 0 0 0 0 0 0 0 0 0 0 0 0.25 0"/><feBlend in2="effect4_dropShadow_211_5255" result="effect5_dropShadow_211_5255"/><feColorMatrix in="SourceAlpha" result="hardAlpha" values="0 0 0 0 0 0 0 0 0 0 0 0 0 0 0 0 0 0 127 0"/><feMorphology in="SourceAlpha" radius="10.473" result="effect6_dropShadow_211_5255"/><feOffset dy="27.927"/><feGaussianBlur stdDeviation="27.927"/><feComposite in2="hardAlpha" operator="out"/><feColorMatrix values="0 0 0 0 0 0 0 0 0 0 0 0 0 0 0 0 0 0 0.075 0"/><feBlend in2="effect5_dropShadow_211_5255" mode="multiply" result="effect6_dropShadow_211_5255"/><feBlend in="SourceGraphic" in2="effect6_dropShadow_211_5255" result="shape"/></filter><filter id="p" width="13.606" height="17.472" x="240" y="247.855" color-interpolation-filters="sRGB" filterUnits="userSpaceOnUse"><feFlood flood-opacity="0" result="BackgroundImageFix"/><feColorMatrix in="SourceAlpha" result="hardAlpha" values="0 0 0 0 0 0 0 0 0 0 0 0 0 0 0 0 0 0 127 0"/><feOffset dy="1.745"/><feGaussianBlur stdDeviation=".873"/><feColorMatrix values="0 0 0 0 0 0 0 0 0 0 0 0 0 0 0 0 0 0 0.25 0"/><feBlend in2="BackgroundImageFix" result="effect1_dropShadow_211_5255"/><feBlend in="SourceGraphic" in2="effect1_dropShadow_211_5255" result="shape"/></filter><filter id="q" width="253.091" height="102.982" x="65.455" y="44.508" color-interpolation-filters="sRGB" filterUnits="userSpaceOnUse"><feFlood flood-opacity="0" result="BackgroundImageFix"/><feColorMatrix in="SourceAlpha" result="hardAlpha" values="0 0 0 0 0 0 0 0 0 0 0 0 0 0 0 0 0 0 127 0"/><feMorphology in="SourceAlpha" radius="3.491" result="effect1_dropShadow_211_5255"/><feOffset dy="4.364"/><feGaussianBlur stdDeviation=".655"/><feComposite in2="hardAlpha" operator="out"/><feColorMatrix values="0 0 0 0 0.0313726 0 0 0 0 0.0313726 0 0 0 0 0.0313726 0 0 0 0.05 0"/><feBlend in2="BackgroundImageFix" result="effect1_dropShadow_211_5255"/><feColorMatrix in="SourceAlpha" result="hardAlpha" values="0 0 0 0 0 0 0 0 0 0 0 0 0 0 0 0 0 0 127 0"/><feMorphology in="SourceAlpha" radius="3.491" result="effect2_dropShadow_211_5255"/><feOffset dy="5.236"/><feGaussianBlur stdDeviation="1.745"/><feComposite in2="hardAlpha" operator="out"/><feColorMatrix values="0 0 0 0 0.0313726 0 0 0 0 0.0313726 0 0 0 0 0.0313726 0 0 0 0.05 0"/><feBlend in2="effect1_dropShadow_211_5255" result="effect2_dropShadow_211_5255"/><feColorMatrix in="SourceAlpha" result="hardAlpha" values="0 0 0 0 0 0 0 0 0 0 0 0 0 0 0 0 0 0 127 0"/><feOffset dy="5.236"/><feGaussianBlur stdDeviation="5.673"/><feComposite in2="hardAlpha" operator="out"/><feColorMatrix values="0 0 0 0 0.0313726 0 0 0 0 0.0313726 0 0 0 0 0.0313726 0 0 0 0.03 0"/><feBlend in2="effect2_dropShadow_211_5255" result="effect3_dropShadow_211_5255"/><feBlend in="SourceGraphic" in2="effect3_dropShadow_211_5255" result="shape"/></filter></defs></svg>