<svg xmlns="http://www.w3.org/2000/svg" width="315" height="315" fill="none" viewBox="0 0 315 315"><mask id="b" width="332" height="174" x="-8" y="108" maskUnits="userSpaceOnUse" style="mask-type:alpha"><path fill="url(#a)" d="M-7.5 108.75h330.75V282H-7.5z"/></mask><g mask="url(#b)"><foreignObject width="219" height="219" x="48" y="48"><div xmlns="http://www.w3.org/1999/xhtml" style="backdrop-filter:blur(12px);clip-path:url(#c);height:100%;width:100%"/></foreignObject><rect width="169.875" height="169.875" x=".563" y="-.563" stroke="url(#d)" stroke-width="1.125" data-figma-bg-blur-radius="24" rx="84.938" transform="matrix(1 0 0 -1 72 241.875)"/><foreignObject width="342" height="342" x="-13.5" y="-13.5"><div xmlns="http://www.w3.org/1999/xhtml" style="backdrop-filter:blur(12px);clip-path:url(#e);height:100%;width:100%"/></foreignObject><rect width="292.875" height="292.875" x=".563" y="-.563" stroke="url(#f)" stroke-width="1.125" data-figma-bg-blur-radius="24" rx="146.438" transform="matrix(1 0 0 -1 10.5 303.375)"/></g><foreignObject width="114" height="69" x="100.5" y="187.75"><div xmlns="http://www.w3.org/1999/xhtml" style="backdrop-filter:blur(12px);clip-path:url(#g);height:100%;width:100%"/></foreignObject><g data-figma-bg-blur-radius="24"><path fill="url(#h)" d="M124.5 222.25c0-5.799 4.701-10.5 10.5-10.5h45c5.799 0 10.5 4.701 10.5 10.5s-4.701 10.5-10.5 10.5h-45c-5.799 0-10.5-4.701-10.5-10.5"/><path stroke="url(#i)" stroke-opacity=".15" stroke-width="1.125" d="M135 212.312h45c5.488 0 9.938 4.45 9.938 9.938s-4.45 9.938-9.938 9.938h-45c-5.488-.001-9.938-4.45-9.938-9.938s4.45-9.938 9.938-9.938Z"/></g><path fill="#fdfdfd" d="M145.584 222.89a.8.8 0 0 0 .144.312.8.8 0 0 0 .306.234q.192.09.474.09.42 0 .618-.192a.62.62 0 0 0 .204-.462.5.5 0 0 0-.126-.354.9.9 0 0 0-.336-.24 3 3 0 0 0-.486-.18q-.24-.072-.474-.15a2 2 0 0 1-.414-.204.9.9 0 0 1-.294-.318 1 1 0 0 1-.108-.492q0-.366.174-.63t.486-.402q.318-.144.732-.144.348 0 .624.102a1.2 1.2 0 0 1 .744.72l-.546.198a.56.56 0 0 0-.15-.246.8.8 0 0 0-.288-.192 1 1 0 0 0-.39-.072.9.9 0 0 0-.402.072.7.7 0 0 0-.282.21.54.54 0 0 0-.102.33q0 .21.12.33a.9.9 0 0 0 .318.198q.204.078.444.15.252.078.492.168t.432.228q.198.138.318.348.12.204.12.516 0 .336-.156.612a1.14 1.14 0 0 1-.474.444q-.312.168-.786.168-.39 0-.702-.12t-.516-.33a1.1 1.1 0 0 1-.264-.498zm5.455 1.11h-.516l-.042-.354a.94.94 0 0 1-.366.294 1.1 1.1 0 0 1-.486.102q-.348 0-.606-.144a1.03 1.03 0 0 1-.402-.432 1.65 1.65 0 0 1-.138-.714V221h.57v1.68q0 .414.168.63.174.216.522.216.342 0 .534-.222.198-.222.198-.66V221h.564zm.735-3h.516l.036.348q.144-.18.36-.282.216-.108.486-.108.306 0 .552.138.252.132.396.396a.95.95 0 0 1 .426-.396q.276-.138.606-.138.342 0 .6.15.264.144.408.432t.144.72V224h-.57v-1.668q0-.42-.18-.636-.18-.222-.516-.222a.68.68 0 0 0-.54.228q-.198.228-.198.666V224h-.57v-1.668q0-.42-.168-.636-.168-.222-.504-.222-.342 0-.534.228-.186.228-.186.666V224h-.564zm5.218 0h.516l.036.348q.144-.18.36-.282.216-.108.486-.108.306 0 .552.138.252.132.396.396a.95.95 0 0 1 .426-.396q.276-.138.606-.138.342 0 .6.15.264.144.408.432t.144.72V224h-.57v-1.668q0-.42-.18-.636-.18-.222-.516-.222a.68.68 0 0 0-.54.228q-.198.228-.198.666V224h-.57v-1.668q0-.42-.168-.636-.168-.222-.504-.222-.342 0-.534.228-.186.228-.186.666V224h-.564zm7.048 3-.048-.438a1 1 0 0 1-.36.354q-.216.12-.564.12-.324 0-.552-.102a.86.86 0 0 1-.354-.294.8.8 0 0 1-.12-.444q0-.378.282-.624.282-.252.816-.312l.852-.096v-.234a.41.41 0 0 0-.156-.324q-.156-.138-.45-.138a.8.8 0 0 0-.468.132.62.62 0 0 0-.258.378l-.504-.18a1.08 1.08 0 0 1 .444-.618q.336-.222.81-.222.564 0 .858.282t.294.744V224zm-.048-1.374-.822.102q-.264.036-.396.15a.35.35 0 0 0-.132.288q0 .168.126.282.132.108.366.108a1 1 0 0 0 .48-.108.66.66 0 0 0 .282-.3q.096-.198.096-.456zm1.262-1.626h.516l.036.402a1.17 1.17 0 0 1 .648-.408.9.9 0 0 1 .408.006v.534a.9.9 0 0 0-.384-.012.76.76 0 0 0-.336.156.8.8 0 0 0-.234.306q-.09.192-.09.462V224h-.564zm4.106 0h.588l-1.74 4.2h-.558l.528-1.26-1.188-2.94h.624l.87 2.274z"/><foreignObject width="121.5" height="75" x="96.75" y="184.75"><div xmlns="http://www.w3.org/1999/xhtml" style="backdrop-filter:blur(12px);height:100%;width:100%"/></foreignObject><rect width="72.375" height="25.875" x="121.312" y="209.312" stroke="url(#j)" stroke-opacity=".025" stroke-width="1.125" data-figma-bg-blur-radius="24" opacity=".7" rx="12.938"/><foreignObject width="127.5" height="81" x="93.75" y="181.75"><div xmlns="http://www.w3.org/1999/xhtml" style="backdrop-filter:blur(12px);height:100%;width:100%"/></foreignObject><rect width="78.375" height="31.875" x="118.312" y="206.312" stroke="url(#k)" stroke-opacity=".025" stroke-width="1.125" data-figma-bg-blur-radius="24" opacity=".7" rx="15.938"/><g opacity=".5"><foreignObject width="97.363" height="101.287" x="51.818" y="15.606"><div xmlns="http://www.w3.org/1999/xhtml" style="backdrop-filter:blur(12px);clip-path:url(#l);height:100%;width:100%"/></foreignObject><g data-figma-bg-blur-radius="24" filter="url(#m)" shape-rendering="crispEdges"><path fill="#fdfdfd" fill-opacity=".5" d="M90.9 43.293c3.497-2.02 5.246-3.03 7.105-3.424 1.645-.35 3.345-.35 4.99 0 1.859.395 3.608 1.404 7.105 3.424l5.482 3.164c3.497 2.02 5.246 3.03 6.517 4.442a12 12 0 0 1 2.495 4.321c.588 1.808.588 3.827.588 7.865v6.33c0 4.038 0 6.057-.588 7.865a12 12 0 0 1-2.495 4.321c-1.271 1.413-3.02 2.422-6.517 4.442l-5.482 3.164c-3.497 2.02-5.246 3.03-7.105 3.424-1.645.35-3.345.35-4.99 0-1.859-.395-3.608-1.404-7.105-3.424l-5.482-3.164c-3.497-2.02-5.246-3.03-6.518-4.442a12 12 0 0 1-2.494-4.321c-.588-1.808-.588-3.827-.588-7.865v-6.33c0-4.038 0-6.057.588-7.865.52-1.6 1.37-3.072 2.494-4.321 1.272-1.413 3.021-2.422 6.518-4.442z"/><path stroke="#fdfdfd" stroke-opacity=".25" stroke-width="1.125" d="M98.122 40.419a11.4 11.4 0 0 1 4.756 0c1.751.372 3.411 1.322 6.94 3.36l5.483 3.165c3.53 2.038 5.183 3 6.381 4.331a11.45 11.45 0 0 1 2.378 4.119c.553 1.702.559 3.615.559 7.691v6.33c0 4.076-.006 5.989-.559 7.691a11.45 11.45 0 0 1-2.378 4.119c-1.198 1.33-2.851 2.293-6.381 4.33l-5.483 3.166c-3.529 2.038-5.189 2.988-6.94 3.36a11.4 11.4 0 0 1-4.756 0c-1.751-.372-3.41-1.322-6.94-3.36l-5.483-3.165c-3.53-2.038-5.183-3-6.38-4.331a11.4 11.4 0 0 1-2.379-4.119c-.553-1.702-.56-3.615-.56-7.691v-6.33c0-4.076.007-5.989.56-7.691a11.4 11.4 0 0 1 2.378-4.119c1.198-1.33 2.851-2.293 6.381-4.33l5.483-3.166c3.53-2.038 5.189-2.988 6.94-3.36Z"/></g></g><g opacity=".5"><foreignObject width="97.363" height="101.287" x="165.818" y="15.606"><div xmlns="http://www.w3.org/1999/xhtml" style="backdrop-filter:blur(12px);clip-path:url(#n);height:100%;width:100%"/></foreignObject><g data-figma-bg-blur-radius="24" filter="url(#o)" shape-rendering="crispEdges"><path fill="#fdfdfd" fill-opacity=".5" d="M204.9 43.293c3.497-2.02 5.246-3.03 7.105-3.424 1.645-.35 3.345-.35 4.99 0 1.859.395 3.608 1.404 7.105 3.424l5.482 3.164c3.497 2.02 5.246 3.03 6.517 4.442a12 12 0 0 1 2.495 4.321c.588 1.808.588 3.827.588 7.865v6.33c0 4.038 0 6.057-.588 7.865a12 12 0 0 1-2.495 4.321c-1.271 1.413-3.02 2.422-6.517 4.442l-5.482 3.164c-3.497 2.02-5.246 3.03-7.105 3.424-1.645.35-3.345.35-4.99 0-1.859-.395-3.608-1.404-7.105-3.424l-5.482-3.164c-3.497-2.02-5.246-3.03-6.517-4.442a12 12 0 0 1-2.495-4.321c-.588-1.808-.588-3.827-.588-7.865v-6.33c0-4.038 0-6.057.588-7.865a12 12 0 0 1 2.495-4.321c1.271-1.413 3.02-2.422 6.517-4.442z"/><path stroke="#fdfdfd" stroke-opacity=".25" stroke-width="1.125" d="M212.122 40.419a11.4 11.4 0 0 1 4.756 0c1.751.372 3.411 1.322 6.94 3.36l5.483 3.165c3.53 2.038 5.183 3 6.381 4.331a11.45 11.45 0 0 1 2.378 4.119c.553 1.702.559 3.615.559 7.691v6.33c0 4.076-.006 5.989-.559 7.691a11.45 11.45 0 0 1-2.378 4.119c-1.198 1.33-2.851 2.293-6.381 4.33l-5.483 3.166c-3.529 2.038-5.189 2.988-6.94 3.36a11.4 11.4 0 0 1-4.756 0c-1.751-.372-3.41-1.322-6.94-3.36l-5.483-3.165c-3.53-2.038-5.183-3-6.381-4.331a11.45 11.45 0 0 1-2.378-4.119c-.553-1.702-.559-3.615-.559-7.691v-6.33c0-4.076.006-5.989.559-7.691a11.45 11.45 0 0 1 2.378-4.119c1.198-1.33 2.851-2.293 6.381-4.33l5.483-3.166c3.529-2.038 5.189-2.988 6.94-3.36Z"/></g></g><g opacity=".5"><foreignObject width="97.363" height="101.287" x="23.318" y="65.106"><div xmlns="http://www.w3.org/1999/xhtml" style="backdrop-filter:blur(12px);clip-path:url(#p);height:100%;width:100%"/></foreignObject><g data-figma-bg-blur-radius="24" filter="url(#q)" shape-rendering="crispEdges"><path fill="#fdfdfd" fill-opacity=".5" d="M62.4 92.793c3.497-2.02 5.246-3.03 7.105-3.424a12 12 0 0 1 4.99 0c1.859.395 3.608 1.404 7.105 3.424l5.482 3.164c3.497 2.02 5.246 3.03 6.518 4.442a12 12 0 0 1 2.494 4.321c.588 1.808.588 3.827.588 7.865v6.33c0 4.038 0 6.057-.588 7.865a12 12 0 0 1-2.494 4.321c-1.272 1.413-3.021 2.422-6.518 4.442l-5.482 3.164c-3.497 2.02-5.246 3.029-7.105 3.424-1.645.35-3.345.35-4.99 0-1.859-.395-3.608-1.404-7.105-3.424l-5.482-3.164c-3.497-2.02-5.246-3.029-6.517-4.442a12 12 0 0 1-2.495-4.321c-.588-1.808-.588-3.827-.588-7.865v-6.33c0-4.038 0-6.057.588-7.865a12 12 0 0 1 2.495-4.321c1.271-1.413 3.02-2.422 6.517-4.442z"/><path stroke="#fdfdfd" stroke-opacity=".25" stroke-width="1.125" d="M69.622 89.919a11.4 11.4 0 0 1 4.756 0c1.751.372 3.41 1.322 6.94 3.36l5.483 3.165c3.53 2.038 5.183 3 6.38 4.331a11.4 11.4 0 0 1 2.379 4.119c.553 1.702.56 3.615.56 7.691v6.33c0 4.076-.007 5.989-.56 7.691a11.4 11.4 0 0 1-2.378 4.119c-1.198 1.33-2.851 2.293-6.381 4.331l-5.483 3.165c-3.53 2.038-5.189 2.988-6.94 3.36a11.45 11.45 0 0 1-4.756 0c-1.751-.372-3.41-1.322-6.94-3.36l-5.483-3.165c-3.53-2.038-5.183-3.001-6.38-4.331a11.4 11.4 0 0 1-2.379-4.119c-.553-1.702-.56-3.615-.56-7.691v-6.33c0-4.076.007-5.989.56-7.691a11.4 11.4 0 0 1 2.378-4.119c1.198-1.33 2.851-2.293 6.381-4.33l5.483-3.166c3.53-2.038 5.189-2.988 6.94-3.36Z"/></g></g><foreignObject width="97.363" height="101.287" x="137.318" y="65.106"><div xmlns="http://www.w3.org/1999/xhtml" style="backdrop-filter:blur(12px);clip-path:url(#r);height:100%;width:100%"/></foreignObject><g data-figma-bg-blur-radius="24" filter="url(#s)" shape-rendering="crispEdges"><path fill="#fdfdfd" fill-opacity=".5" d="M176.4 92.793c3.497-2.02 5.246-3.03 7.105-3.424 1.645-.35 3.345-.35 4.99 0 1.859.395 3.608 1.404 7.105 3.424l5.482 3.164c3.497 2.02 5.246 3.03 6.517 4.442a12 12 0 0 1 2.495 4.321c.588 1.808.588 3.827.588 7.865v6.33c0 4.038 0 6.057-.588 7.865a12 12 0 0 1-2.495 4.321c-1.271 1.413-3.02 2.422-6.517 4.442l-5.482 3.164c-3.497 2.02-5.246 3.029-7.105 3.424-1.645.35-3.345.35-4.99 0-1.859-.395-3.608-1.404-7.105-3.424l-5.482-3.164c-3.497-2.02-5.246-3.029-6.517-4.442a12 12 0 0 1-2.495-4.321c-.588-1.808-.588-3.827-.588-7.865v-6.33c0-4.038 0-6.057.588-7.865a12 12 0 0 1 2.495-4.321c1.271-1.413 3.02-2.422 6.517-4.442z"/><path stroke="#fdfdfd" stroke-opacity=".25" stroke-width="1.125" d="M183.622 89.919a11.4 11.4 0 0 1 4.756 0c1.751.372 3.411 1.322 6.94 3.36l5.483 3.165c3.53 2.038 5.183 3 6.381 4.331a11.45 11.45 0 0 1 2.378 4.119c.553 1.702.559 3.615.559 7.691v6.33c0 4.076-.006 5.989-.559 7.691a11.45 11.45 0 0 1-2.378 4.119c-1.198 1.33-2.851 2.293-6.381 4.331l-5.483 3.165c-3.529 2.038-5.189 2.988-6.94 3.36a11.45 11.45 0 0 1-4.756 0c-1.751-.372-3.41-1.322-6.94-3.36l-5.483-3.165c-3.53-2.038-5.183-3.001-6.381-4.331a11.45 11.45 0 0 1-2.378-4.119c-.553-1.702-.559-3.615-.559-7.691v-6.33c0-4.076.006-5.989.559-7.691a11.45 11.45 0 0 1 2.378-4.119c1.198-1.33 2.851-2.293 6.381-4.33l5.483-3.166c3.529-2.038 5.189-2.988 6.94-3.36Z"/></g><g clip-path="url(#t)"><path fill="url(#u)" d="m185.583 118.828-.723 1.653a.777.777 0 0 1-1.434 0l-.723-1.653a6.37 6.37 0 0 0-3.241-3.284l-1.988-.882c-.632-.281-.632-1.2 0-1.481l1.925-.854a6.37 6.37 0 0 0 3.289-3.394l.732-1.763a.778.778 0 0 1 1.446 0l.732 1.763a6.37 6.37 0 0 0 3.289 3.394l1.925.854c.632.281.632 1.2 0 1.481l-1.987.882a6.37 6.37 0 0 0-3.242 3.284"/><path fill="url(#v)" d="m192.293 124.043-.203.466a.417.417 0 0 1-.769 0l-.203-.466a3.6 3.6 0 0 0-1.828-1.852l-.625-.278a.436.436 0 0 1 0-.792l.59-.262a3.6 3.6 0 0 0 1.854-1.914l.209-.503a.417.417 0 0 1 .775 0l.209.503a3.6 3.6 0 0 0 1.854 1.914l.591.262a.436.436 0 0 1 0 .792l-.626.278a3.6 3.6 0 0 0-1.828 1.852"/></g><g opacity=".5"><foreignObject width="97.363" height="101.287" x="194.318" y="65.106"><div xmlns="http://www.w3.org/1999/xhtml" style="backdrop-filter:blur(12px);clip-path:url(#w);height:100%;width:100%"/></foreignObject><g data-figma-bg-blur-radius="24" filter="url(#x)" shape-rendering="crispEdges"><path fill="#fdfdfd" fill-opacity=".5" d="M233.4 92.793c3.497-2.02 5.246-3.03 7.105-3.424 1.645-.35 3.345-.35 4.99 0 1.859.395 3.608 1.404 7.105 3.424l5.482 3.164c3.497 2.02 5.246 3.03 6.517 4.442a12 12 0 0 1 2.495 4.321c.588 1.808.588 3.827.588 7.865v6.33c0 4.038 0 6.057-.588 7.865a12 12 0 0 1-2.495 4.321c-1.271 1.413-3.02 2.422-6.517 4.442l-5.482 3.164c-3.497 2.02-5.246 3.029-7.105 3.424-1.645.35-3.345.35-4.99 0-1.859-.395-3.608-1.404-7.105-3.424l-5.482-3.164c-3.497-2.02-5.246-3.029-6.517-4.442a12 12 0 0 1-2.495-4.321c-.588-1.808-.588-3.827-.588-7.865v-6.33c0-4.038 0-6.057.588-7.865a12 12 0 0 1 2.495-4.321c1.271-1.413 3.02-2.422 6.517-4.442z"/><path stroke="#fdfdfd" stroke-opacity=".25" stroke-width="1.125" d="M240.622 89.919a11.4 11.4 0 0 1 4.756 0c1.751.372 3.411 1.322 6.94 3.36l5.483 3.165c3.53 2.038 5.183 3 6.381 4.331a11.45 11.45 0 0 1 2.378 4.119c.553 1.702.559 3.615.559 7.691v6.33c0 4.076-.006 5.989-.559 7.691a11.45 11.45 0 0 1-2.378 4.119c-1.198 1.33-2.851 2.293-6.381 4.331l-5.483 3.165c-3.529 2.038-5.189 2.988-6.94 3.36a11.45 11.45 0 0 1-4.756 0c-1.751-.372-3.41-1.322-6.94-3.36l-5.483-3.165c-3.53-2.038-5.183-3.001-6.381-4.331a11.45 11.45 0 0 1-2.378-4.119c-.553-1.702-.559-3.615-.559-7.691v-6.33c0-4.076.006-5.989.559-7.691a11.45 11.45 0 0 1 2.378-4.119c1.198-1.33 2.851-2.293 6.381-4.33l5.483-3.166c3.529-2.038 5.189-2.988 6.94-3.36Z"/></g></g><g opacity=".3"><foreignObject width="97.363" height="101.287" x="51.818" y="114.606"><div xmlns="http://www.w3.org/1999/xhtml" style="backdrop-filter:blur(12px);clip-path:url(#y);height:100%;width:100%"/></foreignObject><g data-figma-bg-blur-radius="24" filter="url(#z)" shape-rendering="crispEdges"><path fill="#fdfdfd" fill-opacity=".5" d="M90.9 142.293c3.497-2.02 5.246-3.029 7.105-3.424 1.645-.35 3.345-.35 4.99 0 1.859.395 3.608 1.404 7.105 3.424l5.482 3.164c3.497 2.02 5.246 3.029 6.517 4.442a12 12 0 0 1 2.495 4.321c.588 1.808.588 3.827.588 7.865v6.33c0 4.038 0 6.057-.588 7.865a12 12 0 0 1-2.495 4.321c-1.271 1.413-3.02 2.422-6.517 4.442l-5.482 3.164c-3.497 2.02-5.246 3.029-7.105 3.424-1.645.35-3.345.35-4.99 0-1.859-.395-3.608-1.404-7.105-3.424l-5.482-3.164c-3.497-2.02-5.246-3.029-6.518-4.442a12 12 0 0 1-2.494-4.321c-.588-1.808-.588-3.827-.588-7.865v-6.33c0-4.038 0-6.057.588-7.865a12 12 0 0 1 2.494-4.321c1.272-1.413 3.021-2.422 6.518-4.442z"/><path stroke="#fdfdfd" stroke-opacity=".25" stroke-width="1.125" d="M98.122 139.419a11.45 11.45 0 0 1 4.756 0c1.751.372 3.411 1.322 6.94 3.36l5.483 3.165c3.53 2.038 5.183 3.001 6.381 4.331a11.45 11.45 0 0 1 2.378 4.119c.553 1.702.559 3.615.559 7.691v6.33c0 4.076-.006 5.989-.559 7.691a11.45 11.45 0 0 1-2.378 4.119c-1.198 1.33-2.851 2.293-6.381 4.331l-5.483 3.165c-3.529 2.038-5.189 2.988-6.94 3.36a11.45 11.45 0 0 1-4.756 0c-1.751-.372-3.41-1.322-6.94-3.36l-5.483-3.165c-3.53-2.038-5.183-3.001-6.38-4.331a11.4 11.4 0 0 1-2.379-4.119c-.553-1.702-.56-3.615-.56-7.691v-6.33c0-4.076.007-5.989.56-7.691a11.4 11.4 0 0 1 2.378-4.119c1.198-1.33 2.851-2.293 6.381-4.331l5.483-3.165c3.53-2.038 5.189-2.988 6.94-3.36Z"/></g></g><g opacity=".5"><foreignObject width="97.363" height="101.287" x="108.818" y="114.606"><div xmlns="http://www.w3.org/1999/xhtml" style="backdrop-filter:blur(12px);clip-path:url(#A);height:100%;width:100%"/></foreignObject><g data-figma-bg-blur-radius="24" filter="url(#B)" shape-rendering="crispEdges"><path fill="#fdfdfd" fill-opacity=".5" d="M147.9 142.293c3.497-2.02 5.246-3.029 7.105-3.424 1.645-.35 3.345-.35 4.99 0 1.859.395 3.608 1.404 7.105 3.424l5.482 3.164c3.497 2.02 5.246 3.029 6.517 4.442a12 12 0 0 1 2.495 4.321c.588 1.808.588 3.827.588 7.865v6.33c0 4.038 0 6.057-.588 7.865a12 12 0 0 1-2.495 4.321c-1.271 1.413-3.02 2.422-6.517 4.442l-5.482 3.164c-3.497 2.02-5.246 3.029-7.105 3.424-1.645.35-3.345.35-4.99 0-1.859-.395-3.608-1.404-7.105-3.424l-5.482-3.164c-3.497-2.02-5.246-3.029-6.517-4.442a12 12 0 0 1-2.495-4.321c-.588-1.808-.588-3.827-.588-7.865v-6.33c0-4.038 0-6.057.588-7.865a12 12 0 0 1 2.495-4.321c1.271-1.413 3.02-2.422 6.517-4.442z"/><path stroke="#fdfdfd" stroke-opacity=".25" stroke-width="1.125" d="M155.122 139.419a11.45 11.45 0 0 1 4.756 0c1.751.372 3.411 1.322 6.94 3.36l5.483 3.165c3.53 2.038 5.183 3.001 6.381 4.331a11.45 11.45 0 0 1 2.378 4.119c.553 1.702.559 3.615.559 7.691v6.33c0 4.076-.006 5.989-.559 7.691a11.45 11.45 0 0 1-2.378 4.119c-1.198 1.33-2.851 2.293-6.381 4.331l-5.483 3.165c-3.529 2.038-5.189 2.988-6.94 3.36a11.45 11.45 0 0 1-4.756 0c-1.751-.372-3.41-1.322-6.94-3.36l-5.483-3.165c-3.53-2.038-5.183-3.001-6.381-4.331a11.45 11.45 0 0 1-2.378-4.119c-.553-1.702-.559-3.615-.559-7.691v-6.33c0-4.076.006-5.989.559-7.691a11.45 11.45 0 0 1 2.378-4.119c1.198-1.33 2.851-2.293 6.381-4.331l5.483-3.165c3.529-2.038 5.189-2.988 6.94-3.36Z"/></g><g clip-path="url(#C)"><path fill="#5de8e8" d="M148.827 168.076a4.22 4.22 0 0 1 4.218-4.218h3.919a4.517 4.517 0 0 1 0 9.033h-8.137z"/><path fill="#2b4ff1" d="M153.605 161.994a4.22 4.22 0 0 1 4.218-4.218h3.919a4.517 4.517 0 1 1 0 9.033h-8.137z"/><mask id="D" width="14" height="10" x="148" y="163" maskUnits="userSpaceOnUse" style="mask-type:alpha"><path fill="#5de8e8" d="M148.828 168.074a4.22 4.22 0 0 1 4.218-4.218h3.919a4.517 4.517 0 0 1 0 9.033h-8.137z"/></mask><g mask="url(#D)"><path fill="#00a5fd" d="M153.605 161.994a4.22 4.22 0 0 1 4.218-4.218h3.919a4.517 4.517 0 1 1 0 9.033h-8.137z"/></g></g></g><g opacity=".3"><foreignObject width="97.363" height="101.287" x="165.818" y="114.606"><div xmlns="http://www.w3.org/1999/xhtml" style="backdrop-filter:blur(12px);clip-path:url(#E);height:100%;width:100%"/></foreignObject><g data-figma-bg-blur-radius="24" filter="url(#F)" shape-rendering="crispEdges"><path fill="#fdfdfd" fill-opacity=".5" d="M204.9 142.293c3.497-2.02 5.246-3.029 7.105-3.424 1.645-.35 3.345-.35 4.99 0 1.859.395 3.608 1.404 7.105 3.424l5.482 3.164c3.497 2.02 5.246 3.029 6.517 4.442a12 12 0 0 1 2.495 4.321c.588 1.808.588 3.827.588 7.865v6.33c0 4.038 0 6.057-.588 7.865a12 12 0 0 1-2.495 4.321c-1.271 1.413-3.02 2.422-6.517 4.442l-5.482 3.164c-3.497 2.02-5.246 3.029-7.105 3.424-1.645.35-3.345.35-4.99 0-1.859-.395-3.608-1.404-7.105-3.424l-5.482-3.164c-3.497-2.02-5.246-3.029-6.517-4.442a12 12 0 0 1-2.495-4.321c-.588-1.808-.588-3.827-.588-7.865v-6.33c0-4.038 0-6.057.588-7.865a12 12 0 0 1 2.495-4.321c1.271-1.413 3.02-2.422 6.517-4.442z"/><path stroke="#fdfdfd" stroke-opacity=".25" stroke-width="1.125" d="M212.122 139.419a11.45 11.45 0 0 1 4.756 0c1.751.372 3.411 1.322 6.94 3.36l5.483 3.165c3.53 2.038 5.183 3.001 6.381 4.331a11.45 11.45 0 0 1 2.378 4.119c.553 1.702.559 3.615.559 7.691v6.33c0 4.076-.006 5.989-.559 7.691a11.45 11.45 0 0 1-2.378 4.119c-1.198 1.33-2.851 2.293-6.381 4.331l-5.483 3.165c-3.529 2.038-5.189 2.988-6.94 3.36a11.45 11.45 0 0 1-4.756 0c-1.751-.372-3.41-1.322-6.94-3.36l-5.483-3.165c-3.53-2.038-5.183-3.001-6.381-4.331a11.45 11.45 0 0 1-2.378-4.119c-.553-1.702-.559-3.615-.559-7.691v-6.33c0-4.076.006-5.989.559-7.691a11.45 11.45 0 0 1 2.378-4.119c1.198-1.33 2.851-2.293 6.381-4.331l5.483-3.165c3.529-2.038 5.189-2.988 6.94-3.36Z"/></g></g><g filter="url(#G)"><path fill="#000" fill-opacity=".06" d="M113.4 104.793c3.497-2.02 5.246-3.029 7.105-3.424 1.645-.35 3.345-.35 4.99 0 1.859.395 3.608 1.404 7.105 3.424l5.482 3.164c3.497 2.02 5.246 3.029 6.517 4.442a12 12 0 0 1 2.495 4.321c.588 1.808.588 3.827.588 7.865v6.33c0 4.038 0 6.057-.588 7.865a12 12 0 0 1-2.495 4.321c-1.271 1.413-3.02 2.422-6.517 4.442l-5.482 3.164c-3.497 2.02-5.246 3.029-7.105 3.424-1.645.35-3.345.35-4.99 0-1.859-.395-3.608-1.404-7.105-3.424l-5.482-3.164c-3.497-2.02-5.246-3.029-6.517-4.442a12 12 0 0 1-2.495-4.321c-.588-1.808-.588-3.827-.588-7.865v-6.33c0-4.038 0-6.057.588-7.865a12 12 0 0 1 2.495-4.321c1.271-1.413 3.02-2.422 6.517-4.442z" style="mix-blend-mode:multiply"/></g><foreignObject width="97.363" height="101.287" x="80.318" y="65.106"><div xmlns="http://www.w3.org/1999/xhtml" style="backdrop-filter:blur(12px);clip-path:url(#H);height:100%;width:100%"/></foreignObject><g data-figma-bg-blur-radius="24" filter="url(#I)" shape-rendering="crispEdges"><path fill="#fdfdfd" fill-opacity=".5" d="M119.4 92.793c3.497-2.02 5.246-3.03 7.105-3.424 1.645-.35 3.345-.35 4.99 0 1.859.395 3.608 1.404 7.105 3.424l5.482 3.164c3.497 2.02 5.246 3.03 6.517 4.442a12 12 0 0 1 2.495 4.321c.588 1.808.588 3.827.588 7.865v6.33c0 4.038 0 6.057-.588 7.865a12 12 0 0 1-2.495 4.321c-1.271 1.413-3.02 2.422-6.517 4.442l-5.482 3.164c-3.497 2.02-5.246 3.029-7.105 3.424-1.645.35-3.345.35-4.99 0-1.859-.395-3.608-1.404-7.105-3.424l-5.482-3.164c-3.497-2.02-5.246-3.029-6.517-4.442a12 12 0 0 1-2.495-4.321c-.588-1.808-.588-3.827-.588-7.865v-6.33c0-4.038 0-6.057.588-7.865a12 12 0 0 1 2.495-4.321c1.271-1.413 3.02-2.422 6.517-4.442z"/><path stroke="#fdfdfd" stroke-opacity=".25" stroke-width="1.125" d="M126.622 89.919a11.4 11.4 0 0 1 4.756 0c1.751.372 3.411 1.322 6.94 3.36l5.483 3.165c3.53 2.038 5.183 3 6.381 4.331a11.45 11.45 0 0 1 2.378 4.119c.553 1.702.559 3.615.559 7.691v6.33c0 4.076-.006 5.989-.559 7.691a11.45 11.45 0 0 1-2.378 4.119c-1.198 1.33-2.851 2.293-6.381 4.331l-5.483 3.165c-3.529 2.038-5.189 2.988-6.94 3.36a11.45 11.45 0 0 1-4.756 0c-1.751-.372-3.41-1.322-6.94-3.36l-5.483-3.165c-3.53-2.038-5.183-3.001-6.381-4.331a11.45 11.45 0 0 1-2.378-4.119c-.553-1.702-.559-3.615-.559-7.691v-6.33c0-4.076.006-5.989.559-7.691a11.45 11.45 0 0 1 2.378-4.119c1.198-1.33 2.851-2.293 6.381-4.33l5.483-3.166c3.529-2.038 5.189-2.988 6.94-3.36Z"/></g><g clip-path="url(#J)"><path fill="#d97757" d="m123.532 118.726 3.54-1.987.06-.173-.06-.096h-.173l-.592-.036-2.023-.055-1.755-.073-1.7-.091-.428-.091-.401-.529.041-.264.36-.242.515.046 1.139.077 1.709.119 1.24.073 1.836.191h.292l.041-.118-.101-.073-.077-.073-1.768-1.199-1.914-1.267-1.003-.729-.542-.369-.273-.346-.119-.757.492-.542.661.046.169.045.67.515 1.43 1.108 1.869 1.376.273.228.11-.078.013-.055-.123-.205-1.016-1.836-1.085-1.868-.483-.775-.127-.465a2.2 2.2 0 0 1-.078-.547l.561-.761.31-.1.747.1.315.274.464 1.061.752 1.673 1.167 2.274.342.674.182.625.068.191h.119v-.109l.095-1.281.178-1.572.173-2.023.06-.57.282-.684.561-.369.437.21.36.515-.05.332-.214 1.39-.419 2.179-.274 1.458h.16l.182-.182.738-.98 1.24-1.55.546-.615.638-.679.411-.323h.774l.57.847-.255.875-.798 1.012-.661.857-.947 1.276-.593 1.02.055.082.141-.013 2.142-.456 1.157-.21 1.381-.237.624.292.069.296-.246.606-1.477.365-1.731.346-2.58.611-.032.023.037.045 1.162.11.497.027h1.216l2.265.169.593.391.355.479-.059.364-.912.465-1.23-.291-2.871-.684-.984-.246h-.137v.082l.82.802 1.504 1.358 1.882 1.75.096.433-.242.342-.255-.037-1.654-1.244-.638-.56-1.445-1.217h-.095v.127l.332.488 1.759 2.643.092.811-.128.265-.456.159-.501-.091-1.03-1.445-1.062-1.627-.856-1.458-.105.06-.506 5.445-.237.278-.547.21-.455-.347-.242-.56.241-1.108.292-1.444.237-1.148.214-1.427.128-.474-.009-.032-.105.014-1.075 1.477-1.636 2.21-1.295 1.385-.309.123-.538-.278.05-.497.301-.442 1.79-2.278 1.08-1.413.698-.815-.005-.119h-.041l-4.757 3.09-.848.109-.365-.342.046-.56.173-.183 1.431-.984z"/></g><g filter="url(#K)"><path fill="#000" fill-opacity=".06" d="M156.15 53.043c3.497-2.02 5.246-3.03 7.105-3.424 1.645-.35 3.345-.35 4.99 0 1.859.395 3.608 1.404 7.105 3.424l5.482 3.164c3.497 2.02 5.246 3.03 6.517 4.442a12 12 0 0 1 2.495 4.321c.588 1.808.588 3.827.588 7.865v6.33c0 4.038 0 6.057-.588 7.865a12 12 0 0 1-2.495 4.321c-1.271 1.413-3.02 2.422-6.517 4.442l-5.482 3.164c-3.497 2.02-5.246 3.029-7.105 3.424-1.645.35-3.345.35-4.99 0-1.859-.395-3.608-1.404-7.105-3.424l-5.482-3.164c-3.497-2.02-5.246-3.03-6.517-4.442a12 12 0 0 1-2.495-4.321c-.588-1.808-.588-3.827-.588-7.865v-6.33c0-4.038 0-6.057.588-7.865a12 12 0 0 1 2.495-4.321c1.271-1.413 3.02-2.422 6.517-4.442z" style="mix-blend-mode:multiply"/></g><foreignObject width="97.363" height="101.287" x="108.818" y="15.606"><div xmlns="http://www.w3.org/1999/xhtml" style="backdrop-filter:blur(12px);clip-path:url(#L);height:100%;width:100%"/></foreignObject><g data-figma-bg-blur-radius="24" filter="url(#M)" shape-rendering="crispEdges"><path fill="#fdfdfd" fill-opacity=".5" d="M147.9 43.293c3.497-2.02 5.246-3.03 7.105-3.424 1.645-.35 3.345-.35 4.99 0 1.859.395 3.608 1.404 7.105 3.424l5.482 3.164c3.497 2.02 5.246 3.03 6.517 4.442a12 12 0 0 1 2.495 4.321c.588 1.808.588 3.827.588 7.865v6.33c0 4.038 0 6.057-.588 7.865a12 12 0 0 1-2.495 4.321c-1.271 1.413-3.02 2.422-6.517 4.442l-5.482 3.164c-3.497 2.02-5.246 3.03-7.105 3.424-1.645.35-3.345.35-4.99 0-1.859-.395-3.608-1.404-7.105-3.424l-5.482-3.164c-3.497-2.02-5.246-3.03-6.517-4.442a12 12 0 0 1-2.495-4.321c-.588-1.808-.588-3.827-.588-7.865v-6.33c0-4.038 0-6.057.588-7.865a12 12 0 0 1 2.495-4.321c1.271-1.413 3.02-2.422 6.517-4.442z"/><path stroke="#fdfdfd" stroke-opacity=".25" stroke-width="1.125" d="M155.122 40.419a11.4 11.4 0 0 1 4.756 0c1.751.372 3.411 1.322 6.94 3.36l5.483 3.165c3.53 2.038 5.183 3 6.381 4.331a11.45 11.45 0 0 1 2.378 4.119c.553 1.702.559 3.615.559 7.691v6.33c0 4.076-.006 5.989-.559 7.691a11.45 11.45 0 0 1-2.378 4.119c-1.198 1.33-2.851 2.293-6.381 4.33l-5.483 3.166c-3.529 2.038-5.189 2.988-6.94 3.36a11.4 11.4 0 0 1-4.756 0c-1.751-.372-3.41-1.322-6.94-3.36l-5.483-3.165c-3.53-2.038-5.183-3-6.381-4.331a11.45 11.45 0 0 1-2.378-4.119c-.553-1.702-.559-3.615-.559-7.691v-6.33c0-4.076.006-5.989.559-7.691a11.45 11.45 0 0 1 2.378-4.119c1.198-1.33 2.851-2.293 6.381-4.33l5.483-3.166c3.529-2.038 5.189-2.988 6.94-3.36Z"/></g><g clip-path="url(#N)"><path fill="#1b1b1b" d="M165.318 64.717a4.56 4.56 0 0 0-.392-3.733 4.6 4.6 0 0 0-4.95-2.206 4.613 4.613 0 0 0-7.813 1.651 4.55 4.55 0 0 0-3.04 2.205 4.6 4.6 0 0 0 .565 5.396 4.54 4.54 0 0 0 .389 3.734 4.6 4.6 0 0 0 4.953 2.205 4.55 4.55 0 0 0 3.428 1.529 4.6 4.6 0 0 0 4.388-3.198 4.55 4.55 0 0 0 3.04-2.205 4.6 4.6 0 0 0-.568-5.378m-6.86 9.587a3.4 3.4 0 0 1-2.187-.792l.108-.061 3.633-2.097a.6.6 0 0 0 .298-.518v-5.122l1.536.888a.05.05 0 0 1 .029.04v4.244a3.424 3.424 0 0 1-3.417 3.418m-7.345-3.137a3.4 3.4 0 0 1-.407-2.291l.108.064 3.637 2.097a.59.59 0 0 0 .593 0l4.443-2.56v1.773l-.008.026-.017.02-3.68 2.123a3.42 3.42 0 0 1-4.669-1.252m-.957-7.914a3.4 3.4 0 0 1 1.798-1.5v4.317a.59.59 0 0 0 .295.514l4.421 2.55-1.536.889-.027.007-.027-.007-3.672-2.119a3.424 3.424 0 0 1-1.252-4.669zm12.619 2.932-4.436-2.576 1.533-.885.027-.006q.013 0 .027.006l3.672 2.123a3.41 3.41 0 0 1 1.698 3.244 3.42 3.42 0 0 1-2.212 2.918v-4.317a.6.6 0 0 0-.309-.507m1.528-2.299-.108-.065-3.629-2.115a.59.59 0 0 0-.597 0l-4.439 2.562v-1.774l.004-.026.017-.02 3.673-2.12a3.422 3.422 0 0 1 5.079 3.544zm-9.611 3.144-1.536-.885-.019-.018-.01-.025v-4.234a3.423 3.423 0 0 1 5.608-2.626l-.108.062-3.633 2.097a.6.6 0 0 0-.299.518zm.834-1.799 1.979-1.14 1.982 1.14v2.281l-1.975 1.14-1.982-1.14z"/></g><path stroke="#d9d9d9" stroke-linecap="round" stroke-width="1.125" d="M157.5 4v28.5m-6.75 3 6.75-3m0 0 6.75 3"/><defs><clipPath id="c" transform="translate(-48 -48)"><rect width="169.875" height="169.875" x=".563" y="-.563" rx="84.938" transform="matrix(1 0 0 -1 72 241.875)"/></clipPath><clipPath id="e" transform="translate(13.5 13.5)"><rect width="292.875" height="292.875" x=".563" y="-.563" rx="146.438" transform="matrix(1 0 0 -1 10.5 303.375)"/></clipPath><clipPath id="g" transform="translate(-100.5 -187.75)"><path d="M124.5 222.25c0-5.799 4.701-10.5 10.5-10.5h45c5.799 0 10.5 4.701 10.5 10.5s-4.701 10.5-10.5 10.5h-45c-5.799 0-10.5-4.701-10.5-10.5"/></clipPath><clipPath id="l" transform="translate(-51.818 -15.606)"><path d="M90.9 43.293c3.497-2.02 5.246-3.03 7.105-3.424 1.645-.35 3.345-.35 4.99 0 1.859.395 3.608 1.404 7.105 3.424l5.482 3.164c3.497 2.02 5.246 3.03 6.517 4.442a12 12 0 0 1 2.495 4.321c.588 1.808.588 3.827.588 7.865v6.33c0 4.038 0 6.057-.588 7.865a12 12 0 0 1-2.495 4.321c-1.271 1.413-3.02 2.422-6.517 4.442l-5.482 3.164c-3.497 2.02-5.246 3.03-7.105 3.424-1.645.35-3.345.35-4.99 0-1.859-.395-3.608-1.404-7.105-3.424l-5.482-3.164c-3.497-2.02-5.246-3.03-6.518-4.442a12 12 0 0 1-2.494-4.321c-.588-1.808-.588-3.827-.588-7.865v-6.33c0-4.038 0-6.057.588-7.865.52-1.6 1.37-3.072 2.494-4.321 1.272-1.413 3.021-2.422 6.518-4.442z"/></clipPath><clipPath id="n" transform="translate(-165.818 -15.606)"><path d="M204.9 43.293c3.497-2.02 5.246-3.03 7.105-3.424 1.645-.35 3.345-.35 4.99 0 1.859.395 3.608 1.404 7.105 3.424l5.482 3.164c3.497 2.02 5.246 3.03 6.517 4.442a12 12 0 0 1 2.495 4.321c.588 1.808.588 3.827.588 7.865v6.33c0 4.038 0 6.057-.588 7.865a12 12 0 0 1-2.495 4.321c-1.271 1.413-3.02 2.422-6.517 4.442l-5.482 3.164c-3.497 2.02-5.246 3.03-7.105 3.424-1.645.35-3.345.35-4.99 0-1.859-.395-3.608-1.404-7.105-3.424l-5.482-3.164c-3.497-2.02-5.246-3.03-6.517-4.442a12 12 0 0 1-2.495-4.321c-.588-1.808-.588-3.827-.588-7.865v-6.33c0-4.038 0-6.057.588-7.865a12 12 0 0 1 2.495-4.321c1.271-1.413 3.02-2.422 6.517-4.442z"/></clipPath><clipPath id="p" transform="translate(-23.318 -65.106)"><path d="M62.4 92.793c3.497-2.02 5.246-3.03 7.105-3.424a12 12 0 0 1 4.99 0c1.859.395 3.608 1.404 7.105 3.424l5.482 3.164c3.497 2.02 5.246 3.03 6.518 4.442a12 12 0 0 1 2.494 4.321c.588 1.808.588 3.827.588 7.865v6.33c0 4.038 0 6.057-.588 7.865a12 12 0 0 1-2.494 4.321c-1.272 1.413-3.021 2.422-6.518 4.442l-5.482 3.164c-3.497 2.02-5.246 3.029-7.105 3.424-1.645.35-3.345.35-4.99 0-1.859-.395-3.608-1.404-7.105-3.424l-5.482-3.164c-3.497-2.02-5.246-3.029-6.517-4.442a12 12 0 0 1-2.495-4.321c-.588-1.808-.588-3.827-.588-7.865v-6.33c0-4.038 0-6.057.588-7.865a12 12 0 0 1 2.495-4.321c1.271-1.413 3.02-2.422 6.517-4.442z"/></clipPath><clipPath id="r" transform="translate(-137.318 -65.106)"><path d="M176.4 92.793c3.497-2.02 5.246-3.03 7.105-3.424 1.645-.35 3.345-.35 4.99 0 1.859.395 3.608 1.404 7.105 3.424l5.482 3.164c3.497 2.02 5.246 3.03 6.517 4.442a12 12 0 0 1 2.495 4.321c.588 1.808.588 3.827.588 7.865v6.33c0 4.038 0 6.057-.588 7.865a12 12 0 0 1-2.495 4.321c-1.271 1.413-3.02 2.422-6.517 4.442l-5.482 3.164c-3.497 2.02-5.246 3.029-7.105 3.424-1.645.35-3.345.35-4.99 0-1.859-.395-3.608-1.404-7.105-3.424l-5.482-3.164c-3.497-2.02-5.246-3.029-6.517-4.442a12 12 0 0 1-2.495-4.321c-.588-1.808-.588-3.827-.588-7.865v-6.33c0-4.038 0-6.057.588-7.865a12 12 0 0 1 2.495-4.321c1.271-1.413 3.02-2.422 6.517-4.442z"/></clipPath><clipPath id="w" transform="translate(-194.318 -65.106)"><path d="M233.4 92.793c3.497-2.02 5.246-3.03 7.105-3.424 1.645-.35 3.345-.35 4.99 0 1.859.395 3.608 1.404 7.105 3.424l5.482 3.164c3.497 2.02 5.246 3.03 6.517 4.442a12 12 0 0 1 2.495 4.321c.588 1.808.588 3.827.588 7.865v6.33c0 4.038 0 6.057-.588 7.865a12 12 0 0 1-2.495 4.321c-1.271 1.413-3.02 2.422-6.517 4.442l-5.482 3.164c-3.497 2.02-5.246 3.029-7.105 3.424-1.645.35-3.345.35-4.99 0-1.859-.395-3.608-1.404-7.105-3.424l-5.482-3.164c-3.497-2.02-5.246-3.029-6.517-4.442a12 12 0 0 1-2.495-4.321c-.588-1.808-.588-3.827-.588-7.865v-6.33c0-4.038 0-6.057.588-7.865a12 12 0 0 1 2.495-4.321c1.271-1.413 3.02-2.422 6.517-4.442z"/></clipPath><clipPath id="y" transform="translate(-51.818 -114.606)"><path d="M90.9 142.293c3.497-2.02 5.246-3.029 7.105-3.424 1.645-.35 3.345-.35 4.99 0 1.859.395 3.608 1.404 7.105 3.424l5.482 3.164c3.497 2.02 5.246 3.029 6.517 4.442a12 12 0 0 1 2.495 4.321c.588 1.808.588 3.827.588 7.865v6.33c0 4.038 0 6.057-.588 7.865a12 12 0 0 1-2.495 4.321c-1.271 1.413-3.02 2.422-6.517 4.442l-5.482 3.164c-3.497 2.02-5.246 3.029-7.105 3.424-1.645.35-3.345.35-4.99 0-1.859-.395-3.608-1.404-7.105-3.424l-5.482-3.164c-3.497-2.02-5.246-3.029-6.518-4.442a12 12 0 0 1-2.494-4.321c-.588-1.808-.588-3.827-.588-7.865v-6.33c0-4.038 0-6.057.588-7.865a12 12 0 0 1 2.494-4.321c1.272-1.413 3.021-2.422 6.518-4.442z"/></clipPath><clipPath id="A" transform="translate(-108.818 -114.606)"><path d="M147.9 142.293c3.497-2.02 5.246-3.029 7.105-3.424 1.645-.35 3.345-.35 4.99 0 1.859.395 3.608 1.404 7.105 3.424l5.482 3.164c3.497 2.02 5.246 3.029 6.517 4.442a12 12 0 0 1 2.495 4.321c.588 1.808.588 3.827.588 7.865v6.33c0 4.038 0 6.057-.588 7.865a12 12 0 0 1-2.495 4.321c-1.271 1.413-3.02 2.422-6.517 4.442l-5.482 3.164c-3.497 2.02-5.246 3.029-7.105 3.424-1.645.35-3.345.35-4.99 0-1.859-.395-3.608-1.404-7.105-3.424l-5.482-3.164c-3.497-2.02-5.246-3.029-6.517-4.442a12 12 0 0 1-2.495-4.321c-.588-1.808-.588-3.827-.588-7.865v-6.33c0-4.038 0-6.057.588-7.865a12 12 0 0 1 2.495-4.321c1.271-1.413 3.02-2.422 6.517-4.442z"/></clipPath><clipPath id="E" transform="translate(-165.818 -114.606)"><path d="M204.9 142.293c3.497-2.02 5.246-3.029 7.105-3.424 1.645-.35 3.345-.35 4.99 0 1.859.395 3.608 1.404 7.105 3.424l5.482 3.164c3.497 2.02 5.246 3.029 6.517 4.442a12 12 0 0 1 2.495 4.321c.588 1.808.588 3.827.588 7.865v6.33c0 4.038 0 6.057-.588 7.865a12 12 0 0 1-2.495 4.321c-1.271 1.413-3.02 2.422-6.517 4.442l-5.482 3.164c-3.497 2.02-5.246 3.029-7.105 3.424-1.645.35-3.345.35-4.99 0-1.859-.395-3.608-1.404-7.105-3.424l-5.482-3.164c-3.497-2.02-5.246-3.029-6.517-4.442a12 12 0 0 1-2.495-4.321c-.588-1.808-.588-3.827-.588-7.865v-6.33c0-4.038 0-6.057.588-7.865a12 12 0 0 1 2.495-4.321c1.271-1.413 3.02-2.422 6.517-4.442z"/></clipPath><clipPath id="H" transform="translate(-80.318 -65.106)"><path d="M119.4 92.793c3.497-2.02 5.246-3.03 7.105-3.424 1.645-.35 3.345-.35 4.99 0 1.859.395 3.608 1.404 7.105 3.424l5.482 3.164c3.497 2.02 5.246 3.03 6.517 4.442a12 12 0 0 1 2.495 4.321c.588 1.808.588 3.827.588 7.865v6.33c0 4.038 0 6.057-.588 7.865a12 12 0 0 1-2.495 4.321c-1.271 1.413-3.02 2.422-6.517 4.442l-5.482 3.164c-3.497 2.02-5.246 3.029-7.105 3.424-1.645.35-3.345.35-4.99 0-1.859-.395-3.608-1.404-7.105-3.424l-5.482-3.164c-3.497-2.02-5.246-3.029-6.517-4.442a12 12 0 0 1-2.495-4.321c-.588-1.808-.588-3.827-.588-7.865v-6.33c0-4.038 0-6.057.588-7.865a12 12 0 0 1 2.495-4.321c1.271-1.413 3.02-2.422 6.517-4.442z"/></clipPath><clipPath id="L" transform="translate(-108.818 -15.606)"><path d="M147.9 43.293c3.497-2.02 5.246-3.03 7.105-3.424 1.645-.35 3.345-.35 4.99 0 1.859.395 3.608 1.404 7.105 3.424l5.482 3.164c3.497 2.02 5.246 3.03 6.517 4.442a12 12 0 0 1 2.495 4.321c.588 1.808.588 3.827.588 7.865v6.33c0 4.038 0 6.057-.588 7.865a12 12 0 0 1-2.495 4.321c-1.271 1.413-3.02 2.422-6.517 4.442l-5.482 3.164c-3.497 2.02-5.246 3.03-7.105 3.424-1.645.35-3.345.35-4.99 0-1.859-.395-3.608-1.404-7.105-3.424l-5.482-3.164c-3.497-2.02-5.246-3.03-6.517-4.442a12 12 0 0 1-2.495-4.321c-.588-1.808-.588-3.827-.588-7.865v-6.33c0-4.038 0-6.057.588-7.865a12 12 0 0 1 2.495-4.321c1.271-1.413 3.02-2.422 6.517-4.442z"/></clipPath><clipPath id="t"><path fill="#fff" d="M177 106.68h18v18.141h-18z"/></clipPath><clipPath id="C"><path fill="#fff" d="M148.5 156.25h18v18h-18z"/></clipPath><clipPath id="J"><path fill="#fff" d="M120 106.75h18v18.07h-18z"/></clipPath><clipPath id="N"><path fill="#fff" d="M148.5 57.25h18v18.281h-18z"/></clipPath><filter id="m" width="97.363" height="101.287" x="51.818" y="15.606" color-interpolation-filters="sRGB" filterUnits="userSpaceOnUse"><feFlood flood-opacity="0" result="BackgroundImageFix"/><feColorMatrix in="SourceAlpha" result="hardAlpha" values="0 0 0 0 0 0 0 0 0 0 0 0 0 0 0 0 0 0 127 0"/><feMorphology in="SourceAlpha" radius="3" result="effect1_dropShadow_211_4905"/><feOffset dy=".75"/><feGaussianBlur stdDeviation="3"/><feComposite in2="hardAlpha" operator="out"/><feColorMatrix values="0 0 0 0 0 0 0 0 0 0 0 0 0 0 0 0 0 0 0.05 0"/><feBlend in2="BackgroundImageFix" mode="multiply" result="effect1_dropShadow_211_4905"/><feBlend in="SourceGraphic" in2="effect1_dropShadow_211_4905" result="shape"/></filter><filter id="o" width="97.363" height="101.287" x="165.818" y="15.606" color-interpolation-filters="sRGB" filterUnits="userSpaceOnUse"><feFlood flood-opacity="0" result="BackgroundImageFix"/><feColorMatrix in="SourceAlpha" result="hardAlpha" values="0 0 0 0 0 0 0 0 0 0 0 0 0 0 0 0 0 0 127 0"/><feMorphology in="SourceAlpha" radius="3" result="effect1_dropShadow_211_4905"/><feOffset dy=".75"/><feGaussianBlur stdDeviation="3"/><feComposite in2="hardAlpha" operator="out"/><feColorMatrix values="0 0 0 0 0 0 0 0 0 0 0 0 0 0 0 0 0 0 0.05 0"/><feBlend in2="BackgroundImageFix" mode="multiply" result="effect1_dropShadow_211_4905"/><feBlend in="SourceGraphic" in2="effect1_dropShadow_211_4905" result="shape"/></filter><filter id="q" width="97.363" height="101.287" x="23.318" y="65.106" color-interpolation-filters="sRGB" filterUnits="userSpaceOnUse"><feFlood flood-opacity="0" result="BackgroundImageFix"/><feColorMatrix in="SourceAlpha" result="hardAlpha" values="0 0 0 0 0 0 0 0 0 0 0 0 0 0 0 0 0 0 127 0"/><feMorphology in="SourceAlpha" radius="3" result="effect1_dropShadow_211_4905"/><feOffset dy=".75"/><feGaussianBlur stdDeviation="3"/><feComposite in2="hardAlpha" operator="out"/><feColorMatrix values="0 0 0 0 0 0 0 0 0 0 0 0 0 0 0 0 0 0 0.05 0"/><feBlend in2="BackgroundImageFix" mode="multiply" result="effect1_dropShadow_211_4905"/><feBlend in="SourceGraphic" in2="effect1_dropShadow_211_4905" result="shape"/></filter><filter id="s" width="97.363" height="101.287" x="137.318" y="65.106" color-interpolation-filters="sRGB" filterUnits="userSpaceOnUse"><feFlood flood-opacity="0" result="BackgroundImageFix"/><feColorMatrix in="SourceAlpha" result="hardAlpha" values="0 0 0 0 0 0 0 0 0 0 0 0 0 0 0 0 0 0 127 0"/><feMorphology in="SourceAlpha" radius="3" result="effect1_dropShadow_211_4905"/><feOffset dy=".75"/><feGaussianBlur stdDeviation="3"/><feComposite in2="hardAlpha" operator="out"/><feColorMatrix values="0 0 0 0 0 0 0 0 0 0 0 0 0 0 0 0 0 0 0.05 0"/><feBlend in2="BackgroundImageFix" mode="multiply" result="effect1_dropShadow_211_4905"/><feBlend in="SourceGraphic" in2="effect1_dropShadow_211_4905" result="shape"/></filter><filter id="x" width="97.363" height="101.287" x="194.318" y="65.106" color-interpolation-filters="sRGB" filterUnits="userSpaceOnUse"><feFlood flood-opacity="0" result="BackgroundImageFix"/><feColorMatrix in="SourceAlpha" result="hardAlpha" values="0 0 0 0 0 0 0 0 0 0 0 0 0 0 0 0 0 0 127 0"/><feMorphology in="SourceAlpha" radius="3" result="effect1_dropShadow_211_4905"/><feOffset dy=".75"/><feGaussianBlur stdDeviation="3"/><feComposite in2="hardAlpha" operator="out"/><feColorMatrix values="0 0 0 0 0 0 0 0 0 0 0 0 0 0 0 0 0 0 0.05 0"/><feBlend in2="BackgroundImageFix" mode="multiply" result="effect1_dropShadow_211_4905"/><feBlend in="SourceGraphic" in2="effect1_dropShadow_211_4905" result="shape"/></filter><filter id="z" width="97.363" height="101.287" x="51.818" y="114.606" color-interpolation-filters="sRGB" filterUnits="userSpaceOnUse"><feFlood flood-opacity="0" result="BackgroundImageFix"/><feColorMatrix in="SourceAlpha" result="hardAlpha" values="0 0 0 0 0 0 0 0 0 0 0 0 0 0 0 0 0 0 127 0"/><feMorphology in="SourceAlpha" radius="3" result="effect1_dropShadow_211_4905"/><feOffset dy=".75"/><feGaussianBlur stdDeviation="3"/><feComposite in2="hardAlpha" operator="out"/><feColorMatrix values="0 0 0 0 0 0 0 0 0 0 0 0 0 0 0 0 0 0 0.05 0"/><feBlend in2="BackgroundImageFix" mode="multiply" result="effect1_dropShadow_211_4905"/><feBlend in="SourceGraphic" in2="effect1_dropShadow_211_4905" result="shape"/></filter><filter id="B" width="97.363" height="101.287" x="108.818" y="114.606" color-interpolation-filters="sRGB" filterUnits="userSpaceOnUse"><feFlood flood-opacity="0" result="BackgroundImageFix"/><feColorMatrix in="SourceAlpha" result="hardAlpha" values="0 0 0 0 0 0 0 0 0 0 0 0 0 0 0 0 0 0 127 0"/><feMorphology in="SourceAlpha" radius="3" result="effect1_dropShadow_211_4905"/><feOffset dy=".75"/><feGaussianBlur stdDeviation="3"/><feComposite in2="hardAlpha" operator="out"/><feColorMatrix values="0 0 0 0 0 0 0 0 0 0 0 0 0 0 0 0 0 0 0.05 0"/><feBlend in2="BackgroundImageFix" mode="multiply" result="effect1_dropShadow_211_4905"/><feBlend in="SourceGraphic" in2="effect1_dropShadow_211_4905" result="shape"/></filter><filter id="F" width="97.363" height="101.287" x="165.818" y="114.606" color-interpolation-filters="sRGB" filterUnits="userSpaceOnUse"><feFlood flood-opacity="0" result="BackgroundImageFix"/><feColorMatrix in="SourceAlpha" result="hardAlpha" values="0 0 0 0 0 0 0 0 0 0 0 0 0 0 0 0 0 0 127 0"/><feMorphology in="SourceAlpha" radius="3" result="effect1_dropShadow_211_4905"/><feOffset dy=".75"/><feGaussianBlur stdDeviation="3"/><feComposite in2="hardAlpha" operator="out"/><feColorMatrix values="0 0 0 0 0 0 0 0 0 0 0 0 0 0 0 0 0 0 0.05 0"/><feBlend in2="BackgroundImageFix" mode="multiply" result="effect1_dropShadow_211_4905"/><feBlend in="SourceGraphic" in2="effect1_dropShadow_211_4905" result="shape"/></filter><filter id="G" width="67.363" height="71.287" x="89.318" y="92.106" color-interpolation-filters="sRGB" filterUnits="userSpaceOnUse"><feFlood flood-opacity="0" result="BackgroundImageFix"/><feBlend in="SourceGraphic" in2="BackgroundImageFix" result="shape"/><feGaussianBlur result="effect1_foregroundBlur_211_4905" stdDeviation="4.5"/></filter><filter id="I" width="97.363" height="101.287" x="80.318" y="65.106" color-interpolation-filters="sRGB" filterUnits="userSpaceOnUse"><feFlood flood-opacity="0" result="BackgroundImageFix"/><feColorMatrix in="SourceAlpha" result="hardAlpha" values="0 0 0 0 0 0 0 0 0 0 0 0 0 0 0 0 0 0 127 0"/><feMorphology in="SourceAlpha" radius="3" result="effect1_dropShadow_211_4905"/><feOffset dy=".75"/><feGaussianBlur stdDeviation="3"/><feComposite in2="hardAlpha" operator="out"/><feColorMatrix values="0 0 0 0 0 0 0 0 0 0 0 0 0 0 0 0 0 0 0.05 0"/><feBlend in2="BackgroundImageFix" mode="multiply" result="effect1_dropShadow_211_4905"/><feBlend in="SourceGraphic" in2="effect1_dropShadow_211_4905" result="shape"/></filter><filter id="K" width="67.363" height="71.287" x="132.068" y="40.356" color-interpolation-filters="sRGB" filterUnits="userSpaceOnUse"><feFlood flood-opacity="0" result="BackgroundImageFix"/><feBlend in="SourceGraphic" in2="BackgroundImageFix" result="shape"/><feGaussianBlur result="effect1_foregroundBlur_211_4905" stdDeviation="4.5"/></filter><filter id="M" width="97.363" height="101.287" x="108.818" y="15.606" color-interpolation-filters="sRGB" filterUnits="userSpaceOnUse"><feFlood flood-opacity="0" result="BackgroundImageFix"/><feColorMatrix in="SourceAlpha" result="hardAlpha" values="0 0 0 0 0 0 0 0 0 0 0 0 0 0 0 0 0 0 127 0"/><feMorphology in="SourceAlpha" radius="3" result="effect1_dropShadow_211_4905"/><feOffset dy=".75"/><feGaussianBlur stdDeviation="3"/><feComposite in2="hardAlpha" operator="out"/><feColorMatrix values="0 0 0 0 0 0 0 0 0 0 0 0 0 0 0 0 0 0 0.05 0"/><feBlend in2="BackgroundImageFix" mode="multiply" result="effect1_dropShadow_211_4905"/><feBlend in="SourceGraphic" in2="effect1_dropShadow_211_4905" result="shape"/></filter><linearGradient id="a" x1="157.875" x2="157.875" y1="108.75" y2="282" gradientUnits="userSpaceOnUse"><stop stop-opacity="0"/><stop offset=".355"/><stop offset=".65"/><stop offset="1" stop-opacity="0"/></linearGradient><linearGradient id="d" x1="85.5" x2="85.5" y1="0" y2="171" gradientUnits="userSpaceOnUse"><stop stop-color="#e2e2e2"/><stop offset="1" stop-color="#bd70f6"/></linearGradient><linearGradient id="f" x1="147" x2="147" y1="0" y2="294" gradientUnits="userSpaceOnUse"><stop stop-color="#e2e2e2"/><stop offset="1" stop-color="#bd70f6"/></linearGradient><linearGradient id="h" x1="157.5" x2="157.5" y1="211.75" y2="232.75" gradientUnits="userSpaceOnUse"><stop stop-color="#bd70f6" stop-opacity=".4"/><stop offset="1" stop-color="#bd70f6"/></linearGradient><linearGradient id="i" x1="157.5" x2="157.5" y1="211.75" y2="232.75" gradientUnits="userSpaceOnUse"><stop stop-color="#e2e2e2"/><stop offset="1" stop-color="#e2e2e2" stop-opacity="0"/></linearGradient><linearGradient id="j" x1="157.5" x2="157.5" y1="208.75" y2="235.75" gradientUnits="userSpaceOnUse"><stop stop-color="#e2e2e2" stop-opacity="0"/><stop offset="1" stop-color="#e2e2e2"/></linearGradient><linearGradient id="k" x1="157.5" x2="157.5" y1="205.75" y2="238.75" gradientUnits="userSpaceOnUse"><stop stop-color="#e2e2e2" stop-opacity="0"/><stop offset="1" stop-color="#e2e2e2"/></linearGradient><radialGradient id="u" cx="0" cy="0" r="1" gradientTransform="matrix(215.533 1094.92 -1093.76 215.534 -384.255 1357.38)" gradientUnits="userSpaceOnUse"><stop stop-color="#1ba1e3"/><stop offset="0" stop-color="#1ba1e3"/><stop offset=".3" stop-color="#5489d6"/><stop offset=".546" stop-color="#9b72cb"/><stop offset=".825" stop-color="#d96570"/><stop offset="1" stop-color="#f49c46"/></radialGradient><radialGradient id="v" cx="0" cy="0" r="1" gradientTransform="matrix(215.532 1094.92 -1093.75 215.534 513.699 29.03)" gradientUnits="userSpaceOnUse"><stop stop-color="#1ba1e3"/><stop offset="0" stop-color="#1ba1e3"/><stop offset=".3" stop-color="#5489d6"/><stop offset=".546" stop-color="#9b72cb"/><stop offset=".825" stop-color="#d96570"/><stop offset="1" stop-color="#f49c46"/></radialGradient></defs></svg>