<svg xmlns="http://www.w3.org/2000/svg" width="280" height="280" fill="none" viewBox="0 0 280 280"><g clip-path="url(#a)"><g opacity=".5"><mask id="c" width="93" height="281" x="94" y="-1" maskUnits="userSpaceOnUse" style="mask-type:alpha"><path fill="url(#b)" d="M94.182-.002h92.273v280H94.182z"/></mask><g mask="url(#c)"><foreignObject width="106.909" height="160.364" x="86.546" y="199.816"><div xmlns="http://www.w3.org/1999/xhtml" style="backdrop-filter:blur(10.18px);clip-path:url(#d);height:100%;width:100%"/></foreignObject><g data-figma-bg-blur-radius="20.364" filter="url(#e)" shape-rendering="crispEdges"><path fill="#fdfdfd" fill-opacity=".5" d="M106.909 230.361c0-5.623 4.559-10.181 10.182-10.181h45.818c5.623 0 10.182 4.558 10.182 10.182v99.272c0 5.623-4.559 10.182-10.182 10.182h-45.818c-5.623 0-10.182-4.559-10.182-10.182z"/><path stroke="#fdfdfd" stroke-opacity=".25" stroke-width=".955" d="M117.091 220.657h45.818c5.36 0 9.704 4.345 9.704 9.704v99.273c0 5.359-4.344 9.705-9.704 9.705h-45.818c-5.36 0-9.704-4.346-9.704-9.705v-99.273c0-5.359 4.344-9.704 9.704-9.704Z"/></g><foreignObject width="106.909" height="160.364" x="86.546" y="-80.184"><div xmlns="http://www.w3.org/1999/xhtml" style="backdrop-filter:blur(10.18px);clip-path:url(#f);height:100%;width:100%"/></foreignObject><g data-figma-bg-blur-radius="20.364" filter="url(#g)" shape-rendering="crispEdges"><path fill="#fdfdfd" fill-opacity=".5" d="M106.909-49.638c0-5.624 4.559-10.182 10.182-10.182h45.818c5.623 0 10.182 4.558 10.182 10.182v99.272c0 5.624-4.559 10.182-10.182 10.182h-45.818c-5.623 0-10.182-4.559-10.182-10.182z"/><path stroke="#fdfdfd" stroke-opacity=".25" stroke-width=".955" d="M117.091-59.343h45.818a9.704 9.704 0 0 1 9.704 9.704v99.273c0 5.36-4.344 9.705-9.704 9.705h-45.818c-5.36 0-9.704-4.346-9.704-9.705V-49.64a9.704 9.704 0 0 1 9.704-9.704Z"/></g></g></g><rect width="159.091" height="239.273" x="60.455" y="20.364" stroke="#d9d9d9" stroke-dasharray="1.27 3.82" stroke-linecap="round" stroke-width=".955" opacity=".5" rx="11.454"/><path stroke="#d9d9d9" stroke-dasharray="1.27 3.82" stroke-linecap="round" stroke-width=".955" d="M140 0v280M0 140h280"/><foreignObject width="116.455" height="201.091" x="-19.727" y="39.455"><div xmlns="http://www.w3.org/1999/xhtml" style="backdrop-filter:blur(10.18px);clip-path:url(#h);height:100%;width:100%"/></foreignObject><rect width="159.409" height="74.773" x=".477" y=".477" stroke="url(#i)" stroke-width=".955" data-figma-bg-blur-radius="20.364" rx="10.977" transform="matrix(0 1 1 0 .636 59.818)"/><foreignObject width="116.455" height="201.091" x="183.909" y="39.454"><div xmlns="http://www.w3.org/1999/xhtml" style="backdrop-filter:blur(10.18px);clip-path:url(#j);height:100%;width:100%"/></foreignObject><rect width="159.409" height="74.773" x="-.477" y="-.477" stroke="url(#k)" stroke-width=".955" data-figma-bg-blur-radius="20.364" rx="10.977" transform="matrix(0 -1 -1 0 279.045 219.227)"/><path stroke="#d9d9d9" stroke-dasharray="1.27 3.82" stroke-linecap="round" stroke-width=".955" d="M204.909 75.09H280"/><foreignObject width="117.091" height="170.546" x="81.454" y="54.728"><div xmlns="http://www.w3.org/1999/xhtml" style="backdrop-filter:blur(10.18px);clip-path:url(#l);height:100%;width:100%"/></foreignObject><path fill="url(#m)" fill-opacity=".75" stroke="url(#n)" stroke-width=".955" d="M130.327 75.57h19.346c4.997 0 8.716 0 11.664.24 2.941.24 5.072.718 6.899 1.649a17.34 17.34 0 0 1 7.578 7.578c.931 1.827 1.409 3.958 1.65 6.9.24 2.947.241 6.666.241 11.664V176.4c0 4.998-.001 8.718-.241 11.665-.241 2.942-.719 5.073-1.65 6.9a17.33 17.33 0 0 1-7.578 7.578c-1.827.931-3.958 1.408-6.899 1.648-2.948.241-6.667.242-11.664.242h-19.346c-4.997 0-8.717-.001-11.664-.242-2.942-.24-5.072-.717-6.9-1.648a17.35 17.35 0 0 1-7.578-7.578c-.931-1.827-1.408-3.958-1.648-6.9-.241-2.947-.241-6.666-.241-11.664v-72.8c0-4.998 0-8.717.241-11.665.24-2.941.717-5.072 1.648-6.899a17.35 17.35 0 0 1 7.578-7.578c1.828-.931 3.958-1.408 6.9-1.648 2.947-.241 6.667-.242 11.664-.242Z" data-figma-bg-blur-radius="20.364"/><g filter="url(#o)"><path fill="#f1f1f1" d="M106.909 100.546c0-7.128 0-10.692 1.387-13.414a12.74 12.74 0 0 1 5.562-5.562c2.723-1.387 6.287-1.387 13.415-1.387h25.454c7.128 0 10.692 0 13.415 1.387a12.73 12.73 0 0 1 5.562 5.562c1.387 2.722 1.387 6.286 1.387 13.414v78.909c0 7.128 0 10.692-1.387 13.415a12.72 12.72 0 0 1-5.562 5.562c-2.723 1.387-6.287 1.387-13.415 1.387h-25.454c-7.128 0-10.692 0-13.415-1.387a12.73 12.73 0 0 1-5.562-5.562c-1.387-2.723-1.387-6.287-1.387-13.415z"/><path stroke="url(#p)" stroke-width=".955" d="M127.272 80.66h25.456c3.571 0 6.222 0 8.32.172 2.092.171 3.594.51 4.877 1.163a12.25 12.25 0 0 1 5.353 5.354c.654 1.282.993 2.784 1.164 4.877.172 2.098.171 4.748.171 8.32v78.909c0 3.572.001 6.222-.171 8.32-.171 2.093-.51 3.596-1.164 4.878a12.25 12.25 0 0 1-5.353 5.354c-1.283.653-2.785.992-4.877 1.163-2.098.171-4.749.172-8.32.172h-25.456c-3.571 0-6.222-.001-8.32-.172-2.092-.171-3.594-.51-4.877-1.163a12.25 12.25 0 0 1-5.353-5.354c-.654-1.282-.992-2.785-1.163-4.878-.172-2.098-.172-4.748-.172-8.32v-78.909c0-3.572 0-6.222.172-8.32.171-2.093.509-3.595 1.163-4.877a12.25 12.25 0 0 1 5.353-5.354c1.283-.653 2.785-.992 4.877-1.163 2.098-.171 4.749-.172 8.32-.172Z"/></g><path fill="#fdfdfd" d="M132.639 184.346v3.136h1.629v.427h-2.139v-3.563zm3.58 3.563-.04-.371a.83.83 0 0 1-.306.3 1 1 0 0 1-.478.102q-.276 0-.469-.087a.73.73 0 0 1-.3-.249.7.7 0 0 1-.102-.377q0-.32.239-.529.24-.214.693-.265l.723-.082v-.198q0-.163-.133-.275-.132-.117-.381-.117a.7.7 0 0 0-.398.112.52.52 0 0 0-.218.321l-.428-.153a.92.92 0 0 1 .377-.525q.285-.188.687-.188.479 0 .728.239.249.24.249.632v1.71zm-.04-1.166-.698.087a.64.64 0 0 0-.336.127.3.3 0 0 0-.112.245q0 .142.107.239a.48.48 0 0 0 .311.091q.244 0 .407-.091a.56.56 0 0 0 .239-.255.9.9 0 0 0 .082-.387zm3.199 1.166h-.438l-.036-.3a.8.8 0 0 1-.31.249.95.95 0 0 1-.413.087q-.295 0-.514-.122a.87.87 0 0 1-.341-.367 1.4 1.4 0 0 1-.117-.606v-1.486h.483v1.425q0 .352.143.535.147.183.443.183a.57.57 0 0 0 .453-.188q.168-.19.168-.56v-1.395h.479zm.623-2.545h.438l.031.295a.8.8 0 0 1 .31-.244 1 1 0 0 1 .418-.087q.295 0 .509.127a.8.8 0 0 1 .336.367q.122.244.122.611v1.476h-.478v-1.415q0-.357-.153-.54-.148-.188-.433-.188-.295 0-.458.193-.163.19-.163.56v1.39h-.479zm3.842 2.581a1.26 1.26 0 0 1-.647-.163 1.2 1.2 0 0 1-.438-.458 1.44 1.44 0 0 1-.152-.677q0-.393.158-.688t.437-.463.652-.168q.392 0 .687.183.3.184.433.494l-.433.153a.6.6 0 0 0-.259-.285.8.8 0 0 0-.408-.107.695.695 0 0 0-.661.417 1.05 1.05 0 0 0-.092.459q0 .397.204.631a.69.69 0 0 0 .549.234.8.8 0 0 0 .408-.102.67.67 0 0 0 .275-.28l.427.153a1.1 1.1 0 0 1-.448.489 1.35 1.35 0 0 1-.692.178m1.622-3.701h.479v1.4a.8.8 0 0 1 .316-.229q.193-.087.427-.087.286 0 .499.127a.83.83 0 0 1 .341.372q.123.245.122.611v1.471h-.504v-1.41q0-.357-.147-.545-.148-.188-.433-.188-.296 0-.458.193-.163.194-.163.565v1.385h-.479z"/><rect width="61.091" height="57.273" x="109.455" y="82.728" fill="url(#q)" fill-opacity=".5" rx="10.182"/><rect width="20.364" height="2.545" x="112" y="150.819" fill="#1b1b1b" opacity=".15" rx="1.273"/><rect width="56" height="2.545" x="112" y="155.91" fill="#727272" opacity=".1" rx="1.273"/><rect width="56" height="2.545" x="112" y="161.001" fill="#727272" opacity=".1" rx="1.273"/><g filter="url(#r)"><rect width="68.727" height="22.909" x="193.455" y="128.543" fill="#f1f1f1" rx="7.636"/><rect width="67.773" height="21.954" x="193.932" y="129.02" stroke="url(#s)" stroke-width=".955" rx="7.159"/></g><g filter="url(#t)"><circle cx="206.818" cy="144.452" r="2.545" fill="#efefef"/></g><foreignObject width="33.091" height="33.091" x="188.364" y="123.453"><div xmlns="http://www.w3.org/1999/xhtml" style="backdrop-filter:blur(3.82px);clip-path:url(#u);height:100%;width:100%"/></foreignObject><g data-figma-bg-blur-radius="7.636"><rect width="17.818" height="17.818" x="196" y="131.089" fill="#efefef" fill-opacity=".05" rx="5.091"/><rect width="16.864" height="16.864" x="196.477" y="131.566" stroke="#efefef" stroke-opacity=".15" stroke-width=".955" rx="4.614"/><g clip-path="url(#v)"><path stroke="#efefef" stroke-linecap="round" stroke-linejoin="round" stroke-width=".955" d="M201.409 142.649h1.485m-1.485-2.652h2.334m-2.334-2.651h7m-1.379 2.015.637 1.273 1.272.636-1.272.636-.637 1.273-.636-1.273-1.273-.636 1.273-.636z"/></g></g><path stroke="#efefef" stroke-linecap="round" stroke-width=".955" d="M255.182 130.452a5.09 5.09 0 0 1 5.091 5.091"/><g filter="url(#w)"><rect width="68.727" height="22.909" x="218.909" y="92.907" fill="#f1f1f1" rx="7.636"/><rect width="67.773" height="21.954" x="219.386" y="93.385" stroke="url(#x)" stroke-width=".955" rx="7.159"/></g><g filter="url(#y)"><circle cx="232.273" cy="108.816" r="2.545" fill="#efefef"/></g><foreignObject width="33.091" height="33.091" x="213.818" y="87.816"><div xmlns="http://www.w3.org/1999/xhtml" style="backdrop-filter:blur(3.82px);clip-path:url(#z);height:100%;width:100%"/></foreignObject><g data-figma-bg-blur-radius="7.636"><rect width="17.818" height="17.818" x="221.455" y="95.453" fill="#efefef" fill-opacity=".05" rx="5.091"/><rect width="16.864" height="16.864" x="221.932" y="95.93" stroke="#efefef" stroke-opacity=".15" stroke-width=".955" rx="4.614"/><g clip-path="url(#A)"><path stroke="#efefef" stroke-linecap="round" stroke-linejoin="round" stroke-width=".955" d="M227.288 105.528v-4.666c0-.235.19-.424.424-.424h5.783c.339 0 .541.377.353.659l-1.1 1.651a.42.42 0 0 0 0 .47l1.1 1.651a.424.424 0 0 1-.353.659zm0 0v2.758"/></g></g><g filter="url(#B)"><rect width="68.727" height="22.909" x="218.909" y="164.179" fill="#f1f1f1" rx="7.636"/><rect width="67.773" height="21.954" x="219.386" y="164.656" stroke="url(#C)" stroke-width=".955" rx="7.159"/></g><g filter="url(#D)"><circle cx="232.273" cy="180.088" r="2.545" fill="#efefef"/></g><foreignObject width="33.091" height="33.091" x="213.818" y="159.088"><div xmlns="http://www.w3.org/1999/xhtml" style="backdrop-filter:blur(3.82px);clip-path:url(#E);height:100%;width:100%"/></foreignObject><g data-figma-bg-blur-radius="7.636"><rect width="17.818" height="17.818" x="221.455" y="166.725" fill="#efefef" fill-opacity=".05" rx="5.091"/><rect width="16.864" height="16.864" x="221.932" y="167.202" stroke="#efefef" stroke-opacity=".15" stroke-width=".955" rx="4.614"/><path stroke="#efefef" stroke-linecap="square" stroke-linejoin="round" stroke-width=".955" d="M229.197 179.134V176.8h-1.909a.424.424 0 0 0-.424.425v1.485c0 .234.189.424.424.424zm0 0h2.333m-2.333 0v-4.243c0-.234.19-.424.424-.424h1.909v4.667m0 0h2.121a.21.21 0 0 0 .213-.212v-6.364a.424.424 0 0 0-.425-.424h-1.485a.424.424 0 0 0-.424.424z"/></g><g filter="url(#F)"><rect width="68.727" height="22.909" x="-7.636" y="92.907" fill="#f1f1f1" rx="7.636"/><rect width="67.773" height="21.954" x="-7.159" y="93.385" stroke="url(#G)" stroke-width=".955" rx="7.159"/></g><g filter="url(#H)"><circle cx="5.727" cy="108.816" r="2.545" fill="#efefef"/></g><foreignObject width="33.091" height="33.091" x="-12.727" y="87.816"><div xmlns="http://www.w3.org/1999/xhtml" style="backdrop-filter:blur(3.82px);clip-path:url(#I);height:100%;width:100%"/></foreignObject><g data-figma-bg-blur-radius="7.636"><rect width="17.818" height="17.818" x="-5.091" y="95.453" fill="#efefef" fill-opacity=".05" rx="5.091"/><rect width="16.864" height="16.864" x="-4.614" y="95.93" stroke="#efefef" stroke-opacity=".15" stroke-width=".955" rx="4.614"/><g clip-path="url(#J)"><path stroke="#efefef" stroke-linecap="round" stroke-width=".955" d="M3.818 107.956a1.963 1.963 0 0 0 2.977-1.092 1.526 1.526 0 0 0 .49-2.502 1.527 1.527 0 0 0-.903-2.608 1.745 1.745 0 0 0-2.564-1.083m0 7.285a1.963 1.963 0 0 1-2.977-1.092 1.526 1.526 0 0 1-.49-2.502 1.527 1.527 0 0 1 .903-2.608 1.745 1.745 0 0 1 2.564-1.083m0 7.285v-7.285m-1.379 4.433c.762 0 1.379.617 1.379 1.379m1.379-2.864a1.38 1.38 0 0 1-1.379-1.378"/></g></g><path stroke="#efefef" stroke-linecap="round" stroke-width=".955" d="M54.09 94.816a5.09 5.09 0 0 1 5.092 5.091"/><g filter="url(#K)"><rect width="68.727" height="22.909" x="-7.636" y="164.179" fill="#f1f1f1" rx="7.636"/><rect width="67.773" height="21.954" x="-7.159" y="164.656" stroke="url(#L)" stroke-width=".955" rx="7.159"/></g><g filter="url(#M)"><circle cx="5.727" cy="180.088" r="2.545" fill="#efefef"/></g><foreignObject width="33.091" height="33.091" x="-12.727" y="159.088"><div xmlns="http://www.w3.org/1999/xhtml" style="backdrop-filter:blur(3.82px);clip-path:url(#N);height:100%;width:100%"/></foreignObject><g data-figma-bg-blur-radius="7.636"><rect width="17.818" height="17.818" x="-5.091" y="166.725" fill="#efefef" fill-opacity=".05" rx="5.091"/><rect width="16.864" height="16.864" x="-4.614" y="167.202" stroke="#efefef" stroke-opacity=".15" stroke-width=".955" rx="4.614"/><g clip-path="url(#O)"><path stroke="#efefef" stroke-linecap="round" stroke-linejoin="round" stroke-width=".955" d="m2.864 179.134 1.909-7m1.697 1.697.876.931c.461.49.461 1.254 0 1.744l-.876.931m-5.303 0-.876-.931a1.27 1.27 0 0 1 0-1.744l.876-.931"/></g></g><path stroke="#efefef" stroke-linecap="round" stroke-width=".955" d="M54.09 166.088a5.09 5.09 0 0 1 5.092 5.091"/><g filter="url(#P)"><rect width="68.727" height="22.909" x="17.818" y="128.543" fill="#f1f1f1" rx="7.636"/><rect width="67.773" height="21.954" x="18.295" y="129.02" stroke="url(#Q)" stroke-width=".955" rx="7.159"/></g><g filter="url(#R)"><circle cx="31.182" cy="144.454" r="2.545" fill="#efefef"/></g><foreignObject width="33.091" height="33.091" x="12.727" y="123.453"><div xmlns="http://www.w3.org/1999/xhtml" style="backdrop-filter:blur(3.82px);clip-path:url(#S);height:100%;width:100%"/></foreignObject><g data-figma-bg-blur-radius="7.636"><rect width="17.818" height="17.818" x="20.363" y="131.09" fill="#efefef" fill-opacity=".05" rx="5.091"/><rect width="16.864" height="16.864" x="20.841" y="131.567" stroke="#efefef" stroke-opacity=".15" stroke-width=".955" rx="4.614"/><path fill="#efefef" d="m26.976 140.599.337.337zm1.2 0 .337-.337zm-1.555-4.1v.477h5.303v-.954h-5.303zm6.152.849h-.478v5.303h.955v-5.303zm-7 4.454.337.338 1.203-1.204-.337-.337-.338-.337-1.203 1.203zm0 .849h.477v-.849h-.955v.849zm0-.849h.477v-4.454h-.955v4.454zm2.403-1.203-.338.337 2.9 2.901.338-.338.337-.337-2.9-2.9zm3.748 2.9v-.477h-.848v.954h.848zm-.848 0v-.477H26.62v.954h4.455zm-4.1-2.9.337.337a.373.373 0 0 1 .525 0l.338-.337.337-.337a1.325 1.325 0 0 0-1.875 0zm-1.203 2.052h-.478c0 .732.594 1.325 1.326 1.325v-.954a.37.37 0 0 1-.371-.371zm7 0h-.478a.37.37 0 0 1-.37.371v.954c.731 0 1.325-.593 1.325-1.325zm-.849-6.152v.477c.205 0 .371.166.371.372h.955c0-.733-.594-1.326-1.326-1.326zm-5.303 0v-.477c-.732 0-1.326.593-1.326 1.326h.955c0-.206.166-.372.371-.372zm4.56 2.439h-.477a.37.37 0 0 1-.37.372v.954c.732 0 1.325-.593 1.325-1.326zm-.848.849v-.477a.37.37 0 0 1-.37-.372h-.955c0 .733.593 1.326 1.325 1.326zm-.848-.849h.477a.37.37 0 0 1 .371-.371v-.954c-.732 0-1.325.593-1.325 1.325zm.848-.848v.477c.205 0 .372.166.372.371h.954c0-.732-.593-1.325-1.326-1.325z"/></g><path stroke="#efefef" stroke-linecap="round" stroke-width=".955" d="M79.545 130.452a5.09 5.09 0 0 1 5.091 5.091"/><path stroke="#d9d9d9" stroke-dasharray="1.27 3.82" stroke-linecap="round" stroke-width=".955" d="M.636 75.09h75.091"/><g stroke-width=".955" opacity=".6"><path stroke="url(#T)" d="M61.09 105h15.592c5.447 0 9.863 4.416 9.863 9.864 0 5.447 4.416 9.863 9.864 9.863h5.409"/><path stroke="url(#U)" d="M61.09 175.637h15.654c5.439 0 9.847-4.409 9.847-9.848a9.847 9.847 0 0 1 9.79-9.847l5.437-.033"/></g><g stroke-width=".955" opacity=".6"><path stroke="url(#V)" d="M218.909 105h-15.591c-5.447 0-9.863 4.416-9.863 9.864 0 5.447-4.416 9.863-9.864 9.863h-5.409"/><path stroke="url(#W)" d="M218.909 175.637h-15.653c-5.438 0-9.847-4.409-9.847-9.848 0-5.416-4.374-9.815-9.789-9.847l-5.438-.033"/></g></g><defs><linearGradient id="b" x1="140.318" x2="140.318" y1="-.002" y2="279.998" gradientUnits="userSpaceOnUse"><stop stop-opacity="0"/><stop offset=".104"/><stop offset=".897"/><stop offset="1" stop-opacity="0"/></linearGradient><linearGradient id="i" x1="80.182" x2="80.182" y1="0" y2="75.727" gradientUnits="userSpaceOnUse"><stop stop-color="#e2e2e2" stop-opacity="0"/><stop offset="1" stop-color="#e2e2e2"/></linearGradient><linearGradient id="k" x1="80.182" x2="80.182" y1="0" y2="75.727" gradientUnits="userSpaceOnUse"><stop stop-color="#e2e2e2" stop-opacity="0"/><stop offset="1" stop-color="#e2e2e2"/></linearGradient><linearGradient id="m" x1="140" x2="140" y1="75.092" y2="204.91" gradientUnits="userSpaceOnUse"><stop stop-color="#fdfdfd" stop-opacity=".3"/><stop offset="1" stop-color="#fdfdfd"/></linearGradient><linearGradient id="n" x1="140" x2="140" y1="75.092" y2="204.91" gradientUnits="userSpaceOnUse"><stop stop-color="#e2e2e2"/><stop offset="1" stop-color="#e2e2e2" stop-opacity=".75"/></linearGradient><linearGradient id="p" x1="140" x2="140" y1="80.183" y2="199.819" gradientUnits="userSpaceOnUse"><stop stop-color="#f6f6f6"/><stop offset="1" stop-color="#e6e6e6"/></linearGradient><linearGradient id="s" x1="227.818" x2="227.818" y1="128.543" y2="151.452" gradientUnits="userSpaceOnUse"><stop stop-color="#f6f6f6"/><stop offset="1" stop-color="#e6e6e6"/></linearGradient><linearGradient id="x" x1="253.273" x2="253.273" y1="92.907" y2="115.816" gradientUnits="userSpaceOnUse"><stop stop-color="#f6f6f6"/><stop offset="1" stop-color="#e6e6e6"/></linearGradient><linearGradient id="C" x1="253.273" x2="253.273" y1="164.179" y2="187.088" gradientUnits="userSpaceOnUse"><stop stop-color="#f6f6f6"/><stop offset="1" stop-color="#e6e6e6"/></linearGradient><linearGradient id="G" x1="26.727" x2="26.727" y1="92.907" y2="115.816" gradientUnits="userSpaceOnUse"><stop stop-color="#f6f6f6"/><stop offset="1" stop-color="#e6e6e6"/></linearGradient><linearGradient id="L" x1="26.727" x2="26.727" y1="164.179" y2="187.088" gradientUnits="userSpaceOnUse"><stop stop-color="#f6f6f6"/><stop offset="1" stop-color="#e6e6e6"/></linearGradient><linearGradient id="Q" x1="52.182" x2="52.182" y1="128.543" y2="151.452" gradientUnits="userSpaceOnUse"><stop stop-color="#f6f6f6"/><stop offset="1" stop-color="#e6e6e6"/></linearGradient><linearGradient id="T" x1="61.091" x2="101.818" y1="114.864" y2="114.864" gradientUnits="userSpaceOnUse"><stop stop-color="#d9d9d9"/><stop offset="1" stop-color="#cb90f6"/></linearGradient><linearGradient id="U" x1="61.091" x2="101.818" y1="165.773" y2="165.773" gradientUnits="userSpaceOnUse"><stop stop-color="#d9d9d9"/><stop offset="1" stop-color="#cb90f6"/></linearGradient><linearGradient id="V" x1="218.909" x2="178.182" y1="114.864" y2="114.864" gradientUnits="userSpaceOnUse"><stop stop-color="#d9d9d9"/><stop offset="1" stop-color="#cb90f6"/></linearGradient><linearGradient id="W" x1="218.909" x2="178.182" y1="165.773" y2="165.773" gradientUnits="userSpaceOnUse"><stop stop-color="#d9d9d9"/><stop offset="1" stop-color="#cb90f6"/></linearGradient><clipPath id="d" transform="translate(-86.546 -199.816)"><path d="M106.909 230.361c0-5.623 4.559-10.181 10.182-10.181h45.818c5.623 0 10.182 4.558 10.182 10.182v99.272c0 5.623-4.559 10.182-10.182 10.182h-45.818c-5.623 0-10.182-4.559-10.182-10.182z"/></clipPath><clipPath id="f" transform="translate(-86.546 80.184)"><path d="M106.909-49.638c0-5.624 4.559-10.182 10.182-10.182h45.818c5.623 0 10.182 4.558 10.182 10.182v99.272c0 5.624-4.559 10.182-10.182 10.182h-45.818c-5.623 0-10.182-4.559-10.182-10.182z"/></clipPath><clipPath id="h" transform="translate(19.727 -39.455)"><rect width="159.409" height="74.773" x=".477" y=".477" rx="10.977" transform="matrix(0 1 1 0 .636 59.818)"/></clipPath><clipPath id="j" transform="translate(-183.909 -39.454)"><rect width="159.409" height="74.773" x="-.477" y="-.477" rx="10.977" transform="matrix(0 -1 -1 0 279.045 219.227)"/></clipPath><clipPath id="l" transform="translate(-81.454 -54.728)"><path d="M130.327 75.57h19.346c4.997 0 8.716 0 11.664.24 2.941.24 5.072.718 6.899 1.649a17.34 17.34 0 0 1 7.578 7.578c.931 1.827 1.409 3.958 1.65 6.9.24 2.947.241 6.666.241 11.664V176.4c0 4.998-.001 8.718-.241 11.665-.241 2.942-.719 5.073-1.65 6.9a17.33 17.33 0 0 1-7.578 7.578c-1.827.931-3.958 1.408-6.899 1.648-2.948.241-6.667.242-11.664.242h-19.346c-4.997 0-8.717-.001-11.664-.242-2.942-.24-5.072-.717-6.9-1.648a17.35 17.35 0 0 1-7.578-7.578c-.931-1.827-1.408-3.958-1.648-6.9-.241-2.947-.241-6.666-.241-11.664v-72.8c0-4.998 0-8.717.241-11.665.24-2.941.717-5.072 1.648-6.899a17.35 17.35 0 0 1 7.578-7.578c1.828-.931 3.958-1.408 6.9-1.648 2.947-.241 6.667-.242 11.664-.242"/></clipPath><clipPath id="u" transform="translate(-188.364 -123.453)"><rect width="17.818" height="17.818" x="196" y="131.089" rx="5.091"/></clipPath><clipPath id="z" transform="translate(-213.818 -87.816)"><rect width="17.818" height="17.818" x="221.455" y="95.453" rx="5.091"/></clipPath><clipPath id="E" transform="translate(-213.818 -159.088)"><rect width="17.818" height="17.818" x="221.455" y="166.725" rx="5.091"/></clipPath><clipPath id="I" transform="translate(12.727 -87.816)"><rect width="17.818" height="17.818" x="-5.091" y="95.453" rx="5.091"/></clipPath><clipPath id="N" transform="translate(12.727 -159.088)"><rect width="17.818" height="17.818" x="-5.091" y="166.725" rx="5.091"/></clipPath><clipPath id="S" transform="translate(-12.727 -123.453)"><rect width="17.818" height="17.818" x="20.363" y="131.09" rx="5.091"/></clipPath><clipPath id="a"><path fill="#fff" d="M0 32.582c0-11.405 0-17.107 2.22-21.463a20.36 20.36 0 0 1 8.899-8.9C15.475 0 21.177 0 32.582 0h214.836c11.405 0 17.107 0 21.463 2.22a20.36 20.36 0 0 1 8.899 8.899C280 15.475 280 21.177 280 32.582v214.836c0 11.405 0 17.107-2.22 21.463a20.36 20.36 0 0 1-8.899 8.899c-4.356 2.22-10.058 2.22-21.463 2.22H32.582c-11.405 0-17.107 0-21.463-2.22a20.36 20.36 0 0 1-8.9-8.899C0 264.525 0 258.823 0 247.418z"/></clipPath><clipPath id="v"><path fill="#fff" d="M199.818 134.908H210v10.182h-10.182z"/></clipPath><clipPath id="A"><path fill="#fff" d="M225.273 99.273h10.182v10.182h-10.182z"/></clipPath><clipPath id="J"><path fill="#fff" d="M-1.273 99.273H8.91v10.182H-1.273z"/></clipPath><clipPath id="O"><path fill="#fff" d="M-1.273 170.544H8.91v10.182H-1.273z"/></clipPath><filter id="e" width="106.909" height="160.364" x="86.546" y="199.816" color-interpolation-filters="sRGB" filterUnits="userSpaceOnUse"><feFlood flood-opacity="0" result="BackgroundImageFix"/><feColorMatrix in="SourceAlpha" result="hardAlpha" values="0 0 0 0 0 0 0 0 0 0 0 0 0 0 0 0 0 0 127 0"/><feMorphology in="SourceAlpha" radius="2.545" result="effect1_dropShadow_211_4978"/><feOffset dy=".636"/><feGaussianBlur stdDeviation="2.545"/><feComposite in2="hardAlpha" operator="out"/><feColorMatrix values="0 0 0 0 0 0 0 0 0 0 0 0 0 0 0 0 0 0 0.2 0"/><feBlend in2="BackgroundImageFix" mode="multiply" result="effect1_dropShadow_211_4978"/><feBlend in="SourceGraphic" in2="effect1_dropShadow_211_4978" result="shape"/></filter><filter id="g" width="106.909" height="160.364" x="86.546" y="-80.184" color-interpolation-filters="sRGB" filterUnits="userSpaceOnUse"><feFlood flood-opacity="0" result="BackgroundImageFix"/><feColorMatrix in="SourceAlpha" result="hardAlpha" values="0 0 0 0 0 0 0 0 0 0 0 0 0 0 0 0 0 0 127 0"/><feMorphology in="SourceAlpha" radius="2.545" result="effect1_dropShadow_211_4978"/><feOffset dy=".636"/><feGaussianBlur stdDeviation="2.545"/><feComposite in2="hardAlpha" operator="out"/><feColorMatrix values="0 0 0 0 0 0 0 0 0 0 0 0 0 0 0 0 0 0 0.2 0"/><feBlend in2="BackgroundImageFix" mode="multiply" result="effect1_dropShadow_211_4978"/><feBlend in="SourceGraphic" in2="effect1_dropShadow_211_4978" result="shape"/></filter><filter id="o" width="132.364" height="185.819" x="73.818" y="67.455" color-interpolation-filters="sRGB" filterUnits="userSpaceOnUse"><feFlood flood-opacity="0" result="BackgroundImageFix"/><feColorMatrix in="SourceAlpha" result="hardAlpha" values="0 0 0 0 0 0 0 0 0 0 0 0 0 0 0 0 0 0 127 0"/><feMorphology in="SourceAlpha" radius="2.545" result="effect1_dropShadow_211_4978"/><feOffset dy="3.182"/><feGaussianBlur stdDeviation=".477"/><feComposite in2="hardAlpha" operator="out"/><feColorMatrix values="0 0 0 0 0.0313726 0 0 0 0 0.0313726 0 0 0 0 0.0313726 0 0 0 0.05 0"/><feBlend in2="BackgroundImageFix" result="effect1_dropShadow_211_4978"/><feColorMatrix in="SourceAlpha" result="hardAlpha" values="0 0 0 0 0 0 0 0 0 0 0 0 0 0 0 0 0 0 127 0"/><feMorphology in="SourceAlpha" radius="2.545" result="effect2_dropShadow_211_4978"/><feOffset dy="3.818"/><feGaussianBlur stdDeviation="1.273"/><feComposite in2="hardAlpha" operator="out"/><feColorMatrix values="0 0 0 0 0.0313726 0 0 0 0 0.0313726 0 0 0 0 0.0313726 0 0 0 0.05 0"/><feBlend in2="effect1_dropShadow_211_4978" result="effect2_dropShadow_211_4978"/><feColorMatrix in="SourceAlpha" result="hardAlpha" values="0 0 0 0 0 0 0 0 0 0 0 0 0 0 0 0 0 0 127 0"/><feOffset dy="3.818"/><feGaussianBlur stdDeviation="4.136"/><feComposite in2="hardAlpha" operator="out"/><feColorMatrix values="0 0 0 0 0.0313726 0 0 0 0 0.0313726 0 0 0 0 0.0313726 0 0 0 0.03 0"/><feBlend in2="effect2_dropShadow_211_4978" result="effect3_dropShadow_211_4978"/><feColorMatrix in="SourceAlpha" result="hardAlpha" values="0 0 0 0 0 0 0 0 0 0 0 0 0 0 0 0 0 0 127 0"/><feMorphology in="SourceAlpha" radius="10.182" result="effect4_dropShadow_211_4978"/><feOffset dy="15.273"/><feGaussianBlur stdDeviation="7.636"/><feComposite in2="hardAlpha" operator="out"/><feColorMatrix values="0 0 0 0 0.0313726 0 0 0 0 0.0313726 0 0 0 0 0.0313726 0 0 0 0.04 0"/><feBlend in2="effect3_dropShadow_211_4978" result="effect4_dropShadow_211_4978"/><feColorMatrix in="SourceAlpha" result="hardAlpha" values="0 0 0 0 0 0 0 0 0 0 0 0 0 0 0 0 0 0 127 0"/><feMorphology in="SourceAlpha" radius="1.273" result="effect5_dropShadow_211_4978"/><feOffset dy="1.368"/><feGaussianBlur stdDeviation=".159"/><feComposite in2="hardAlpha" operator="out"/><feColorMatrix values="0 0 0 0 0 0 0 0 0 0 0 0 0 0 0 0 0 0 0.25 0"/><feBlend in2="effect4_dropShadow_211_4978" result="effect5_dropShadow_211_4978"/><feColorMatrix in="SourceAlpha" result="hardAlpha" values="0 0 0 0 0 0 0 0 0 0 0 0 0 0 0 0 0 0 127 0"/><feMorphology in="SourceAlpha" radius="7.636" result="effect6_dropShadow_211_4978"/><feOffset dy="20.364"/><feGaussianBlur stdDeviation="20.364"/><feComposite in2="hardAlpha" operator="out"/><feColorMatrix values="0 0 0 0 0 0 0 0 0 0 0 0 0 0 0 0 0 0 0.075 0"/><feBlend in2="effect5_dropShadow_211_4978" mode="multiply" result="effect6_dropShadow_211_4978"/><feBlend in="SourceGraphic" in2="effect6_dropShadow_211_4978" result="shape"/></filter><filter id="r" width="134.909" height="89.091" x="160.364" y="115.816" color-interpolation-filters="sRGB" filterUnits="userSpaceOnUse"><feFlood flood-opacity="0" result="BackgroundImageFix"/><feColorMatrix in="SourceAlpha" result="hardAlpha" values="0 0 0 0 0 0 0 0 0 0 0 0 0 0 0 0 0 0 127 0"/><feMorphology in="SourceAlpha" radius="2.545" result="effect1_dropShadow_211_4978"/><feOffset dy="3.182"/><feGaussianBlur stdDeviation=".477"/><feComposite in2="hardAlpha" operator="out"/><feColorMatrix values="0 0 0 0 0.0313726 0 0 0 0 0.0313726 0 0 0 0 0.0313726 0 0 0 0.05 0"/><feBlend in2="BackgroundImageFix" result="effect1_dropShadow_211_4978"/><feColorMatrix in="SourceAlpha" result="hardAlpha" values="0 0 0 0 0 0 0 0 0 0 0 0 0 0 0 0 0 0 127 0"/><feMorphology in="SourceAlpha" radius="2.545" result="effect2_dropShadow_211_4978"/><feOffset dy="3.818"/><feGaussianBlur stdDeviation="1.273"/><feComposite in2="hardAlpha" operator="out"/><feColorMatrix values="0 0 0 0 0.0313726 0 0 0 0 0.0313726 0 0 0 0 0.0313726 0 0 0 0.05 0"/><feBlend in2="effect1_dropShadow_211_4978" result="effect2_dropShadow_211_4978"/><feColorMatrix in="SourceAlpha" result="hardAlpha" values="0 0 0 0 0 0 0 0 0 0 0 0 0 0 0 0 0 0 127 0"/><feOffset dy="3.818"/><feGaussianBlur stdDeviation="4.136"/><feComposite in2="hardAlpha" operator="out"/><feColorMatrix values="0 0 0 0 0.0313726 0 0 0 0 0.0313726 0 0 0 0 0.0313726 0 0 0 0.03 0"/><feBlend in2="effect2_dropShadow_211_4978" result="effect3_dropShadow_211_4978"/><feColorMatrix in="SourceAlpha" result="hardAlpha" values="0 0 0 0 0 0 0 0 0 0 0 0 0 0 0 0 0 0 127 0"/><feMorphology in="SourceAlpha" radius="10.182" result="effect4_dropShadow_211_4978"/><feOffset dy="15.273"/><feGaussianBlur stdDeviation="7.636"/><feComposite in2="hardAlpha" operator="out"/><feColorMatrix values="0 0 0 0 0.0313726 0 0 0 0 0.0313726 0 0 0 0 0.0313726 0 0 0 0.04 0"/><feBlend in2="effect3_dropShadow_211_4978" result="effect4_dropShadow_211_4978"/><feColorMatrix in="SourceAlpha" result="hardAlpha" values="0 0 0 0 0 0 0 0 0 0 0 0 0 0 0 0 0 0 127 0"/><feMorphology in="SourceAlpha" radius="1.273" result="effect5_dropShadow_211_4978"/><feOffset dy="1.368"/><feGaussianBlur stdDeviation=".159"/><feComposite in2="hardAlpha" operator="out"/><feColorMatrix values="0 0 0 0 0 0 0 0 0 0 0 0 0 0 0 0 0 0 0.25 0"/><feBlend in2="effect4_dropShadow_211_4978" result="effect5_dropShadow_211_4978"/><feColorMatrix in="SourceAlpha" result="hardAlpha" values="0 0 0 0 0 0 0 0 0 0 0 0 0 0 0 0 0 0 127 0"/><feMorphology in="SourceAlpha" radius="7.636" result="effect6_dropShadow_211_4978"/><feOffset dy="20.364"/><feGaussianBlur stdDeviation="20.364"/><feComposite in2="hardAlpha" operator="out"/><feColorMatrix values="0 0 0 0 0 0 0 0 0 0 0 0 0 0 0 0 0 0 0.075 0"/><feBlend in2="effect5_dropShadow_211_4978" mode="multiply" result="effect6_dropShadow_211_4978"/><feBlend in="SourceGraphic" in2="effect6_dropShadow_211_4978" result="shape"/></filter><filter id="t" width="7.636" height="7.636" x="203" y="140.634" color-interpolation-filters="sRGB" filterUnits="userSpaceOnUse"><feFlood flood-opacity="0" result="BackgroundImageFix"/><feBlend in="SourceGraphic" in2="BackgroundImageFix" result="shape"/><feGaussianBlur result="effect1_foregroundBlur_211_4978" stdDeviation=".636"/></filter><filter id="w" width="134.909" height="89.091" x="185.818" y="80.18" color-interpolation-filters="sRGB" filterUnits="userSpaceOnUse"><feFlood flood-opacity="0" result="BackgroundImageFix"/><feColorMatrix in="SourceAlpha" result="hardAlpha" values="0 0 0 0 0 0 0 0 0 0 0 0 0 0 0 0 0 0 127 0"/><feMorphology in="SourceAlpha" radius="2.545" result="effect1_dropShadow_211_4978"/><feOffset dy="3.182"/><feGaussianBlur stdDeviation=".477"/><feComposite in2="hardAlpha" operator="out"/><feColorMatrix values="0 0 0 0 0.0313726 0 0 0 0 0.0313726 0 0 0 0 0.0313726 0 0 0 0.05 0"/><feBlend in2="BackgroundImageFix" result="effect1_dropShadow_211_4978"/><feColorMatrix in="SourceAlpha" result="hardAlpha" values="0 0 0 0 0 0 0 0 0 0 0 0 0 0 0 0 0 0 127 0"/><feMorphology in="SourceAlpha" radius="2.545" result="effect2_dropShadow_211_4978"/><feOffset dy="3.818"/><feGaussianBlur stdDeviation="1.273"/><feComposite in2="hardAlpha" operator="out"/><feColorMatrix values="0 0 0 0 0.0313726 0 0 0 0 0.0313726 0 0 0 0 0.0313726 0 0 0 0.05 0"/><feBlend in2="effect1_dropShadow_211_4978" result="effect2_dropShadow_211_4978"/><feColorMatrix in="SourceAlpha" result="hardAlpha" values="0 0 0 0 0 0 0 0 0 0 0 0 0 0 0 0 0 0 127 0"/><feOffset dy="3.818"/><feGaussianBlur stdDeviation="4.136"/><feComposite in2="hardAlpha" operator="out"/><feColorMatrix values="0 0 0 0 0.0313726 0 0 0 0 0.0313726 0 0 0 0 0.0313726 0 0 0 0.03 0"/><feBlend in2="effect2_dropShadow_211_4978" result="effect3_dropShadow_211_4978"/><feColorMatrix in="SourceAlpha" result="hardAlpha" values="0 0 0 0 0 0 0 0 0 0 0 0 0 0 0 0 0 0 127 0"/><feMorphology in="SourceAlpha" radius="10.182" result="effect4_dropShadow_211_4978"/><feOffset dy="15.273"/><feGaussianBlur stdDeviation="7.636"/><feComposite in2="hardAlpha" operator="out"/><feColorMatrix values="0 0 0 0 0.0313726 0 0 0 0 0.0313726 0 0 0 0 0.0313726 0 0 0 0.04 0"/><feBlend in2="effect3_dropShadow_211_4978" result="effect4_dropShadow_211_4978"/><feColorMatrix in="SourceAlpha" result="hardAlpha" values="0 0 0 0 0 0 0 0 0 0 0 0 0 0 0 0 0 0 127 0"/><feMorphology in="SourceAlpha" radius="1.273" result="effect5_dropShadow_211_4978"/><feOffset dy="1.368"/><feGaussianBlur stdDeviation=".159"/><feComposite in2="hardAlpha" operator="out"/><feColorMatrix values="0 0 0 0 0 0 0 0 0 0 0 0 0 0 0 0 0 0 0.25 0"/><feBlend in2="effect4_dropShadow_211_4978" result="effect5_dropShadow_211_4978"/><feColorMatrix in="SourceAlpha" result="hardAlpha" values="0 0 0 0 0 0 0 0 0 0 0 0 0 0 0 0 0 0 127 0"/><feMorphology in="SourceAlpha" radius="7.636" result="effect6_dropShadow_211_4978"/><feOffset dy="20.364"/><feGaussianBlur stdDeviation="20.364"/><feComposite in2="hardAlpha" operator="out"/><feColorMatrix values="0 0 0 0 0 0 0 0 0 0 0 0 0 0 0 0 0 0 0.075 0"/><feBlend in2="effect5_dropShadow_211_4978" mode="multiply" result="effect6_dropShadow_211_4978"/><feBlend in="SourceGraphic" in2="effect6_dropShadow_211_4978" result="shape"/></filter><filter id="y" width="7.636" height="7.636" x="228.455" y="104.998" color-interpolation-filters="sRGB" filterUnits="userSpaceOnUse"><feFlood flood-opacity="0" result="BackgroundImageFix"/><feBlend in="SourceGraphic" in2="BackgroundImageFix" result="shape"/><feGaussianBlur result="effect1_foregroundBlur_211_4978" stdDeviation=".636"/></filter><filter id="B" width="134.909" height="89.091" x="185.818" y="151.451" color-interpolation-filters="sRGB" filterUnits="userSpaceOnUse"><feFlood flood-opacity="0" result="BackgroundImageFix"/><feColorMatrix in="SourceAlpha" result="hardAlpha" values="0 0 0 0 0 0 0 0 0 0 0 0 0 0 0 0 0 0 127 0"/><feMorphology in="SourceAlpha" radius="2.545" result="effect1_dropShadow_211_4978"/><feOffset dy="3.182"/><feGaussianBlur stdDeviation=".477"/><feComposite in2="hardAlpha" operator="out"/><feColorMatrix values="0 0 0 0 0.0313726 0 0 0 0 0.0313726 0 0 0 0 0.0313726 0 0 0 0.05 0"/><feBlend in2="BackgroundImageFix" result="effect1_dropShadow_211_4978"/><feColorMatrix in="SourceAlpha" result="hardAlpha" values="0 0 0 0 0 0 0 0 0 0 0 0 0 0 0 0 0 0 127 0"/><feMorphology in="SourceAlpha" radius="2.545" result="effect2_dropShadow_211_4978"/><feOffset dy="3.818"/><feGaussianBlur stdDeviation="1.273"/><feComposite in2="hardAlpha" operator="out"/><feColorMatrix values="0 0 0 0 0.0313726 0 0 0 0 0.0313726 0 0 0 0 0.0313726 0 0 0 0.05 0"/><feBlend in2="effect1_dropShadow_211_4978" result="effect2_dropShadow_211_4978"/><feColorMatrix in="SourceAlpha" result="hardAlpha" values="0 0 0 0 0 0 0 0 0 0 0 0 0 0 0 0 0 0 127 0"/><feOffset dy="3.818"/><feGaussianBlur stdDeviation="4.136"/><feComposite in2="hardAlpha" operator="out"/><feColorMatrix values="0 0 0 0 0.0313726 0 0 0 0 0.0313726 0 0 0 0 0.0313726 0 0 0 0.03 0"/><feBlend in2="effect2_dropShadow_211_4978" result="effect3_dropShadow_211_4978"/><feColorMatrix in="SourceAlpha" result="hardAlpha" values="0 0 0 0 0 0 0 0 0 0 0 0 0 0 0 0 0 0 127 0"/><feMorphology in="SourceAlpha" radius="10.182" result="effect4_dropShadow_211_4978"/><feOffset dy="15.273"/><feGaussianBlur stdDeviation="7.636"/><feComposite in2="hardAlpha" operator="out"/><feColorMatrix values="0 0 0 0 0.0313726 0 0 0 0 0.0313726 0 0 0 0 0.0313726 0 0 0 0.04 0"/><feBlend in2="effect3_dropShadow_211_4978" result="effect4_dropShadow_211_4978"/><feColorMatrix in="SourceAlpha" result="hardAlpha" values="0 0 0 0 0 0 0 0 0 0 0 0 0 0 0 0 0 0 127 0"/><feMorphology in="SourceAlpha" radius="1.273" result="effect5_dropShadow_211_4978"/><feOffset dy="1.368"/><feGaussianBlur stdDeviation=".159"/><feComposite in2="hardAlpha" operator="out"/><feColorMatrix values="0 0 0 0 0 0 0 0 0 0 0 0 0 0 0 0 0 0 0.25 0"/><feBlend in2="effect4_dropShadow_211_4978" result="effect5_dropShadow_211_4978"/><feColorMatrix in="SourceAlpha" result="hardAlpha" values="0 0 0 0 0 0 0 0 0 0 0 0 0 0 0 0 0 0 127 0"/><feMorphology in="SourceAlpha" radius="7.636" result="effect6_dropShadow_211_4978"/><feOffset dy="20.364"/><feGaussianBlur stdDeviation="20.364"/><feComposite in2="hardAlpha" operator="out"/><feColorMatrix values="0 0 0 0 0 0 0 0 0 0 0 0 0 0 0 0 0 0 0.075 0"/><feBlend in2="effect5_dropShadow_211_4978" mode="multiply" result="effect6_dropShadow_211_4978"/><feBlend in="SourceGraphic" in2="effect6_dropShadow_211_4978" result="shape"/></filter><filter id="D" width="7.636" height="7.636" x="228.455" y="176.27" color-interpolation-filters="sRGB" filterUnits="userSpaceOnUse"><feFlood flood-opacity="0" result="BackgroundImageFix"/><feBlend in="SourceGraphic" in2="BackgroundImageFix" result="shape"/><feGaussianBlur result="effect1_foregroundBlur_211_4978" stdDeviation=".636"/></filter><filter id="F" width="134.909" height="89.091" x="-40.727" y="80.18" color-interpolation-filters="sRGB" filterUnits="userSpaceOnUse"><feFlood flood-opacity="0" result="BackgroundImageFix"/><feColorMatrix in="SourceAlpha" result="hardAlpha" values="0 0 0 0 0 0 0 0 0 0 0 0 0 0 0 0 0 0 127 0"/><feMorphology in="SourceAlpha" radius="2.545" result="effect1_dropShadow_211_4978"/><feOffset dy="3.182"/><feGaussianBlur stdDeviation=".477"/><feComposite in2="hardAlpha" operator="out"/><feColorMatrix values="0 0 0 0 0.0313726 0 0 0 0 0.0313726 0 0 0 0 0.0313726 0 0 0 0.05 0"/><feBlend in2="BackgroundImageFix" result="effect1_dropShadow_211_4978"/><feColorMatrix in="SourceAlpha" result="hardAlpha" values="0 0 0 0 0 0 0 0 0 0 0 0 0 0 0 0 0 0 127 0"/><feMorphology in="SourceAlpha" radius="2.545" result="effect2_dropShadow_211_4978"/><feOffset dy="3.818"/><feGaussianBlur stdDeviation="1.273"/><feComposite in2="hardAlpha" operator="out"/><feColorMatrix values="0 0 0 0 0.0313726 0 0 0 0 0.0313726 0 0 0 0 0.0313726 0 0 0 0.05 0"/><feBlend in2="effect1_dropShadow_211_4978" result="effect2_dropShadow_211_4978"/><feColorMatrix in="SourceAlpha" result="hardAlpha" values="0 0 0 0 0 0 0 0 0 0 0 0 0 0 0 0 0 0 127 0"/><feOffset dy="3.818"/><feGaussianBlur stdDeviation="4.136"/><feComposite in2="hardAlpha" operator="out"/><feColorMatrix values="0 0 0 0 0.0313726 0 0 0 0 0.0313726 0 0 0 0 0.0313726 0 0 0 0.03 0"/><feBlend in2="effect2_dropShadow_211_4978" result="effect3_dropShadow_211_4978"/><feColorMatrix in="SourceAlpha" result="hardAlpha" values="0 0 0 0 0 0 0 0 0 0 0 0 0 0 0 0 0 0 127 0"/><feMorphology in="SourceAlpha" radius="10.182" result="effect4_dropShadow_211_4978"/><feOffset dy="15.273"/><feGaussianBlur stdDeviation="7.636"/><feComposite in2="hardAlpha" operator="out"/><feColorMatrix values="0 0 0 0 0.0313726 0 0 0 0 0.0313726 0 0 0 0 0.0313726 0 0 0 0.04 0"/><feBlend in2="effect3_dropShadow_211_4978" result="effect4_dropShadow_211_4978"/><feColorMatrix in="SourceAlpha" result="hardAlpha" values="0 0 0 0 0 0 0 0 0 0 0 0 0 0 0 0 0 0 127 0"/><feMorphology in="SourceAlpha" radius="1.273" result="effect5_dropShadow_211_4978"/><feOffset dy="1.368"/><feGaussianBlur stdDeviation=".159"/><feComposite in2="hardAlpha" operator="out"/><feColorMatrix values="0 0 0 0 0 0 0 0 0 0 0 0 0 0 0 0 0 0 0.25 0"/><feBlend in2="effect4_dropShadow_211_4978" result="effect5_dropShadow_211_4978"/><feColorMatrix in="SourceAlpha" result="hardAlpha" values="0 0 0 0 0 0 0 0 0 0 0 0 0 0 0 0 0 0 127 0"/><feMorphology in="SourceAlpha" radius="7.636" result="effect6_dropShadow_211_4978"/><feOffset dy="20.364"/><feGaussianBlur stdDeviation="20.364"/><feComposite in2="hardAlpha" operator="out"/><feColorMatrix values="0 0 0 0 0 0 0 0 0 0 0 0 0 0 0 0 0 0 0.075 0"/><feBlend in2="effect5_dropShadow_211_4978" mode="multiply" result="effect6_dropShadow_211_4978"/><feBlend in="SourceGraphic" in2="effect6_dropShadow_211_4978" result="shape"/></filter><filter id="H" width="7.636" height="7.636" x="1.909" y="104.998" color-interpolation-filters="sRGB" filterUnits="userSpaceOnUse"><feFlood flood-opacity="0" result="BackgroundImageFix"/><feBlend in="SourceGraphic" in2="BackgroundImageFix" result="shape"/><feGaussianBlur result="effect1_foregroundBlur_211_4978" stdDeviation=".636"/></filter><filter id="K" width="134.909" height="89.091" x="-40.727" y="151.451" color-interpolation-filters="sRGB" filterUnits="userSpaceOnUse"><feFlood flood-opacity="0" result="BackgroundImageFix"/><feColorMatrix in="SourceAlpha" result="hardAlpha" values="0 0 0 0 0 0 0 0 0 0 0 0 0 0 0 0 0 0 127 0"/><feMorphology in="SourceAlpha" radius="2.545" result="effect1_dropShadow_211_4978"/><feOffset dy="3.182"/><feGaussianBlur stdDeviation=".477"/><feComposite in2="hardAlpha" operator="out"/><feColorMatrix values="0 0 0 0 0.0313726 0 0 0 0 0.0313726 0 0 0 0 0.0313726 0 0 0 0.05 0"/><feBlend in2="BackgroundImageFix" result="effect1_dropShadow_211_4978"/><feColorMatrix in="SourceAlpha" result="hardAlpha" values="0 0 0 0 0 0 0 0 0 0 0 0 0 0 0 0 0 0 127 0"/><feMorphology in="SourceAlpha" radius="2.545" result="effect2_dropShadow_211_4978"/><feOffset dy="3.818"/><feGaussianBlur stdDeviation="1.273"/><feComposite in2="hardAlpha" operator="out"/><feColorMatrix values="0 0 0 0 0.0313726 0 0 0 0 0.0313726 0 0 0 0 0.0313726 0 0 0 0.05 0"/><feBlend in2="effect1_dropShadow_211_4978" result="effect2_dropShadow_211_4978"/><feColorMatrix in="SourceAlpha" result="hardAlpha" values="0 0 0 0 0 0 0 0 0 0 0 0 0 0 0 0 0 0 127 0"/><feOffset dy="3.818"/><feGaussianBlur stdDeviation="4.136"/><feComposite in2="hardAlpha" operator="out"/><feColorMatrix values="0 0 0 0 0.0313726 0 0 0 0 0.0313726 0 0 0 0 0.0313726 0 0 0 0.03 0"/><feBlend in2="effect2_dropShadow_211_4978" result="effect3_dropShadow_211_4978"/><feColorMatrix in="SourceAlpha" result="hardAlpha" values="0 0 0 0 0 0 0 0 0 0 0 0 0 0 0 0 0 0 127 0"/><feMorphology in="SourceAlpha" radius="10.182" result="effect4_dropShadow_211_4978"/><feOffset dy="15.273"/><feGaussianBlur stdDeviation="7.636"/><feComposite in2="hardAlpha" operator="out"/><feColorMatrix values="0 0 0 0 0.0313726 0 0 0 0 0.0313726 0 0 0 0 0.0313726 0 0 0 0.04 0"/><feBlend in2="effect3_dropShadow_211_4978" result="effect4_dropShadow_211_4978"/><feColorMatrix in="SourceAlpha" result="hardAlpha" values="0 0 0 0 0 0 0 0 0 0 0 0 0 0 0 0 0 0 127 0"/><feMorphology in="SourceAlpha" radius="1.273" result="effect5_dropShadow_211_4978"/><feOffset dy="1.368"/><feGaussianBlur stdDeviation=".159"/><feComposite in2="hardAlpha" operator="out"/><feColorMatrix values="0 0 0 0 0 0 0 0 0 0 0 0 0 0 0 0 0 0 0.25 0"/><feBlend in2="effect4_dropShadow_211_4978" result="effect5_dropShadow_211_4978"/><feColorMatrix in="SourceAlpha" result="hardAlpha" values="0 0 0 0 0 0 0 0 0 0 0 0 0 0 0 0 0 0 127 0"/><feMorphology in="SourceAlpha" radius="7.636" result="effect6_dropShadow_211_4978"/><feOffset dy="20.364"/><feGaussianBlur stdDeviation="20.364"/><feComposite in2="hardAlpha" operator="out"/><feColorMatrix values="0 0 0 0 0 0 0 0 0 0 0 0 0 0 0 0 0 0 0.075 0"/><feBlend in2="effect5_dropShadow_211_4978" mode="multiply" result="effect6_dropShadow_211_4978"/><feBlend in="SourceGraphic" in2="effect6_dropShadow_211_4978" result="shape"/></filter><filter id="M" width="7.636" height="7.636" x="1.909" y="176.27" color-interpolation-filters="sRGB" filterUnits="userSpaceOnUse"><feFlood flood-opacity="0" result="BackgroundImageFix"/><feBlend in="SourceGraphic" in2="BackgroundImageFix" result="shape"/><feGaussianBlur result="effect1_foregroundBlur_211_4978" stdDeviation=".636"/></filter><filter id="P" width="134.909" height="89.091" x="-15.273" y="115.816" color-interpolation-filters="sRGB" filterUnits="userSpaceOnUse"><feFlood flood-opacity="0" result="BackgroundImageFix"/><feColorMatrix in="SourceAlpha" result="hardAlpha" values="0 0 0 0 0 0 0 0 0 0 0 0 0 0 0 0 0 0 127 0"/><feMorphology in="SourceAlpha" radius="2.545" result="effect1_dropShadow_211_4978"/><feOffset dy="3.182"/><feGaussianBlur stdDeviation=".477"/><feComposite in2="hardAlpha" operator="out"/><feColorMatrix values="0 0 0 0 0.0313726 0 0 0 0 0.0313726 0 0 0 0 0.0313726 0 0 0 0.05 0"/><feBlend in2="BackgroundImageFix" result="effect1_dropShadow_211_4978"/><feColorMatrix in="SourceAlpha" result="hardAlpha" values="0 0 0 0 0 0 0 0 0 0 0 0 0 0 0 0 0 0 127 0"/><feMorphology in="SourceAlpha" radius="2.545" result="effect2_dropShadow_211_4978"/><feOffset dy="3.818"/><feGaussianBlur stdDeviation="1.273"/><feComposite in2="hardAlpha" operator="out"/><feColorMatrix values="0 0 0 0 0.0313726 0 0 0 0 0.0313726 0 0 0 0 0.0313726 0 0 0 0.05 0"/><feBlend in2="effect1_dropShadow_211_4978" result="effect2_dropShadow_211_4978"/><feColorMatrix in="SourceAlpha" result="hardAlpha" values="0 0 0 0 0 0 0 0 0 0 0 0 0 0 0 0 0 0 127 0"/><feOffset dy="3.818"/><feGaussianBlur stdDeviation="4.136"/><feComposite in2="hardAlpha" operator="out"/><feColorMatrix values="0 0 0 0 0.0313726 0 0 0 0 0.0313726 0 0 0 0 0.0313726 0 0 0 0.03 0"/><feBlend in2="effect2_dropShadow_211_4978" result="effect3_dropShadow_211_4978"/><feColorMatrix in="SourceAlpha" result="hardAlpha" values="0 0 0 0 0 0 0 0 0 0 0 0 0 0 0 0 0 0 127 0"/><feMorphology in="SourceAlpha" radius="10.182" result="effect4_dropShadow_211_4978"/><feOffset dy="15.273"/><feGaussianBlur stdDeviation="7.636"/><feComposite in2="hardAlpha" operator="out"/><feColorMatrix values="0 0 0 0 0.0313726 0 0 0 0 0.0313726 0 0 0 0 0.0313726 0 0 0 0.04 0"/><feBlend in2="effect3_dropShadow_211_4978" result="effect4_dropShadow_211_4978"/><feColorMatrix in="SourceAlpha" result="hardAlpha" values="0 0 0 0 0 0 0 0 0 0 0 0 0 0 0 0 0 0 127 0"/><feMorphology in="SourceAlpha" radius="1.273" result="effect5_dropShadow_211_4978"/><feOffset dy="1.368"/><feGaussianBlur stdDeviation=".159"/><feComposite in2="hardAlpha" operator="out"/><feColorMatrix values="0 0 0 0 0 0 0 0 0 0 0 0 0 0 0 0 0 0 0.25 0"/><feBlend in2="effect4_dropShadow_211_4978" result="effect5_dropShadow_211_4978"/><feColorMatrix in="SourceAlpha" result="hardAlpha" values="0 0 0 0 0 0 0 0 0 0 0 0 0 0 0 0 0 0 127 0"/><feMorphology in="SourceAlpha" radius="7.636" result="effect6_dropShadow_211_4978"/><feOffset dy="20.364"/><feGaussianBlur stdDeviation="20.364"/><feComposite in2="hardAlpha" operator="out"/><feColorMatrix values="0 0 0 0 0 0 0 0 0 0 0 0 0 0 0 0 0 0 0.075 0"/><feBlend in2="effect5_dropShadow_211_4978" mode="multiply" result="effect6_dropShadow_211_4978"/><feBlend in="SourceGraphic" in2="effect6_dropShadow_211_4978" result="shape"/></filter><filter id="R" width="7.636" height="7.636" x="27.364" y="140.635" color-interpolation-filters="sRGB" filterUnits="userSpaceOnUse"><feFlood flood-opacity="0" result="BackgroundImageFix"/><feBlend in="SourceGraphic" in2="BackgroundImageFix" result="shape"/><feGaussianBlur result="effect1_foregroundBlur_211_4978" stdDeviation=".636"/></filter><radialGradient id="q" cx="0" cy="0" r="1" gradientTransform="matrix(0 28.6364 -30.5455 0 140 111.364)" gradientUnits="userSpaceOnUse"><stop stop-color="#e2e2e2"/><stop offset="1" stop-color="#c786f7"/></radialGradient></defs></svg>