<svg xmlns="http://www.w3.org/2000/svg" fill="none" viewBox="0 0 280 280"><g clip-path="url(#a)"><mask id="c" width="282" height="280" x="4" y="0" maskUnits="userSpaceOnUse" style="mask-type:alpha"><path fill="url(#b)" d="M4.5 0H285v280H4.5z"/></mask><g mask="url(#c)"><foreignObject width="73.8" height="76.5" x="62.6" y="-19.2"><div xmlns="http://www.w3.org/1999/xhtml" clip-path="url(#d)" style="backdrop-filter:blur(10.18px);height:100%;width:100%"/></foreignObject><g filter="url(#e)" shape-rendering="crispEdges"><path fill="#fdfdfd" fill-opacity=".5" d="M95.6 2.2a8 8 0 0 1 7.7 0l8.9 5.1A8 8 0 0 1 116 14v10.2a8 8 0 0 1-3.8 6.6l-9 5.2a8 8 0 0 1-7.6 0l-8.9-5.2a8 8 0 0 1-3.8-6.6V14a8 8 0 0 1 3.8-6.7z"/><path stroke="#fdfdfd" stroke-opacity=".3" d="M95.9 2.6a7 7 0 0 1 7.1 0l9 5.2a7 7 0 0 1 3.5 6.2v10.2a7 7 0 0 1-3.6 6.2l-8.9 5.2a7 7 0 0 1-7.1 0l-9-5.2a7 7 0 0 1-3.5-6.2V14A7 7 0 0 1 87 7.8z"/></g><foreignObject width="73.8" height="76.5" x="82.9" y="16.5"><div xmlns="http://www.w3.org/1999/xhtml" clip-path="url(#f)" style="backdrop-filter:blur(10.18px);height:100%;width:100%"/></foreignObject><g filter="url(#g)" shape-rendering="crispEdges"><path fill="#fdfdfd" fill-opacity=".5" d="M116 37.8a8 8 0 0 1 7.6 0l9 5.2a8 8 0 0 1 3.8 6.6v10.3a8 8 0 0 1-3.9 6.6l-8.9 5.1a8 8 0 0 1-7.6 0l-8.9-5.1a8 8 0 0 1-3.8-6.6V49.6A8 8 0 0 1 107 43z"/><path stroke="#fdfdfd" stroke-opacity=".3" d="M116.2 38.3a7 7 0 0 1 7.2 0l8.9 5a7 7 0 0 1 3.6 6.3v10.3a7 7 0 0 1-3.6 6.2l-8.9 5.1a7 7 0 0 1-7.2 0l-8.9-5.1a7 7 0 0 1-3.5-6.2V49.6a7 7 0 0 1 3.5-6.2z"/></g><foreignObject width="73.8" height="76.5" x="103.3" y="-19.2"><div xmlns="http://www.w3.org/1999/xhtml" clip-path="url(#h)" style="backdrop-filter:blur(10.18px);height:100%;width:100%"/></foreignObject><g filter="url(#i)" shape-rendering="crispEdges"><path fill="#fdfdfd" fill-opacity=".5" d="M136.4 2.2a8 8 0 0 1 7.6 0l8.9 5.1a8 8 0 0 1 3.8 6.7v10.2a8 8 0 0 1-3.8 6.6L144 36a8 8 0 0 1-7.6 0l-9-5.2a8 8 0 0 1-3.8-6.6V14a8 8 0 0 1 3.9-6.7z"/><path stroke="#fdfdfd" stroke-opacity=".3" d="M136.6 2.6a7 7 0 0 1 7.2 0l8.9 5.2a7 7 0 0 1 3.5 6.2v10.2a7 7 0 0 1-3.5 6.2l-9 5.2a7 7 0 0 1-7.1 0l-8.9-5.2a7 7 0 0 1-3.6-6.2V14a7 7 0 0 1 3.6-6.2z"/></g><foreignObject width="73.8" height="76.5" x="103.3" y="52.1"><div xmlns="http://www.w3.org/1999/xhtml" clip-path="url(#j)" style="backdrop-filter:blur(10.18px);height:100%;width:100%"/></foreignObject><g filter="url(#k)" shape-rendering="crispEdges"><path fill="#fdfdfd" fill-opacity=".5" d="M136.4 73.5a8 8 0 0 1 7.6 0l8.9 5.1a8 8 0 0 1 3.8 6.6v10.3a8 8 0 0 1-3.8 6.6l-8.9 5.2a8 8 0 0 1-7.6 0l-9-5.2a8 8 0 0 1-3.8-6.6V85.2a8 8 0 0 1 3.9-6.6z"/><path stroke="#fdfdfd" stroke-opacity=".3" d="M136.6 73.9a7 7 0 0 1 7.2 0l8.9 5.1a7 7 0 0 1 3.5 6.2v10.3a7 7 0 0 1-3.5 6.2l-9 5.1a7 7 0 0 1-7.1 0l-8.9-5.1a7 7 0 0 1-3.6-6.2V85.2a7 7 0 0 1 3.6-6.2z"/></g><foreignObject width="73.8" height="76.5" x="144" y="-19.2"><div xmlns="http://www.w3.org/1999/xhtml" clip-path="url(#l)" style="backdrop-filter:blur(10.18px);height:100%;width:100%"/></foreignObject><g filter="url(#m)" shape-rendering="crispEdges"><path fill="#fdfdfd" fill-opacity=".5" d="M177 2.2a8 8 0 0 1 7.7 0l9 5.1a8 8 0 0 1 3.7 6.7v10.2a8 8 0 0 1-3.8 6.6l-8.9 5.2a8 8 0 0 1-7.6 0l-9-5.2a8 8 0 0 1-3.7-6.6V14a8 8 0 0 1 3.8-6.7z"/><path stroke="#fdfdfd" stroke-opacity=".3" d="M177.3 2.6a7 7 0 0 1 7.2 0l8.9 5.2A7 7 0 0 1 197 14v10.2a7 7 0 0 1-3.6 6.2l-9 5.2a7 7 0 0 1-7 0l-9-5.2a7 7 0 0 1-3.5-6.2V14a7 7 0 0 1 3.5-6.2z"/></g><foreignObject width="73.8" height="76.5" x="123.6" y="16.5"><div xmlns="http://www.w3.org/1999/xhtml" clip-path="url(#n)" style="backdrop-filter:blur(10.18px);height:100%;width:100%"/></foreignObject><g filter="url(#o)" shape-rendering="crispEdges"><path fill="#fdfdfd" fill-opacity=".5" d="M156.7 37.8a8 8 0 0 1 7.7 0l8.9 5.2a8 8 0 0 1 3.8 6.6v10.3a8 8 0 0 1-3.8 6.6l-9 5.1a8 8 0 0 1-7.6 0l-8.9-5.1a8 8 0 0 1-3.8-6.6V49.6a8 8 0 0 1 3.8-6.6z"/><path stroke="#fdfdfd" stroke-opacity=".3" d="M157 38.3a7 7 0 0 1 7.1 0l9 5a7 7 0 0 1 3.5 6.3v10.3A7 7 0 0 1 173 66l-8.9 5.1a7 7 0 0 1-7.1 0l-9-5.1a7 7 0 0 1-3.5-6.2V49.6a7 7 0 0 1 3.6-6.2z"/></g><foreignObject width="73.8" height="76.5" x="62.6" y="222.6"><div xmlns="http://www.w3.org/1999/xhtml" clip-path="url(#p)" style="backdrop-filter:blur(10.18px);height:100%;width:100%"/></foreignObject><g filter="url(#q)" shape-rendering="crispEdges"><path fill="#fdfdfd" fill-opacity=".5" d="M95.6 244a8 8 0 0 1 7.7 0l8.9 5.2a8 8 0 0 1 3.8 6.6V266a8 8 0 0 1-3.8 6.7l-9 5.1a8 8 0 0 1-7.6 0l-8.9-5.1A8 8 0 0 1 83 266v-10.2a8 8 0 0 1 3.8-6.6z"/><path stroke="#fdfdfd" stroke-opacity=".3" d="M95.9 244.4a7 7 0 0 1 7.1 0l9 5.2a7 7 0 0 1 3.5 6.2V266a7 7 0 0 1-3.6 6.2l-8.9 5.2a7 7 0 0 1-7.1 0l-9-5.2a7 7 0 0 1-3.5-6.2v-10.2a7 7 0 0 1 3.6-6.2z"/></g><foreignObject width="73.8" height="76.5" x="103.3" y="222.6"><div xmlns="http://www.w3.org/1999/xhtml" clip-path="url(#r)" style="backdrop-filter:blur(10.18px);height:100%;width:100%"/></foreignObject><g filter="url(#s)" shape-rendering="crispEdges"><path fill="#fdfdfd" fill-opacity=".5" d="M136.4 244a8 8 0 0 1 7.6 0l8.9 5.2a8 8 0 0 1 3.8 6.6V266a8 8 0 0 1-3.8 6.7l-8.9 5.1a8 8 0 0 1-7.6 0l-9-5.1a8 8 0 0 1-3.8-6.7v-10.2a8 8 0 0 1 3.9-6.6z"/><path stroke="#fdfdfd" stroke-opacity=".3" d="M136.6 244.4a7 7 0 0 1 7.2 0l8.9 5.2a7 7 0 0 1 3.5 6.2V266a7 7 0 0 1-3.5 6.2l-9 5.2a7 7 0 0 1-7.1 0l-8.9-5.2a7 7 0 0 1-3.6-6.2v-10.2a7 7 0 0 1 3.6-6.2z"/></g><foreignObject width="73.8" height="76.5" x="103.3" y="151.4"><div xmlns="http://www.w3.org/1999/xhtml" clip-path="url(#t)" style="backdrop-filter:blur(10.18px);height:100%;width:100%"/></foreignObject><g filter="url(#u)" shape-rendering="crispEdges"><path fill="#fdfdfd" fill-opacity=".5" d="M136.4 172.8a8 8 0 0 1 7.6 0l8.9 5a8 8 0 0 1 3.8 6.7v10.3a8 8 0 0 1-3.8 6.6l-8.9 5.1a8 8 0 0 1-7.6 0l-9-5.1a8 8 0 0 1-3.8-6.6v-10.3a8 8 0 0 1 3.9-6.6z"/><path stroke="#fdfdfd" stroke-opacity=".3" d="M136.6 173.2a7 7 0 0 1 7.2 0l8.9 5.1a7 7 0 0 1 3.5 6.2v10.3a7 7 0 0 1-3.5 6.2l-9 5.1a7 7 0 0 1-7.1 0l-8.9-5.1a7 7 0 0 1-3.6-6.2v-10.3a7 7 0 0 1 3.6-6.2z"/></g><foreignObject width="73.8" height="76.5" x="123.6" y="187"><div xmlns="http://www.w3.org/1999/xhtml" clip-path="url(#v)" style="backdrop-filter:blur(10.18px);height:100%;width:100%"/></foreignObject><g filter="url(#w)" shape-rendering="crispEdges"><path fill="#fdfdfd" fill-opacity=".5" d="M156.7 208.4a8 8 0 0 1 7.7 0l8.9 5.1a8 8 0 0 1 3.8 6.6v10.3a8 8 0 0 1-3.8 6.6l-9 5.2a8 8 0 0 1-7.6 0l-8.9-5.2a8 8 0 0 1-3.8-6.6v-10.3a8 8 0 0 1 3.8-6.6z"/><path stroke="#fdfdfd" stroke-opacity=".3" d="M157 208.8a7 7 0 0 1 7.1 0l9 5.1a7 7 0 0 1 3.5 6.2v10.3a7 7 0 0 1-3.6 6.2l-8.9 5.1a7 7 0 0 1-7.1 0l-9-5a7 7 0 0 1-3.5-6.3v-10.3a7 7 0 0 1 3.6-6.2z"/></g><foreignObject width="73.8" height="76.5" x="144" y="222.6"><div xmlns="http://www.w3.org/1999/xhtml" clip-path="url(#x)" style="backdrop-filter:blur(10.18px);height:100%;width:100%"/></foreignObject><g filter="url(#y)" shape-rendering="crispEdges"><path fill="#fdfdfd" fill-opacity=".5" d="M177 244a8 8 0 0 1 7.7 0l9 5.2a8 8 0 0 1 3.7 6.6V266a8 8 0 0 1-3.8 6.7l-8.9 5.1a8 8 0 0 1-7.6 0l-9-5.1a8 8 0 0 1-3.7-6.7v-10.2a8 8 0 0 1 3.8-6.6z"/><path stroke="#fdfdfd" stroke-opacity=".3" d="M177.3 244.4a7 7 0 0 1 7.2 0l8.9 5.2a7 7 0 0 1 3.6 6.2V266a7 7 0 0 1-3.6 6.2l-9 5.2a7 7 0 0 1-7 0l-9-5.2a7 7 0 0 1-3.5-6.2v-10.2a7 7 0 0 1 3.5-6.2z"/></g><foreignObject width="73.8" height="76.5" x="82.9" y="187"><div xmlns="http://www.w3.org/1999/xhtml" clip-path="url(#z)" style="backdrop-filter:blur(10.18px);height:100%;width:100%"/></foreignObject><g filter="url(#A)" shape-rendering="crispEdges"><path fill="#fdfdfd" fill-opacity=".5" d="M116 208.4a8 8 0 0 1 7.6 0l9 5.1a8 8 0 0 1 3.8 6.6v10.3a8 8 0 0 1-3.9 6.6l-8.9 5.2a8 8 0 0 1-7.6 0l-8.9-5.2a8 8 0 0 1-3.8-6.6v-10.3a8 8 0 0 1 3.8-6.6z"/><path stroke="#fdfdfd" stroke-opacity=".3" d="M116.2 208.8a7 7 0 0 1 7.2 0l8.9 5.1a7 7 0 0 1 3.6 6.2v10.3a7 7 0 0 1-3.6 6.2l-8.9 5.1a7 7 0 0 1-7.2 0l-8.9-5a7 7 0 0 1-3.5-6.3v-10.3a7 7 0 0 1 3.5-6.2z"/></g></g><foreignObject width="106.9" height="126" x="-38.2" y="81.5"><div xmlns="http://www.w3.org/1999/xhtml" clip-path="url(#B)" style="backdrop-filter:blur(10.18px);height:100%;width:100%"/></foreignObject><rect width="66.2" height="85.3" x="-17.8" y="101.8" fill="#fdfdfd" fill-opacity=".5" rx="10.2"/><g fill="#727272" clip-path="url(#C)"><rect width="52.2" height="2.5" x="-24.8" y="120.6" opacity=".1" rx="1.3"/><rect width="52.2" height="2.5" x="-24.8" y="146.1" opacity=".1" rx="1.3"/><rect width="52.2" height="2.5" x="-24.8" y="171.5" opacity=".1" rx="1.3"/></g><rect width="70.3" height="94.5" x="-17.3" y="97.2" stroke="#d9d9d9" opacity=".5" rx="14.8"/><foreignObject width="106.9" height="126" x="211.3" y="81.5"><div xmlns="http://www.w3.org/1999/xhtml" clip-path="url(#D)" style="backdrop-filter:blur(10.18px);height:100%;width:100%"/></foreignObject><rect width="66.2" height="85.3" x="231.6" y="101.8" fill="#fdfdfd" fill-opacity=".5" rx="10.2"/><g clip-path="url(#E)"><rect width="2.5" height="15.3" x="245" y="111.4" fill="#727272" opacity=".1" rx="1.3"/><rect width="20.4" height="2.5" x="253.3" y="115.2" fill="#1b1b1b" opacity=".1" rx="1.3"/><rect width="52.2" height="2.5" x="253.3" y="120.3" fill="#727272" opacity=".1" rx="1.3"/><rect width="2.5" height="15.3" x="245" y="136.8" fill="#727272" opacity=".1" rx="1.3"/><rect width="20.4" height="2.5" x="253.3" y="140.6" fill="#1b1b1b" opacity=".1" rx="1.3"/><rect width="52.2" height="2.5" x="253.3" y="145.7" fill="#727272" opacity=".1" rx="1.3"/><rect width="2.5" height="15.3" x="245" y="162.3" fill="#727272" opacity=".1" rx="1.3"/><rect width="20.4" height="2.5" x="253.3" y="166.1" fill="#1b1b1b" opacity=".1" rx="1.3"/><rect width="52.2" height="2.5" x="253.3" y="171.2" fill="#727272" opacity=".1" rx="1.3"/></g><rect width="70.3" height="94.5" x="227" y="97.2" stroke="#d9d9d9" opacity=".5" rx="14.8"/><g filter="url(#F)" opacity=".5" style="mix-blend-mode:multiply"><rect width="147.6" height="85.3" x="66.2" y="101.8" fill="#000" fill-opacity=".3" rx="10.2"/></g><foreignObject width="203.6" height="158.5" x="38.2" y="57.3"><div xmlns="http://www.w3.org/1999/xhtml" clip-path="url(#G)" style="backdrop-filter:blur(10.18px);height:100%;width:100%"/></foreignObject><path fill="#f1f1f1" stroke="url(#H)" d="M87 78.1h3.2c3.4 0 5 0 6.6.3a17 17 0 0 1 4 1.3c1.5.7 2.8 1.6 5.6 3.6l5.9 4.2c2.7 2 4.1 3 5.7 3.6a18 18 0 0 0 4.3 1.4c1.7.3 3.4.3 6.8.3h77.6c7.9 0 14.3 6.4 14.3 14.3v59.8q0 7.4-.3 11.6c-.2 3-.7 5-1.6 7a17 17 0 0 1-7.6 7.5 18 18 0 0 1-6.9 1.6q-4.3.4-11.7.3H87.1q-7.4 0-11.7-.3c-3-.2-5-.7-7-1.6a17 17 0 0 1-7.5-7.6 18 18 0 0 1-1.6-6.9c-.3-3-.3-6.6-.3-11.6V106q0-7.4.3-11.6c.2-3 .7-5 1.6-7a17 17 0 0 1 7.6-7.5q2.6-1.4 6.9-1.6T87 78Z"/><rect width="62" height="61.1" x="73.8" y="101.8" fill="#e2e2e2" fill-opacity=".5" rx="7.6"/><rect width="62" height="61.1" x="144.1" y="101.8" fill="#fdfdfd" rx="5.1"/><rect width="24.2" height="2.5" x="149.2" y="119.6" fill="#727272" opacity=".1" rx="1.3"/><foreignObject width="234.2" height="162.9" x="22.9" y="68.1"><div xmlns="http://www.w3.org/1999/xhtml" clip-path="url(#I)" style="backdrop-filter:blur(20.36px);height:100%;width:100%"/></foreignObject><rect width="151.8" height="80.5" x="64.1" y="109.3" fill="url(#J)" fill-opacity=".8" rx="12.3"/><rect width="151.8" height="80.5" x="64.1" y="109.3" stroke="url(#K)" rx="12.3"/><foreignObject width="183.3" height="71.3" x="48.4" y="134.3"><div xmlns="http://www.w3.org/1999/xhtml" clip-path="url(#L)" style="backdrop-filter:blur(10.18px);height:100%;width:100%"/></foreignObject><g filter="url(#M)"><g clip-path="url(#N)"><rect width="142.5" height="30.5" x="68.7" y="154.6" fill="#fdfdfd" fill-opacity=".5" rx="7.6" shape-rendering="crispEdges"/><g filter="url(#O)"><path fill="#0073ff" d="M79.5 176.3a3.8 3.8 0 1 1 7.7 0 3.8 3.8 0 0 1-7.7 0"/></g><path fill="url(#P)" d="M76.4 169.6a9 9 0 0 1 8.9-8.9 9 9 0 1 1-9 9"/><rect width="20.4" height="2.5" x="101.8" y="165.8" fill="#1b1b1b" opacity=".1" rx="1.3"/><rect width="56" height="2.5" x="101.8" y="170.9" fill="#727272" opacity=".1" rx="1.3"/><rect width="16.1" height="9.1" x="180.1" y="159.7" fill="#fdfdfd" rx="2.5"/><rect width="15.5" height="8.5" x="180.4" y="160" stroke="#000" stroke-opacity=".1" stroke-width=".6" rx="2.2"/><path fill="#010101" d="M183.7 166.3h-.4v-3.6h.5l1.3 3 1.3-3h.4v3.6h-.4v-2.8l-1.2 2.8h-.3l-1.2-2.8zm6.3-3.6h.5l-1.4 3.6h-.4l-1.4-3.6h.5l1.1 3.1zm2.2 1.8.5-.1.2-.3.1-.3q0-.4-.2-.6l-.6-.1h-.8v1.4zm1.2-.7v.4l-.3.3-.3.2-.6.1h-.8v1.5h-.4v-3.6h1.2q.4 0 .7.2.3 0 .4.3z"/></g><rect width="141.9" height="29.9" x="69" y="155" stroke="#fdfdfd" stroke-width=".6" rx="7.3" shape-rendering="crispEdges"/></g><rect width="67.8" height="34.7" x="69.2" y="114.4" fill="#fdfdfd" fill-opacity=".5" rx="7.2"/><rect width="67.8" height="34.7" x="69.2" y="114.4" stroke="#fdfdfd" rx="7.2"/><rect width="42" height="17.8" x="81.7" y="123" fill="url(#Q)" rx="8.9"/><rect width="41" height="16.9" x="82.2" y="123.5" stroke="#a8a8a8" stroke-opacity=".1" rx="8.4"/><rect width="20.2" height="3.2" x="92.6" y="130.3" fill="#fdfdfd" rx="1.3"/><rect width="68.7" height="35.6" x="142.5" y="113.9" fill="#e2e2e2" fill-opacity=".3" rx="7.6"/><rect width="68.1" height="35" x="142.9" y="114.2" stroke="#a8a8a8" stroke-opacity=".2" stroke-width=".6" rx="7.3"/><rect width="20.4" height="2.5" x="152.7" y="128.1" fill="#1b1b1b" opacity=".1" rx="1.3"/><rect width="48.4" height="2.5" x="152.7" y="133.2" fill="#727272" opacity=".1" rx="1.3"/><circle cx="232.9" cy="52.2" r="5.1" fill="url(#R)"/><circle cx="45.8" cy="159.7" r="5.1" fill="url(#S)"/><circle cx="201.1" cy="63" r="1.3" fill="url(#T)"/><circle cx="190.9" cy="204.9" r="1.3" fill="url(#U)"/><circle cx="73.8" cy="58.5" r="1.3" fill="url(#V)"/><circle cx="90.4" cy="207.5" r="1.3" fill="url(#W)"/><circle cx="50.9" cy="32.5" r="2.5" fill="url(#X)"/><circle cx="227.8" cy="215.1" r="2.5" fill="url(#Y)"/><circle cx="50.9" cy="225.3" r="2.5" fill="url(#Z)"/></g><defs><clipPath id="d" transform="translate(-62.6 19.2)"><path d="M95.6 2.2a8 8 0 0 1 7.7 0l8.9 5.1A8 8 0 0 1 116 14v10.2a8 8 0 0 1-3.8 6.6l-9 5.2a8 8 0 0 1-7.6 0l-8.9-5.2a8 8 0 0 1-3.8-6.6V14a8 8 0 0 1 3.8-6.7z"/></clipPath><clipPath id="f" transform="translate(-83 -16.5)"><path d="M116 37.8a8 8 0 0 1 7.6 0l9 5.2a8 8 0 0 1 3.8 6.6v10.3a8 8 0 0 1-3.9 6.6l-8.9 5.1a8 8 0 0 1-7.6 0l-8.9-5.1a8 8 0 0 1-3.8-6.6V49.6A8 8 0 0 1 107 43z"/></clipPath><clipPath id="h" transform="translate(-103.3 19.2)"><path d="M136.4 2.2a8 8 0 0 1 7.6 0l8.9 5.1a8 8 0 0 1 3.8 6.7v10.2a8 8 0 0 1-3.8 6.6L144 36a8 8 0 0 1-7.6 0l-9-5.2a8 8 0 0 1-3.8-6.6V14a8 8 0 0 1 3.9-6.7z"/></clipPath><clipPath id="j" transform="translate(-103.3 -52)"><path d="M136.4 73.5a8 8 0 0 1 7.6 0l8.9 5.1a8 8 0 0 1 3.8 6.6v10.3a8 8 0 0 1-3.8 6.6l-8.9 5.2a8 8 0 0 1-7.6 0l-9-5.2a8 8 0 0 1-3.8-6.6V85.2a8 8 0 0 1 3.9-6.6z"/></clipPath><clipPath id="l" transform="translate(-144 19.2)"><path d="M177 2.2a8 8 0 0 1 7.7 0l9 5.1a8 8 0 0 1 3.7 6.7v10.2a8 8 0 0 1-3.8 6.6l-8.9 5.2a8 8 0 0 1-7.6 0l-9-5.2a8 8 0 0 1-3.7-6.6V14a8 8 0 0 1 3.8-6.7z"/></clipPath><clipPath id="n" transform="translate(-123.6 -16.5)"><path d="M156.7 37.8a8 8 0 0 1 7.7 0l8.9 5.2a8 8 0 0 1 3.8 6.6v10.3a8 8 0 0 1-3.8 6.6l-9 5.1a8 8 0 0 1-7.6 0l-8.9-5.1a8 8 0 0 1-3.8-6.6V49.6a8 8 0 0 1 3.8-6.6z"/></clipPath><clipPath id="p" transform="translate(-62.6 -222.6)"><path d="M95.6 244a8 8 0 0 1 7.7 0l8.9 5.2a8 8 0 0 1 3.8 6.6V266a8 8 0 0 1-3.8 6.7l-9 5.1a8 8 0 0 1-7.6 0l-8.9-5.1A8 8 0 0 1 83 266v-10.2a8 8 0 0 1 3.8-6.6z"/></clipPath><clipPath id="r" transform="translate(-103.3 -222.6)"><path d="M136.4 244a8 8 0 0 1 7.6 0l8.9 5.2a8 8 0 0 1 3.8 6.6V266a8 8 0 0 1-3.8 6.7l-8.9 5.1a8 8 0 0 1-7.6 0l-9-5.1a8 8 0 0 1-3.8-6.7v-10.2a8 8 0 0 1 3.9-6.6z"/></clipPath><clipPath id="t" transform="translate(-103.3 -151.4)"><path d="M136.4 172.8a8 8 0 0 1 7.6 0l8.9 5a8 8 0 0 1 3.8 6.7v10.3a8 8 0 0 1-3.8 6.6l-8.9 5.1a8 8 0 0 1-7.6 0l-9-5.1a8 8 0 0 1-3.8-6.6v-10.3a8 8 0 0 1 3.9-6.6z"/></clipPath><clipPath id="v" transform="translate(-123.6 -187)"><path d="M156.7 208.4a8 8 0 0 1 7.7 0l8.9 5.1a8 8 0 0 1 3.8 6.6v10.3a8 8 0 0 1-3.8 6.6l-9 5.2a8 8 0 0 1-7.6 0l-8.9-5.2a8 8 0 0 1-3.8-6.6v-10.3a8 8 0 0 1 3.8-6.6z"/></clipPath><clipPath id="x" transform="translate(-144 -222.6)"><path d="M177 244a8 8 0 0 1 7.7 0l9 5.2a8 8 0 0 1 3.7 6.6V266a8 8 0 0 1-3.8 6.7l-8.9 5.1a8 8 0 0 1-7.6 0l-9-5.1a8 8 0 0 1-3.7-6.7v-10.2a8 8 0 0 1 3.8-6.6z"/></clipPath><clipPath id="z" transform="translate(-83 -187)"><path d="M116 208.4a8 8 0 0 1 7.6 0l9 5.1a8 8 0 0 1 3.8 6.6v10.3a8 8 0 0 1-3.9 6.6l-8.9 5.2a8 8 0 0 1-7.6 0l-8.9-5.2a8 8 0 0 1-3.8-6.6v-10.3a8 8 0 0 1 3.8-6.6z"/></clipPath><clipPath id="B" transform="translate(38.2 -81.5)"><rect width="66.2" height="85.3" x="-17.8" y="101.8" rx="10.2"/></clipPath><clipPath id="D" transform="translate(-211.3 -81.5)"><rect width="66.2" height="85.3" x="231.6" y="101.8" rx="10.2"/></clipPath><clipPath id="G" transform="translate(-38.2 -57.3)"><path d="M87 78.1h3.2c3.4 0 5 0 6.6.3a17 17 0 0 1 4 1.3c1.5.7 2.8 1.6 5.6 3.6l5.9 4.2c2.7 2 4.1 3 5.7 3.6a18 18 0 0 0 4.3 1.4c1.7.3 3.4.3 6.8.3h77.6c7.9 0 14.3 6.4 14.3 14.3v59.8q0 7.4-.3 11.6c-.2 3-.7 5-1.6 7a17 17 0 0 1-7.6 7.5 18 18 0 0 1-6.9 1.6q-4.3.4-11.7.3H87.1q-7.4 0-11.7-.3c-3-.2-5-.7-7-1.6a17 17 0 0 1-7.5-7.6 18 18 0 0 1-1.6-6.9c-.3-3-.3-6.6-.3-11.6V106q0-7.4.3-11.6c.2-3 .7-5 1.6-7a17 17 0 0 1 7.6-7.5q2.6-1.4 6.9-1.6T87 78"/></clipPath><clipPath id="I" transform="translate(-23 -68)"><rect width="151.8" height="80.5" x="64.1" y="109.3" rx="12.3"/></clipPath><clipPath id="L" transform="translate(-48.4 -134.3)"><rect width="142.5" height="30.5" x="68.7" y="154.6" rx="7.6"/></clipPath><clipPath id="a"><path fill="#fff" d="M0 32.6C0 21.2 0 15.5 2.2 11a20 20 0 0 1 9-8.9C15.4 0 21.1 0 32.5 0h214.8c11.4 0 17.1 0 21.5 2.2a20 20 0 0 1 8.9 9c2.2 4.3 2.2 10 2.2 21.4v214.8c0 11.4 0 17.1-2.2 21.5a20 20 0 0 1-9 8.9c-4.3 2.2-10 2.2-21.4 2.2H32.6c-11.4 0-17.1 0-21.5-2.2a20 20 0 0 1-8.9-9C0 264.6 0 258.9 0 247.5z"/></clipPath><clipPath id="C"><path fill="#fff" d="M-33 111.7h60.4V178h-60.5z"/></clipPath><clipPath id="E"><path fill="#fff" d="M245 111.4h60.5v66.1H245z"/></clipPath><clipPath id="N"><rect width="142.5" height="30.5" x="68.7" y="154.6" fill="#fff" rx="7.6"/></clipPath><linearGradient id="b" x1="144.8" x2="144.8" y1="0" y2="280" gradientUnits="userSpaceOnUse"><stop stop-opacity="0"/><stop offset=".4"/><stop offset=".7"/><stop offset="1" stop-opacity="0"/></linearGradient><linearGradient id="H" x1="140" x2="140" y1="77.6" y2="195.4" gradientUnits="userSpaceOnUse"><stop stop-color="#e2e2e2"/><stop offset="1" stop-color="#e2e2e2" stop-opacity=".8"/></linearGradient><linearGradient id="J" x1="140" x2="140" y1="108.8" y2="190.3" gradientUnits="userSpaceOnUse"><stop stop-color="#fdfdfd" stop-opacity=".3"/><stop offset="1" stop-color="#fdfdfd"/></linearGradient><linearGradient id="K" x1="140" x2="140" y1="108.8" y2="190.3" gradientUnits="userSpaceOnUse"><stop stop-color="#e2e2e2"/><stop offset="1" stop-color="#e2e2e2" stop-opacity=".8"/></linearGradient><linearGradient id="P" x1="85.3" x2="85.3" y1="160.7" y2="178.5" gradientUnits="userSpaceOnUse"><stop stop-color="#779dff"/><stop offset="1" stop-color="#2d68ff"/></linearGradient><linearGradient id="Q" x1="102.7" x2="102.7" y1="118.1" y2="145.7" gradientUnits="userSpaceOnUse"><stop stop-color="#ebebeb"/><stop offset="1" stop-color="#c4c4c4"/></linearGradient><linearGradient id="R" x1="236.4" x2="230.7" y1="44.5" y2="58.2" gradientUnits="userSpaceOnUse"><stop stop-color="#f5f5f5"/><stop offset="1" stop-color="#cecece"/></linearGradient><linearGradient id="S" x1="49.3" x2="43.6" y1="152.1" y2="165.8" gradientUnits="userSpaceOnUse"><stop stop-color="#f5f5f5"/><stop offset="1" stop-color="#cecece"/></linearGradient><linearGradient id="T" x1="202" x2="200.5" y1="61.1" y2="64.5" gradientUnits="userSpaceOnUse"><stop stop-color="#f5f5f5"/><stop offset="1" stop-color="#cecece"/></linearGradient><linearGradient id="U" x1="191.8" x2="190.4" y1="203" y2="206.4" gradientUnits="userSpaceOnUse"><stop stop-color="#f5f5f5"/><stop offset="1" stop-color="#cecece"/></linearGradient><linearGradient id="V" x1="74.7" x2="73.3" y1="56.6" y2="60.1" gradientUnits="userSpaceOnUse"><stop stop-color="#f5f5f5"/><stop offset="1" stop-color="#cecece"/></linearGradient><linearGradient id="W" x1="91.2" x2="89.8" y1="205.5" y2="209" gradientUnits="userSpaceOnUse"><stop stop-color="#f5f5f5"/><stop offset="1" stop-color="#cecece"/></linearGradient><linearGradient id="X" x1="52.7" x2="49.8" y1="28.6" y2="35.5" gradientUnits="userSpaceOnUse"><stop stop-color="#f5f5f5"/><stop offset="1" stop-color="#cecece"/></linearGradient><linearGradient id="Y" x1="229.6" x2="226.7" y1="211.3" y2="218.1" gradientUnits="userSpaceOnUse"><stop stop-color="#f5f5f5"/><stop offset="1" stop-color="#cecece"/></linearGradient><linearGradient id="Z" x1="52.7" x2="49.8" y1="221.5" y2="228.3" gradientUnits="userSpaceOnUse"><stop stop-color="#f5f5f5"/><stop offset="1" stop-color="#cecece"/></linearGradient><filter id="e" width="73.8" height="76.5" x="62.6" y="-19.2" color-interpolation-filters="sRGB" filterUnits="userSpaceOnUse"><feFlood flood-opacity="0" result="BackgroundImageFix"/><feColorMatrix in="SourceAlpha" result="hardAlpha" values="0 0 0 0 0 0 0 0 0 0 0 0 0 0 0 0 0 0 127 0"/><feMorphology in="SourceAlpha" radius="2.5" result="effect1_dropShadow_211_4976"/><feOffset dy=".6"/><feGaussianBlur stdDeviation="2.5"/><feComposite in2="hardAlpha" operator="out"/><feColorMatrix values="0 0 0 0 0 0 0 0 0 0 0 0 0 0 0 0 0 0 0.05 0"/><feBlend in2="BackgroundImageFix" mode="multiply" result="effect1_dropShadow_211_4976"/><feBlend in="SourceGraphic" in2="effect1_dropShadow_211_4976" result="shape"/></filter><filter id="g" width="73.8" height="76.5" x="82.9" y="16.5" color-interpolation-filters="sRGB" filterUnits="userSpaceOnUse"><feFlood flood-opacity="0" result="BackgroundImageFix"/><feColorMatrix in="SourceAlpha" result="hardAlpha" values="0 0 0 0 0 0 0 0 0 0 0 0 0 0 0 0 0 0 127 0"/><feMorphology in="SourceAlpha" radius="2.5" result="effect1_dropShadow_211_4976"/><feOffset dy=".6"/><feGaussianBlur stdDeviation="2.5"/><feComposite in2="hardAlpha" operator="out"/><feColorMatrix values="0 0 0 0 0 0 0 0 0 0 0 0 0 0 0 0 0 0 0.05 0"/><feBlend in2="BackgroundImageFix" mode="multiply" result="effect1_dropShadow_211_4976"/><feBlend in="SourceGraphic" in2="effect1_dropShadow_211_4976" result="shape"/></filter><filter id="i" width="73.8" height="76.5" x="103.3" y="-19.2" color-interpolation-filters="sRGB" filterUnits="userSpaceOnUse"><feFlood flood-opacity="0" result="BackgroundImageFix"/><feColorMatrix in="SourceAlpha" result="hardAlpha" values="0 0 0 0 0 0 0 0 0 0 0 0 0 0 0 0 0 0 127 0"/><feMorphology in="SourceAlpha" radius="2.5" result="effect1_dropShadow_211_4976"/><feOffset dy=".6"/><feGaussianBlur stdDeviation="2.5"/><feComposite in2="hardAlpha" operator="out"/><feColorMatrix values="0 0 0 0 0 0 0 0 0 0 0 0 0 0 0 0 0 0 0.05 0"/><feBlend in2="BackgroundImageFix" mode="multiply" result="effect1_dropShadow_211_4976"/><feBlend in="SourceGraphic" in2="effect1_dropShadow_211_4976" result="shape"/></filter><filter id="k" width="73.8" height="76.5" x="103.3" y="52.1" color-interpolation-filters="sRGB" filterUnits="userSpaceOnUse"><feFlood flood-opacity="0" result="BackgroundImageFix"/><feColorMatrix in="SourceAlpha" result="hardAlpha" values="0 0 0 0 0 0 0 0 0 0 0 0 0 0 0 0 0 0 127 0"/><feMorphology in="SourceAlpha" radius="2.5" result="effect1_dropShadow_211_4976"/><feOffset dy=".6"/><feGaussianBlur stdDeviation="2.5"/><feComposite in2="hardAlpha" operator="out"/><feColorMatrix values="0 0 0 0 0 0 0 0 0 0 0 0 0 0 0 0 0 0 0.05 0"/><feBlend in2="BackgroundImageFix" mode="multiply" result="effect1_dropShadow_211_4976"/><feBlend in="SourceGraphic" in2="effect1_dropShadow_211_4976" result="shape"/></filter><filter id="m" width="73.8" height="76.5" x="144" y="-19.2" color-interpolation-filters="sRGB" filterUnits="userSpaceOnUse"><feFlood flood-opacity="0" result="BackgroundImageFix"/><feColorMatrix in="SourceAlpha" result="hardAlpha" values="0 0 0 0 0 0 0 0 0 0 0 0 0 0 0 0 0 0 127 0"/><feMorphology in="SourceAlpha" radius="2.5" result="effect1_dropShadow_211_4976"/><feOffset dy=".6"/><feGaussianBlur stdDeviation="2.5"/><feComposite in2="hardAlpha" operator="out"/><feColorMatrix values="0 0 0 0 0 0 0 0 0 0 0 0 0 0 0 0 0 0 0.05 0"/><feBlend in2="BackgroundImageFix" mode="multiply" result="effect1_dropShadow_211_4976"/><feBlend in="SourceGraphic" in2="effect1_dropShadow_211_4976" result="shape"/></filter><filter id="o" width="73.8" height="76.5" x="123.6" y="16.5" color-interpolation-filters="sRGB" filterUnits="userSpaceOnUse"><feFlood flood-opacity="0" result="BackgroundImageFix"/><feColorMatrix in="SourceAlpha" result="hardAlpha" values="0 0 0 0 0 0 0 0 0 0 0 0 0 0 0 0 0 0 127 0"/><feMorphology in="SourceAlpha" radius="2.5" result="effect1_dropShadow_211_4976"/><feOffset dy=".6"/><feGaussianBlur stdDeviation="2.5"/><feComposite in2="hardAlpha" operator="out"/><feColorMatrix values="0 0 0 0 0 0 0 0 0 0 0 0 0 0 0 0 0 0 0.05 0"/><feBlend in2="BackgroundImageFix" mode="multiply" result="effect1_dropShadow_211_4976"/><feBlend in="SourceGraphic" in2="effect1_dropShadow_211_4976" result="shape"/></filter><filter id="q" width="73.8" height="76.5" x="62.6" y="222.6" color-interpolation-filters="sRGB" filterUnits="userSpaceOnUse"><feFlood flood-opacity="0" result="BackgroundImageFix"/><feColorMatrix in="SourceAlpha" result="hardAlpha" values="0 0 0 0 0 0 0 0 0 0 0 0 0 0 0 0 0 0 127 0"/><feMorphology in="SourceAlpha" radius="2.5" result="effect1_dropShadow_211_4976"/><feOffset dy=".6"/><feGaussianBlur stdDeviation="2.5"/><feComposite in2="hardAlpha" operator="out"/><feColorMatrix values="0 0 0 0 0 0 0 0 0 0 0 0 0 0 0 0 0 0 0.05 0"/><feBlend in2="BackgroundImageFix" mode="multiply" result="effect1_dropShadow_211_4976"/><feBlend in="SourceGraphic" in2="effect1_dropShadow_211_4976" result="shape"/></filter><filter id="s" width="73.8" height="76.5" x="103.3" y="222.6" color-interpolation-filters="sRGB" filterUnits="userSpaceOnUse"><feFlood flood-opacity="0" result="BackgroundImageFix"/><feColorMatrix in="SourceAlpha" result="hardAlpha" values="0 0 0 0 0 0 0 0 0 0 0 0 0 0 0 0 0 0 127 0"/><feMorphology in="SourceAlpha" radius="2.5" result="effect1_dropShadow_211_4976"/><feOffset dy=".6"/><feGaussianBlur stdDeviation="2.5"/><feComposite in2="hardAlpha" operator="out"/><feColorMatrix values="0 0 0 0 0 0 0 0 0 0 0 0 0 0 0 0 0 0 0.05 0"/><feBlend in2="BackgroundImageFix" mode="multiply" result="effect1_dropShadow_211_4976"/><feBlend in="SourceGraphic" in2="effect1_dropShadow_211_4976" result="shape"/></filter><filter id="u" width="73.8" height="76.5" x="103.3" y="151.4" color-interpolation-filters="sRGB" filterUnits="userSpaceOnUse"><feFlood flood-opacity="0" result="BackgroundImageFix"/><feColorMatrix in="SourceAlpha" result="hardAlpha" values="0 0 0 0 0 0 0 0 0 0 0 0 0 0 0 0 0 0 127 0"/><feMorphology in="SourceAlpha" radius="2.5" result="effect1_dropShadow_211_4976"/><feOffset dy=".6"/><feGaussianBlur stdDeviation="2.5"/><feComposite in2="hardAlpha" operator="out"/><feColorMatrix values="0 0 0 0 0 0 0 0 0 0 0 0 0 0 0 0 0 0 0.05 0"/><feBlend in2="BackgroundImageFix" mode="multiply" result="effect1_dropShadow_211_4976"/><feBlend in="SourceGraphic" in2="effect1_dropShadow_211_4976" result="shape"/></filter><filter id="w" width="73.8" height="76.5" x="123.6" y="187" color-interpolation-filters="sRGB" filterUnits="userSpaceOnUse"><feFlood flood-opacity="0" result="BackgroundImageFix"/><feColorMatrix in="SourceAlpha" result="hardAlpha" values="0 0 0 0 0 0 0 0 0 0 0 0 0 0 0 0 0 0 127 0"/><feMorphology in="SourceAlpha" radius="2.5" result="effect1_dropShadow_211_4976"/><feOffset dy=".6"/><feGaussianBlur stdDeviation="2.5"/><feComposite in2="hardAlpha" operator="out"/><feColorMatrix values="0 0 0 0 0 0 0 0 0 0 0 0 0 0 0 0 0 0 0.05 0"/><feBlend in2="BackgroundImageFix" mode="multiply" result="effect1_dropShadow_211_4976"/><feBlend in="SourceGraphic" in2="effect1_dropShadow_211_4976" result="shape"/></filter><filter id="y" width="73.8" height="76.5" x="144" y="222.6" color-interpolation-filters="sRGB" filterUnits="userSpaceOnUse"><feFlood flood-opacity="0" result="BackgroundImageFix"/><feColorMatrix in="SourceAlpha" result="hardAlpha" values="0 0 0 0 0 0 0 0 0 0 0 0 0 0 0 0 0 0 127 0"/><feMorphology in="SourceAlpha" radius="2.5" result="effect1_dropShadow_211_4976"/><feOffset dy=".6"/><feGaussianBlur stdDeviation="2.5"/><feComposite in2="hardAlpha" operator="out"/><feColorMatrix values="0 0 0 0 0 0 0 0 0 0 0 0 0 0 0 0 0 0 0.05 0"/><feBlend in2="BackgroundImageFix" mode="multiply" result="effect1_dropShadow_211_4976"/><feBlend in="SourceGraphic" in2="effect1_dropShadow_211_4976" result="shape"/></filter><filter id="A" width="73.8" height="76.5" x="82.9" y="187" color-interpolation-filters="sRGB" filterUnits="userSpaceOnUse"><feFlood flood-opacity="0" result="BackgroundImageFix"/><feColorMatrix in="SourceAlpha" result="hardAlpha" values="0 0 0 0 0 0 0 0 0 0 0 0 0 0 0 0 0 0 127 0"/><feMorphology in="SourceAlpha" radius="2.5" result="effect1_dropShadow_211_4976"/><feOffset dy=".6"/><feGaussianBlur stdDeviation="2.5"/><feComposite in2="hardAlpha" operator="out"/><feColorMatrix values="0 0 0 0 0 0 0 0 0 0 0 0 0 0 0 0 0 0 0.05 0"/><feBlend in2="BackgroundImageFix" mode="multiply" result="effect1_dropShadow_211_4976"/><feBlend in="SourceGraphic" in2="effect1_dropShadow_211_4976" result="shape"/></filter><filter id="F" width="229.1" height="166.7" x="25.5" y="61.1" color-interpolation-filters="sRGB" filterUnits="userSpaceOnUse"><feFlood flood-opacity="0" result="BackgroundImageFix"/><feBlend in="SourceGraphic" in2="BackgroundImageFix" result="shape"/><feGaussianBlur result="effect1_foregroundBlur_211_4976" stdDeviation="20.4"/></filter><filter id="M" width="183.3" height="71.3" x="48.4" y="134.3" color-interpolation-filters="sRGB" filterUnits="userSpaceOnUse"><feFlood flood-opacity="0" result="BackgroundImageFix"/><feColorMatrix in="SourceAlpha" result="hardAlpha" values="0 0 0 0 0 0 0 0 0 0 0 0 0 0 0 0 0 0 127 0"/><feMorphology in="SourceAlpha" radius="10.2" result="effect1_dropShadow_211_4976"/><feOffset dy="5.1"/><feGaussianBlur stdDeviation="10.2"/><feComposite in2="hardAlpha" operator="out"/><feColorMatrix values="0 0 0 0 0 0 0 0 0 0 0 0 0 0 0 0 0 0 0.1 0"/><feBlend in2="BackgroundImageFix" mode="multiply" result="effect1_dropShadow_211_4976"/><feColorMatrix in="SourceAlpha" result="hardAlpha" values="0 0 0 0 0 0 0 0 0 0 0 0 0 0 0 0 0 0 127 0"/><feMorphology in="SourceAlpha" radius="5.1" result="effect2_dropShadow_211_4976"/><feOffset dy="10.2"/><feGaussianBlur stdDeviation="7.6"/><feComposite in2="hardAlpha" operator="out"/><feColorMatrix values="0 0 0 0 0 0 0 0 0 0 0 0 0 0 0 0 0 0 0.2 0"/><feBlend in2="effect1_dropShadow_211_4976" mode="multiply" result="effect2_dropShadow_211_4976"/><feBlend in="SourceGraphic" in2="effect2_dropShadow_211_4976" result="shape"/></filter><filter id="O" width="33.1" height="33.1" x="66.8" y="159.7" color-interpolation-filters="sRGB" filterUnits="userSpaceOnUse"><feFlood flood-opacity="0" result="BackgroundImageFix"/><feBlend in="SourceGraphic" in2="BackgroundImageFix" result="shape"/><feGaussianBlur result="effect1_foregroundBlur_211_4976" stdDeviation="6.4"/></filter></defs></svg>